<?xml version="1.0" encoding="utf-8" standalone="no"?>
<!DOCTYPE svg PUBLIC "-//W3C//DTD SVG 1.1//EN"
  "http://www.w3.org/Graphics/SVG/1.1/DTD/svg11.dtd">
<svg xmlns:xlink="http://www.w3.org/1999/xlink" width="744.012296pt" height="413.336875pt" viewBox="0 0 744.012296 413.336875" xmlns="http://www.w3.org/2000/svg" version="1.1">
 <metadata>
  <rdf:RDF xmlns:dc="http://purl.org/dc/elements/1.1/" xmlns:cc="http://creativecommons.org/ns#" xmlns:rdf="http://www.w3.org/1999/02/22-rdf-syntax-ns#">
   <cc:Work>
    <dc:type rdf:resource="http://purl.org/dc/dcmitype/StillImage"/>
    <dc:date>2025-03-02T21:23:05.395880</dc:date>
    <dc:format>image/svg+xml</dc:format>
    <dc:creator>
     <cc:Agent>
      <dc:title>Matplotlib v3.9.2, https://matplotlib.org/</dc:title>
     </cc:Agent>
    </dc:creator>
   </cc:Work>
  </rdf:RDF>
 </metadata>
 <defs>
  <style type="text/css">*{stroke-linejoin: round; stroke-linecap: butt}</style>
 </defs>
 <g id="figure_1">
  <g id="patch_1">
   <path d="M 0 413.336875 
L 744.012296 413.336875 
L 744.012296 0 
L 0 0 
z
" style="fill: #ffffff"/>
  </g>
  <g id="axes_1">
   <g id="patch_2">
    <path d="M 56.79375 360.136875 
L 726.39375 360.136875 
L 726.39375 27.496875 
L 56.79375 27.496875 
z
" style="fill: #ffffff"/>
   </g>
   <g id="PolyCollection_1">
    <defs>
     <path id="m652aebe90f" d="M 87.230114 -68.32 
L 87.230114 -99.335385 
L 121.463645 -99.335385 
L 121.463645 -68.32 
z
" style="stroke: #000000"/>
    </defs>
    <g clip-path="url(#p4e33a95272)">
     <use xlink:href="#m652aebe90f" x="0" y="413.336875" style="fill: #ff7f0e; stroke: #000000"/>
    </g>
   </g>
   <g id="PolyCollection_2">
    <path d="M 87.230114 345.016875 
L 87.230114 314.00149 
L 87.230114 314.00149 
L 87.230114 345.016875 
z
" clip-path="url(#p4e33a95272)" style="fill: url(#h7eb9af2219); stroke: #000000"/>
   </g>
   <g id="PolyCollection_3">
    <defs>
     <path id="mc2ea5b1456" d="M 121.463645 -68.32 
L 121.463645 -99.335385 
L 155.697176 -99.335385 
L 155.697176 -68.32 
z
" style="stroke: #000000"/>
    </defs>
    <g clip-path="url(#p4e33a95272)">
     <use xlink:href="#mc2ea5b1456" x="0" y="413.336875" style="fill: #ffbb78; stroke: #000000"/>
    </g>
   </g>
   <g id="PolyCollection_4">
    <path d="M 121.463645 345.016875 
L 121.463645 314.00149 
L 121.463645 314.00149 
L 121.463645 345.016875 
z
" clip-path="url(#p4e33a95272)" style="fill: url(#h7eb9af2219); stroke: #000000"/>
   </g>
   <g id="PolyCollection_5">
    <defs>
     <path id="m4de0faf2ea" d="M 87.230114 -107.089231 
L 87.230114 -138.104615 
L 146.253443 -138.104615 
L 146.253443 -107.089231 
z
" style="stroke: #000000"/>
    </defs>
    <g clip-path="url(#p4e33a95272)">
     <use xlink:href="#m4de0faf2ea" x="0" y="413.336875" style="fill: #9467bd; stroke: #000000"/>
    </g>
   </g>
   <g id="PolyCollection_6">
    <path d="M 87.230114 306.247644 
L 87.230114 275.23226 
L 87.230114 275.23226 
L 87.230114 306.247644 
z
" clip-path="url(#p4e33a95272)" style="fill: url(#h7eb9af2219); stroke: #000000"/>
   </g>
   <g id="PolyCollection_7">
    <defs>
     <path id="m160a8adb6a" d="M 146.253443 -107.089231 
L 146.253443 -138.104615 
L 205.276773 -138.104615 
L 205.276773 -107.089231 
z
" style="stroke: #000000"/>
    </defs>
    <g clip-path="url(#p4e33a95272)">
     <use xlink:href="#m160a8adb6a" x="0" y="413.336875" style="fill: #8c564b; stroke: #000000"/>
    </g>
   </g>
   <g id="PolyCollection_8">
    <path d="M 146.253443 306.247644 
L 146.253443 275.23226 
L 146.253443 275.23226 
L 146.253443 306.247644 
z
" clip-path="url(#p4e33a95272)" style="fill: url(#h7eb9af2219); stroke: #000000"/>
   </g>
   <g id="PolyCollection_9">
    <defs>
     <path id="m49019bdb08" d="M 205.276773 -107.089231 
L 205.276773 -138.104615 
L 253.675903 -138.104615 
L 253.675903 -107.089231 
z
" style="stroke: #000000"/>
    </defs>
    <g clip-path="url(#p4e33a95272)">
     <use xlink:href="#m49019bdb08" x="0" y="413.336875" style="fill: #2ca02c; stroke: #000000"/>
    </g>
   </g>
   <g id="PolyCollection_10">
    <path d="M 205.276773 306.247644 
L 205.276773 275.23226 
L 205.276773 275.23226 
L 205.276773 306.247644 
z
" clip-path="url(#p4e33a95272)" style="fill: url(#h7eb9af2219); stroke: #000000"/>
   </g>
   <g id="PolyCollection_11">
    <defs>
     <path id="m06f61848bc" d="M 253.675903 -107.089231 
L 253.675903 -138.104615 
L 279.646168 -138.104615 
L 279.646168 -107.089231 
z
" style="stroke: #000000"/>
    </defs>
    <g clip-path="url(#p4e33a95272)">
     <use xlink:href="#m06f61848bc" x="0" y="413.336875" style="fill: #aec7e8; stroke: #000000"/>
    </g>
   </g>
   <g id="PolyCollection_12">
    <path d="M 253.675903 306.247644 
L 253.675903 275.23226 
L 253.675903 275.23226 
L 253.675903 306.247644 
z
" clip-path="url(#p4e33a95272)" style="fill: url(#h7eb9af2219); stroke: #000000"/>
   </g>
   <g id="PolyCollection_13">
    <defs>
     <path id="m4f94f2f085" d="M 279.646168 -107.089231 
L 279.646168 -138.104615 
L 420.121693 -138.104615 
L 420.121693 -107.089231 
z
" style="stroke: #000000"/>
    </defs>
    <g clip-path="url(#p4e33a95272)">
     <use xlink:href="#m4f94f2f085" x="0" y="413.336875" style="fill: #c49c94; stroke: #000000"/>
    </g>
   </g>
   <g id="PolyCollection_14">
    <path d="M 279.646168 306.247644 
L 279.646168 275.23226 
L 279.646168 275.23226 
L 279.646168 306.247644 
z
" clip-path="url(#p4e33a95272)" style="fill: url(#h7eb9af2219); stroke: #000000"/>
   </g>
   <g id="PolyCollection_15">
    <defs>
     <path id="m49368e7acb" d="M 420.121693 -107.089231 
L 420.121693 -138.104615 
L 477.177578 -138.104615 
L 477.177578 -107.089231 
z
" style="stroke: #000000"/>
    </defs>
    <g clip-path="url(#p4e33a95272)">
     <use xlink:href="#m49368e7acb" x="0" y="413.336875" style="fill: #98df8a; stroke: #000000"/>
    </g>
   </g>
   <g id="PolyCollection_16">
    <path d="M 420.121693 306.247644 
L 420.121693 275.23226 
L 420.121693 275.23226 
L 420.121693 306.247644 
z
" clip-path="url(#p4e33a95272)" style="fill: url(#h7eb9af2219); stroke: #000000"/>
   </g>
   <g id="PolyCollection_17">
    <defs>
     <path id="mac90c00bc6" d="M 87.230114 -145.858462 
L 87.230114 -176.873846 
L 126.579 -176.873846 
L 126.579 -145.858462 
z
" style="stroke: #000000"/>
    </defs>
    <g clip-path="url(#p4e33a95272)">
     <use xlink:href="#mac90c00bc6" x="0" y="413.336875" style="fill: #1f77b4; stroke: #000000"/>
    </g>
   </g>
   <g id="PolyCollection_18">
    <path d="M 87.230114 267.478413 
L 87.230114 236.463029 
L 87.230114 236.463029 
L 87.230114 267.478413 
z
" clip-path="url(#p4e33a95272)" style="fill: url(#h7eb9af2219); stroke: #000000"/>
   </g>
   <g id="PolyCollection_19">
    <defs>
     <path id="m03bec48cbb" d="M 126.579 -145.858462 
L 126.579 -176.873846 
L 185.60233 -176.873846 
L 185.60233 -145.858462 
z
" style="stroke: #000000"/>
    </defs>
    <g clip-path="url(#p4e33a95272)">
     <use xlink:href="#m03bec48cbb" x="0" y="413.336875" style="fill: #aec7e8; stroke: #000000"/>
    </g>
   </g>
   <g id="PolyCollection_20">
    <path d="M 126.579 267.478413 
L 126.579 236.463029 
L 126.579 236.463029 
L 126.579 267.478413 
z
" clip-path="url(#p4e33a95272)" style="fill: url(#h7eb9af2219); stroke: #000000"/>
   </g>
   <g id="PolyCollection_21">
    <defs>
     <path id="me01f2aa2c4" d="M 185.60233 -145.858462 
L 185.60233 -176.873846 
L 242.658215 -176.873846 
L 242.658215 -145.858462 
z
" style="stroke: #000000"/>
    </defs>
    <g clip-path="url(#p4e33a95272)">
     <use xlink:href="#me01f2aa2c4" x="0" y="413.336875" style="fill: #d62728; stroke: #000000"/>
    </g>
   </g>
   <g id="PolyCollection_22">
    <path d="M 185.60233 267.478413 
L 185.60233 236.463029 
L 185.60233 236.463029 
L 185.60233 267.478413 
z
" clip-path="url(#p4e33a95272)" style="fill: url(#h7eb9af2219); stroke: #000000"/>
   </g>
   <g id="PolyCollection_23">
    <defs>
     <path id="m010de312e0" d="M 242.658215 -145.858462 
L 242.658215 -176.873846 
L 291.450834 -176.873846 
L 291.450834 -145.858462 
z
" style="stroke: #000000"/>
    </defs>
    <g clip-path="url(#p4e33a95272)">
     <use xlink:href="#m010de312e0" x="0" y="413.336875" style="fill: #d62728; stroke: #000000"/>
    </g>
   </g>
   <g id="PolyCollection_24">
    <path d="M 242.658215 267.478413 
L 242.658215 236.463029 
L 242.658215 236.463029 
L 242.658215 267.478413 
z
" clip-path="url(#p4e33a95272)" style="fill: url(#h7eb9af2219); stroke: #000000"/>
   </g>
   <g id="PolyCollection_25">
    <defs>
     <path id="m470c1d8f3f" d="M 291.450834 -145.858462 
L 291.450834 -176.873846 
L 362.27883 -176.873846 
L 362.27883 -145.858462 
z
" style="stroke: #000000"/>
    </defs>
    <g clip-path="url(#p4e33a95272)">
     <use xlink:href="#m470c1d8f3f" x="0" y="413.336875" style="fill: #9467bd; stroke: #000000"/>
    </g>
   </g>
   <g id="PolyCollection_26">
    <path d="M 291.450834 267.478413 
L 291.450834 236.463029 
L 291.450834 236.463029 
L 291.450834 267.478413 
z
" clip-path="url(#p4e33a95272)" style="fill: url(#h7eb9af2219); stroke: #000000"/>
   </g>
   <g id="PolyCollection_27">
    <defs>
     <path id="m85b0aa8cac" d="M 362.27883 -145.858462 
L 362.27883 -176.873846 
L 433.106825 -176.873846 
L 433.106825 -145.858462 
z
" style="stroke: #000000"/>
    </defs>
    <g clip-path="url(#p4e33a95272)">
     <use xlink:href="#m85b0aa8cac" x="0" y="413.336875" style="fill: #8c564b; stroke: #000000"/>
    </g>
   </g>
   <g id="PolyCollection_28">
    <path d="M 362.27883 267.478413 
L 362.27883 236.463029 
L 362.27883 236.463029 
L 362.27883 267.478413 
z
" clip-path="url(#p4e33a95272)" style="fill: url(#h7eb9af2219); stroke: #000000"/>
   </g>
   <g id="PolyCollection_29">
    <defs>
     <path id="m45a808bffc" d="M 433.106825 -145.858462 
L 433.106825 -176.873846 
L 521.248331 -176.873846 
L 521.248331 -145.858462 
z
" style="stroke: #000000"/>
    </defs>
    <g clip-path="url(#p4e33a95272)">
     <use xlink:href="#m45a808bffc" x="0" y="413.336875" style="fill: #c49c94; stroke: #000000"/>
    </g>
   </g>
   <g id="PolyCollection_30">
    <path d="M 433.106825 267.478413 
L 433.106825 236.463029 
L 433.106825 236.463029 
L 433.106825 267.478413 
z
" clip-path="url(#p4e33a95272)" style="fill: url(#h7eb9af2219); stroke: #000000"/>
   </g>
   <g id="PolyCollection_31">
    <defs>
     <path id="m7a2426bd49" d="M 521.248331 -145.858462 
L 521.248331 -176.873846 
L 569.647461 -176.873846 
L 569.647461 -145.858462 
z
" style="stroke: #000000"/>
    </defs>
    <g clip-path="url(#p4e33a95272)">
     <use xlink:href="#m7a2426bd49" x="0" y="413.336875" style="fill: #98df8a; stroke: #000000"/>
    </g>
   </g>
   <g id="PolyCollection_32">
    <path d="M 521.248331 267.478413 
L 521.248331 236.463029 
L 521.248331 236.463029 
L 521.248331 267.478413 
z
" clip-path="url(#p4e33a95272)" style="fill: url(#h7eb9af2219); stroke: #000000"/>
   </g>
   <g id="PolyCollection_33">
    <defs>
     <path id="m2a6cb6d101" d="M 87.230114 -184.627692 
L 87.230114 -215.643077 
L 183.634885 -215.643077 
L 183.634885 -184.627692 
z
" style="stroke: #000000"/>
    </defs>
    <g clip-path="url(#p4e33a95272)">
     <use xlink:href="#m2a6cb6d101" x="0" y="413.336875" style="fill: #c5b0d5; stroke: #000000"/>
    </g>
   </g>
   <g id="PolyCollection_34">
    <path d="M 87.230114 228.709183 
L 87.230114 197.693798 
L 87.230114 197.693798 
L 87.230114 228.709183 
z
" clip-path="url(#p4e33a95272)" style="fill: url(#h7eb9af2219); stroke: #000000"/>
   </g>
   <g id="PolyCollection_35">
    <defs>
     <path id="m7bae2f76ee" d="M 183.634885 -184.627692 
L 183.634885 -215.643077 
L 224.951216 -215.643077 
L 224.951216 -184.627692 
z
" style="stroke: #000000"/>
    </defs>
    <g clip-path="url(#p4e33a95272)">
     <use xlink:href="#m7bae2f76ee" x="0" y="413.336875" style="fill: #ff7f0e; stroke: #000000"/>
    </g>
   </g>
   <g id="PolyCollection_36">
    <path d="M 183.634885 228.709183 
L 183.634885 197.693798 
L 183.634885 197.693798 
L 183.634885 228.709183 
z
" clip-path="url(#p4e33a95272)" style="fill: url(#h7eb9af2219); stroke: #000000"/>
   </g>
   <g id="PolyCollection_37">
    <defs>
     <path id="mc81d965ecf" d="M 253.675903 -184.627692 
L 253.675903 -215.643077 
L 279.252679 -215.643077 
L 279.252679 -184.627692 
z
" style="stroke: #000000"/>
    </defs>
    <g clip-path="url(#p4e33a95272)">
     <use xlink:href="#mc81d965ecf" x="0" y="413.336875" style="fill: #2ca02c; stroke: #000000"/>
    </g>
   </g>
   <g id="PolyCollection_38">
    <path d="M 253.675903 228.709183 
L 253.675903 197.693798 
L 253.675903 197.693798 
L 253.675903 228.709183 
z
" clip-path="url(#p4e33a95272)" style="fill: url(#h7eb9af2219); stroke: #000000"/>
   </g>
   <g id="PolyCollection_39">
    <defs>
     <path id="mb7d6d2d055" d="M 279.252679 -184.627692 
L 279.252679 -215.643077 
L 375.657451 -215.643077 
L 375.657451 -184.627692 
z
" style="stroke: #000000"/>
    </defs>
    <g clip-path="url(#p4e33a95272)">
     <use xlink:href="#mb7d6d2d055" x="0" y="413.336875" style="fill: #ff9896; stroke: #000000"/>
    </g>
   </g>
   <g id="PolyCollection_40">
    <path d="M 279.252679 228.709183 
L 279.252679 197.693798 
L 279.252679 197.693798 
L 279.252679 228.709183 
z
" clip-path="url(#p4e33a95272)" style="fill: url(#h7eb9af2219); stroke: #000000"/>
   </g>
   <g id="PolyCollection_41">
    <defs>
     <path id="md58203d5c3" d="M 375.657451 -184.627692 
L 375.657451 -215.643077 
L 434.680781 -215.643077 
L 434.680781 -184.627692 
z
" style="stroke: #000000"/>
    </defs>
    <g clip-path="url(#p4e33a95272)">
     <use xlink:href="#md58203d5c3" x="0" y="413.336875" style="fill: #1f77b4; stroke: #000000"/>
    </g>
   </g>
   <g id="PolyCollection_42">
    <path d="M 375.657451 228.709183 
L 375.657451 197.693798 
L 375.657451 197.693798 
L 375.657451 228.709183 
z
" clip-path="url(#p4e33a95272)" style="fill: url(#h7eb9af2219); stroke: #000000"/>
   </g>
   <g id="PolyCollection_43">
    <defs>
     <path id="m1e8aa52801" d="M 434.680781 -184.627692 
L 434.680781 -215.643077 
L 491.736666 -215.643077 
L 491.736666 -184.627692 
z
" style="stroke: #000000"/>
    </defs>
    <g clip-path="url(#p4e33a95272)">
     <use xlink:href="#m1e8aa52801" x="0" y="413.336875" style="fill: #ffbb78; stroke: #000000"/>
    </g>
   </g>
   <g id="PolyCollection_44">
    <path d="M 434.680781 228.709183 
L 434.680781 197.693798 
L 434.680781 197.693798 
L 434.680781 228.709183 
z
" clip-path="url(#p4e33a95272)" style="fill: url(#h7eb9af2219); stroke: #000000"/>
   </g>
   <g id="PolyCollection_45">
    <defs>
     <path id="mcd3a2e3158" d="M 640.868945 -184.627692 
L 640.868945 -215.643077 
L 688.087609 -215.643077 
L 688.087609 -184.627692 
z
" style="stroke: #000000"/>
    </defs>
    <g clip-path="url(#p4e33a95272)">
     <use xlink:href="#mcd3a2e3158" x="0" y="413.336875" style="fill: #98df8a; stroke: #000000"/>
    </g>
   </g>
   <g id="PolyCollection_46">
    <path d="M 640.868945 228.709183 
L 640.868945 197.693798 
L 640.868945 197.693798 
L 640.868945 228.709183 
z
" clip-path="url(#p4e33a95272)" style="fill: url(#h7eb9af2219); stroke: #000000"/>
   </g>
   <g id="PolyCollection_47">
    <defs>
     <path id="md0fa7f6955" d="M 155.697176 -223.396923 
L 155.697176 -254.412308 
L 223.770749 -254.412308 
L 223.770749 -223.396923 
z
" style="stroke: #000000"/>
    </defs>
    <g clip-path="url(#p4e33a95272)">
     <use xlink:href="#md0fa7f6955" x="0" y="413.336875" style="fill: #ffbb78; stroke: #000000"/>
    </g>
   </g>
   <g id="PolyCollection_48">
    <path d="M 155.697176 189.939952 
L 155.697176 158.924567 
L 155.697176 158.924567 
L 155.697176 189.939952 
z
" clip-path="url(#p4e33a95272)" style="fill: url(#h7eb9af2219); stroke: #000000"/>
   </g>
   <g id="PolyCollection_49">
    <defs>
     <path id="m629fc3dbbc" d="M 224.951216 -223.396923 
L 224.951216 -254.412308 
L 264.300102 -254.412308 
L 264.300102 -223.396923 
z
" style="stroke: #000000"/>
    </defs>
    <g clip-path="url(#p4e33a95272)">
     <use xlink:href="#m629fc3dbbc" x="0" y="413.336875" style="fill: #ff7f0e; stroke: #000000"/>
    </g>
   </g>
   <g id="PolyCollection_50">
    <path d="M 224.951216 189.939952 
L 224.951216 158.924567 
L 224.951216 158.924567 
L 224.951216 189.939952 
z
" clip-path="url(#p4e33a95272)" style="fill: url(#h7eb9af2219); stroke: #000000"/>
   </g>
   <g id="PolyCollection_51">
    <defs>
     <path id="mc78390eaff" d="M 271.776391 -223.396923 
L 271.776391 -254.412308 
L 328.832276 -254.412308 
L 328.832276 -223.396923 
z
" style="stroke: #000000"/>
    </defs>
    <g clip-path="url(#p4e33a95272)">
     <use xlink:href="#mc78390eaff" x="0" y="413.336875" style="fill: #c5b0d5; stroke: #000000"/>
    </g>
   </g>
   <g id="PolyCollection_52">
    <path d="M 271.776391 189.939952 
L 271.776391 158.924567 
L 271.776391 158.924567 
L 271.776391 189.939952 
z
" clip-path="url(#p4e33a95272)" style="fill: url(#h7eb9af2219); stroke: #000000"/>
   </g>
   <g id="PolyCollection_53">
    <defs>
     <path id="m26113d76f1" d="M 328.832276 -223.396923 
L 328.832276 -254.412308 
L 385.888161 -254.412308 
L 385.888161 -223.396923 
z
" style="stroke: #000000"/>
    </defs>
    <g clip-path="url(#p4e33a95272)">
     <use xlink:href="#m26113d76f1" x="0" y="413.336875" style="fill: #d62728; stroke: #000000"/>
    </g>
   </g>
   <g id="PolyCollection_54">
    <path d="M 328.832276 189.939952 
L 328.832276 158.924567 
L 328.832276 158.924567 
L 328.832276 189.939952 
z
" clip-path="url(#p4e33a95272)" style="fill: url(#h7eb9af2219); stroke: #000000"/>
   </g>
   <g id="PolyCollection_55">
    <defs>
     <path id="m67c744ffe2" d="M 385.888161 -223.396923 
L 385.888161 -254.412308 
L 433.106825 -254.412308 
L 433.106825 -223.396923 
z
" style="stroke: #000000"/>
    </defs>
    <g clip-path="url(#p4e33a95272)">
     <use xlink:href="#m67c744ffe2" x="0" y="413.336875" style="fill: #aec7e8; stroke: #000000"/>
    </g>
   </g>
   <g id="PolyCollection_56">
    <path d="M 385.888161 189.939952 
L 385.888161 158.924567 
L 385.888161 158.924567 
L 385.888161 189.939952 
z
" clip-path="url(#p4e33a95272)" style="fill: url(#h7eb9af2219); stroke: #000000"/>
   </g>
   <g id="PolyCollection_57">
    <defs>
     <path id="med8ac98ce0" d="M 433.106825 -223.396923 
L 433.106825 -254.412308 
L 448.84638 -254.412308 
L 448.84638 -223.396923 
z
" style="stroke: #000000"/>
    </defs>
    <g clip-path="url(#p4e33a95272)">
     <use xlink:href="#med8ac98ce0" x="0" y="413.336875" style="fill: #9467bd; stroke: #000000"/>
    </g>
   </g>
   <g id="PolyCollection_58">
    <path d="M 433.106825 189.939952 
L 433.106825 158.924567 
L 433.106825 158.924567 
L 433.106825 189.939952 
z
" clip-path="url(#p4e33a95272)" style="fill: url(#h7eb9af2219); stroke: #000000"/>
   </g>
   <g id="PolyCollection_59">
    <defs>
     <path id="mab547d265d" d="M 463.798957 -223.396923 
L 463.798957 -254.412308 
L 520.854842 -254.412308 
L 520.854842 -223.396923 
z
" style="stroke: #000000"/>
    </defs>
    <g clip-path="url(#p4e33a95272)">
     <use xlink:href="#mab547d265d" x="0" y="413.336875" style="fill: #ff9896; stroke: #000000"/>
    </g>
   </g>
   <g id="PolyCollection_60">
    <path d="M 463.798957 189.939952 
L 463.798957 158.924567 
L 463.798957 158.924567 
L 463.798957 189.939952 
z
" clip-path="url(#p4e33a95272)" style="fill: url(#h7eb9af2219); stroke: #000000"/>
   </g>
   <g id="PolyCollection_61">
    <defs>
     <path id="md740147e30" d="M 520.854842 -223.396923 
L 520.854842 -254.412308 
L 536.594396 -254.412308 
L 536.594396 -223.396923 
z
" style="stroke: #000000"/>
    </defs>
    <g clip-path="url(#p4e33a95272)">
     <use xlink:href="#md740147e30" x="0" y="413.336875" style="fill: #8c564b; stroke: #000000"/>
    </g>
   </g>
   <g id="PolyCollection_62">
    <path d="M 520.854842 189.939952 
L 520.854842 158.924567 
L 520.854842 158.924567 
L 520.854842 189.939952 
z
" clip-path="url(#p4e33a95272)" style="fill: url(#h7eb9af2219); stroke: #000000"/>
   </g>
   <g id="PolyCollection_63">
    <defs>
     <path id="mb057e9b454" d="M 536.594396 -223.396923 
L 536.594396 -254.412308 
L 593.650282 -254.412308 
L 593.650282 -223.396923 
z
" style="stroke: #000000"/>
    </defs>
    <g clip-path="url(#p4e33a95272)">
     <use xlink:href="#mb057e9b454" x="0" y="413.336875" style="fill: #c49c94; stroke: #000000"/>
    </g>
   </g>
   <g id="PolyCollection_64">
    <path d="M 536.594396 189.939952 
L 536.594396 158.924567 
L 536.594396 158.924567 
L 536.594396 189.939952 
z
" clip-path="url(#p4e33a95272)" style="fill: url(#h7eb9af2219); stroke: #000000"/>
   </g>
   <g id="PolyCollection_65">
    <defs>
     <path id="me97d7bee9a" d="M 593.650282 -223.396923 
L 593.650282 -254.412308 
L 640.868945 -254.412308 
L 640.868945 -223.396923 
z
" style="stroke: #000000"/>
    </defs>
    <g clip-path="url(#p4e33a95272)">
     <use xlink:href="#me97d7bee9a" x="0" y="413.336875" style="fill: #98df8a; stroke: #000000"/>
    </g>
   </g>
   <g id="PolyCollection_66">
    <path d="M 593.650282 189.939952 
L 593.650282 158.924567 
L 593.650282 158.924567 
L 593.650282 189.939952 
z
" clip-path="url(#p4e33a95272)" style="fill: url(#h7eb9af2219); stroke: #000000"/>
   </g>
   <g id="PolyCollection_67">
    <defs>
     <path id="m6a120002b1" d="M 640.868945 -223.396923 
L 640.868945 -254.412308 
L 695.957386 -254.412308 
L 695.957386 -223.396923 
z
" style="stroke: #000000"/>
    </defs>
    <g clip-path="url(#p4e33a95272)">
     <use xlink:href="#m6a120002b1" x="0" y="413.336875" style="fill: #d62728; stroke: #000000"/>
    </g>
   </g>
   <g id="PolyCollection_68">
    <path d="M 640.868945 189.939952 
L 640.868945 158.924567 
L 640.868945 158.924567 
L 640.868945 189.939952 
z
" clip-path="url(#p4e33a95272)" style="fill: url(#h7eb9af2219); stroke: #000000"/>
   </g>
   <g id="PolyCollection_69">
    <defs>
     <path id="md8e537d7ef" d="M 183.634885 -262.166154 
L 183.634885 -293.181538 
L 271.776391 -293.181538 
L 271.776391 -262.166154 
z
" style="stroke: #000000"/>
    </defs>
    <g clip-path="url(#p4e33a95272)">
     <use xlink:href="#md8e537d7ef" x="0" y="413.336875" style="fill: #c5b0d5; stroke: #000000"/>
    </g>
   </g>
   <g id="PolyCollection_70">
    <path d="M 183.634885 151.170721 
L 183.634885 120.155337 
L 183.634885 120.155337 
L 183.634885 151.170721 
z
" clip-path="url(#p4e33a95272)" style="fill: url(#h7eb9af2219); stroke: #000000"/>
   </g>
   <g id="PolyCollection_71">
    <defs>
     <path id="mec18588638" d="M 279.252679 -262.166154 
L 279.252679 -293.181538 
L 312.699233 -293.181538 
L 312.699233 -262.166154 
z
" style="stroke: #000000"/>
    </defs>
    <g clip-path="url(#p4e33a95272)">
     <use xlink:href="#mec18588638" x="0" y="413.336875" style="fill: #2ca02c; stroke: #000000"/>
    </g>
   </g>
   <g id="PolyCollection_72">
    <path d="M 279.252679 151.170721 
L 279.252679 120.155337 
L 279.252679 120.155337 
L 279.252679 151.170721 
z
" clip-path="url(#p4e33a95272)" style="fill: url(#h7eb9af2219); stroke: #000000"/>
   </g>
   <g id="PolyCollection_73">
    <defs>
     <path id="m6c554d041a" d="M 312.699233 -262.166154 
L 312.699233 -293.181538 
L 350.080675 -293.181538 
L 350.080675 -262.166154 
z
" style="stroke: #000000"/>
    </defs>
    <g clip-path="url(#p4e33a95272)">
     <use xlink:href="#m6c554d041a" x="0" y="413.336875" style="fill: #aec7e8; stroke: #000000"/>
    </g>
   </g>
   <g id="PolyCollection_74">
    <path d="M 312.699233 151.170721 
L 312.699233 120.155337 
L 312.699233 120.155337 
L 312.699233 151.170721 
z
" clip-path="url(#p4e33a95272)" style="fill: url(#h7eb9af2219); stroke: #000000"/>
   </g>
   <g id="PolyCollection_75">
    <defs>
     <path id="mec63b9c52c" d="M 375.657451 -262.166154 
L 375.657451 -293.181538 
L 463.798957 -293.181538 
L 463.798957 -262.166154 
z
" style="stroke: #000000"/>
    </defs>
    <g clip-path="url(#p4e33a95272)">
     <use xlink:href="#mec63b9c52c" x="0" y="413.336875" style="fill: #ff9896; stroke: #000000"/>
    </g>
   </g>
   <g id="PolyCollection_76">
    <path d="M 375.657451 151.170721 
L 375.657451 120.155337 
L 375.657451 120.155337 
L 375.657451 151.170721 
z
" clip-path="url(#p4e33a95272)" style="fill: url(#h7eb9af2219); stroke: #000000"/>
   </g>
   <g id="PolyCollection_77">
    <defs>
     <path id="m02d412f052" d="M 463.798957 -262.166154 
L 463.798957 -293.181538 
L 522.822286 -293.181538 
L 522.822286 -262.166154 
z
" style="stroke: #000000"/>
    </defs>
    <g clip-path="url(#p4e33a95272)">
     <use xlink:href="#m02d412f052" x="0" y="413.336875" style="fill: #9467bd; stroke: #000000"/>
    </g>
   </g>
   <g id="PolyCollection_78">
    <path d="M 463.798957 151.170721 
L 463.798957 120.155337 
L 463.798957 120.155337 
L 463.798957 151.170721 
z
" clip-path="url(#p4e33a95272)" style="fill: url(#h7eb9af2219); stroke: #000000"/>
   </g>
   <g id="PolyCollection_79">
    <defs>
     <path id="m59a5703344" d="M 522.822286 -262.166154 
L 522.822286 -293.181538 
L 589.715393 -293.181538 
L 589.715393 -262.166154 
z
" style="stroke: #000000"/>
    </defs>
    <g clip-path="url(#p4e33a95272)">
     <use xlink:href="#m59a5703344" x="0" y="413.336875" style="fill: #ffbb78; stroke: #000000"/>
    </g>
   </g>
   <g id="PolyCollection_80">
    <path d="M 522.822286 151.170721 
L 522.822286 120.155337 
L 522.822286 120.155337 
L 522.822286 151.170721 
z
" clip-path="url(#p4e33a95272)" style="fill: url(#h7eb9af2219); stroke: #000000"/>
   </g>
   <g id="PolyCollection_81">
    <defs>
     <path id="mabafc74c22" d="M 589.715393 -262.166154 
L 589.715393 -293.181538 
L 648.738723 -293.181538 
L 648.738723 -262.166154 
z
" style="stroke: #000000"/>
    </defs>
    <g clip-path="url(#p4e33a95272)">
     <use xlink:href="#mabafc74c22" x="0" y="413.336875" style="fill: #8c564b; stroke: #000000"/>
    </g>
   </g>
   <g id="PolyCollection_82">
    <path d="M 589.715393 151.170721 
L 589.715393 120.155337 
L 589.715393 120.155337 
L 589.715393 151.170721 
z
" clip-path="url(#p4e33a95272)" style="fill: url(#h7eb9af2219); stroke: #000000"/>
   </g>
   <g id="PolyCollection_83">
    <defs>
     <path id="md8965ce457" d="M 126.579 -300.935385 
L 126.579 -331.950769 
L 174.97813 -331.950769 
L 174.97813 -300.935385 
z
" style="stroke: #000000"/>
    </defs>
    <g clip-path="url(#p4e33a95272)">
     <use xlink:href="#md8965ce457" x="0" y="413.336875" style="fill: #1f77b4; stroke: #000000"/>
    </g>
   </g>
   <g id="PolyCollection_84">
    <path d="M 126.579 112.40149 
L 126.579 81.386106 
L 126.579 81.386106 
L 126.579 112.40149 
z
" clip-path="url(#p4e33a95272)" style="fill: url(#h7eb9af2219); stroke: #000000"/>
   </g>
   <g id="PolyCollection_85">
    <defs>
     <path id="m709f584d26" d="M 328.832276 -300.935385 
L 328.832276 -331.950769 
L 387.855606 -331.950769 
L 387.855606 -300.935385 
z
" style="stroke: #000000"/>
    </defs>
    <g clip-path="url(#p4e33a95272)">
     <use xlink:href="#m709f584d26" x="0" y="413.336875" style="fill: #c5b0d5; stroke: #000000"/>
    </g>
   </g>
   <g id="PolyCollection_86">
    <path d="M 328.832276 112.40149 
L 328.832276 81.386106 
L 328.832276 81.386106 
L 328.832276 112.40149 
z
" clip-path="url(#p4e33a95272)" style="fill: url(#h7eb9af2219); stroke: #000000"/>
   </g>
   <g id="PolyCollection_87">
    <defs>
     <path id="m5dc44d23af" d="M 520.854842 -300.935385 
L 520.854842 -331.950769 
L 579.878171 -331.950769 
L 579.878171 -300.935385 
z
" style="stroke: #000000"/>
    </defs>
    <g clip-path="url(#p4e33a95272)">
     <use xlink:href="#m5dc44d23af" x="0" y="413.336875" style="fill: #ff9896; stroke: #000000"/>
    </g>
   </g>
   <g id="PolyCollection_88">
    <path d="M 520.854842 112.40149 
L 520.854842 81.386106 
L 520.854842 81.386106 
L 520.854842 112.40149 
z
" clip-path="url(#p4e33a95272)" style="fill: url(#h7eb9af2219); stroke: #000000"/>
   </g>
   <g id="PolyCollection_89">
    <defs>
     <path id="m4c2d7f8310" d="M 264.300102 -339.704615 
L 264.300102 -370.72 
L 329.225765 -370.72 
L 329.225765 -339.704615 
z
" style="stroke: #000000"/>
    </defs>
    <g clip-path="url(#p4e33a95272)">
     <use xlink:href="#m4c2d7f8310" x="0" y="413.336875" style="fill: #ff7f0e; stroke: #000000"/>
    </g>
   </g>
   <g id="PolyCollection_90">
    <path d="M 264.300102 73.63226 
L 264.300102 42.616875 
L 264.300102 42.616875 
L 264.300102 73.63226 
z
" clip-path="url(#p4e33a95272)" style="fill: url(#h7eb9af2219); stroke: #000000"/>
   </g>
   <g id="PolyCollection_91">
    <defs>
     <path id="ma52c1c0f1e" d="M 329.225765 -339.704615 
L 329.225765 -370.72 
L 394.151428 -370.72 
L 394.151428 -339.704615 
z
" style="stroke: #000000"/>
    </defs>
    <g clip-path="url(#p4e33a95272)">
     <use xlink:href="#ma52c1c0f1e" x="0" y="413.336875" style="fill: #2ca02c; stroke: #000000"/>
    </g>
   </g>
   <g id="PolyCollection_92">
    <path d="M 329.225765 73.63226 
L 329.225765 42.616875 
L 329.225765 42.616875 
L 329.225765 73.63226 
z
" clip-path="url(#p4e33a95272)" style="fill: url(#h7eb9af2219); stroke: #000000"/>
   </g>
   <g id="PolyCollection_93">
    <defs>
     <path id="m893d0ff5db" d="M 434.680781 -339.704615 
L 434.680781 -370.72 
L 491.736666 -370.72 
L 491.736666 -339.704615 
z
" style="stroke: #000000"/>
    </defs>
    <g clip-path="url(#p4e33a95272)">
     <use xlink:href="#m893d0ff5db" x="0" y="413.336875" style="fill: #1f77b4; stroke: #000000"/>
    </g>
   </g>
   <g id="PolyCollection_94">
    <path d="M 434.680781 73.63226 
L 434.680781 42.616875 
L 434.680781 42.616875 
L 434.680781 73.63226 
z
" clip-path="url(#p4e33a95272)" style="fill: url(#h7eb9af2219); stroke: #000000"/>
   </g>
   <g id="PolyCollection_95">
    <defs>
     <path id="md1d17f7787" d="M 593.650282 -339.704615 
L 593.650282 -370.72 
L 684.15272 -370.72 
L 684.15272 -339.704615 
z
" style="stroke: #000000"/>
    </defs>
    <g clip-path="url(#p4e33a95272)">
     <use xlink:href="#md1d17f7787" x="0" y="413.336875" style="fill: #c49c94; stroke: #000000"/>
    </g>
   </g>
   <g id="PolyCollection_96">
    <path d="M 593.650282 73.63226 
L 593.650282 42.616875 
L 593.650282 42.616875 
L 593.650282 73.63226 
z
" clip-path="url(#p4e33a95272)" style="fill: url(#h7eb9af2219); stroke: #000000"/>
   </g>
   <g id="matplotlib.axis_1">
    <g id="xtick_1">
     <g id="line2d_1">
      <path d="M 87.230114 360.136875 
L 87.230114 27.496875 
" clip-path="url(#p4e33a95272)" style="fill: none; stroke: #b0b0b0; stroke-width: 0.8; stroke-linecap: square"/>
     </g>
     <g id="line2d_2">
      <defs>
       <path id="m63b61f9bcd" d="M 0 0 
L 0 3.5 
" style="stroke: #000000; stroke-width: 0.8"/>
      </defs>
      <g>
       <use xlink:href="#m63b61f9bcd" x="87.230114" y="360.136875" style="stroke: #000000; stroke-width: 0.8"/>
      </g>
     </g>
     <g id="text_1">
      <!-- 0 -->
      <g transform="translate(82.230114 381.43375) scale(0.2 -0.2)">
       <defs>
        <path id="SimSun-30" d="M 1600 4225 
Q 1250 4225 1012 3687 
Q 775 3150 775 2250 
Q 775 1300 1012 775 
Q 1250 250 1600 250 
Q 1975 250 2187 775 
Q 2400 1300 2400 2250 
Q 2400 3150 2200 3687 
Q 2000 4225 1600 4225 
z
M 1600 50 
Q 1050 50 675 625 
Q 300 1200 300 2250 
Q 300 3225 662 3825 
Q 1025 4425 1600 4425 
Q 2150 4425 2512 3850 
Q 2875 3275 2875 2250 
Q 2875 1225 2512 637 
Q 2150 50 1600 50 
z
" transform="scale(0.015625)"/>
       </defs>
       <use xlink:href="#SimSun-30"/>
      </g>
     </g>
    </g>
    <g id="xtick_2">
     <g id="line2d_3">
      <path d="M 165.927886 360.136875 
L 165.927886 27.496875 
" clip-path="url(#p4e33a95272)" style="fill: none; stroke: #b0b0b0; stroke-width: 0.8; stroke-linecap: square"/>
     </g>
     <g id="line2d_4">
      <g>
       <use xlink:href="#m63b61f9bcd" x="165.927886" y="360.136875" style="stroke: #000000; stroke-width: 0.8"/>
      </g>
     </g>
     <g id="text_2">
      <!-- 200 -->
      <g transform="translate(150.927886 381.43375) scale(0.2 -0.2)">
       <defs>
        <path id="SimSun-32" d="M 2325 3325 
Q 2325 3775 2125 4012 
Q 1925 4250 1525 4250 
Q 1225 4250 1012 4087 
Q 800 3925 800 3675 
Q 800 3525 900 3425 
Q 975 3325 975 3225 
Q 975 3100 912 3037 
Q 850 2975 725 2975 
Q 575 2975 487 3062 
Q 400 3150 400 3350 
Q 400 3875 775 4150 
Q 1150 4425 1575 4425 
Q 2175 4425 2462 4125 
Q 2750 3825 2750 3375 
Q 2750 3075 2612 2775 
Q 2475 2475 2175 2200 
Q 1450 1500 1062 1062 
Q 675 625 600 475 
L 2075 475 
Q 2300 475 2450 650 
Q 2600 825 2650 1175 
L 2800 1175 
L 2650 100 
L 325 100 
L 325 425 
Q 450 650 737 1000 
Q 1025 1350 1500 1825 
Q 1925 2250 2125 2625 
Q 2325 3000 2325 3325 
z
" transform="scale(0.015625)"/>
       </defs>
       <use xlink:href="#SimSun-32"/>
       <use xlink:href="#SimSun-30" x="50"/>
       <use xlink:href="#SimSun-30" x="100"/>
      </g>
     </g>
    </g>
    <g id="xtick_3">
     <g id="line2d_5">
      <path d="M 244.625659 360.136875 
L 244.625659 27.496875 
" clip-path="url(#p4e33a95272)" style="fill: none; stroke: #b0b0b0; stroke-width: 0.8; stroke-linecap: square"/>
     </g>
     <g id="line2d_6">
      <g>
       <use xlink:href="#m63b61f9bcd" x="244.625659" y="360.136875" style="stroke: #000000; stroke-width: 0.8"/>
      </g>
     </g>
     <g id="text_3">
      <!-- 400 -->
      <g transform="translate(229.625659 381.43375) scale(0.2 -0.2)">
       <defs>
        <path id="SimSun-34" d="M 2300 575 
Q 2300 400 2400 325 
Q 2500 250 2675 250 
L 2900 250 
L 2900 100 
L 1250 100 
L 1250 250 
L 1525 250 
Q 1725 250 1812 325 
Q 1900 400 1900 575 
L 1900 1400 
L 225 1400 
L 225 1525 
L 2050 4425 
L 2300 4425 
L 2300 1550 
L 2975 1550 
L 2975 1400 
L 2300 1400 
L 2300 575 
z
M 1875 3800 
L 450 1550 
L 1900 1550 
L 1900 3800 
L 1875 3800 
z
" transform="scale(0.015625)"/>
       </defs>
       <use xlink:href="#SimSun-34"/>
       <use xlink:href="#SimSun-30" x="50"/>
       <use xlink:href="#SimSun-30" x="100"/>
      </g>
     </g>
    </g>
    <g id="xtick_4">
     <g id="line2d_7">
      <path d="M 323.323432 360.136875 
L 323.323432 27.496875 
" clip-path="url(#p4e33a95272)" style="fill: none; stroke: #b0b0b0; stroke-width: 0.8; stroke-linecap: square"/>
     </g>
     <g id="line2d_8">
      <g>
       <use xlink:href="#m63b61f9bcd" x="323.323432" y="360.136875" style="stroke: #000000; stroke-width: 0.8"/>
      </g>
     </g>
     <g id="text_4">
      <!-- 600 -->
      <g transform="translate(308.323432 381.43375) scale(0.2 -0.2)">
       <defs>
        <path id="SimSun-36" d="M 775 1800 
Q 775 1050 1037 637 
Q 1300 225 1675 225 
Q 2050 225 2250 500 
Q 2450 775 2450 1525 
Q 2450 2025 2237 2300 
Q 2025 2575 1725 2575 
Q 1450 2575 1212 2412 
Q 975 2250 775 1800 
z
M 1750 2825 
Q 2350 2825 2612 2425 
Q 2875 2025 2875 1525 
Q 2875 775 2512 412 
Q 2150 50 1675 50 
Q 1000 50 650 562 
Q 300 1075 300 2050 
Q 300 3200 725 3812 
Q 1150 4425 1875 4425 
Q 2225 4425 2437 4225 
Q 2650 4025 2650 3875 
Q 2650 3725 2587 3650 
Q 2525 3575 2375 3575 
Q 2250 3575 2187 3637 
Q 2125 3700 2125 3825 
Q 2125 3875 2150 3925 
Q 2150 3975 2150 4025 
Q 2150 4125 2075 4187 
Q 2000 4250 1800 4250 
Q 1375 4250 1075 3862 
Q 775 3475 775 2175 
Q 925 2500 1187 2662 
Q 1450 2825 1750 2825 
z
" transform="scale(0.015625)"/>
       </defs>
       <use xlink:href="#SimSun-36"/>
       <use xlink:href="#SimSun-30" x="50"/>
       <use xlink:href="#SimSun-30" x="100"/>
      </g>
     </g>
    </g>
    <g id="xtick_5">
     <g id="line2d_9">
      <path d="M 402.021205 360.136875 
L 402.021205 27.496875 
" clip-path="url(#p4e33a95272)" style="fill: none; stroke: #b0b0b0; stroke-width: 0.8; stroke-linecap: square"/>
     </g>
     <g id="line2d_10">
      <g>
       <use xlink:href="#m63b61f9bcd" x="402.021205" y="360.136875" style="stroke: #000000; stroke-width: 0.8"/>
      </g>
     </g>
     <g id="text_5">
      <!-- 800 -->
      <g transform="translate(387.021205 381.43375) scale(0.2 -0.2)">
       <defs>
        <path id="SimSun-38" d="M 625 1125 
Q 625 725 887 475 
Q 1150 225 1550 225 
Q 2025 225 2237 475 
Q 2450 725 2450 1100 
Q 2450 1425 2150 1725 
Q 1850 2025 1250 2275 
Q 950 2075 787 1775 
Q 625 1475 625 1125 
z
M 2825 1175 
Q 2825 700 2475 375 
Q 2125 50 1550 50 
Q 1025 50 650 375 
Q 275 700 275 1125 
Q 275 1550 487 1850 
Q 700 2150 1100 2375 
Q 750 2550 562 2812 
Q 375 3075 375 3400 
Q 375 3825 700 4125 
Q 1025 4425 1600 4425 
Q 2125 4425 2450 4125 
Q 2775 3825 2775 3400 
Q 2775 3100 2587 2837 
Q 2400 2575 2000 2375 
Q 2425 2125 2625 1825 
Q 2825 1525 2825 1175 
z
M 2425 3375 
Q 2425 3725 2225 3987 
Q 2025 4250 1600 4250 
Q 1125 4250 925 4000 
Q 725 3750 725 3475 
Q 725 3200 1012 2937 
Q 1300 2675 1825 2475 
Q 2125 2625 2275 2850 
Q 2425 3075 2425 3375 
z
" transform="scale(0.015625)"/>
       </defs>
       <use xlink:href="#SimSun-38"/>
       <use xlink:href="#SimSun-30" x="50"/>
       <use xlink:href="#SimSun-30" x="100"/>
      </g>
     </g>
    </g>
    <g id="xtick_6">
     <g id="line2d_11">
      <path d="M 480.718978 360.136875 
L 480.718978 27.496875 
" clip-path="url(#p4e33a95272)" style="fill: none; stroke: #b0b0b0; stroke-width: 0.8; stroke-linecap: square"/>
     </g>
     <g id="line2d_12">
      <g>
       <use xlink:href="#m63b61f9bcd" x="480.718978" y="360.136875" style="stroke: #000000; stroke-width: 0.8"/>
      </g>
     </g>
     <g id="text_6">
      <!-- 1000 -->
      <g transform="translate(460.718978 381.43375) scale(0.2 -0.2)">
       <defs>
        <path id="SimSun-31" d="M 1825 4450 
L 1825 650 
Q 1825 450 1950 350 
Q 2075 250 2300 250 
L 2550 250 
L 2550 100 
L 725 100 
L 725 250 
L 950 250 
Q 1200 250 1312 350 
Q 1425 450 1425 650 
L 1425 3675 
Q 1425 3775 1362 3837 
Q 1300 3900 1175 3900 
L 725 3900 
L 725 4050 
L 950 4050 
Q 1250 4050 1437 4150 
Q 1625 4250 1725 4450 
L 1825 4450 
z
" transform="scale(0.015625)"/>
       </defs>
       <use xlink:href="#SimSun-31"/>
       <use xlink:href="#SimSun-30" x="50"/>
       <use xlink:href="#SimSun-30" x="100"/>
       <use xlink:href="#SimSun-30" x="150"/>
      </g>
     </g>
    </g>
    <g id="xtick_7">
     <g id="line2d_13">
      <path d="M 559.416751 360.136875 
L 559.416751 27.496875 
" clip-path="url(#p4e33a95272)" style="fill: none; stroke: #b0b0b0; stroke-width: 0.8; stroke-linecap: square"/>
     </g>
     <g id="line2d_14">
      <g>
       <use xlink:href="#m63b61f9bcd" x="559.416751" y="360.136875" style="stroke: #000000; stroke-width: 0.8"/>
      </g>
     </g>
     <g id="text_7">
      <!-- 1200 -->
      <g transform="translate(539.416751 381.43375) scale(0.2 -0.2)">
       <use xlink:href="#SimSun-31"/>
       <use xlink:href="#SimSun-32" x="50"/>
       <use xlink:href="#SimSun-30" x="100"/>
       <use xlink:href="#SimSun-30" x="150"/>
      </g>
     </g>
    </g>
    <g id="xtick_8">
     <g id="line2d_15">
      <path d="M 638.114523 360.136875 
L 638.114523 27.496875 
" clip-path="url(#p4e33a95272)" style="fill: none; stroke: #b0b0b0; stroke-width: 0.8; stroke-linecap: square"/>
     </g>
     <g id="line2d_16">
      <g>
       <use xlink:href="#m63b61f9bcd" x="638.114523" y="360.136875" style="stroke: #000000; stroke-width: 0.8"/>
      </g>
     </g>
     <g id="text_8">
      <!-- 1400 -->
      <g transform="translate(618.114523 381.43375) scale(0.2 -0.2)">
       <use xlink:href="#SimSun-31"/>
       <use xlink:href="#SimSun-34" x="50"/>
       <use xlink:href="#SimSun-30" x="100"/>
       <use xlink:href="#SimSun-30" x="150"/>
      </g>
     </g>
    </g>
    <g id="xtick_9">
     <g id="line2d_17">
      <path d="M 716.812296 360.136875 
L 716.812296 27.496875 
" clip-path="url(#p4e33a95272)" style="fill: none; stroke: #b0b0b0; stroke-width: 0.8; stroke-linecap: square"/>
     </g>
     <g id="line2d_18">
      <g>
       <use xlink:href="#m63b61f9bcd" x="716.812296" y="360.136875" style="stroke: #000000; stroke-width: 0.8"/>
      </g>
     </g>
     <g id="text_9">
      <!-- 1600 -->
      <g transform="translate(696.812296 381.43375) scale(0.2 -0.2)">
       <use xlink:href="#SimSun-31"/>
       <use xlink:href="#SimSun-36" x="50"/>
       <use xlink:href="#SimSun-30" x="100"/>
       <use xlink:href="#SimSun-30" x="150"/>
      </g>
     </g>
    </g>
    <g id="text_10">
     <!-- 时间 -->
     <g transform="translate(371.59375 403.55875) scale(0.2 -0.2)">
      <defs>
       <path id="SimSun-65f6" d="M 4500 3600 
Q 4500 4575 4475 5225 
L 5100 4900 
L 4850 4725 
L 4850 3600 
L 5225 3600 
L 5550 3925 
L 6025 3450 
L 4850 3450 
L 4850 100 
Q 4850 -375 4300 -575 
Q 4275 -200 3475 -25 
L 3475 100 
Q 4150 0 4325 25 
Q 4500 50 4500 325 
L 4500 3450 
L 3200 3450 
Q 2875 3450 2600 3375 
L 2375 3600 
L 4500 3600 
z
M 2875 2825 
Q 3525 2375 3637 2200 
Q 3750 2025 3750 1925 
Q 3750 1800 3637 1637 
Q 3525 1475 3475 1475 
Q 3400 1475 3325 1775 
Q 3200 2225 2800 2750 
L 2875 2825 
z
M 925 4150 
L 925 2650 
L 1950 2650 
L 1950 4150 
L 925 4150 
z
M 925 2500 
L 925 900 
L 1950 900 
L 1950 2500 
L 925 2500 
z
M 2300 2000 
Q 2300 800 2325 450 
L 1950 250 
L 1950 750 
L 925 750 
L 925 225 
L 550 25 
Q 575 825 575 2425 
Q 575 4025 550 4500 
L 950 4300 
L 1900 4300 
L 2100 4550 
L 2500 4225 
L 2300 4050 
L 2300 2000 
z
" transform="scale(0.015625)"/>
       <path id="SimSun-95f4" d="M 2150 525 
Q 2175 1325 2175 2112 
Q 2175 2900 2150 3675 
L 2525 3450 
L 3750 3450 
L 4000 3700 
L 4325 3375 
L 4125 3200 
Q 4125 1550 4150 775 
L 3800 575 
L 3800 975 
L 2500 975 
L 2500 700 
L 2150 525 
z
M 2500 3300 
L 2500 2325 
L 3800 2325 
L 3800 3300 
L 2500 3300 
z
M 2500 2175 
L 2500 1125 
L 3800 1125 
L 3800 2175 
L 2500 2175 
z
M 1275 5200 
Q 1850 4825 1950 4675 
Q 2050 4525 2050 4425 
Q 2050 4275 1950 4137 
Q 1850 4000 1825 4000 
Q 1750 4000 1675 4275 
Q 1550 4650 1200 5125 
L 1275 5200 
z
M 1125 425 
Q 1125 25 1150 -375 
L 750 -525 
Q 775 -150 775 1950 
Q 775 4050 750 4425 
L 1350 4125 
L 1125 3975 
L 1125 425 
z
M 4225 125 
Q 5025 0 5125 37 
Q 5225 75 5225 250 
L 5225 4450 
L 3225 4450 
Q 2900 4450 2625 4375 
L 2400 4600 
L 5175 4600 
L 5425 4850 
L 5775 4500 
L 5575 4350 
L 5575 225 
Q 5575 -100 5462 -250 
Q 5350 -400 5000 -550 
Q 4800 -125 4225 25 
L 4225 125 
z
" transform="scale(0.015625)"/>
      </defs>
      <use xlink:href="#SimSun-65f6"/>
      <use xlink:href="#SimSun-95f4" x="100"/>
     </g>
    </g>
   </g>
   <g id="matplotlib.axis_2">
    <g id="ytick_1">
     <g id="line2d_19">
      <path d="M 56.79375 329.509183 
L 726.39375 329.509183 
" clip-path="url(#p4e33a95272)" style="fill: none; stroke: #b0b0b0; stroke-width: 0.8; stroke-linecap: square"/>
     </g>
     <g id="line2d_20">
      <defs>
       <path id="m1287893de7" d="M 0 0 
L -3.5 0 
" style="stroke: #000000; stroke-width: 0.8"/>
      </defs>
      <g>
       <use xlink:href="#m1287893de7" x="56.79375" y="329.509183" style="stroke: #000000; stroke-width: 0.8"/>
      </g>
     </g>
     <g id="text_11">
      <!-- M1 -->
      <g transform="translate(29.79375 336.65762) scale(0.2 -0.2)">
       <defs>
        <path id="SimSun-4d" d="M 2800 450 
Q 2800 350 2862 300 
Q 2925 250 3025 250 
L 3125 250 
L 3125 100 
L 2050 100 
L 2050 250 
L 2175 250 
Q 2300 250 2350 300 
Q 2400 350 2400 450 
L 2400 3725 
L 2350 3725 
L 1500 100 
L 1350 100 
L 575 3650 
L 525 3650 
L 525 450 
Q 525 350 587 300 
Q 650 250 750 250 
L 825 250 
L 825 100 
L 75 100 
L 75 250 
L 150 250 
Q 275 250 325 300 
Q 375 350 375 450 
L 375 4025 
Q 375 4125 325 4175 
Q 275 4225 150 4225 
L 50 4225 
L 50 4375 
L 775 4375 
L 1500 1025 
L 1550 1025 
L 2325 4375 
L 3125 4375 
L 3125 4225 
L 3025 4225 
Q 2925 4225 2862 4175 
Q 2800 4125 2800 4025 
L 2800 450 
z
" transform="scale(0.015625)"/>
       </defs>
       <use xlink:href="#SimSun-4d"/>
       <use xlink:href="#SimSun-31" x="50"/>
      </g>
     </g>
    </g>
    <g id="ytick_2">
     <g id="line2d_21">
      <path d="M 56.79375 290.739952 
L 726.39375 290.739952 
" clip-path="url(#p4e33a95272)" style="fill: none; stroke: #b0b0b0; stroke-width: 0.8; stroke-linecap: square"/>
     </g>
     <g id="line2d_22">
      <g>
       <use xlink:href="#m1287893de7" x="56.79375" y="290.739952" style="stroke: #000000; stroke-width: 0.8"/>
      </g>
     </g>
     <g id="text_12">
      <!-- M2 -->
      <g transform="translate(29.79375 297.888389) scale(0.2 -0.2)">
       <use xlink:href="#SimSun-4d"/>
       <use xlink:href="#SimSun-32" x="50"/>
      </g>
     </g>
    </g>
    <g id="ytick_3">
     <g id="line2d_23">
      <path d="M 56.79375 251.970721 
L 726.39375 251.970721 
" clip-path="url(#p4e33a95272)" style="fill: none; stroke: #b0b0b0; stroke-width: 0.8; stroke-linecap: square"/>
     </g>
     <g id="line2d_24">
      <g>
       <use xlink:href="#m1287893de7" x="56.79375" y="251.970721" style="stroke: #000000; stroke-width: 0.8"/>
      </g>
     </g>
     <g id="text_13">
      <!-- M3 -->
      <g transform="translate(29.79375 259.119159) scale(0.2 -0.2)">
       <defs>
        <path id="SimSun-33" d="M 2800 1250 
Q 2800 775 2450 412 
Q 2100 50 1475 50 
Q 1025 50 700 300 
Q 375 550 375 875 
Q 375 1025 475 1137 
Q 575 1250 675 1250 
Q 825 1250 887 1137 
Q 950 1025 950 950 
Q 950 825 900 750 
Q 850 650 850 575 
Q 850 425 1037 325 
Q 1225 225 1450 225 
Q 1900 225 2125 487 
Q 2350 750 2350 1300 
Q 2350 1750 2112 2025 
Q 1875 2300 1225 2300 
L 1225 2475 
Q 1725 2475 1962 2712 
Q 2200 2950 2200 3375 
Q 2200 3725 2012 3987 
Q 1825 4250 1425 4250 
Q 1250 4250 1050 4162 
Q 850 4075 850 3875 
Q 850 3675 900 3625 
Q 950 3575 950 3500 
Q 950 3375 900 3300 
Q 850 3225 725 3225 
Q 625 3225 537 3300 
Q 450 3375 450 3575 
Q 450 3950 775 4187 
Q 1100 4425 1525 4425 
Q 2025 4425 2325 4112 
Q 2625 3800 2625 3450 
Q 2625 3075 2437 2812 
Q 2250 2550 1850 2425 
Q 2400 2225 2600 1900 
Q 2800 1575 2800 1250 
z
" transform="scale(0.015625)"/>
       </defs>
       <use xlink:href="#SimSun-4d"/>
       <use xlink:href="#SimSun-33" x="50"/>
      </g>
     </g>
    </g>
    <g id="ytick_4">
     <g id="line2d_25">
      <path d="M 56.79375 213.20149 
L 726.39375 213.20149 
" clip-path="url(#p4e33a95272)" style="fill: none; stroke: #b0b0b0; stroke-width: 0.8; stroke-linecap: square"/>
     </g>
     <g id="line2d_26">
      <g>
       <use xlink:href="#m1287893de7" x="56.79375" y="213.20149" style="stroke: #000000; stroke-width: 0.8"/>
      </g>
     </g>
     <g id="text_14">
      <!-- M4 -->
      <g transform="translate(29.79375 220.349928) scale(0.2 -0.2)">
       <use xlink:href="#SimSun-4d"/>
       <use xlink:href="#SimSun-34" x="50"/>
      </g>
     </g>
    </g>
    <g id="ytick_5">
     <g id="line2d_27">
      <path d="M 56.79375 174.43226 
L 726.39375 174.43226 
" clip-path="url(#p4e33a95272)" style="fill: none; stroke: #b0b0b0; stroke-width: 0.8; stroke-linecap: square"/>
     </g>
     <g id="line2d_28">
      <g>
       <use xlink:href="#m1287893de7" x="56.79375" y="174.43226" style="stroke: #000000; stroke-width: 0.8"/>
      </g>
     </g>
     <g id="text_15">
      <!-- M5 -->
      <g transform="translate(29.79375 181.580697) scale(0.2 -0.2)">
       <defs>
        <path id="SimSun-35" d="M 1725 2850 
Q 2200 2850 2500 2487 
Q 2800 2125 2800 1525 
Q 2800 850 2487 450 
Q 2175 50 1525 50 
Q 1075 50 725 312 
Q 375 575 375 950 
Q 375 1100 462 1212 
Q 550 1325 700 1325 
Q 850 1325 900 1225 
Q 950 1125 950 1050 
Q 950 900 875 825 
Q 800 725 800 625 
Q 800 425 1037 325 
Q 1275 225 1550 225 
Q 1950 225 2162 550 
Q 2375 875 2375 1475 
Q 2375 1975 2187 2287 
Q 2000 2600 1625 2600 
Q 1350 2600 1150 2500 
Q 950 2400 775 2075 
L 550 2100 
L 675 4375 
L 2725 4375 
L 2650 4000 
L 850 4000 
L 750 2350 
Q 1000 2700 1237 2775 
Q 1475 2850 1725 2850 
z
" transform="scale(0.015625)"/>
       </defs>
       <use xlink:href="#SimSun-4d"/>
       <use xlink:href="#SimSun-35" x="50"/>
      </g>
     </g>
    </g>
    <g id="ytick_6">
     <g id="line2d_29">
      <path d="M 56.79375 135.663029 
L 726.39375 135.663029 
" clip-path="url(#p4e33a95272)" style="fill: none; stroke: #b0b0b0; stroke-width: 0.8; stroke-linecap: square"/>
     </g>
     <g id="line2d_30">
      <g>
       <use xlink:href="#m1287893de7" x="56.79375" y="135.663029" style="stroke: #000000; stroke-width: 0.8"/>
      </g>
     </g>
     <g id="text_16">
      <!-- M6 -->
      <g transform="translate(29.79375 142.811466) scale(0.2 -0.2)">
       <use xlink:href="#SimSun-4d"/>
       <use xlink:href="#SimSun-36" x="50"/>
      </g>
     </g>
    </g>
    <g id="ytick_7">
     <g id="line2d_31">
      <path d="M 56.79375 96.893798 
L 726.39375 96.893798 
" clip-path="url(#p4e33a95272)" style="fill: none; stroke: #b0b0b0; stroke-width: 0.8; stroke-linecap: square"/>
     </g>
     <g id="line2d_32">
      <g>
       <use xlink:href="#m1287893de7" x="56.79375" y="96.893798" style="stroke: #000000; stroke-width: 0.8"/>
      </g>
     </g>
     <g id="text_17">
      <!-- M7 -->
      <g transform="translate(29.79375 104.042236) scale(0.2 -0.2)">
       <defs>
        <path id="SimSun-37" d="M 2825 4200 
Q 2300 3350 1987 2537 
Q 1675 1725 1675 1125 
Q 1675 1025 1700 850 
Q 1700 650 1700 400 
Q 1700 200 1637 125 
Q 1575 50 1425 50 
Q 1300 50 1212 137 
Q 1125 225 1125 450 
Q 1125 925 1337 1625 
Q 1550 2325 2475 4000 
L 1225 4000 
Q 950 4000 787 3825 
Q 625 3650 550 3300 
L 400 3325 
L 575 4375 
L 2825 4375 
L 2825 4200 
z
" transform="scale(0.015625)"/>
       </defs>
       <use xlink:href="#SimSun-4d"/>
       <use xlink:href="#SimSun-37" x="50"/>
      </g>
     </g>
    </g>
    <g id="ytick_8">
     <g id="line2d_33">
      <path d="M 56.79375 58.124567 
L 726.39375 58.124567 
" clip-path="url(#p4e33a95272)" style="fill: none; stroke: #b0b0b0; stroke-width: 0.8; stroke-linecap: square"/>
     </g>
     <g id="line2d_34">
      <g>
       <use xlink:href="#m1287893de7" x="56.79375" y="58.124567" style="stroke: #000000; stroke-width: 0.8"/>
      </g>
     </g>
     <g id="text_18">
      <!-- M8 -->
      <g transform="translate(29.79375 65.273005) scale(0.2 -0.2)">
       <use xlink:href="#SimSun-4d"/>
       <use xlink:href="#SimSun-38" x="50"/>
      </g>
     </g>
    </g>
    <g id="text_19">
     <!-- 机器 -->
     <g transform="translate(23.215625 213.816875) rotate(-90) scale(0.2 -0.2)">
      <defs>
       <path id="SimSun-673a" d="M 3400 4425 
L 3400 2250 
Q 3400 400 2000 -575 
L 1925 -500 
Q 3050 525 3050 2250 
L 3050 3450 
Q 3050 4125 3025 4825 
L 3400 4575 
L 4550 4575 
L 4775 4825 
L 5175 4475 
L 4925 4325 
L 4925 250 
Q 4925 0 5175 0 
L 5475 0 
Q 5600 0 5650 200 
Q 5700 400 5725 1100 
L 5850 1100 
Q 5850 550 5900 362 
Q 5950 175 6150 75 
Q 6000 -225 5837 -262 
Q 5675 -300 5525 -300 
L 5000 -300 
Q 4575 -300 4575 100 
L 4575 4425 
L 3400 4425 
z
M 1725 2700 
Q 1725 50 1750 -500 
L 1350 -675 
Q 1375 425 1375 2375 
Q 1000 1325 275 525 
L 225 600 
Q 975 1775 1350 3500 
L 750 3500 
L 525 3450 
L 325 3650 
L 1375 3650 
Q 1375 4525 1350 5275 
L 1900 5050 
L 1725 4875 
L 1725 3650 
L 2075 3650 
L 2350 3925 
L 2775 3500 
L 1725 3500 
L 1725 2825 
Q 2325 2600 2512 2475 
Q 2700 2350 2700 2150 
Q 2700 2025 2662 1900 
Q 2625 1775 2600 1775 
Q 2525 1775 2375 2025 
Q 2150 2375 1725 2700 
z
" transform="scale(0.015625)"/>
       <path id="SimSun-5668" d="M 1475 4625 
L 1475 3650 
L 2475 3650 
L 2475 4625 
L 1475 4625 
z
M 1125 3075 
Q 1150 3575 1150 4062 
Q 1150 4550 1125 5000 
L 1475 4775 
L 2450 4775 
L 2625 5000 
L 3025 4675 
L 2800 4525 
Q 2800 3625 2825 3350 
L 2475 3200 
L 2475 3500 
L 1475 3500 
L 1475 3250 
L 1125 3075 
z
M 5250 1200 
Q 5250 150 5275 -225 
L 4900 -375 
L 4900 25 
L 3775 25 
L 3775 -350 
L 3425 -475 
Q 3450 50 3450 562 
Q 3450 1075 3425 1550 
L 3775 1375 
L 4825 1375 
L 4875 1425 
Q 4025 1900 3600 2525 
L 2850 2525 
Q 2200 1750 1425 1375 
L 2475 1375 
L 2650 1600 
L 3025 1300 
L 2850 1150 
Q 2850 100 2875 -225 
L 2525 -350 
L 2525 25 
L 1550 25 
L 1550 -300 
L 1200 -425 
Q 1225 0 1225 475 
Q 1225 950 1225 1275 
Q 725 1100 275 1000 
L 250 1075 
Q 950 1325 1475 1662 
Q 2000 2000 2450 2525 
L 1250 2525 
Q 925 2525 650 2450 
L 425 2675 
L 2525 2675 
Q 2750 3025 2925 3400 
L 3400 3075 
Q 3150 2975 2925 2675 
L 4500 2675 
Q 4375 3025 4000 3275 
L 4050 3350 
Q 4525 3225 4650 3125 
Q 4775 3025 4775 2950 
Q 4775 2825 4650 2675 
L 5150 2675 
L 5500 3025 
L 6000 2525 
L 3750 2525 
Q 4175 2125 4737 1850 
Q 5300 1575 6125 1550 
L 6125 1450 
Q 5725 1400 5650 1100 
L 5275 1225 
L 5250 1200 
z
M 1550 1225 
L 1550 175 
L 2525 175 
L 2525 1225 
L 1550 1225 
z
M 3775 1225 
L 3775 175 
L 4900 175 
L 4900 1225 
L 3775 1225 
z
M 3925 4625 
L 3925 3650 
L 4900 3650 
L 4900 4625 
L 3925 4625 
z
M 3575 3200 
Q 3600 3650 3600 4112 
Q 3600 4575 3575 5000 
L 3925 4775 
L 4875 4775 
L 5050 5000 
L 5425 4700 
L 5225 4525 
Q 5225 3700 5250 3375 
L 4900 3250 
L 4900 3500 
L 3925 3500 
L 3925 3325 
L 3575 3200 
z
" transform="scale(0.015625)"/>
      </defs>
      <use xlink:href="#SimSun-673a"/>
      <use xlink:href="#SimSun-5668" x="100"/>
     </g>
    </g>
   </g>
   <g id="patch_3">
    <path d="M 56.79375 360.136875 
L 56.79375 27.496875 
" style="fill: none; stroke: #000000; stroke-width: 0.8; stroke-linejoin: miter; stroke-linecap: square"/>
   </g>
   <g id="patch_4">
    <path d="M 726.39375 360.136875 
L 726.39375 27.496875 
" style="fill: none; stroke: #000000; stroke-width: 0.8; stroke-linejoin: miter; stroke-linecap: square"/>
   </g>
   <g id="patch_5">
    <path d="M 56.79375 360.136875 
L 726.39375 360.136875 
" style="fill: none; stroke: #000000; stroke-width: 0.8; stroke-linejoin: miter; stroke-linecap: square"/>
   </g>
   <g id="patch_6">
    <path d="M 56.79375 27.496875 
L 726.39375 27.496875 
" style="fill: none; stroke: #000000; stroke-width: 0.8; stroke-linejoin: miter; stroke-linecap: square"/>
   </g>
   <g id="text_20">
    <!-- 8 -->
    <g transform="translate(102.346879 331.852933) scale(0.08 -0.08)">
     <use xlink:href="#SimSun-38"/>
    </g>
   </g>
   <g id="text_21">
    <!-- 12 -->
    <g transform="translate(134.58041 331.852933) scale(0.08 -0.08)">
     <use xlink:href="#SimSun-31"/>
     <use xlink:href="#SimSun-32" x="50"/>
    </g>
   </g>
   <g id="text_22">
    <!-- 32 -->
    <g transform="translate(112.741778 293.083702) scale(0.08 -0.08)">
     <use xlink:href="#SimSun-33"/>
     <use xlink:href="#SimSun-32" x="50"/>
    </g>
   </g>
   <g id="text_23">
    <!-- 40 -->
    <g transform="translate(171.765108 293.083702) scale(0.08 -0.08)">
     <use xlink:href="#SimSun-34"/>
     <use xlink:href="#SimSun-30" x="50"/>
    </g>
   </g>
   <g id="text_24">
    <!-- 16 -->
    <g transform="translate(225.476338 293.083702) scale(0.08 -0.08)">
     <use xlink:href="#SimSun-31"/>
     <use xlink:href="#SimSun-36" x="50"/>
    </g>
   </g>
   <g id="text_25">
    <!-- 5 -->
    <g transform="translate(264.661036 293.083702) scale(0.08 -0.08)">
     <use xlink:href="#SimSun-35"/>
    </g>
   </g>
   <g id="text_26">
    <!-- 44 -->
    <g transform="translate(345.88393 293.083702) scale(0.08 -0.08)">
     <use xlink:href="#SimSun-34"/>
     <use xlink:href="#SimSun-34" x="50"/>
    </g>
   </g>
   <g id="text_27">
    <!-- 20 -->
    <g transform="translate(444.649635 293.083702) scale(0.08 -0.08)">
     <use xlink:href="#SimSun-32"/>
     <use xlink:href="#SimSun-30" x="50"/>
    </g>
   </g>
   <g id="text_28">
    <!-- 0 -->
    <g transform="translate(104.904557 254.314471) scale(0.08 -0.08)">
     <use xlink:href="#SimSun-30"/>
    </g>
   </g>
   <g id="text_29">
    <!-- 4 -->
    <g transform="translate(154.090665 254.314471) scale(0.08 -0.08)">
     <use xlink:href="#SimSun-34"/>
    </g>
   </g>
   <g id="text_30">
    <!-- 24 -->
    <g transform="translate(210.130272 254.314471) scale(0.08 -0.08)">
     <use xlink:href="#SimSun-32"/>
     <use xlink:href="#SimSun-34" x="50"/>
    </g>
   </g>
   <g id="text_31">
    <!-- 25 -->
    <g transform="translate(263.054525 254.314471) scale(0.08 -0.08)">
     <use xlink:href="#SimSun-32"/>
     <use xlink:href="#SimSun-35" x="50"/>
    </g>
   </g>
   <g id="text_32">
    <!-- 33 -->
    <g transform="translate(322.864832 254.314471) scale(0.08 -0.08)">
     <use xlink:href="#SimSun-33"/>
     <use xlink:href="#SimSun-33" x="50"/>
    </g>
   </g>
   <g id="text_33">
    <!-- 41 -->
    <g transform="translate(393.692827 254.314471) scale(0.08 -0.08)">
     <use xlink:href="#SimSun-34"/>
     <use xlink:href="#SimSun-31" x="50"/>
    </g>
   </g>
   <g id="text_34">
    <!-- 45 -->
    <g transform="translate(473.177578 254.314471) scale(0.08 -0.08)">
     <use xlink:href="#SimSun-34"/>
     <use xlink:href="#SimSun-35" x="50"/>
    </g>
   </g>
   <g id="text_35">
    <!-- 21 -->
    <g transform="translate(541.447896 254.314471) scale(0.08 -0.08)">
     <use xlink:href="#SimSun-32"/>
     <use xlink:href="#SimSun-31" x="50"/>
    </g>
   </g>
   <g id="text_36">
    <!-- 36 -->
    <g transform="translate(131.432499 215.54524) scale(0.08 -0.08)">
     <use xlink:href="#SimSun-33"/>
     <use xlink:href="#SimSun-36" x="50"/>
    </g>
   </g>
   <g id="text_37">
    <!-- 9 -->
    <g transform="translate(202.293051 215.54524) scale(0.08 -0.08)">
     <defs>
      <path id="SimSun-39" d="M 700 3050 
Q 700 2500 912 2212 
Q 1125 1925 1450 1925 
Q 1825 1925 2100 2275 
Q 2375 2625 2375 2925 
Q 2375 3525 2175 3887 
Q 1975 4250 1525 4250 
Q 1100 4250 900 3912 
Q 700 3575 700 3050 
z
M 1375 1700 
Q 875 1700 575 2012 
Q 275 2325 275 3025 
Q 275 3625 600 4025 
Q 925 4425 1525 4425 
Q 2150 4425 2500 3925 
Q 2850 3425 2850 2475 
Q 2850 1425 2437 737 
Q 2025 50 1300 50 
Q 975 50 737 200 
Q 500 350 500 600 
Q 500 700 562 800 
Q 625 900 775 900 
Q 925 900 975 787 
Q 1025 675 1025 525 
Q 1025 425 1050 362 
Q 1075 300 1100 275 
Q 1125 250 1187 237 
Q 1250 225 1325 225 
Q 1775 225 2050 725 
Q 2325 1225 2375 2400 
Q 2250 2100 2000 1900 
Q 1750 1700 1375 1700 
z
" transform="scale(0.015625)"/>
     </defs>
     <use xlink:href="#SimSun-39"/>
    </g>
   </g>
   <g id="text_38">
    <!-- 17 -->
    <g transform="translate(262.464291 215.54524) scale(0.08 -0.08)">
     <use xlink:href="#SimSun-31"/>
     <use xlink:href="#SimSun-37" x="50"/>
    </g>
   </g>
   <g id="text_39">
    <!-- 28 -->
    <g transform="translate(323.455065 215.54524) scale(0.08 -0.08)">
     <use xlink:href="#SimSun-32"/>
     <use xlink:href="#SimSun-38" x="50"/>
    </g>
   </g>
   <g id="text_40">
    <!-- 2 -->
    <g transform="translate(403.169116 215.54524) scale(0.08 -0.08)">
     <use xlink:href="#SimSun-32"/>
    </g>
   </g>
   <g id="text_41">
    <!-- 14 -->
    <g transform="translate(459.208723 215.54524) scale(0.08 -0.08)">
     <use xlink:href="#SimSun-31"/>
     <use xlink:href="#SimSun-34" x="50"/>
    </g>
   </g>
   <g id="text_42">
    <!-- 23 -->
    <g transform="translate(660.478277 215.54524) scale(0.08 -0.08)">
     <use xlink:href="#SimSun-32"/>
     <use xlink:href="#SimSun-33" x="50"/>
    </g>
   </g>
   <g id="text_43">
    <!-- 13 -->
    <g transform="translate(185.733963 176.77601) scale(0.08 -0.08)">
     <use xlink:href="#SimSun-31"/>
     <use xlink:href="#SimSun-33" x="50"/>
    </g>
   </g>
   <g id="text_44">
    <!-- 10 -->
    <g transform="translate(240.625659 176.77601) scale(0.08 -0.08)">
     <use xlink:href="#SimSun-31"/>
     <use xlink:href="#SimSun-30" x="50"/>
    </g>
   </g>
   <g id="text_45">
    <!-- 38 -->
    <g transform="translate(296.304334 176.77601) scale(0.08 -0.08)">
     <use xlink:href="#SimSun-33"/>
     <use xlink:href="#SimSun-38" x="50"/>
    </g>
   </g>
   <g id="text_46">
    <!-- 26 -->
    <g transform="translate(353.360219 176.77601) scale(0.08 -0.08)">
     <use xlink:href="#SimSun-32"/>
     <use xlink:href="#SimSun-36" x="50"/>
    </g>
   </g>
   <g id="text_47">
    <!-- 7 -->
    <g transform="translate(407.497493 176.77601) scale(0.08 -0.08)">
     <use xlink:href="#SimSun-37"/>
    </g>
   </g>
   <g id="text_48">
    <!-- 34 -->
    <g transform="translate(436.976602 176.77601) scale(0.08 -0.08)">
     <use xlink:href="#SimSun-33"/>
     <use xlink:href="#SimSun-34" x="50"/>
    </g>
   </g>
   <g id="text_49">
    <!-- 30 -->
    <g transform="translate(488.326899 176.77601) scale(0.08 -0.08)">
     <use xlink:href="#SimSun-33"/>
     <use xlink:href="#SimSun-30" x="50"/>
    </g>
   </g>
   <g id="text_50">
    <!-- 42 -->
    <g transform="translate(524.724619 176.77601) scale(0.08 -0.08)">
     <use xlink:href="#SimSun-34"/>
     <use xlink:href="#SimSun-32" x="50"/>
    </g>
   </g>
   <g id="text_51">
    <!-- 46 -->
    <g transform="translate(561.122339 176.77601) scale(0.08 -0.08)">
     <use xlink:href="#SimSun-34"/>
     <use xlink:href="#SimSun-36" x="50"/>
    </g>
   </g>
   <g id="text_52">
    <!-- 22 -->
    <g transform="translate(613.259614 176.77601) scale(0.08 -0.08)">
     <use xlink:href="#SimSun-32"/>
     <use xlink:href="#SimSun-32" x="50"/>
    </g>
   </g>
   <g id="text_53">
    <!-- 27 -->
    <g transform="translate(664.413166 176.77601) scale(0.08 -0.08)">
     <use xlink:href="#SimSun-32"/>
     <use xlink:href="#SimSun-37" x="50"/>
    </g>
   </g>
   <g id="text_54">
    <!-- 37 -->
    <g transform="translate(223.705638 138.006779) scale(0.08 -0.08)">
     <use xlink:href="#SimSun-33"/>
     <use xlink:href="#SimSun-37" x="50"/>
    </g>
   </g>
   <g id="text_55">
    <!-- 18 -->
    <g transform="translate(291.975956 138.006779) scale(0.08 -0.08)">
     <use xlink:href="#SimSun-31"/>
     <use xlink:href="#SimSun-38" x="50"/>
    </g>
   </g>
   <g id="text_56">
    <!-- 6 -->
    <g transform="translate(329.389954 138.006779) scale(0.08 -0.08)">
     <use xlink:href="#SimSun-36"/>
    </g>
   </g>
   <g id="text_57">
    <!-- 29 -->
    <g transform="translate(415.728204 138.006779) scale(0.08 -0.08)">
     <use xlink:href="#SimSun-32"/>
     <use xlink:href="#SimSun-39" x="50"/>
    </g>
   </g>
   <g id="text_58">
    <!-- 35 -->
    <g transform="translate(489.310621 138.006779) scale(0.08 -0.08)">
     <use xlink:href="#SimSun-33"/>
     <use xlink:href="#SimSun-35" x="50"/>
    </g>
   </g>
   <g id="text_59">
    <!-- 15 -->
    <g transform="translate(552.26884 138.006779) scale(0.08 -0.08)">
     <use xlink:href="#SimSun-31"/>
     <use xlink:href="#SimSun-35" x="50"/>
    </g>
   </g>
   <g id="text_60">
    <!-- 43 -->
    <g transform="translate(615.227058 138.006779) scale(0.08 -0.08)">
     <use xlink:href="#SimSun-34"/>
     <use xlink:href="#SimSun-33" x="50"/>
    </g>
   </g>
   <g id="text_61">
    <!-- 1 -->
    <g transform="translate(148.778565 99.237548) scale(0.08 -0.08)">
     <use xlink:href="#SimSun-31"/>
    </g>
   </g>
   <g id="text_62">
    <!-- 39 -->
    <g transform="translate(354.343941 99.237548) scale(0.08 -0.08)">
     <use xlink:href="#SimSun-33"/>
     <use xlink:href="#SimSun-39" x="50"/>
    </g>
   </g>
   <g id="text_63">
    <!-- 31 -->
    <g transform="translate(546.366507 99.237548) scale(0.08 -0.08)">
     <use xlink:href="#SimSun-33"/>
     <use xlink:href="#SimSun-31" x="50"/>
    </g>
   </g>
   <g id="text_64">
    <!-- 11 -->
    <g transform="translate(292.762934 60.468317) scale(0.08 -0.08)">
     <use xlink:href="#SimSun-31"/>
     <use xlink:href="#SimSun-31" x="50"/>
    </g>
   </g>
   <g id="text_65">
    <!-- 19 -->
    <g transform="translate(357.688596 60.468317) scale(0.08 -0.08)">
     <use xlink:href="#SimSun-31"/>
     <use xlink:href="#SimSun-39" x="50"/>
    </g>
   </g>
   <g id="text_66">
    <!-- 3 -->
    <g transform="translate(461.208723 60.468317) scale(0.08 -0.08)">
     <use xlink:href="#SimSun-33"/>
    </g>
   </g>
   <g id="text_67">
    <!-- 47 -->
    <g transform="translate(634.901501 60.468317) scale(0.08 -0.08)">
     <use xlink:href="#SimSun-34"/>
     <use xlink:href="#SimSun-37" x="50"/>
    </g>
   </g>
   <g id="text_68">
    <!-- Instance: MFJS10, Makespan: 1547, Balanced_workload: 1139 -->
    <g transform="translate(106.59375 21.496875) scale(0.2 -0.2)">
     <defs>
      <path id="SimSun-49" d="M 600 4225 
L 600 4375 
L 2600 4375 
L 2600 4225 
L 2025 4225 
Q 1925 4225 1862 4175 
Q 1800 4125 1800 4025 
L 1800 450 
Q 1800 350 1862 300 
Q 1925 250 2025 250 
L 2600 250 
L 2600 100 
L 600 100 
L 600 250 
L 1175 250 
Q 1300 250 1350 300 
Q 1400 350 1400 450 
L 1400 4025 
Q 1400 4125 1350 4175 
Q 1300 4225 1175 4225 
L 600 4225 
z
" transform="scale(0.015625)"/>
      <path id="SimSun-6e" d="M 200 100 
L 200 250 
L 325 250 
Q 450 250 500 300 
Q 550 350 550 450 
L 550 2600 
Q 550 2675 525 2712 
Q 500 2750 425 2750 
L 225 2750 
L 225 2900 
L 400 2900 
Q 525 2900 637 2925 
Q 750 2950 850 3025 
L 900 3025 
L 900 2450 
Q 1125 2700 1350 2825 
Q 1575 2950 1825 2950 
Q 2250 2950 2450 2725 
Q 2650 2500 2650 2050 
L 2650 450 
Q 2650 350 2712 300 
Q 2775 250 2875 250 
L 3000 250 
L 3000 100 
L 1950 100 
L 1950 250 
L 2075 250 
Q 2200 250 2250 300 
Q 2300 350 2300 450 
L 2300 2125 
Q 2300 2425 2175 2587 
Q 2050 2750 1800 2750 
Q 1575 2750 1337 2600 
Q 1100 2450 900 2175 
L 900 450 
Q 900 350 962 300 
Q 1025 250 1125 250 
L 1250 250 
L 1250 100 
L 200 100 
z
" transform="scale(0.015625)"/>
      <path id="SimSun-73" d="M 625 2175 
Q 625 2550 912 2750 
Q 1200 2950 1600 2950 
Q 1825 2950 2025 2900 
Q 2225 2825 2300 2825 
Q 2375 2825 2425 2850 
Q 2475 2875 2550 2950 
L 2650 2125 
L 2500 2100 
Q 2400 2425 2162 2612 
Q 1925 2800 1625 2800 
Q 1300 2800 1112 2675 
Q 925 2550 925 2325 
Q 925 2125 1012 2012 
Q 1100 1900 1325 1850 
Q 1500 1775 1775 1700 
Q 2025 1600 2250 1500 
Q 2450 1400 2587 1237 
Q 2725 1075 2725 875 
Q 2725 500 2462 287 
Q 2200 75 1700 75 
Q 1375 75 1225 150 
Q 1050 200 950 200 
Q 875 200 787 162 
Q 700 125 600 75 
L 525 1000 
L 675 1025 
Q 750 625 1000 425 
Q 1250 225 1700 225 
Q 2050 225 2237 350 
Q 2425 475 2425 725 
Q 2425 900 2325 1012 
Q 2225 1125 2125 1175 
Q 1875 1275 1575 1400 
Q 1275 1500 1050 1600 
Q 825 1700 725 1850 
Q 625 2000 625 2175 
z
" transform="scale(0.015625)"/>
      <path id="SimSun-74" d="M 1500 900 
Q 1500 550 1625 425 
Q 1750 300 2000 300 
Q 2250 300 2400 462 
Q 2550 625 2600 925 
L 2725 875 
Q 2675 525 2462 300 
Q 2250 75 1900 75 
Q 1525 75 1337 300 
Q 1150 525 1150 1000 
L 1150 2750 
L 400 2750 
L 400 2900 
L 600 2900 
Q 900 2900 1087 3087 
Q 1275 3275 1325 3675 
L 1350 3875 
L 1500 3875 
L 1500 2900 
L 2500 2900 
L 2500 2750 
L 1500 2750 
L 1500 900 
z
" transform="scale(0.015625)"/>
      <path id="SimSun-61" d="M 1225 75 
Q 775 75 525 287 
Q 275 500 275 775 
Q 275 1225 662 1512 
Q 1050 1800 2200 1925 
L 2200 2225 
Q 2200 2475 2087 2637 
Q 1975 2800 1575 2800 
Q 1150 2800 975 2662 
Q 800 2525 850 2375 
Q 875 2325 875 2275 
Q 875 2225 837 2150 
Q 800 2075 650 2075 
Q 550 2075 487 2137 
Q 425 2200 425 2325 
Q 425 2550 750 2750 
Q 1075 2950 1550 2950 
Q 2050 2950 2300 2762 
Q 2550 2575 2550 2225 
L 2550 575 
Q 2550 375 2587 337 
Q 2625 300 2725 300 
Q 2850 300 2900 412 
Q 2950 525 2950 725 
L 3075 725 
Q 3075 375 2950 237 
Q 2825 100 2625 100 
Q 2450 100 2350 175 
Q 2250 250 2200 425 
Q 1950 250 1737 162 
Q 1525 75 1225 75 
z
M 700 850 
Q 700 625 837 437 
Q 975 250 1275 250 
Q 1500 250 1725 337 
Q 1950 425 2200 600 
L 2200 1775 
Q 1350 1675 1025 1437 
Q 700 1200 700 850 
z
" transform="scale(0.015625)"/>
      <path id="SimSun-63" d="M 2150 2225 
Q 2150 2300 2175 2325 
Q 2175 2350 2200 2425 
Q 2225 2525 2100 2662 
Q 1975 2800 1675 2800 
Q 1300 2800 1037 2437 
Q 775 2075 775 1475 
Q 775 925 1000 587 
Q 1225 250 1750 250 
Q 2100 250 2337 475 
Q 2575 700 2675 1000 
L 2800 950 
Q 2700 575 2425 312 
Q 2150 50 1675 50 
Q 1075 50 725 425 
Q 375 800 375 1500 
Q 375 2125 750 2537 
Q 1125 2950 1725 2950 
Q 2150 2950 2387 2725 
Q 2625 2500 2625 2275 
Q 2625 2125 2562 2062 
Q 2500 2000 2375 2000 
Q 2275 2000 2212 2062 
Q 2150 2125 2150 2225 
z
" transform="scale(0.015625)"/>
      <path id="SimSun-65" d="M 2400 1650 
Q 2425 2200 2212 2487 
Q 2000 2775 1650 2775 
Q 1275 2775 1037 2475 
Q 800 2175 800 1650 
L 2400 1650 
z
M 800 1500 
Q 800 825 1062 537 
Q 1325 250 1750 250 
Q 2075 250 2300 437 
Q 2525 625 2625 900 
L 2750 850 
Q 2675 575 2412 312 
Q 2150 50 1700 50 
Q 1125 50 762 425 
Q 400 800 400 1500 
Q 400 2125 762 2537 
Q 1125 2950 1650 2950 
Q 2125 2950 2475 2625 
Q 2825 2300 2825 1500 
L 800 1500 
z
" transform="scale(0.015625)"/>
      <path id="SimSun-3a" d="M 1900 2725 
Q 1900 2575 1800 2475 
Q 1700 2375 1550 2375 
Q 1400 2375 1300 2475 
Q 1200 2575 1200 2725 
Q 1200 2875 1300 2975 
Q 1400 3075 1550 3075 
Q 1700 3075 1800 2975 
Q 1900 2875 1900 2725 
z
M 1900 375 
Q 1900 225 1800 125 
Q 1700 25 1550 25 
Q 1400 25 1300 125 
Q 1200 225 1200 375 
Q 1200 525 1300 625 
Q 1400 725 1550 725 
Q 1700 725 1800 625 
Q 1900 525 1900 375 
z
" transform="scale(0.015625)"/>
      <path id="SimSun-20" d="M 0 0 
Q 0 0 0 0 
z
" transform="scale(0.015625)"/>
      <path id="SimSun-46" d="M 1350 250 
L 1350 100 
L 150 100 
L 150 250 
L 325 250 
Q 450 250 500 300 
Q 550 350 550 450 
L 550 4025 
Q 550 4125 500 4175 
Q 450 4225 325 4225 
L 175 4225 
L 175 4375 
L 2775 4375 
L 3075 3475 
L 2950 3425 
Q 2750 3825 2475 4025 
Q 2200 4225 1875 4225 
L 1175 4225 
Q 1075 4225 1012 4175 
Q 950 4125 950 4025 
L 950 2425 
L 1775 2425 
Q 2025 2425 2137 2537 
Q 2250 2650 2250 2900 
L 2250 3025 
L 2400 3025 
L 2400 1575 
L 2250 1575 
L 2250 1675 
Q 2250 1975 2137 2125 
Q 2025 2275 1775 2275 
L 950 2275 
L 950 450 
Q 950 350 1012 300 
Q 1075 250 1175 250 
L 1350 250 
z
" transform="scale(0.015625)"/>
      <path id="SimSun-4a" d="M 1825 4025 
Q 1825 4125 1775 4175 
Q 1725 4225 1600 4225 
L 1000 4225 
L 1000 4375 
L 3050 4375 
L 3050 4225 
L 2450 4225 
Q 2350 4225 2287 4175 
Q 2225 4125 2225 4025 
L 2225 475 
Q 2225 -75 1875 -387 
Q 1525 -700 1000 -700 
Q 625 -700 425 -550 
Q 225 -400 225 -200 
Q 225 -50 312 25 
Q 400 100 500 100 
Q 625 100 700 12 
Q 775 -75 775 -200 
Q 775 -250 762 -287 
Q 750 -325 700 -375 
Q 750 -450 850 -487 
Q 950 -525 1100 -525 
Q 1425 -525 1625 -312 
Q 1825 -100 1825 475 
L 1825 4025 
z
" transform="scale(0.015625)"/>
      <path id="SimSun-53" d="M 1500 2150 
Q 825 2450 575 2675 
Q 325 2900 325 3375 
Q 325 3750 637 4087 
Q 950 4425 1525 4425 
Q 1775 4425 2000 4350 
Q 2225 4250 2325 4250 
Q 2400 4250 2462 4287 
Q 2525 4325 2575 4425 
L 2675 3400 
L 2550 3350 
Q 2325 3875 2087 4062 
Q 1850 4250 1475 4250 
Q 1000 4250 825 3987 
Q 650 3725 650 3425 
Q 650 3150 812 2987 
Q 975 2825 1700 2500 
Q 2300 2250 2562 1937 
Q 2825 1625 2825 1200 
Q 2825 750 2512 400 
Q 2200 50 1600 50 
Q 1350 50 1150 150 
Q 925 225 800 225 
Q 725 225 650 175 
Q 575 125 475 50 
L 275 1275 
L 425 1325 
Q 600 700 912 462 
Q 1225 225 1625 225 
Q 2050 225 2262 475 
Q 2475 725 2475 1200 
Q 2475 1450 2237 1687 
Q 2000 1925 1500 2150 
z
" transform="scale(0.015625)"/>
      <path id="SimSun-2c" d="M 450 550 
Q 450 650 537 750 
Q 625 850 800 850 
Q 1000 850 1112 687 
Q 1225 525 1225 350 
Q 1225 0 1025 -300 
Q 825 -600 450 -750 
L 350 -625 
Q 600 -475 725 -312 
Q 850 -150 850 25 
Q 850 150 650 250 
Q 450 350 450 550 
z
" transform="scale(0.015625)"/>
      <path id="SimSun-6b" d="M 1675 1900 
L 2625 425 
Q 2700 325 2762 287 
Q 2825 250 2900 250 
L 3000 250 
L 3000 100 
L 1975 100 
L 1975 250 
L 2050 250 
Q 2175 250 2225 287 
Q 2275 325 2200 425 
L 1425 1650 
L 925 1125 
L 925 450 
Q 925 350 987 300 
Q 1050 250 1150 250 
L 1275 250 
L 1275 100 
L 225 100 
L 225 250 
L 350 250 
Q 475 250 525 300 
Q 575 350 575 450 
L 575 4025 
Q 575 4125 525 4175 
Q 475 4225 350 4225 
L 200 4225 
L 200 4375 
L 425 4375 
Q 575 4375 687 4425 
Q 800 4475 875 4575 
L 925 4575 
L 925 1400 
L 1975 2525 
Q 2025 2625 2012 2687 
Q 2000 2750 1900 2750 
L 1750 2750 
L 1750 2900 
L 2800 2900 
L 2800 2750 
L 2675 2750 
Q 2600 2750 2487 2712 
Q 2375 2675 2275 2575 
L 1675 1900 
z
M 2450 2750 
L 2450 2750 
z
M 2175 2750 
L 2175 2750 
z
M 2300 250 
L 2300 250 
z
M 2750 250 
L 2750 250 
z
" transform="scale(0.015625)"/>
      <path id="SimSun-70" d="M 1150 -675 
L 1325 -675 
L 1325 -825 
L 175 -825 
L 175 -675 
L 325 -675 
Q 450 -675 500 -625 
Q 550 -575 550 -450 
L 550 2500 
Q 550 2600 500 2662 
Q 450 2725 325 2725 
L 175 2725 
L 175 2875 
L 400 2875 
Q 525 2875 637 2900 
Q 750 2925 850 3000 
L 900 3000 
L 900 2425 
Q 1075 2675 1287 2800 
Q 1500 2925 1750 2925 
Q 2250 2925 2575 2587 
Q 2900 2250 2900 1525 
Q 2900 825 2550 450 
Q 2200 75 1725 75 
Q 1450 75 1262 162 
Q 1075 250 900 425 
L 900 -450 
Q 900 -575 975 -625 
Q 1050 -675 1150 -675 
z
M 900 750 
Q 1025 500 1212 375 
Q 1400 250 1650 250 
Q 2000 250 2250 562 
Q 2500 875 2500 1525 
Q 2500 2125 2312 2425 
Q 2125 2725 1750 2725 
Q 1525 2725 1300 2587 
Q 1075 2450 900 2150 
L 900 750 
z
" transform="scale(0.015625)"/>
      <path id="SimSun-42" d="M 100 100 
L 100 250 
L 300 250 
Q 425 250 475 300 
Q 525 350 525 450 
L 525 4025 
Q 525 4125 475 4175 
Q 425 4225 300 4225 
L 150 4225 
L 150 4375 
L 1600 4375 
Q 2200 4375 2487 4137 
Q 2775 3900 2775 3400 
Q 2775 3050 2625 2825 
Q 2475 2600 2000 2425 
Q 2575 2250 2775 1925 
Q 2975 1600 2975 1200 
Q 2975 700 2625 400 
Q 2275 100 1675 100 
L 100 100 
z
M 1600 250 
Q 2025 250 2262 512 
Q 2500 775 2500 1250 
Q 2500 1800 2250 2062 
Q 2000 2325 1500 2325 
L 925 2325 
L 925 450 
Q 925 350 987 300 
Q 1050 250 1150 250 
L 1600 250 
z
M 2350 3400 
Q 2350 3850 2100 4037 
Q 1850 4225 1450 4225 
L 1150 4225 
Q 1050 4225 987 4175 
Q 925 4125 925 4025 
L 925 2475 
L 1575 2475 
Q 1850 2475 2100 2700 
Q 2350 2925 2350 3400 
z
" transform="scale(0.015625)"/>
      <path id="SimSun-6c" d="M 925 4375 
Q 1150 4375 1350 4425 
Q 1550 4475 1725 4575 
L 1775 4575 
L 1775 450 
Q 1775 350 1837 300 
Q 1900 250 2000 250 
L 2575 250 
L 2575 100 
L 625 100 
L 625 250 
L 1200 250 
Q 1325 250 1375 300 
Q 1425 350 1425 450 
L 1425 4025 
Q 1425 4125 1375 4175 
Q 1325 4225 1200 4225 
L 650 4225 
L 650 4375 
L 925 4375 
z
" transform="scale(0.015625)"/>
      <path id="SimSun-64" d="M 2300 2350 
Q 2175 2550 1975 2637 
Q 1775 2725 1575 2725 
Q 1200 2725 987 2375 
Q 775 2025 775 1450 
Q 775 850 975 562 
Q 1175 275 1550 275 
Q 1825 275 2012 450 
Q 2200 625 2300 975 
L 2300 2350 
z
M 1475 75 
Q 1025 75 700 437 
Q 375 800 375 1500 
Q 375 2150 725 2537 
Q 1075 2925 1550 2925 
Q 1750 2925 1962 2837 
Q 2175 2750 2300 2575 
L 2300 3925 
Q 2300 4075 2250 4150 
Q 2200 4225 2075 4225 
L 1875 4225 
L 1875 4375 
L 2150 4375 
Q 2275 4375 2400 4425 
Q 2525 4475 2650 4575 
L 2650 625 
Q 2650 500 2700 450 
Q 2750 400 2850 400 
L 3025 400 
L 3025 250 
L 2875 250 
Q 2775 250 2637 212 
Q 2500 175 2350 100 
L 2300 100 
L 2300 575 
Q 2175 350 1962 212 
Q 1750 75 1475 75 
z
" transform="scale(0.015625)"/>
      <path id="SimSun-5f" d="M 0 -875 
L 0 -725 
L 3175 -725 
L 3175 -875 
L 0 -875 
z
" transform="scale(0.015625)"/>
      <path id="SimSun-77" d="M 2325 2900 
L 3175 2900 
L 3175 2750 
L 3075 2750 
Q 2975 2750 2900 2675 
Q 2825 2600 2775 2425 
L 2175 75 
L 2025 75 
L 1575 1975 
L 1100 75 
L 950 75 
L 375 2375 
Q 350 2550 275 2650 
Q 200 2750 125 2750 
L 25 2750 
L 25 2900 
L 925 2900 
L 925 2750 
L 825 2750 
Q 725 2750 700 2662 
Q 675 2575 700 2425 
L 1075 800 
L 1125 800 
L 1500 2300 
Q 1475 2525 1400 2637 
Q 1325 2750 1225 2750 
L 1150 2750 
L 1150 2900 
L 2000 2900 
L 2000 2750 
L 1925 2750 
Q 1825 2750 1800 2662 
Q 1775 2575 1800 2425 
L 2175 800 
L 2200 800 
L 2625 2550 
Q 2650 2650 2600 2700 
Q 2550 2750 2450 2750 
L 2325 2750 
L 2325 2900 
z
M 1725 2750 
L 1725 2750 
z
M 625 2750 
L 625 2750 
z
M 275 2750 
L 275 2750 
z
M 2875 2750 
L 2875 2750 
z
M 2675 2750 
L 2675 2750 
z
" transform="scale(0.015625)"/>
      <path id="SimSun-6f" d="M 2900 1500 
Q 2900 875 2525 462 
Q 2150 50 1600 50 
Q 1025 50 662 475 
Q 300 900 300 1500 
Q 300 2050 662 2500 
Q 1025 2950 1600 2950 
Q 2200 2950 2550 2500 
Q 2900 2050 2900 1500 
z
M 700 1475 
Q 700 825 962 512 
Q 1225 200 1600 200 
Q 2025 200 2262 537 
Q 2500 875 2500 1475 
Q 2500 2125 2237 2462 
Q 1975 2800 1600 2800 
Q 1250 2800 975 2462 
Q 700 2125 700 1475 
z
" transform="scale(0.015625)"/>
      <path id="SimSun-72" d="M 1275 2125 
Q 1525 2525 1812 2737 
Q 2100 2950 2400 2950 
Q 2650 2950 2787 2837 
Q 2925 2725 2925 2575 
Q 2925 2450 2862 2375 
Q 2800 2300 2675 2300 
Q 2550 2300 2487 2375 
Q 2425 2450 2450 2575 
Q 2450 2650 2425 2700 
Q 2400 2750 2275 2750 
Q 2075 2750 1787 2500 
Q 1500 2250 1275 1800 
L 1275 450 
Q 1275 350 1337 300 
Q 1400 250 1500 250 
L 2050 250 
L 2050 100 
L 200 100 
L 200 250 
L 700 250 
Q 825 250 875 300 
Q 925 350 925 450 
L 925 2525 
Q 925 2625 875 2687 
Q 825 2750 700 2750 
L 225 2750 
L 225 2900 
L 425 2900 
Q 600 2900 837 2937 
Q 1075 2975 1200 3025 
L 1275 3025 
L 1275 2125 
z
" transform="scale(0.015625)"/>
     </defs>
     <use xlink:href="#SimSun-49"/>
     <use xlink:href="#SimSun-6e" x="50"/>
     <use xlink:href="#SimSun-73" x="100"/>
     <use xlink:href="#SimSun-74" x="150"/>
     <use xlink:href="#SimSun-61" x="200"/>
     <use xlink:href="#SimSun-6e" x="250"/>
     <use xlink:href="#SimSun-63" x="300"/>
     <use xlink:href="#SimSun-65" x="350"/>
     <use xlink:href="#SimSun-3a" x="400"/>
     <use xlink:href="#SimSun-20" x="450"/>
     <use xlink:href="#SimSun-4d" x="500"/>
     <use xlink:href="#SimSun-46" x="550"/>
     <use xlink:href="#SimSun-4a" x="600"/>
     <use xlink:href="#SimSun-53" x="650"/>
     <use xlink:href="#SimSun-31" x="700"/>
     <use xlink:href="#SimSun-30" x="750"/>
     <use xlink:href="#SimSun-2c" x="800"/>
     <use xlink:href="#SimSun-20" x="850"/>
     <use xlink:href="#SimSun-4d" x="900"/>
     <use xlink:href="#SimSun-61" x="950"/>
     <use xlink:href="#SimSun-6b" x="1000"/>
     <use xlink:href="#SimSun-65" x="1050"/>
     <use xlink:href="#SimSun-73" x="1100"/>
     <use xlink:href="#SimSun-70" x="1150"/>
     <use xlink:href="#SimSun-61" x="1200"/>
     <use xlink:href="#SimSun-6e" x="1250"/>
     <use xlink:href="#SimSun-3a" x="1300"/>
     <use xlink:href="#SimSun-20" x="1350"/>
     <use xlink:href="#SimSun-31" x="1400"/>
     <use xlink:href="#SimSun-35" x="1450"/>
     <use xlink:href="#SimSun-34" x="1500"/>
     <use xlink:href="#SimSun-37" x="1550"/>
     <use xlink:href="#SimSun-2c" x="1600"/>
     <use xlink:href="#SimSun-20" x="1650"/>
     <use xlink:href="#SimSun-42" x="1700"/>
     <use xlink:href="#SimSun-61" x="1750"/>
     <use xlink:href="#SimSun-6c" x="1800"/>
     <use xlink:href="#SimSun-61" x="1850"/>
     <use xlink:href="#SimSun-6e" x="1900"/>
     <use xlink:href="#SimSun-63" x="1950"/>
     <use xlink:href="#SimSun-65" x="2000"/>
     <use xlink:href="#SimSun-64" x="2050"/>
     <use xlink:href="#SimSun-5f" x="2100"/>
     <use xlink:href="#SimSun-77" x="2150"/>
     <use xlink:href="#SimSun-6f" x="2200"/>
     <use xlink:href="#SimSun-72" x="2250"/>
     <use xlink:href="#SimSun-6b" x="2300"/>
     <use xlink:href="#SimSun-6c" x="2350"/>
     <use xlink:href="#SimSun-6f" x="2400"/>
     <use xlink:href="#SimSun-61" x="2450"/>
     <use xlink:href="#SimSun-64" x="2500"/>
     <use xlink:href="#SimSun-3a" x="2550"/>
     <use xlink:href="#SimSun-20" x="2600"/>
     <use xlink:href="#SimSun-31" x="2650"/>
     <use xlink:href="#SimSun-31" x="2700"/>
     <use xlink:href="#SimSun-33" x="2750"/>
     <use xlink:href="#SimSun-39" x="2800"/>
    </g>
   </g>
  </g>
 </g>
 <defs>
  <clipPath id="p4e33a95272">
   <rect x="56.79375" y="27.496875" width="669.6" height="332.64"/>
  </clipPath>
 </defs>
 <defs>
  <pattern id="h7eb9af2219" patternUnits="userSpaceOnUse" x="0" y="0" width="72" height="72">
   <rect x="0" y="0" width="73" height="73" fill="#808080"/>
   <path d="M -36 36 
L 36 -36 
M -24 48 
L 48 -24 
M -12 60 
L 60 -12 
M 0 72 
L 72 0 
M 12 84 
L 84 12 
M 24 96 
L 96 24 
M 36 108 
L 108 36 
" style="fill: #000000; stroke: #000000; stroke-width: 1.0; stroke-linecap: butt; stroke-linejoin: miter"/>
  </pattern>
 </defs>
</svg>
