<?xml version="1.0" encoding="utf-8" standalone="no"?>
<!DOCTYPE svg PUBLIC "-//W3C//DTD SVG 1.1//EN"
  "http://www.w3.org/Graphics/SVG/1.1/DTD/svg11.dtd">
<svg xmlns:xlink="http://www.w3.org/1999/xlink" width="740.95pt" height="414.25875pt" viewBox="0 0 740.95 414.25875" xmlns="http://www.w3.org/2000/svg" version="1.1">
 <metadata>
  <rdf:RDF xmlns:dc="http://purl.org/dc/elements/1.1/" xmlns:cc="http://creativecommons.org/ns#" xmlns:rdf="http://www.w3.org/1999/02/22-rdf-syntax-ns#">
   <cc:Work>
    <dc:type rdf:resource="http://purl.org/dc/dcmitype/StillImage"/>
    <dc:date>2025-03-02T22:43:43.665106</dc:date>
    <dc:format>image/svg+xml</dc:format>
    <dc:creator>
     <cc:Agent>
      <dc:title>Matplotlib v3.9.2, https://matplotlib.org/</dc:title>
     </cc:Agent>
    </dc:creator>
   </cc:Work>
  </rdf:RDF>
 </metadata>
 <defs>
  <style type="text/css">*{stroke-linejoin: round; stroke-linecap: butt}</style>
 </defs>
 <g id="figure_1">
  <g id="patch_1">
   <path d="M 0 414.25875 
L 740.95 414.25875 
L 740.95 0 
L 0 0 
z
" style="fill: #ffffff"/>
  </g>
  <g id="axes_1">
   <g id="patch_2">
    <path d="M 64.15 359.7275 
L 733.75 359.7275 
L 733.75 27.0875 
L 64.15 27.0875 
z
" style="fill: #ffffff"/>
   </g>
   <g id="PolyCollection_1">
    <defs>
     <path id="me4e80f0539" d="M 94.586364 -69.65125 
L 94.586364 -111.361595 
L 160.752372 -111.361595 
L 160.752372 -69.65125 
z
" style="stroke: #000000"/>
    </defs>
    <g clip-path="url(#pa1b712c3a5)">
     <use xlink:href="#me4e80f0539" x="0" y="414.25875" style="fill: #1f77b4; stroke: #000000"/>
    </g>
   </g>
   <g id="PolyCollection_2">
    <path d="M 94.586364 344.6075 
L 94.586364 302.897155 
L 94.586364 302.897155 
L 94.586364 344.6075 
z
" clip-path="url(#pa1b712c3a5)" style="fill: url(#h54a9225d3e); stroke: #000000"/>
   </g>
   <g id="PolyCollection_3">
    <defs>
     <path id="m24f33712e1" d="M 160.752372 -69.65125 
L 160.752372 -111.361595 
L 173.985573 -111.361595 
L 173.985573 -69.65125 
z
" style="stroke: #000000"/>
    </defs>
    <g clip-path="url(#pa1b712c3a5)">
     <use xlink:href="#m24f33712e1" x="0" y="414.25875" style="fill: #fc9272; stroke: #000000"/>
    </g>
   </g>
   <g id="PolyCollection_4">
    <path d="M 160.752372 344.6075 
L 160.752372 302.897155 
L 160.752372 302.897155 
L 160.752372 344.6075 
z
" clip-path="url(#pa1b712c3a5)" style="fill: url(#h54a9225d3e); stroke: #000000"/>
   </g>
   <g id="PolyCollection_5">
    <defs>
     <path id="mfacd44602e" d="M 173.985573 -69.65125 
L 173.985573 -111.361595 
L 187.218775 -111.361595 
L 187.218775 -69.65125 
z
" style="stroke: #000000"/>
    </defs>
    <g clip-path="url(#pa1b712c3a5)">
     <use xlink:href="#mfacd44602e" x="0" y="414.25875" style="fill: #9ecae1; stroke: #000000"/>
    </g>
   </g>
   <g id="PolyCollection_6">
    <path d="M 173.985573 344.6075 
L 173.985573 302.897155 
L 173.985573 302.897155 
L 173.985573 344.6075 
z
" clip-path="url(#pa1b712c3a5)" style="fill: url(#h54a9225d3e); stroke: #000000"/>
   </g>
   <g id="PolyCollection_7">
    <defs>
     <path id="mbdf6634937" d="M 200.451976 -69.65125 
L 200.451976 -111.361595 
L 213.685178 -111.361595 
L 213.685178 -69.65125 
z
" style="stroke: #000000"/>
    </defs>
    <g clip-path="url(#pa1b712c3a5)">
     <use xlink:href="#mbdf6634937" x="0" y="414.25875" style="fill: #c6dbef; stroke: #000000"/>
    </g>
   </g>
   <g id="PolyCollection_8">
    <path d="M 200.451976 344.6075 
L 200.451976 302.897155 
L 200.451976 302.897155 
L 200.451976 344.6075 
z
" clip-path="url(#pa1b712c3a5)" style="fill: url(#h54a9225d3e); stroke: #000000"/>
   </g>
   <g id="PolyCollection_9">
    <defs>
     <path id="m8619925eee" d="M 226.918379 -69.65125 
L 226.918379 -111.361595 
L 240.151581 -111.361595 
L 240.151581 -69.65125 
z
" style="stroke: #000000"/>
    </defs>
    <g clip-path="url(#pa1b712c3a5)">
     <use xlink:href="#m8619925eee" x="0" y="414.25875" style="fill: #6395b9; stroke: #000000"/>
    </g>
   </g>
   <g id="PolyCollection_10">
    <path d="M 226.918379 344.6075 
L 226.918379 302.897155 
L 226.918379 302.897155 
L 226.918379 344.6075 
z
" clip-path="url(#pa1b712c3a5)" style="fill: url(#h54a9225d3e); stroke: #000000"/>
   </g>
   <g id="PolyCollection_11">
    <defs>
     <path id="maf82fc8726" d="M 240.151581 -69.65125 
L 240.151581 -111.361595 
L 266.617984 -111.361595 
L 266.617984 -69.65125 
z
" style="stroke: #000000"/>
    </defs>
    <g clip-path="url(#pa1b712c3a5)">
     <use xlink:href="#maf82fc8726" x="0" y="414.25875" style="fill: #d62728; stroke: #000000"/>
    </g>
   </g>
   <g id="PolyCollection_12">
    <path d="M 240.151581 344.6075 
L 240.151581 302.897155 
L 240.151581 302.897155 
L 240.151581 344.6075 
z
" clip-path="url(#pa1b712c3a5)" style="fill: url(#h54a9225d3e); stroke: #000000"/>
   </g>
   <g id="PolyCollection_13">
    <defs>
     <path id="me1d135e581" d="M 279.851186 -69.65125 
L 279.851186 -111.361595 
L 293.084387 -111.361595 
L 293.084387 -69.65125 
z
" style="stroke: #000000"/>
    </defs>
    <g clip-path="url(#pa1b712c3a5)">
     <use xlink:href="#me1d135e581" x="0" y="414.25875" style="fill: #1f77b4; stroke: #000000"/>
    </g>
   </g>
   <g id="PolyCollection_14">
    <path d="M 279.851186 344.6075 
L 279.851186 302.897155 
L 279.851186 302.897155 
L 279.851186 344.6075 
z
" clip-path="url(#pa1b712c3a5)" style="fill: url(#h54a9225d3e); stroke: #000000"/>
   </g>
   <g id="PolyCollection_15">
    <defs>
     <path id="m3c328a9b52" d="M 293.084387 -69.65125 
L 293.084387 -111.361595 
L 319.550791 -111.361595 
L 319.550791 -69.65125 
z
" style="stroke: #000000"/>
    </defs>
    <g clip-path="url(#pa1b712c3a5)">
     <use xlink:href="#m3c328a9b52" x="0" y="414.25875" style="fill: #4c78a8; stroke: #000000"/>
    </g>
   </g>
   <g id="PolyCollection_16">
    <path d="M 293.084387 344.6075 
L 293.084387 302.897155 
L 293.084387 302.897155 
L 293.084387 344.6075 
z
" clip-path="url(#pa1b712c3a5)" style="fill: url(#h54a9225d3e); stroke: #000000"/>
   </g>
   <g id="PolyCollection_17">
    <defs>
     <path id="m427f32783e" d="M 319.550791 -69.65125 
L 319.550791 -111.361595 
L 359.250395 -111.361595 
L 359.250395 -69.65125 
z
" style="stroke: #000000"/>
    </defs>
    <g clip-path="url(#pa1b712c3a5)">
     <use xlink:href="#m427f32783e" x="0" y="414.25875" style="fill: #e45756; stroke: #000000"/>
    </g>
   </g>
   <g id="PolyCollection_18">
    <path d="M 319.550791 344.6075 
L 319.550791 302.897155 
L 319.550791 302.897155 
L 319.550791 344.6075 
z
" clip-path="url(#pa1b712c3a5)" style="fill: url(#h54a9225d3e); stroke: #000000"/>
   </g>
   <g id="PolyCollection_19">
    <defs>
     <path id="md03a80879b" d="M 359.250395 -69.65125 
L 359.250395 -111.361595 
L 425.416403 -111.361595 
L 425.416403 -69.65125 
z
" style="stroke: #000000"/>
    </defs>
    <g clip-path="url(#pa1b712c3a5)">
     <use xlink:href="#md03a80879b" x="0" y="414.25875" style="fill: #c6dbef; stroke: #000000"/>
    </g>
   </g>
   <g id="PolyCollection_20">
    <path d="M 359.250395 344.6075 
L 359.250395 302.897155 
L 359.250395 302.897155 
L 359.250395 344.6075 
z
" clip-path="url(#pa1b712c3a5)" style="fill: url(#h54a9225d3e); stroke: #000000"/>
   </g>
   <g id="PolyCollection_21">
    <defs>
     <path id="m4251fa8e92" d="M 425.416403 -69.65125 
L 425.416403 -111.361595 
L 438.649605 -111.361595 
L 438.649605 -69.65125 
z
" style="stroke: #000000"/>
    </defs>
    <g clip-path="url(#pa1b712c3a5)">
     <use xlink:href="#m4251fa8e92" x="0" y="414.25875" style="fill: #f67e7d; stroke: #000000"/>
    </g>
   </g>
   <g id="PolyCollection_22">
    <path d="M 425.416403 344.6075 
L 425.416403 302.897155 
L 425.416403 302.897155 
L 425.416403 344.6075 
z
" clip-path="url(#pa1b712c3a5)" style="fill: url(#h54a9225d3e); stroke: #000000"/>
   </g>
   <g id="PolyCollection_23">
    <defs>
     <path id="mcebd16aa41" d="M 438.649605 -69.65125 
L 438.649605 -111.361595 
L 465.116008 -111.361595 
L 465.116008 -69.65125 
z
" style="stroke: #000000"/>
    </defs>
    <g clip-path="url(#pa1b712c3a5)">
     <use xlink:href="#mcebd16aa41" x="0" y="414.25875" style="fill: #fc9272; stroke: #000000"/>
    </g>
   </g>
   <g id="PolyCollection_24">
    <path d="M 438.649605 344.6075 
L 438.649605 302.897155 
L 438.649605 302.897155 
L 438.649605 344.6075 
z
" clip-path="url(#pa1b712c3a5)" style="fill: url(#h54a9225d3e); stroke: #000000"/>
   </g>
   <g id="PolyCollection_25">
    <defs>
     <path id="mcdc886e384" d="M 465.116008 -69.65125 
L 465.116008 -111.361595 
L 504.815613 -111.361595 
L 504.815613 -69.65125 
z
" style="stroke: #000000"/>
    </defs>
    <g clip-path="url(#pa1b712c3a5)">
     <use xlink:href="#mcdc886e384" x="0" y="414.25875" style="fill: #fee0d2; stroke: #000000"/>
    </g>
   </g>
   <g id="PolyCollection_26">
    <path d="M 465.116008 344.6075 
L 465.116008 302.897155 
L 465.116008 302.897155 
L 465.116008 344.6075 
z
" clip-path="url(#pa1b712c3a5)" style="fill: url(#h54a9225d3e); stroke: #000000"/>
   </g>
   <g id="PolyCollection_27">
    <defs>
     <path id="m77f0877e8b" d="M 531.282016 -69.65125 
L 531.282016 -111.361595 
L 544.515217 -111.361595 
L 544.515217 -69.65125 
z
" style="stroke: #000000"/>
    </defs>
    <g clip-path="url(#pa1b712c3a5)">
     <use xlink:href="#m77f0877e8b" x="0" y="414.25875" style="fill: #d62728; stroke: #000000"/>
    </g>
   </g>
   <g id="PolyCollection_28">
    <path d="M 531.282016 344.6075 
L 531.282016 302.897155 
L 531.282016 302.897155 
L 531.282016 344.6075 
z
" clip-path="url(#pa1b712c3a5)" style="fill: url(#h54a9225d3e); stroke: #000000"/>
   </g>
   <g id="PolyCollection_29">
    <defs>
     <path id="m0ad726ca8b" d="M 544.515217 -69.65125 
L 544.515217 -111.361595 
L 584.214822 -111.361595 
L 584.214822 -69.65125 
z
" style="stroke: #000000"/>
    </defs>
    <g clip-path="url(#pa1b712c3a5)">
     <use xlink:href="#m0ad726ca8b" x="0" y="414.25875" style="fill: #d62728; stroke: #000000"/>
    </g>
   </g>
   <g id="PolyCollection_30">
    <path d="M 544.515217 344.6075 
L 544.515217 302.897155 
L 544.515217 302.897155 
L 544.515217 344.6075 
z
" clip-path="url(#pa1b712c3a5)" style="fill: url(#h54a9225d3e); stroke: #000000"/>
   </g>
   <g id="PolyCollection_31">
    <defs>
     <path id="me9cc7a6ef6" d="M 584.214822 -69.65125 
L 584.214822 -111.361595 
L 597.448024 -111.361595 
L 597.448024 -69.65125 
z
" style="stroke: #000000"/>
    </defs>
    <g clip-path="url(#pa1b712c3a5)">
     <use xlink:href="#me9cc7a6ef6" x="0" y="414.25875" style="fill: #4c78a8; stroke: #000000"/>
    </g>
   </g>
   <g id="PolyCollection_32">
    <path d="M 584.214822 344.6075 
L 584.214822 302.897155 
L 584.214822 302.897155 
L 584.214822 344.6075 
z
" clip-path="url(#pa1b712c3a5)" style="fill: url(#h54a9225d3e); stroke: #000000"/>
   </g>
   <g id="PolyCollection_33">
    <defs>
     <path id="mf0f08b8877" d="M 94.586364 -121.789181 
L 94.586364 -163.499526 
L 173.985573 -163.499526 
L 173.985573 -121.789181 
z
" style="stroke: #000000"/>
    </defs>
    <g clip-path="url(#pa1b712c3a5)">
     <use xlink:href="#mf0f08b8877" x="0" y="414.25875" style="fill: #6395b9; stroke: #000000"/>
    </g>
   </g>
   <g id="PolyCollection_34">
    <path d="M 94.586364 292.469569 
L 94.586364 250.759224 
L 94.586364 250.759224 
L 94.586364 292.469569 
z
" clip-path="url(#pa1b712c3a5)" style="fill: url(#h54a9225d3e); stroke: #000000"/>
   </g>
   <g id="PolyCollection_35">
    <defs>
     <path id="m94b1fbf500" d="M 173.985573 -121.789181 
L 173.985573 -163.499526 
L 187.218775 -163.499526 
L 187.218775 -121.789181 
z
" style="stroke: #000000"/>
    </defs>
    <g clip-path="url(#pa1b712c3a5)">
     <use xlink:href="#m94b1fbf500" x="0" y="414.25875" style="fill: #1f77b4; stroke: #000000"/>
    </g>
   </g>
   <g id="PolyCollection_36">
    <path d="M 173.985573 292.469569 
L 173.985573 250.759224 
L 173.985573 250.759224 
L 173.985573 292.469569 
z
" clip-path="url(#pa1b712c3a5)" style="fill: url(#h54a9225d3e); stroke: #000000"/>
   </g>
   <g id="PolyCollection_37">
    <defs>
     <path id="ma9d227aef6" d="M 187.218775 -121.789181 
L 187.218775 -163.499526 
L 200.451976 -163.499526 
L 200.451976 -121.789181 
z
" style="stroke: #000000"/>
    </defs>
    <g clip-path="url(#pa1b712c3a5)">
     <use xlink:href="#ma9d227aef6" x="0" y="414.25875" style="fill: #c6dbef; stroke: #000000"/>
    </g>
   </g>
   <g id="PolyCollection_38">
    <path d="M 187.218775 292.469569 
L 187.218775 250.759224 
L 187.218775 250.759224 
L 187.218775 292.469569 
z
" clip-path="url(#pa1b712c3a5)" style="fill: url(#h54a9225d3e); stroke: #000000"/>
   </g>
   <g id="PolyCollection_39">
    <defs>
     <path id="mdc3e3fa5d7" d="M 200.451976 -121.789181 
L 200.451976 -163.499526 
L 279.851186 -163.499526 
L 279.851186 -121.789181 
z
" style="stroke: #000000"/>
    </defs>
    <g clip-path="url(#pa1b712c3a5)">
     <use xlink:href="#mdc3e3fa5d7" x="0" y="414.25875" style="fill: #4c78a8; stroke: #000000"/>
    </g>
   </g>
   <g id="PolyCollection_40">
    <path d="M 200.451976 292.469569 
L 200.451976 250.759224 
L 200.451976 250.759224 
L 200.451976 292.469569 
z
" clip-path="url(#pa1b712c3a5)" style="fill: url(#h54a9225d3e); stroke: #000000"/>
   </g>
   <g id="PolyCollection_41">
    <defs>
     <path id="m4e02d170ed" d="M 279.851186 -121.789181 
L 279.851186 -163.499526 
L 359.250395 -163.499526 
L 359.250395 -121.789181 
z
" style="stroke: #000000"/>
    </defs>
    <g clip-path="url(#pa1b712c3a5)">
     <use xlink:href="#m4e02d170ed" x="0" y="414.25875" style="fill: #c6dbef; stroke: #000000"/>
    </g>
   </g>
   <g id="PolyCollection_42">
    <path d="M 279.851186 292.469569 
L 279.851186 250.759224 
L 279.851186 250.759224 
L 279.851186 292.469569 
z
" clip-path="url(#pa1b712c3a5)" style="fill: url(#h54a9225d3e); stroke: #000000"/>
   </g>
   <g id="PolyCollection_43">
    <defs>
     <path id="m00b80fddfc" d="M 359.250395 -121.789181 
L 359.250395 -163.499526 
L 438.649605 -163.499526 
L 438.649605 -121.789181 
z
" style="stroke: #000000"/>
    </defs>
    <g clip-path="url(#pa1b712c3a5)">
     <use xlink:href="#m00b80fddfc" x="0" y="414.25875" style="fill: #9ecae1; stroke: #000000"/>
    </g>
   </g>
   <g id="PolyCollection_44">
    <path d="M 359.250395 292.469569 
L 359.250395 250.759224 
L 359.250395 250.759224 
L 359.250395 292.469569 
z
" clip-path="url(#pa1b712c3a5)" style="fill: url(#h54a9225d3e); stroke: #000000"/>
   </g>
   <g id="PolyCollection_45">
    <defs>
     <path id="m95b5d309a5" d="M 451.882806 -121.789181 
L 451.882806 -163.499526 
L 531.282016 -163.499526 
L 531.282016 -121.789181 
z
" style="stroke: #000000"/>
    </defs>
    <g clip-path="url(#pa1b712c3a5)">
     <use xlink:href="#m95b5d309a5" x="0" y="414.25875" style="fill: #d62728; stroke: #000000"/>
    </g>
   </g>
   <g id="PolyCollection_46">
    <path d="M 451.882806 292.469569 
L 451.882806 250.759224 
L 451.882806 250.759224 
L 451.882806 292.469569 
z
" clip-path="url(#pa1b712c3a5)" style="fill: url(#h54a9225d3e); stroke: #000000"/>
   </g>
   <g id="PolyCollection_47">
    <defs>
     <path id="m82003a2ff9" d="M 531.282016 -121.789181 
L 531.282016 -163.499526 
L 544.515217 -163.499526 
L 544.515217 -121.789181 
z
" style="stroke: #000000"/>
    </defs>
    <g clip-path="url(#pa1b712c3a5)">
     <use xlink:href="#m82003a2ff9" x="0" y="414.25875" style="fill: #9ecae1; stroke: #000000"/>
    </g>
   </g>
   <g id="PolyCollection_48">
    <path d="M 531.282016 292.469569 
L 531.282016 250.759224 
L 531.282016 250.759224 
L 531.282016 292.469569 
z
" clip-path="url(#pa1b712c3a5)" style="fill: url(#h54a9225d3e); stroke: #000000"/>
   </g>
   <g id="PolyCollection_49">
    <defs>
     <path id="m51f301ba2d" d="M 544.515217 -121.789181 
L 544.515217 -163.499526 
L 623.914427 -163.499526 
L 623.914427 -121.789181 
z
" style="stroke: #000000"/>
    </defs>
    <g clip-path="url(#pa1b712c3a5)">
     <use xlink:href="#m51f301ba2d" x="0" y="414.25875" style="fill: #f67e7d; stroke: #000000"/>
    </g>
   </g>
   <g id="PolyCollection_50">
    <path d="M 544.515217 292.469569 
L 544.515217 250.759224 
L 544.515217 250.759224 
L 544.515217 292.469569 
z
" clip-path="url(#pa1b712c3a5)" style="fill: url(#h54a9225d3e); stroke: #000000"/>
   </g>
   <g id="PolyCollection_51">
    <defs>
     <path id="m52908fed04" d="M 623.914427 -121.789181 
L 623.914427 -163.499526 
L 703.313636 -163.499526 
L 703.313636 -121.789181 
z
" style="stroke: #000000"/>
    </defs>
    <g clip-path="url(#pa1b712c3a5)">
     <use xlink:href="#m52908fed04" x="0" y="414.25875" style="fill: #f67e7d; stroke: #000000"/>
    </g>
   </g>
   <g id="PolyCollection_52">
    <path d="M 623.914427 292.469569 
L 623.914427 250.759224 
L 623.914427 250.759224 
L 623.914427 292.469569 
z
" clip-path="url(#pa1b712c3a5)" style="fill: url(#h54a9225d3e); stroke: #000000"/>
   </g>
   <g id="PolyCollection_53">
    <defs>
     <path id="mb40521057c" d="M 173.985573 -173.927112 
L 173.985573 -215.637457 
L 226.918379 -215.637457 
L 226.918379 -173.927112 
z
" style="stroke: #000000"/>
    </defs>
    <g clip-path="url(#pa1b712c3a5)">
     <use xlink:href="#mb40521057c" x="0" y="414.25875" style="fill: #6395b9; stroke: #000000"/>
    </g>
   </g>
   <g id="PolyCollection_54">
    <path d="M 173.985573 240.331638 
L 173.985573 198.621293 
L 173.985573 198.621293 
L 173.985573 240.331638 
z
" clip-path="url(#pa1b712c3a5)" style="fill: url(#h54a9225d3e); stroke: #000000"/>
   </g>
   <g id="PolyCollection_55">
    <defs>
     <path id="mfb503aaf8e" d="M 226.918379 -173.927112 
L 226.918379 -215.637457 
L 279.851186 -215.637457 
L 279.851186 -173.927112 
z
" style="stroke: #000000"/>
    </defs>
    <g clip-path="url(#pa1b712c3a5)">
     <use xlink:href="#mfb503aaf8e" x="0" y="414.25875" style="fill: #1f77b4; stroke: #000000"/>
    </g>
   </g>
   <g id="PolyCollection_56">
    <path d="M 226.918379 240.331638 
L 226.918379 198.621293 
L 226.918379 198.621293 
L 226.918379 240.331638 
z
" clip-path="url(#pa1b712c3a5)" style="fill: url(#h54a9225d3e); stroke: #000000"/>
   </g>
   <g id="PolyCollection_57">
    <defs>
     <path id="m6747abfaf1" d="M 279.851186 -173.927112 
L 279.851186 -215.637457 
L 293.084387 -215.637457 
L 293.084387 -173.927112 
z
" style="stroke: #000000"/>
    </defs>
    <g clip-path="url(#pa1b712c3a5)">
     <use xlink:href="#m6747abfaf1" x="0" y="414.25875" style="fill: #4c78a8; stroke: #000000"/>
    </g>
   </g>
   <g id="PolyCollection_58">
    <path d="M 279.851186 240.331638 
L 279.851186 198.621293 
L 279.851186 198.621293 
L 279.851186 240.331638 
z
" clip-path="url(#pa1b712c3a5)" style="fill: url(#h54a9225d3e); stroke: #000000"/>
   </g>
   <g id="PolyCollection_59">
    <defs>
     <path id="m536decf1ad" d="M 293.084387 -173.927112 
L 293.084387 -215.637457 
L 346.017194 -215.637457 
L 346.017194 -173.927112 
z
" style="stroke: #000000"/>
    </defs>
    <g clip-path="url(#pa1b712c3a5)">
     <use xlink:href="#m536decf1ad" x="0" y="414.25875" style="fill: #f67e7d; stroke: #000000"/>
    </g>
   </g>
   <g id="PolyCollection_60">
    <path d="M 293.084387 240.331638 
L 293.084387 198.621293 
L 293.084387 198.621293 
L 293.084387 240.331638 
z
" clip-path="url(#pa1b712c3a5)" style="fill: url(#h54a9225d3e); stroke: #000000"/>
   </g>
   <g id="PolyCollection_61">
    <defs>
     <path id="mfd62eac3ef" d="M 346.017194 -173.927112 
L 346.017194 -215.637457 
L 398.95 -215.637457 
L 398.95 -173.927112 
z
" style="stroke: #000000"/>
    </defs>
    <g clip-path="url(#pa1b712c3a5)">
     <use xlink:href="#mfd62eac3ef" x="0" y="414.25875" style="fill: #6395b9; stroke: #000000"/>
    </g>
   </g>
   <g id="PolyCollection_62">
    <path d="M 346.017194 240.331638 
L 346.017194 198.621293 
L 346.017194 198.621293 
L 346.017194 240.331638 
z
" clip-path="url(#pa1b712c3a5)" style="fill: url(#h54a9225d3e); stroke: #000000"/>
   </g>
   <g id="PolyCollection_63">
    <defs>
     <path id="mb12a078319" d="M 398.95 -173.927112 
L 398.95 -215.637457 
L 451.882806 -215.637457 
L 451.882806 -173.927112 
z
" style="stroke: #000000"/>
    </defs>
    <g clip-path="url(#pa1b712c3a5)">
     <use xlink:href="#mb12a078319" x="0" y="414.25875" style="fill: #d62728; stroke: #000000"/>
    </g>
   </g>
   <g id="PolyCollection_64">
    <path d="M 398.95 240.331638 
L 398.95 198.621293 
L 398.95 198.621293 
L 398.95 240.331638 
z
" clip-path="url(#pa1b712c3a5)" style="fill: url(#h54a9225d3e); stroke: #000000"/>
   </g>
   <g id="PolyCollection_65">
    <defs>
     <path id="m3373e288cb" d="M 451.882806 -173.927112 
L 451.882806 -215.637457 
L 465.116008 -215.637457 
L 465.116008 -173.927112 
z
" style="stroke: #000000"/>
    </defs>
    <g clip-path="url(#pa1b712c3a5)">
     <use xlink:href="#m3373e288cb" x="0" y="414.25875" style="fill: #9ecae1; stroke: #000000"/>
    </g>
   </g>
   <g id="PolyCollection_66">
    <path d="M 451.882806 240.331638 
L 451.882806 198.621293 
L 451.882806 198.621293 
L 451.882806 240.331638 
z
" clip-path="url(#pa1b712c3a5)" style="fill: url(#h54a9225d3e); stroke: #000000"/>
   </g>
   <g id="PolyCollection_67">
    <defs>
     <path id="mac3b4c8f10" d="M 465.116008 -173.927112 
L 465.116008 -215.637457 
L 518.048814 -215.637457 
L 518.048814 -173.927112 
z
" style="stroke: #000000"/>
    </defs>
    <g clip-path="url(#pa1b712c3a5)">
     <use xlink:href="#mac3b4c8f10" x="0" y="414.25875" style="fill: #e45756; stroke: #000000"/>
    </g>
   </g>
   <g id="PolyCollection_68">
    <path d="M 465.116008 240.331638 
L 465.116008 198.621293 
L 465.116008 198.621293 
L 465.116008 240.331638 
z
" clip-path="url(#pa1b712c3a5)" style="fill: url(#h54a9225d3e); stroke: #000000"/>
   </g>
   <g id="PolyCollection_69">
    <defs>
     <path id="m5f38121ccb" d="M 518.048814 -173.927112 
L 518.048814 -215.637457 
L 570.981621 -215.637457 
L 570.981621 -173.927112 
z
" style="stroke: #000000"/>
    </defs>
    <g clip-path="url(#pa1b712c3a5)">
     <use xlink:href="#m5f38121ccb" x="0" y="414.25875" style="fill: #c6dbef; stroke: #000000"/>
    </g>
   </g>
   <g id="PolyCollection_70">
    <path d="M 518.048814 240.331638 
L 518.048814 198.621293 
L 518.048814 198.621293 
L 518.048814 240.331638 
z
" clip-path="url(#pa1b712c3a5)" style="fill: url(#h54a9225d3e); stroke: #000000"/>
   </g>
   <g id="PolyCollection_71">
    <defs>
     <path id="mdaa20b0e57" d="M 570.981621 -173.927112 
L 570.981621 -215.637457 
L 584.214822 -215.637457 
L 584.214822 -173.927112 
z
" style="stroke: #000000"/>
    </defs>
    <g clip-path="url(#pa1b712c3a5)">
     <use xlink:href="#mdaa20b0e57" x="0" y="414.25875" style="fill: #1f77b4; stroke: #000000"/>
    </g>
   </g>
   <g id="PolyCollection_72">
    <path d="M 570.981621 240.331638 
L 570.981621 198.621293 
L 570.981621 198.621293 
L 570.981621 240.331638 
z
" clip-path="url(#pa1b712c3a5)" style="fill: url(#h54a9225d3e); stroke: #000000"/>
   </g>
   <g id="PolyCollection_73">
    <defs>
     <path id="mb98e5a2fdc" d="M 584.214822 -173.927112 
L 584.214822 -215.637457 
L 637.147628 -215.637457 
L 637.147628 -173.927112 
z
" style="stroke: #000000"/>
    </defs>
    <g clip-path="url(#pa1b712c3a5)">
     <use xlink:href="#mb98e5a2fdc" x="0" y="414.25875" style="fill: #9ecae1; stroke: #000000"/>
    </g>
   </g>
   <g id="PolyCollection_74">
    <path d="M 584.214822 240.331638 
L 584.214822 198.621293 
L 584.214822 198.621293 
L 584.214822 240.331638 
z
" clip-path="url(#pa1b712c3a5)" style="fill: url(#h54a9225d3e); stroke: #000000"/>
   </g>
   <g id="PolyCollection_75">
    <defs>
     <path id="m265fd441c0" d="M 637.147628 -173.927112 
L 637.147628 -215.637457 
L 650.38083 -215.637457 
L 650.38083 -173.927112 
z
" style="stroke: #000000"/>
    </defs>
    <g clip-path="url(#pa1b712c3a5)">
     <use xlink:href="#m265fd441c0" x="0" y="414.25875" style="fill: #e45756; stroke: #000000"/>
    </g>
   </g>
   <g id="PolyCollection_76">
    <path d="M 637.147628 240.331638 
L 637.147628 198.621293 
L 637.147628 198.621293 
L 637.147628 240.331638 
z
" clip-path="url(#pa1b712c3a5)" style="fill: url(#h54a9225d3e); stroke: #000000"/>
   </g>
   <g id="PolyCollection_77">
    <defs>
     <path id="mad22aefd11" d="M 293.084387 -226.065043 
L 293.084387 -267.775388 
L 372.483597 -267.775388 
L 372.483597 -226.065043 
z
" style="stroke: #000000"/>
    </defs>
    <g clip-path="url(#pa1b712c3a5)">
     <use xlink:href="#mad22aefd11" x="0" y="414.25875" style="fill: #fee0d2; stroke: #000000"/>
    </g>
   </g>
   <g id="PolyCollection_78">
    <path d="M 293.084387 188.193707 
L 293.084387 146.483362 
L 293.084387 146.483362 
L 293.084387 188.193707 
z
" clip-path="url(#pa1b712c3a5)" style="fill: url(#h54a9225d3e); stroke: #000000"/>
   </g>
   <g id="PolyCollection_79">
    <defs>
     <path id="m015c08db3a" d="M 425.416403 -226.065043 
L 425.416403 -267.775388 
L 504.815613 -267.775388 
L 504.815613 -226.065043 
z
" style="stroke: #000000"/>
    </defs>
    <g clip-path="url(#pa1b712c3a5)">
     <use xlink:href="#m015c08db3a" x="0" y="414.25875" style="fill: #c6dbef; stroke: #000000"/>
    </g>
   </g>
   <g id="PolyCollection_80">
    <path d="M 425.416403 188.193707 
L 425.416403 146.483362 
L 425.416403 146.483362 
L 425.416403 188.193707 
z
" clip-path="url(#pa1b712c3a5)" style="fill: url(#h54a9225d3e); stroke: #000000"/>
   </g>
   <g id="PolyCollection_81">
    <defs>
     <path id="m544bf4afb2" d="M 504.815613 -226.065043 
L 504.815613 -267.775388 
L 584.214822 -267.775388 
L 584.214822 -226.065043 
z
" style="stroke: #000000"/>
    </defs>
    <g clip-path="url(#pa1b712c3a5)">
     <use xlink:href="#m544bf4afb2" x="0" y="414.25875" style="fill: #4c78a8; stroke: #000000"/>
    </g>
   </g>
   <g id="PolyCollection_82">
    <path d="M 504.815613 188.193707 
L 504.815613 146.483362 
L 504.815613 146.483362 
L 504.815613 188.193707 
z
" clip-path="url(#pa1b712c3a5)" style="fill: url(#h54a9225d3e); stroke: #000000"/>
   </g>
   <g id="PolyCollection_83">
    <defs>
     <path id="m1625adde12" d="M 584.214822 -226.065043 
L 584.214822 -267.775388 
L 663.614032 -267.775388 
L 663.614032 -226.065043 
z
" style="stroke: #000000"/>
    </defs>
    <g clip-path="url(#pa1b712c3a5)">
     <use xlink:href="#m1625adde12" x="0" y="414.25875" style="fill: #fc9272; stroke: #000000"/>
    </g>
   </g>
   <g id="PolyCollection_84">
    <path d="M 584.214822 188.193707 
L 584.214822 146.483362 
L 584.214822 146.483362 
L 584.214822 188.193707 
z
" clip-path="url(#pa1b712c3a5)" style="fill: url(#h54a9225d3e); stroke: #000000"/>
   </g>
   <g id="PolyCollection_85">
    <defs>
     <path id="mf35e390f1f" d="M 663.614032 -226.065043 
L 663.614032 -267.775388 
L 703.313636 -267.775388 
L 703.313636 -226.065043 
z
" style="stroke: #000000"/>
    </defs>
    <g clip-path="url(#pa1b712c3a5)">
     <use xlink:href="#mf35e390f1f" x="0" y="414.25875" style="fill: #1f77b4; stroke: #000000"/>
    </g>
   </g>
   <g id="PolyCollection_86">
    <path d="M 663.614032 188.193707 
L 663.614032 146.483362 
L 663.614032 146.483362 
L 663.614032 188.193707 
z
" clip-path="url(#pa1b712c3a5)" style="fill: url(#h54a9225d3e); stroke: #000000"/>
   </g>
   <g id="PolyCollection_87">
    <defs>
     <path id="m2cb716e4a8" d="M 240.151581 -278.202974 
L 240.151581 -319.913319 
L 279.851186 -319.913319 
L 279.851186 -278.202974 
z
" style="stroke: #000000"/>
    </defs>
    <g clip-path="url(#pa1b712c3a5)">
     <use xlink:href="#m2cb716e4a8" x="0" y="414.25875" style="fill: #fee0d2; stroke: #000000"/>
    </g>
   </g>
   <g id="PolyCollection_88">
    <path d="M 240.151581 136.055776 
L 240.151581 94.345431 
L 240.151581 94.345431 
L 240.151581 136.055776 
z
" clip-path="url(#pa1b712c3a5)" style="fill: url(#h54a9225d3e); stroke: #000000"/>
   </g>
   <g id="PolyCollection_89">
    <defs>
     <path id="m632a7d531c" d="M 398.95 -278.202974 
L 398.95 -319.913319 
L 465.116008 -319.913319 
L 465.116008 -278.202974 
z
" style="stroke: #000000"/>
    </defs>
    <g clip-path="url(#pa1b712c3a5)">
     <use xlink:href="#m632a7d531c" x="0" y="414.25875" style="fill: #6395b9; stroke: #000000"/>
    </g>
   </g>
   <g id="PolyCollection_90">
    <path d="M 398.95 136.055776 
L 398.95 94.345431 
L 398.95 94.345431 
L 398.95 136.055776 
z
" clip-path="url(#pa1b712c3a5)" style="fill: url(#h54a9225d3e); stroke: #000000"/>
   </g>
   <g id="PolyCollection_91">
    <defs>
     <path id="maaaad6567a" d="M 518.048814 -278.202974 
L 518.048814 -319.913319 
L 531.282016 -319.913319 
L 531.282016 -278.202974 
z
" style="stroke: #000000"/>
    </defs>
    <g clip-path="url(#pa1b712c3a5)">
     <use xlink:href="#maaaad6567a" x="0" y="414.25875" style="fill: #e45756; stroke: #000000"/>
    </g>
   </g>
   <g id="PolyCollection_92">
    <path d="M 518.048814 136.055776 
L 518.048814 94.345431 
L 518.048814 94.345431 
L 518.048814 136.055776 
z
" clip-path="url(#pa1b712c3a5)" style="fill: url(#h54a9225d3e); stroke: #000000"/>
   </g>
   <g id="PolyCollection_93">
    <defs>
     <path id="me44ad86497" d="M 94.586364 -330.340905 
L 94.586364 -372.05125 
L 107.819565 -372.05125 
L 107.819565 -330.340905 
z
" style="stroke: #000000"/>
    </defs>
    <g clip-path="url(#pa1b712c3a5)">
     <use xlink:href="#me44ad86497" x="0" y="414.25875" style="fill: #fc9272; stroke: #000000"/>
    </g>
   </g>
   <g id="PolyCollection_94">
    <path d="M 94.586364 83.917845 
L 94.586364 42.2075 
L 94.586364 42.2075 
L 94.586364 83.917845 
z
" clip-path="url(#pa1b712c3a5)" style="fill: url(#h54a9225d3e); stroke: #000000"/>
   </g>
   <g id="PolyCollection_95">
    <defs>
     <path id="me64577dbb6" d="M 107.819565 -330.340905 
L 107.819565 -372.05125 
L 134.285968 -372.05125 
L 134.285968 -330.340905 
z
" style="stroke: #000000"/>
    </defs>
    <g clip-path="url(#pa1b712c3a5)">
     <use xlink:href="#me64577dbb6" x="0" y="414.25875" style="fill: #d62728; stroke: #000000"/>
    </g>
   </g>
   <g id="PolyCollection_96">
    <path d="M 107.819565 83.917845 
L 107.819565 42.2075 
L 107.819565 42.2075 
L 107.819565 83.917845 
z
" clip-path="url(#pa1b712c3a5)" style="fill: url(#h54a9225d3e); stroke: #000000"/>
   </g>
   <g id="PolyCollection_97">
    <defs>
     <path id="maca25b3a9e" d="M 134.285968 -330.340905 
L 134.285968 -372.05125 
L 160.752372 -372.05125 
L 160.752372 -330.340905 
z
" style="stroke: #000000"/>
    </defs>
    <g clip-path="url(#pa1b712c3a5)">
     <use xlink:href="#maca25b3a9e" x="0" y="414.25875" style="fill: #fee0d2; stroke: #000000"/>
    </g>
   </g>
   <g id="PolyCollection_98">
    <path d="M 134.285968 83.917845 
L 134.285968 42.2075 
L 134.285968 42.2075 
L 134.285968 83.917845 
z
" clip-path="url(#pa1b712c3a5)" style="fill: url(#h54a9225d3e); stroke: #000000"/>
   </g>
   <g id="PolyCollection_99">
    <defs>
     <path id="m1d46195fdc" d="M 160.752372 -330.340905 
L 160.752372 -372.05125 
L 240.151581 -372.05125 
L 240.151581 -330.340905 
z
" style="stroke: #000000"/>
    </defs>
    <g clip-path="url(#pa1b712c3a5)">
     <use xlink:href="#m1d46195fdc" x="0" y="414.25875" style="fill: #fee0d2; stroke: #000000"/>
    </g>
   </g>
   <g id="PolyCollection_100">
    <path d="M 160.752372 83.917845 
L 160.752372 42.2075 
L 160.752372 42.2075 
L 160.752372 83.917845 
z
" clip-path="url(#pa1b712c3a5)" style="fill: url(#h54a9225d3e); stroke: #000000"/>
   </g>
   <g id="PolyCollection_101">
    <defs>
     <path id="mfaeccfb442" d="M 240.151581 -330.340905 
L 240.151581 -372.05125 
L 266.617984 -372.05125 
L 266.617984 -330.340905 
z
" style="stroke: #000000"/>
    </defs>
    <g clip-path="url(#pa1b712c3a5)">
     <use xlink:href="#mfaeccfb442" x="0" y="414.25875" style="fill: #f67e7d; stroke: #000000"/>
    </g>
   </g>
   <g id="PolyCollection_102">
    <path d="M 240.151581 83.917845 
L 240.151581 42.2075 
L 240.151581 42.2075 
L 240.151581 83.917845 
z
" clip-path="url(#pa1b712c3a5)" style="fill: url(#h54a9225d3e); stroke: #000000"/>
   </g>
   <g id="PolyCollection_103">
    <defs>
     <path id="m5563cb1a88" d="M 266.617984 -330.340905 
L 266.617984 -372.05125 
L 279.851186 -372.05125 
L 279.851186 -330.340905 
z
" style="stroke: #000000"/>
    </defs>
    <g clip-path="url(#pa1b712c3a5)">
     <use xlink:href="#m5563cb1a88" x="0" y="414.25875" style="fill: #e45756; stroke: #000000"/>
    </g>
   </g>
   <g id="PolyCollection_104">
    <path d="M 266.617984 83.917845 
L 266.617984 42.2075 
L 266.617984 42.2075 
L 266.617984 83.917845 
z
" clip-path="url(#pa1b712c3a5)" style="fill: url(#h54a9225d3e); stroke: #000000"/>
   </g>
   <g id="PolyCollection_105">
    <defs>
     <path id="m0b9d40067a" d="M 279.851186 -330.340905 
L 279.851186 -372.05125 
L 293.084387 -372.05125 
L 293.084387 -330.340905 
z
" style="stroke: #000000"/>
    </defs>
    <g clip-path="url(#pa1b712c3a5)">
     <use xlink:href="#m0b9d40067a" x="0" y="414.25875" style="fill: #fee0d2; stroke: #000000"/>
    </g>
   </g>
   <g id="PolyCollection_106">
    <path d="M 279.851186 83.917845 
L 279.851186 42.2075 
L 279.851186 42.2075 
L 279.851186 83.917845 
z
" clip-path="url(#pa1b712c3a5)" style="fill: url(#h54a9225d3e); stroke: #000000"/>
   </g>
   <g id="PolyCollection_107">
    <defs>
     <path id="m7fca672f6a" d="M 293.084387 -330.340905 
L 293.084387 -372.05125 
L 372.483597 -372.05125 
L 372.483597 -330.340905 
z
" style="stroke: #000000"/>
    </defs>
    <g clip-path="url(#pa1b712c3a5)">
     <use xlink:href="#m7fca672f6a" x="0" y="414.25875" style="fill: #fc9272; stroke: #000000"/>
    </g>
   </g>
   <g id="PolyCollection_108">
    <path d="M 293.084387 83.917845 
L 293.084387 42.2075 
L 293.084387 42.2075 
L 293.084387 83.917845 
z
" clip-path="url(#pa1b712c3a5)" style="fill: url(#h54a9225d3e); stroke: #000000"/>
   </g>
   <g id="PolyCollection_109">
    <defs>
     <path id="mbcd00ac2dd" d="M 465.116008 -330.340905 
L 465.116008 -372.05125 
L 544.515217 -372.05125 
L 544.515217 -330.340905 
z
" style="stroke: #000000"/>
    </defs>
    <g clip-path="url(#pa1b712c3a5)">
     <use xlink:href="#mbcd00ac2dd" x="0" y="414.25875" style="fill: #fc9272; stroke: #000000"/>
    </g>
   </g>
   <g id="PolyCollection_110">
    <path d="M 465.116008 83.917845 
L 465.116008 42.2075 
L 465.116008 42.2075 
L 465.116008 83.917845 
z
" clip-path="url(#pa1b712c3a5)" style="fill: url(#h54a9225d3e); stroke: #000000"/>
   </g>
   <g id="matplotlib.axis_1">
    <g id="xtick_1">
     <g id="line2d_1">
      <defs>
       <path id="m5b349dc09d" d="M 0 0 
L 0 3.5 
" style="stroke: #000000; stroke-width: 0.8"/>
      </defs>
      <g>
       <use xlink:href="#m5b349dc09d" x="94.586364" y="359.7275" style="stroke: #000000; stroke-width: 0.8"/>
      </g>
     </g>
     <g id="text_1">
      <!-- 0 -->
      <g transform="translate(89.586364 380.615) scale(0.2 -0.2)">
       <defs>
        <path id="TimesNewRomanPSMT-30" d="M 231 2094 
Q 231 2819 450 3342 
Q 669 3866 1031 4122 
Q 1313 4325 1613 4325 
Q 2100 4325 2488 3828 
Q 2972 3213 2972 2159 
Q 2972 1422 2759 906 
Q 2547 391 2217 158 
Q 1888 -75 1581 -75 
Q 975 -75 572 641 
Q 231 1244 231 2094 
z
M 844 2016 
Q 844 1141 1059 588 
Q 1238 122 1591 122 
Q 1759 122 1940 273 
Q 2122 425 2216 781 
Q 2359 1319 2359 2297 
Q 2359 3022 2209 3506 
Q 2097 3866 1919 4016 
Q 1791 4119 1609 4119 
Q 1397 4119 1231 3928 
Q 1006 3669 925 3112 
Q 844 2556 844 2016 
z
" transform="scale(0.015625)"/>
       </defs>
       <use xlink:href="#TimesNewRomanPSMT-30"/>
      </g>
     </g>
    </g>
    <g id="xtick_2">
     <g id="line2d_2">
      <g>
       <use xlink:href="#m5b349dc09d" x="226.918379" y="359.7275" style="stroke: #000000; stroke-width: 0.8"/>
      </g>
     </g>
     <g id="text_2">
      <!-- 10 -->
      <g transform="translate(216.918379 380.615) scale(0.2 -0.2)">
       <defs>
        <path id="TimesNewRomanPSMT-31" d="M 750 3822 
L 1781 4325 
L 1884 4325 
L 1884 747 
Q 1884 391 1914 303 
Q 1944 216 2037 169 
Q 2131 122 2419 116 
L 2419 0 
L 825 0 
L 825 116 
Q 1125 122 1212 167 
Q 1300 213 1334 289 
Q 1369 366 1369 747 
L 1369 3034 
Q 1369 3497 1338 3628 
Q 1316 3728 1258 3775 
Q 1200 3822 1119 3822 
Q 1003 3822 797 3725 
L 750 3822 
z
" transform="scale(0.015625)"/>
       </defs>
       <use xlink:href="#TimesNewRomanPSMT-31"/>
       <use xlink:href="#TimesNewRomanPSMT-30" x="50"/>
      </g>
     </g>
    </g>
    <g id="xtick_3">
     <g id="line2d_3">
      <g>
       <use xlink:href="#m5b349dc09d" x="359.250395" y="359.7275" style="stroke: #000000; stroke-width: 0.8"/>
      </g>
     </g>
     <g id="text_3">
      <!-- 20 -->
      <g transform="translate(349.250395 380.615) scale(0.2 -0.2)">
       <defs>
        <path id="TimesNewRomanPSMT-32" d="M 2934 816 
L 2638 0 
L 138 0 
L 138 116 
Q 1241 1122 1691 1759 
Q 2141 2397 2141 2925 
Q 2141 3328 1894 3587 
Q 1647 3847 1303 3847 
Q 991 3847 742 3664 
Q 494 3481 375 3128 
L 259 3128 
Q 338 3706 661 4015 
Q 984 4325 1469 4325 
Q 1984 4325 2329 3994 
Q 2675 3663 2675 3213 
Q 2675 2891 2525 2569 
Q 2294 2063 1775 1497 
Q 997 647 803 472 
L 1909 472 
Q 2247 472 2383 497 
Q 2519 522 2628 598 
Q 2738 675 2819 816 
L 2934 816 
z
" transform="scale(0.015625)"/>
       </defs>
       <use xlink:href="#TimesNewRomanPSMT-32"/>
       <use xlink:href="#TimesNewRomanPSMT-30" x="50"/>
      </g>
     </g>
    </g>
    <g id="xtick_4">
     <g id="line2d_4">
      <g>
       <use xlink:href="#m5b349dc09d" x="491.582411" y="359.7275" style="stroke: #000000; stroke-width: 0.8"/>
      </g>
     </g>
     <g id="text_4">
      <!-- 30 -->
      <g transform="translate(481.582411 380.615) scale(0.2 -0.2)">
       <defs>
        <path id="TimesNewRomanPSMT-33" d="M 325 3431 
Q 506 3859 782 4092 
Q 1059 4325 1472 4325 
Q 1981 4325 2253 3994 
Q 2459 3747 2459 3466 
Q 2459 3003 1878 2509 
Q 2269 2356 2469 2072 
Q 2669 1788 2669 1403 
Q 2669 853 2319 450 
Q 1863 -75 997 -75 
Q 569 -75 414 31 
Q 259 138 259 259 
Q 259 350 332 419 
Q 406 488 509 488 
Q 588 488 669 463 
Q 722 447 909 348 
Q 1097 250 1169 231 
Q 1284 197 1416 197 
Q 1734 197 1970 444 
Q 2206 691 2206 1028 
Q 2206 1275 2097 1509 
Q 2016 1684 1919 1775 
Q 1784 1900 1550 2001 
Q 1316 2103 1072 2103 
L 972 2103 
L 972 2197 
Q 1219 2228 1467 2375 
Q 1716 2522 1828 2728 
Q 1941 2934 1941 3181 
Q 1941 3503 1739 3701 
Q 1538 3900 1238 3900 
Q 753 3900 428 3381 
L 325 3431 
z
" transform="scale(0.015625)"/>
       </defs>
       <use xlink:href="#TimesNewRomanPSMT-33"/>
       <use xlink:href="#TimesNewRomanPSMT-30" x="50"/>
      </g>
     </g>
    </g>
    <g id="xtick_5">
     <g id="line2d_5">
      <g>
       <use xlink:href="#m5b349dc09d" x="623.914427" y="359.7275" style="stroke: #000000; stroke-width: 0.8"/>
      </g>
     </g>
     <g id="text_5">
      <!-- 40 -->
      <g transform="translate(613.914427 380.615) scale(0.2 -0.2)">
       <defs>
        <path id="TimesNewRomanPSMT-34" d="M 2978 1563 
L 2978 1119 
L 2409 1119 
L 2409 0 
L 1894 0 
L 1894 1119 
L 100 1119 
L 100 1519 
L 2066 4325 
L 2409 4325 
L 2409 1563 
L 2978 1563 
z
M 1894 1563 
L 1894 3666 
L 406 1563 
L 1894 1563 
z
" transform="scale(0.015625)"/>
       </defs>
       <use xlink:href="#TimesNewRomanPSMT-34"/>
       <use xlink:href="#TimesNewRomanPSMT-30" x="50"/>
      </g>
     </g>
    </g>
    <g id="text_6">
     <!-- Time -->
     <g transform="translate(378.196875 402.780625) scale(0.2 -0.2)">
      <defs>
       <path id="TimesNewRomanPSMT-54" d="M 3703 4238 
L 3750 3244 
L 3631 3244 
Q 3597 3506 3538 3619 
Q 3441 3800 3280 3886 
Q 3119 3972 2856 3972 
L 2259 3972 
L 2259 734 
Q 2259 344 2344 247 
Q 2463 116 2709 116 
L 2856 116 
L 2856 0 
L 1059 0 
L 1059 116 
L 1209 116 
Q 1478 116 1591 278 
Q 1659 378 1659 734 
L 1659 3972 
L 1150 3972 
Q 853 3972 728 3928 
Q 566 3869 450 3700 
Q 334 3531 313 3244 
L 194 3244 
L 244 4238 
L 3703 4238 
z
" transform="scale(0.015625)"/>
       <path id="TimesNewRomanPSMT-69" d="M 928 4444 
Q 1059 4444 1151 4351 
Q 1244 4259 1244 4128 
Q 1244 3997 1151 3903 
Q 1059 3809 928 3809 
Q 797 3809 703 3903 
Q 609 3997 609 4128 
Q 609 4259 701 4351 
Q 794 4444 928 4444 
z
M 1188 2947 
L 1188 647 
Q 1188 378 1227 289 
Q 1266 200 1342 156 
Q 1419 113 1622 113 
L 1622 0 
L 231 0 
L 231 113 
Q 441 113 512 153 
Q 584 194 626 287 
Q 669 381 669 647 
L 669 1750 
Q 669 2216 641 2353 
Q 619 2453 572 2492 
Q 525 2531 444 2531 
Q 356 2531 231 2484 
L 188 2597 
L 1050 2947 
L 1188 2947 
z
" transform="scale(0.015625)"/>
       <path id="TimesNewRomanPSMT-6d" d="M 1050 2338 
Q 1363 2650 1419 2697 
Q 1559 2816 1721 2881 
Q 1884 2947 2044 2947 
Q 2313 2947 2506 2790 
Q 2700 2634 2766 2338 
Q 3088 2713 3309 2830 
Q 3531 2947 3766 2947 
Q 3994 2947 4170 2830 
Q 4347 2713 4450 2447 
Q 4519 2266 4519 1878 
L 4519 647 
Q 4519 378 4559 278 
Q 4591 209 4675 161 
Q 4759 113 4950 113 
L 4950 0 
L 3538 0 
L 3538 113 
L 3597 113 
Q 3781 113 3884 184 
Q 3956 234 3988 344 
Q 4000 397 4000 647 
L 4000 1878 
Q 4000 2228 3916 2372 
Q 3794 2572 3525 2572 
Q 3359 2572 3192 2489 
Q 3025 2406 2788 2181 
L 2781 2147 
L 2788 2013 
L 2788 647 
Q 2788 353 2820 281 
Q 2853 209 2943 161 
Q 3034 113 3253 113 
L 3253 0 
L 1806 0 
L 1806 113 
Q 2044 113 2133 169 
Q 2222 225 2256 338 
Q 2272 391 2272 647 
L 2272 1878 
Q 2272 2228 2169 2381 
Q 2031 2581 1784 2581 
Q 1616 2581 1450 2491 
Q 1191 2353 1050 2181 
L 1050 647 
Q 1050 366 1089 281 
Q 1128 197 1204 155 
Q 1281 113 1516 113 
L 1516 0 
L 100 0 
L 100 113 
Q 297 113 375 155 
Q 453 197 493 289 
Q 534 381 534 647 
L 534 1741 
Q 534 2213 506 2350 
Q 484 2453 437 2492 
Q 391 2531 309 2531 
Q 222 2531 100 2484 
L 53 2597 
L 916 2947 
L 1050 2947 
L 1050 2338 
z
" transform="scale(0.015625)"/>
       <path id="TimesNewRomanPSMT-65" d="M 681 1784 
Q 678 1147 991 784 
Q 1303 422 1725 422 
Q 2006 422 2214 576 
Q 2422 731 2563 1106 
L 2659 1044 
Q 2594 616 2278 264 
Q 1963 -88 1488 -88 
Q 972 -88 605 314 
Q 238 716 238 1394 
Q 238 2128 614 2539 
Q 991 2950 1559 2950 
Q 2041 2950 2350 2633 
Q 2659 2316 2659 1784 
L 681 1784 
z
M 681 1966 
L 2006 1966 
Q 1991 2241 1941 2353 
Q 1863 2528 1708 2628 
Q 1553 2728 1384 2728 
Q 1125 2728 920 2526 
Q 716 2325 681 1966 
z
" transform="scale(0.015625)"/>
      </defs>
      <use xlink:href="#TimesNewRomanPSMT-54"/>
      <use xlink:href="#TimesNewRomanPSMT-69" x="57.583984"/>
      <use xlink:href="#TimesNewRomanPSMT-6d" x="85.367188"/>
      <use xlink:href="#TimesNewRomanPSMT-65" x="163.150391"/>
     </g>
    </g>
   </g>
   <g id="matplotlib.axis_2">
    <g id="ytick_1">
     <g id="line2d_6">
      <defs>
       <path id="m1dab43855f" d="M 0 0 
L -3.5 0 
" style="stroke: #000000; stroke-width: 0.8"/>
      </defs>
      <g>
       <use xlink:href="#m1dab43855f" x="64.15" y="323.752328" style="stroke: #000000; stroke-width: 0.8"/>
      </g>
     </g>
     <g id="text_7">
      <!-- M1 -->
      <g transform="translate(29.365625 330.696078) scale(0.2 -0.2)">
       <defs>
        <path id="TimesNewRomanPSMT-4d" d="M 2619 0 
L 981 3566 
L 981 734 
Q 981 344 1066 247 
Q 1181 116 1431 116 
L 1581 116 
L 1581 0 
L 106 0 
L 106 116 
L 256 116 
Q 525 116 638 278 
Q 706 378 706 734 
L 706 3503 
Q 706 3784 644 3909 
Q 600 4000 483 4061 
Q 366 4122 106 4122 
L 106 4238 
L 1306 4238 
L 2844 922 
L 4356 4238 
L 5556 4238 
L 5556 4122 
L 5409 4122 
Q 5138 4122 5025 3959 
Q 4956 3859 4956 3503 
L 4956 734 
Q 4956 344 5044 247 
Q 5159 116 5409 116 
L 5556 116 
L 5556 0 
L 3756 0 
L 3756 116 
L 3906 116 
Q 4178 116 4288 278 
Q 4356 378 4356 734 
L 4356 3566 
L 2722 0 
L 2619 0 
z
" transform="scale(0.015625)"/>
       </defs>
       <use xlink:href="#TimesNewRomanPSMT-4d"/>
       <use xlink:href="#TimesNewRomanPSMT-31" x="88.916016"/>
      </g>
     </g>
    </g>
    <g id="ytick_2">
     <g id="line2d_7">
      <g>
       <use xlink:href="#m1dab43855f" x="64.15" y="271.614397" style="stroke: #000000; stroke-width: 0.8"/>
      </g>
     </g>
     <g id="text_8">
      <!-- M2 -->
      <g transform="translate(29.365625 278.558147) scale(0.2 -0.2)">
       <use xlink:href="#TimesNewRomanPSMT-4d"/>
       <use xlink:href="#TimesNewRomanPSMT-32" x="88.916016"/>
      </g>
     </g>
    </g>
    <g id="ytick_3">
     <g id="line2d_8">
      <g>
       <use xlink:href="#m1dab43855f" x="64.15" y="219.476466" style="stroke: #000000; stroke-width: 0.8"/>
      </g>
     </g>
     <g id="text_9">
      <!-- M3 -->
      <g transform="translate(29.365625 226.420216) scale(0.2 -0.2)">
       <use xlink:href="#TimesNewRomanPSMT-4d"/>
       <use xlink:href="#TimesNewRomanPSMT-33" x="88.916016"/>
      </g>
     </g>
    </g>
    <g id="ytick_4">
     <g id="line2d_9">
      <g>
       <use xlink:href="#m1dab43855f" x="64.15" y="167.338534" style="stroke: #000000; stroke-width: 0.8"/>
      </g>
     </g>
     <g id="text_10">
      <!-- M4 -->
      <g transform="translate(29.365625 174.282284) scale(0.2 -0.2)">
       <use xlink:href="#TimesNewRomanPSMT-4d"/>
       <use xlink:href="#TimesNewRomanPSMT-34" x="88.916016"/>
      </g>
     </g>
    </g>
    <g id="ytick_5">
     <g id="line2d_10">
      <g>
       <use xlink:href="#m1dab43855f" x="64.15" y="115.200603" style="stroke: #000000; stroke-width: 0.8"/>
      </g>
     </g>
     <g id="text_11">
      <!-- M5 -->
      <g transform="translate(29.365625 122.144353) scale(0.2 -0.2)">
       <defs>
        <path id="TimesNewRomanPSMT-35" d="M 2778 4238 
L 2534 3706 
L 1259 3706 
L 981 3138 
Q 1809 3016 2294 2522 
Q 2709 2097 2709 1522 
Q 2709 1188 2573 903 
Q 2438 619 2231 419 
Q 2025 219 1772 97 
Q 1413 -75 1034 -75 
Q 653 -75 479 54 
Q 306 184 306 341 
Q 306 428 378 495 
Q 450 563 559 563 
Q 641 563 702 538 
Q 763 513 909 409 
Q 1144 247 1384 247 
Q 1750 247 2026 523 
Q 2303 800 2303 1197 
Q 2303 1581 2056 1914 
Q 1809 2247 1375 2428 
Q 1034 2569 447 2591 
L 1259 4238 
L 2778 4238 
z
" transform="scale(0.015625)"/>
       </defs>
       <use xlink:href="#TimesNewRomanPSMT-4d"/>
       <use xlink:href="#TimesNewRomanPSMT-35" x="88.916016"/>
      </g>
     </g>
    </g>
    <g id="ytick_6">
     <g id="line2d_11">
      <g>
       <use xlink:href="#m1dab43855f" x="64.15" y="63.062672" style="stroke: #000000; stroke-width: 0.8"/>
      </g>
     </g>
     <g id="text_12">
      <!-- M6 -->
      <g transform="translate(29.365625 70.006422) scale(0.2 -0.2)">
       <defs>
        <path id="TimesNewRomanPSMT-36" d="M 2869 4325 
L 2869 4209 
Q 2456 4169 2195 4045 
Q 1934 3922 1679 3669 
Q 1425 3416 1258 3105 
Q 1091 2794 978 2366 
Q 1428 2675 1881 2675 
Q 2316 2675 2634 2325 
Q 2953 1975 2953 1425 
Q 2953 894 2631 456 
Q 2244 -75 1606 -75 
Q 1172 -75 869 213 
Q 275 772 275 1663 
Q 275 2231 503 2743 
Q 731 3256 1154 3653 
Q 1578 4050 1965 4187 
Q 2353 4325 2688 4325 
L 2869 4325 
z
M 925 2138 
Q 869 1716 869 1456 
Q 869 1156 980 804 
Q 1091 453 1309 247 
Q 1469 100 1697 100 
Q 1969 100 2183 356 
Q 2397 613 2397 1088 
Q 2397 1622 2184 2012 
Q 1972 2403 1581 2403 
Q 1463 2403 1327 2353 
Q 1191 2303 925 2138 
z
" transform="scale(0.015625)"/>
       </defs>
       <use xlink:href="#TimesNewRomanPSMT-4d"/>
       <use xlink:href="#TimesNewRomanPSMT-36" x="88.916016"/>
      </g>
     </g>
    </g>
    <g id="text_13">
     <!-- Machine -->
     <g transform="translate(21.0875 228.395) rotate(-90) scale(0.2 -0.2)">
      <defs>
       <path id="TimesNewRomanPSMT-61" d="M 1822 413 
Q 1381 72 1269 19 
Q 1100 -59 909 -59 
Q 613 -59 420 144 
Q 228 347 228 678 
Q 228 888 322 1041 
Q 450 1253 767 1440 
Q 1084 1628 1822 1897 
L 1822 2009 
Q 1822 2438 1686 2597 
Q 1550 2756 1291 2756 
Q 1094 2756 978 2650 
Q 859 2544 859 2406 
L 866 2225 
Q 866 2081 792 2003 
Q 719 1925 600 1925 
Q 484 1925 411 2006 
Q 338 2088 338 2228 
Q 338 2497 613 2722 
Q 888 2947 1384 2947 
Q 1766 2947 2009 2819 
Q 2194 2722 2281 2516 
Q 2338 2381 2338 1966 
L 2338 994 
Q 2338 584 2353 492 
Q 2369 400 2405 369 
Q 2441 338 2488 338 
Q 2538 338 2575 359 
Q 2641 400 2828 588 
L 2828 413 
Q 2478 -56 2159 -56 
Q 2006 -56 1915 50 
Q 1825 156 1822 413 
z
M 1822 616 
L 1822 1706 
Q 1350 1519 1213 1441 
Q 966 1303 859 1153 
Q 753 1003 753 825 
Q 753 600 887 451 
Q 1022 303 1197 303 
Q 1434 303 1822 616 
z
" transform="scale(0.015625)"/>
       <path id="TimesNewRomanPSMT-63" d="M 2631 1088 
Q 2516 522 2178 217 
Q 1841 -88 1431 -88 
Q 944 -88 581 321 
Q 219 731 219 1428 
Q 219 2103 620 2525 
Q 1022 2947 1584 2947 
Q 2006 2947 2278 2723 
Q 2550 2500 2550 2259 
Q 2550 2141 2473 2067 
Q 2397 1994 2259 1994 
Q 2075 1994 1981 2113 
Q 1928 2178 1911 2362 
Q 1894 2547 1784 2644 
Q 1675 2738 1481 2738 
Q 1169 2738 978 2506 
Q 725 2200 725 1697 
Q 725 1184 976 792 
Q 1228 400 1656 400 
Q 1963 400 2206 609 
Q 2378 753 2541 1131 
L 2631 1088 
z
" transform="scale(0.015625)"/>
       <path id="TimesNewRomanPSMT-68" d="M 1041 4444 
L 1041 2350 
Q 1388 2731 1591 2839 
Q 1794 2947 1997 2947 
Q 2241 2947 2416 2812 
Q 2591 2678 2675 2391 
Q 2734 2191 2734 1659 
L 2734 647 
Q 2734 375 2778 275 
Q 2809 200 2884 156 
Q 2959 113 3159 113 
L 3159 0 
L 1753 0 
L 1753 113 
L 1819 113 
Q 2019 113 2097 173 
Q 2175 234 2206 353 
Q 2216 403 2216 647 
L 2216 1659 
Q 2216 2128 2167 2275 
Q 2119 2422 2012 2495 
Q 1906 2569 1756 2569 
Q 1603 2569 1437 2487 
Q 1272 2406 1041 2159 
L 1041 647 
Q 1041 353 1073 281 
Q 1106 209 1195 161 
Q 1284 113 1503 113 
L 1503 0 
L 84 0 
L 84 113 
Q 275 113 384 172 
Q 447 203 484 290 
Q 522 378 522 647 
L 522 3238 
Q 522 3728 498 3840 
Q 475 3953 426 3993 
Q 378 4034 297 4034 
Q 231 4034 84 3984 
L 41 4094 
L 897 4444 
L 1041 4444 
z
" transform="scale(0.015625)"/>
       <path id="TimesNewRomanPSMT-6e" d="M 1034 2341 
Q 1538 2947 1994 2947 
Q 2228 2947 2397 2830 
Q 2566 2713 2666 2444 
Q 2734 2256 2734 1869 
L 2734 647 
Q 2734 375 2778 278 
Q 2813 200 2889 156 
Q 2966 113 3172 113 
L 3172 0 
L 1756 0 
L 1756 113 
L 1816 113 
Q 2016 113 2095 173 
Q 2175 234 2206 353 
Q 2219 400 2219 647 
L 2219 1819 
Q 2219 2209 2117 2386 
Q 2016 2563 1775 2563 
Q 1403 2563 1034 2156 
L 1034 647 
Q 1034 356 1069 288 
Q 1113 197 1189 155 
Q 1266 113 1500 113 
L 1500 0 
L 84 0 
L 84 113 
L 147 113 
Q 366 113 442 223 
Q 519 334 519 647 
L 519 1709 
Q 519 2225 495 2337 
Q 472 2450 423 2490 
Q 375 2531 294 2531 
Q 206 2531 84 2484 
L 38 2597 
L 900 2947 
L 1034 2947 
L 1034 2341 
z
" transform="scale(0.015625)"/>
      </defs>
      <use xlink:href="#TimesNewRomanPSMT-4d"/>
      <use xlink:href="#TimesNewRomanPSMT-61" x="88.916016"/>
      <use xlink:href="#TimesNewRomanPSMT-63" x="133.300781"/>
      <use xlink:href="#TimesNewRomanPSMT-68" x="177.685547"/>
      <use xlink:href="#TimesNewRomanPSMT-69" x="227.685547"/>
      <use xlink:href="#TimesNewRomanPSMT-6e" x="255.46875"/>
      <use xlink:href="#TimesNewRomanPSMT-65" x="305.46875"/>
     </g>
    </g>
   </g>
   <g id="patch_3">
    <path d="M 64.15 359.7275 
L 64.15 27.0875 
" style="fill: none; stroke: #000000; stroke-width: 0.8; stroke-linejoin: miter; stroke-linecap: square"/>
   </g>
   <g id="patch_4">
    <path d="M 733.75 359.7275 
L 733.75 27.0875 
" style="fill: none; stroke: #000000; stroke-width: 0.8; stroke-linejoin: miter; stroke-linecap: square"/>
   </g>
   <g id="patch_5">
    <path d="M 64.15 359.7275 
L 733.75 359.7275 
" style="fill: none; stroke: #000000; stroke-width: 0.8; stroke-linejoin: miter; stroke-linecap: square"/>
   </g>
   <g id="patch_6">
    <path d="M 64.15 27.0875 
L 733.75 27.0875 
" style="fill: none; stroke: #000000; stroke-width: 0.8; stroke-linejoin: miter; stroke-linecap: square"/>
   </g>
   <g id="text_14">
    <!-- 0 -->
    <g transform="translate(123.669368 327.596078) scale(0.16 -0.16)">
     <use xlink:href="#TimesNewRomanPSMT-30"/>
    </g>
   </g>
   <g id="text_15">
    <!-- 44 -->
    <g transform="translate(159.368972 327.596078) scale(0.16 -0.16)">
     <use xlink:href="#TimesNewRomanPSMT-34"/>
     <use xlink:href="#TimesNewRomanPSMT-34" x="50"/>
    </g>
   </g>
   <g id="text_16">
    <!-- 16 -->
    <g transform="translate(172.602174 327.596078) scale(0.16 -0.16)">
     <use xlink:href="#TimesNewRomanPSMT-31"/>
     <use xlink:href="#TimesNewRomanPSMT-36" x="50"/>
    </g>
   </g>
   <g id="text_17">
    <!-- 22 -->
    <g transform="translate(199.068577 327.596078) scale(0.16 -0.16)">
     <use xlink:href="#TimesNewRomanPSMT-32"/>
     <use xlink:href="#TimesNewRomanPSMT-32" x="50"/>
    </g>
   </g>
   <g id="text_18">
    <!-- 13 -->
    <g transform="translate(225.53498 327.596078) scale(0.16 -0.16)">
     <use xlink:href="#TimesNewRomanPSMT-31"/>
     <use xlink:href="#TimesNewRomanPSMT-33" x="50"/>
    </g>
   </g>
   <g id="text_19">
    <!-- 28 -->
    <g transform="translate(245.384783 327.596078) scale(0.16 -0.16)">
     <defs>
      <path id="TimesNewRomanPSMT-38" d="M 1228 2134 
Q 725 2547 579 2797 
Q 434 3047 434 3316 
Q 434 3728 753 4026 
Q 1072 4325 1600 4325 
Q 2113 4325 2425 4047 
Q 2738 3769 2738 3413 
Q 2738 3175 2569 2928 
Q 2400 2681 1866 2347 
Q 2416 1922 2594 1678 
Q 2831 1359 2831 1006 
Q 2831 559 2490 242 
Q 2150 -75 1597 -75 
Q 994 -75 656 303 
Q 388 606 388 966 
Q 388 1247 577 1523 
Q 766 1800 1228 2134 
z
M 1719 2469 
Q 2094 2806 2194 3001 
Q 2294 3197 2294 3444 
Q 2294 3772 2109 3958 
Q 1925 4144 1606 4144 
Q 1288 4144 1088 3959 
Q 888 3775 888 3528 
Q 888 3366 970 3203 
Q 1053 3041 1206 2894 
L 1719 2469 
z
M 1375 2016 
Q 1116 1797 991 1539 
Q 866 1281 866 981 
Q 866 578 1086 336 
Q 1306 94 1647 94 
Q 1984 94 2187 284 
Q 2391 475 2391 747 
Q 2391 972 2272 1150 
Q 2050 1481 1375 2016 
z
" transform="scale(0.015625)"/>
     </defs>
     <use xlink:href="#TimesNewRomanPSMT-32"/>
     <use xlink:href="#TimesNewRomanPSMT-38" x="50"/>
    </g>
   </g>
   <g id="text_20">
    <!-- 3 -->
    <g transform="translate(282.467787 327.596078) scale(0.16 -0.16)">
     <use xlink:href="#TimesNewRomanPSMT-33"/>
    </g>
   </g>
   <g id="text_21">
    <!-- 8 -->
    <g transform="translate(302.317589 327.596078) scale(0.16 -0.16)">
     <use xlink:href="#TimesNewRomanPSMT-38"/>
    </g>
   </g>
   <g id="text_22">
    <!-- 34 -->
    <g transform="translate(331.400593 327.596078) scale(0.16 -0.16)">
     <use xlink:href="#TimesNewRomanPSMT-33"/>
     <use xlink:href="#TimesNewRomanPSMT-34" x="50"/>
    </g>
   </g>
   <g id="text_23">
    <!-- 24 -->
    <g transform="translate(384.333399 327.596078) scale(0.16 -0.16)">
     <use xlink:href="#TimesNewRomanPSMT-32"/>
     <use xlink:href="#TimesNewRomanPSMT-34" x="50"/>
    </g>
   </g>
   <g id="text_24">
    <!-- 40 -->
    <g transform="translate(424.033004 327.596078) scale(0.16 -0.16)">
     <use xlink:href="#TimesNewRomanPSMT-34"/>
     <use xlink:href="#TimesNewRomanPSMT-30" x="50"/>
    </g>
   </g>
   <g id="text_25">
    <!-- 46 -->
    <g transform="translate(443.882806 327.596078) scale(0.16 -0.16)">
     <use xlink:href="#TimesNewRomanPSMT-34"/>
     <use xlink:href="#TimesNewRomanPSMT-36" x="50"/>
    </g>
   </g>
   <g id="text_26">
    <!-- 54 -->
    <g transform="translate(476.96581 327.596078) scale(0.16 -0.16)">
     <use xlink:href="#TimesNewRomanPSMT-35"/>
     <use xlink:href="#TimesNewRomanPSMT-34" x="50"/>
    </g>
   </g>
   <g id="text_27">
    <!-- 31 -->
    <g transform="translate(529.898617 327.596078) scale(0.16 -0.16)">
     <use xlink:href="#TimesNewRomanPSMT-33"/>
     <use xlink:href="#TimesNewRomanPSMT-31" x="50"/>
    </g>
   </g>
   <g id="text_28">
    <!-- 32 -->
    <g transform="translate(556.36502 327.596078) scale(0.16 -0.16)">
     <use xlink:href="#TimesNewRomanPSMT-33"/>
     <use xlink:href="#TimesNewRomanPSMT-32" x="50"/>
    </g>
   </g>
   <g id="text_29">
    <!-- 10 -->
    <g transform="translate(582.831423 327.596078) scale(0.16 -0.16)">
     <use xlink:href="#TimesNewRomanPSMT-31"/>
     <use xlink:href="#TimesNewRomanPSMT-30" x="50"/>
    </g>
   </g>
   <g id="text_30">
    <!-- 11 -->
    <g transform="translate(126.585968 275.458147) scale(0.16 -0.16)">
     <use xlink:href="#TimesNewRomanPSMT-31"/>
     <use xlink:href="#TimesNewRomanPSMT-31" x="46.25"/>
    </g>
   </g>
   <g id="text_31">
    <!-- 1 -->
    <g transform="translate(176.602174 275.458147) scale(0.16 -0.16)">
     <use xlink:href="#TimesNewRomanPSMT-31"/>
    </g>
   </g>
   <g id="text_32">
    <!-- 21 -->
    <g transform="translate(185.835375 275.458147) scale(0.16 -0.16)">
     <use xlink:href="#TimesNewRomanPSMT-32"/>
     <use xlink:href="#TimesNewRomanPSMT-31" x="50"/>
    </g>
   </g>
   <g id="text_33">
    <!-- 6 -->
    <g transform="translate(236.151581 275.458147) scale(0.16 -0.16)">
     <use xlink:href="#TimesNewRomanPSMT-36"/>
    </g>
   </g>
   <g id="text_34">
    <!-- 23 -->
    <g transform="translate(311.550791 275.458147) scale(0.16 -0.16)">
     <use xlink:href="#TimesNewRomanPSMT-32"/>
     <use xlink:href="#TimesNewRomanPSMT-33" x="50"/>
    </g>
   </g>
   <g id="text_35">
    <!-- 17 -->
    <g transform="translate(390.95 275.458147) scale(0.16 -0.16)">
     <defs>
      <path id="TimesNewRomanPSMT-37" d="M 644 4238 
L 2916 4238 
L 2916 4119 
L 1503 -88 
L 1153 -88 
L 2419 3728 
L 1253 3728 
Q 900 3728 750 3644 
Q 488 3500 328 3200 
L 238 3234 
L 644 4238 
z
" transform="scale(0.015625)"/>
     </defs>
     <use xlink:href="#TimesNewRomanPSMT-31"/>
     <use xlink:href="#TimesNewRomanPSMT-37" x="50"/>
    </g>
   </g>
   <g id="text_36">
    <!-- 30 -->
    <g transform="translate(483.582411 275.458147) scale(0.16 -0.16)">
     <use xlink:href="#TimesNewRomanPSMT-33"/>
     <use xlink:href="#TimesNewRomanPSMT-30" x="50"/>
    </g>
   </g>
   <g id="text_37">
    <!-- 19 -->
    <g transform="translate(529.898617 275.458147) scale(0.16 -0.16)">
     <defs>
      <path id="TimesNewRomanPSMT-39" d="M 338 -88 
L 338 28 
Q 744 34 1094 217 
Q 1444 400 1770 856 
Q 2097 1313 2225 1859 
Q 1734 1544 1338 1544 
Q 891 1544 572 1889 
Q 253 2234 253 2806 
Q 253 3363 572 3797 
Q 956 4325 1575 4325 
Q 2097 4325 2469 3894 
Q 2925 3359 2925 2575 
Q 2925 1869 2578 1258 
Q 2231 647 1613 244 
Q 1109 -88 516 -88 
L 338 -88 
z
M 2275 2091 
Q 2331 2497 2331 2741 
Q 2331 3044 2228 3395 
Q 2125 3747 1936 3934 
Q 1747 4122 1506 4122 
Q 1228 4122 1018 3872 
Q 809 3622 809 3128 
Q 809 2469 1088 2097 
Q 1291 1828 1588 1828 
Q 1731 1828 1928 1897 
Q 2125 1966 2275 2091 
z
" transform="scale(0.015625)"/>
     </defs>
     <use xlink:href="#TimesNewRomanPSMT-31"/>
     <use xlink:href="#TimesNewRomanPSMT-39" x="50"/>
    </g>
   </g>
   <g id="text_38">
    <!-- 41 -->
    <g transform="translate(576.214822 275.458147) scale(0.16 -0.16)">
     <use xlink:href="#TimesNewRomanPSMT-34"/>
     <use xlink:href="#TimesNewRomanPSMT-31" x="50"/>
    </g>
   </g>
   <g id="text_39">
    <!-- 42 -->
    <g transform="translate(655.614032 275.458147) scale(0.16 -0.16)">
     <use xlink:href="#TimesNewRomanPSMT-34"/>
     <use xlink:href="#TimesNewRomanPSMT-32" x="50"/>
    </g>
   </g>
   <g id="text_40">
    <!-- 12 -->
    <g transform="translate(192.451976 223.320216) scale(0.16 -0.16)">
     <use xlink:href="#TimesNewRomanPSMT-31"/>
     <use xlink:href="#TimesNewRomanPSMT-32" x="50"/>
    </g>
   </g>
   <g id="text_41">
    <!-- 2 -->
    <g transform="translate(249.384783 223.320216) scale(0.16 -0.16)">
     <use xlink:href="#TimesNewRomanPSMT-32"/>
    </g>
   </g>
   <g id="text_42">
    <!-- 7 -->
    <g transform="translate(282.467787 223.320216) scale(0.16 -0.16)">
     <use xlink:href="#TimesNewRomanPSMT-37"/>
    </g>
   </g>
   <g id="text_43">
    <!-- 39 -->
    <g transform="translate(311.550791 223.320216) scale(0.16 -0.16)">
     <use xlink:href="#TimesNewRomanPSMT-33"/>
     <use xlink:href="#TimesNewRomanPSMT-39" x="50"/>
    </g>
   </g>
   <g id="text_44">
    <!-- 14 -->
    <g transform="translate(364.483597 223.320216) scale(0.16 -0.16)">
     <use xlink:href="#TimesNewRomanPSMT-31"/>
     <use xlink:href="#TimesNewRomanPSMT-34" x="50"/>
    </g>
   </g>
   <g id="text_45">
    <!-- 29 -->
    <g transform="translate(417.416403 223.320216) scale(0.16 -0.16)">
     <use xlink:href="#TimesNewRomanPSMT-32"/>
     <use xlink:href="#TimesNewRomanPSMT-39" x="50"/>
    </g>
   </g>
   <g id="text_46">
    <!-- 18 -->
    <g transform="translate(450.499407 223.320216) scale(0.16 -0.16)">
     <use xlink:href="#TimesNewRomanPSMT-31"/>
     <use xlink:href="#TimesNewRomanPSMT-38" x="50"/>
    </g>
   </g>
   <g id="text_47">
    <!-- 35 -->
    <g transform="translate(483.582411 223.320216) scale(0.16 -0.16)">
     <use xlink:href="#TimesNewRomanPSMT-33"/>
     <use xlink:href="#TimesNewRomanPSMT-35" x="50"/>
    </g>
   </g>
   <g id="text_48">
    <!-- 26 -->
    <g transform="translate(536.515217 223.320216) scale(0.16 -0.16)">
     <use xlink:href="#TimesNewRomanPSMT-32"/>
     <use xlink:href="#TimesNewRomanPSMT-36" x="50"/>
    </g>
   </g>
   <g id="text_49">
    <!-- 4 -->
    <g transform="translate(573.598221 223.320216) scale(0.16 -0.16)">
     <use xlink:href="#TimesNewRomanPSMT-34"/>
    </g>
   </g>
   <g id="text_50">
    <!-- 20 -->
    <g transform="translate(602.681225 223.320216) scale(0.16 -0.16)">
     <use xlink:href="#TimesNewRomanPSMT-32"/>
     <use xlink:href="#TimesNewRomanPSMT-30" x="50"/>
    </g>
   </g>
   <g id="text_51">
    <!-- 37 -->
    <g transform="translate(635.764229 223.320216) scale(0.16 -0.16)">
     <use xlink:href="#TimesNewRomanPSMT-33"/>
     <use xlink:href="#TimesNewRomanPSMT-37" x="50"/>
    </g>
   </g>
   <g id="text_52">
    <!-- 53 -->
    <g transform="translate(324.783992 171.182284) scale(0.16 -0.16)">
     <use xlink:href="#TimesNewRomanPSMT-35"/>
     <use xlink:href="#TimesNewRomanPSMT-33" x="50"/>
    </g>
   </g>
   <g id="text_53">
    <!-- 25 -->
    <g transform="translate(457.116008 171.182284) scale(0.16 -0.16)">
     <use xlink:href="#TimesNewRomanPSMT-32"/>
     <use xlink:href="#TimesNewRomanPSMT-35" x="50"/>
    </g>
   </g>
   <g id="text_54">
    <!-- 9 -->
    <g transform="translate(540.515217 171.182284) scale(0.16 -0.16)">
     <use xlink:href="#TimesNewRomanPSMT-39"/>
    </g>
   </g>
   <g id="text_55">
    <!-- 48 -->
    <g transform="translate(615.914427 171.182284) scale(0.16 -0.16)">
     <use xlink:href="#TimesNewRomanPSMT-34"/>
     <use xlink:href="#TimesNewRomanPSMT-38" x="50"/>
    </g>
   </g>
   <g id="text_56">
    <!-- 5 -->
    <g transform="translate(679.463834 171.182284) scale(0.16 -0.16)">
     <use xlink:href="#TimesNewRomanPSMT-35"/>
    </g>
   </g>
   <g id="text_57">
    <!-- 51 -->
    <g transform="translate(252.001383 119.044353) scale(0.16 -0.16)">
     <use xlink:href="#TimesNewRomanPSMT-35"/>
     <use xlink:href="#TimesNewRomanPSMT-31" x="50"/>
    </g>
   </g>
   <g id="text_58">
    <!-- 15 -->
    <g transform="translate(424.033004 119.044353) scale(0.16 -0.16)">
     <use xlink:href="#TimesNewRomanPSMT-31"/>
     <use xlink:href="#TimesNewRomanPSMT-35" x="50"/>
    </g>
   </g>
   <g id="text_59">
    <!-- 36 -->
    <g transform="translate(516.665415 119.044353) scale(0.16 -0.16)">
     <use xlink:href="#TimesNewRomanPSMT-33"/>
     <use xlink:href="#TimesNewRomanPSMT-36" x="50"/>
    </g>
   </g>
   <g id="text_60">
    <!-- 43 -->
    <g transform="translate(93.202964 66.906422) scale(0.16 -0.16)">
     <use xlink:href="#TimesNewRomanPSMT-34"/>
     <use xlink:href="#TimesNewRomanPSMT-33" x="50"/>
    </g>
   </g>
   <g id="text_61">
    <!-- 27 -->
    <g transform="translate(113.052767 66.906422) scale(0.16 -0.16)">
     <use xlink:href="#TimesNewRomanPSMT-32"/>
     <use xlink:href="#TimesNewRomanPSMT-37" x="50"/>
    </g>
   </g>
   <g id="text_62">
    <!-- 49 -->
    <g transform="translate(139.51917 66.906422) scale(0.16 -0.16)">
     <use xlink:href="#TimesNewRomanPSMT-34"/>
     <use xlink:href="#TimesNewRomanPSMT-39" x="50"/>
    </g>
   </g>
   <g id="text_63">
    <!-- 50 -->
    <g transform="translate(192.451976 66.906422) scale(0.16 -0.16)">
     <use xlink:href="#TimesNewRomanPSMT-35"/>
     <use xlink:href="#TimesNewRomanPSMT-30" x="50"/>
    </g>
   </g>
   <g id="text_64">
    <!-- 38 -->
    <g transform="translate(245.384783 66.906422) scale(0.16 -0.16)">
     <use xlink:href="#TimesNewRomanPSMT-33"/>
     <use xlink:href="#TimesNewRomanPSMT-38" x="50"/>
    </g>
   </g>
   <g id="text_65">
    <!-- 33 -->
    <g transform="translate(265.234585 66.906422) scale(0.16 -0.16)">
     <use xlink:href="#TimesNewRomanPSMT-33"/>
     <use xlink:href="#TimesNewRomanPSMT-33" x="50"/>
    </g>
   </g>
   <g id="text_66">
    <!-- 52 -->
    <g transform="translate(278.467787 66.906422) scale(0.16 -0.16)">
     <use xlink:href="#TimesNewRomanPSMT-35"/>
     <use xlink:href="#TimesNewRomanPSMT-32" x="50"/>
    </g>
   </g>
   <g id="text_67">
    <!-- 45 -->
    <g transform="translate(324.783992 66.906422) scale(0.16 -0.16)">
     <use xlink:href="#TimesNewRomanPSMT-34"/>
     <use xlink:href="#TimesNewRomanPSMT-35" x="50"/>
    </g>
   </g>
   <g id="text_68">
    <!-- 47 -->
    <g transform="translate(496.815613 66.906422) scale(0.16 -0.16)">
     <use xlink:href="#TimesNewRomanPSMT-34"/>
     <use xlink:href="#TimesNewRomanPSMT-37" x="50"/>
    </g>
   </g>
   <g id="text_69">
    <!-- Instance: Mk01, Makespan: 46,Balanced_workload:36 -->
    <g transform="translate(179.83125 21.0875) scale(0.2 -0.2)">
     <defs>
      <path id="TimesNewRomanPSMT-49" d="M 1975 116 
L 1975 0 
L 159 0 
L 159 116 
L 309 116 
Q 572 116 691 269 
Q 766 369 766 750 
L 766 3488 
Q 766 3809 725 3913 
Q 694 3991 597 4047 
Q 459 4122 309 4122 
L 159 4122 
L 159 4238 
L 1975 4238 
L 1975 4122 
L 1822 4122 
Q 1563 4122 1444 3969 
Q 1366 3869 1366 3488 
L 1366 750 
Q 1366 428 1406 325 
Q 1438 247 1538 191 
Q 1672 116 1822 116 
L 1975 116 
z
" transform="scale(0.015625)"/>
      <path id="TimesNewRomanPSMT-73" d="M 2050 2947 
L 2050 1972 
L 1947 1972 
Q 1828 2431 1642 2597 
Q 1456 2763 1169 2763 
Q 950 2763 815 2647 
Q 681 2531 681 2391 
Q 681 2216 781 2091 
Q 878 1963 1175 1819 
L 1631 1597 
Q 2266 1288 2266 781 
Q 2266 391 1970 151 
Q 1675 -88 1309 -88 
Q 1047 -88 709 6 
Q 606 38 541 38 
Q 469 38 428 -44 
L 325 -44 
L 325 978 
L 428 978 
Q 516 541 762 319 
Q 1009 97 1316 97 
Q 1531 97 1667 223 
Q 1803 350 1803 528 
Q 1803 744 1651 891 
Q 1500 1038 1047 1263 
Q 594 1488 453 1669 
Q 313 1847 313 2119 
Q 313 2472 555 2709 
Q 797 2947 1181 2947 
Q 1350 2947 1591 2875 
Q 1750 2828 1803 2828 
Q 1853 2828 1881 2850 
Q 1909 2872 1947 2947 
L 2050 2947 
z
" transform="scale(0.015625)"/>
      <path id="TimesNewRomanPSMT-74" d="M 1031 3803 
L 1031 2863 
L 1700 2863 
L 1700 2644 
L 1031 2644 
L 1031 788 
Q 1031 509 1111 412 
Q 1191 316 1316 316 
Q 1419 316 1516 380 
Q 1613 444 1666 569 
L 1788 569 
Q 1678 263 1478 108 
Q 1278 -47 1066 -47 
Q 922 -47 784 33 
Q 647 113 581 261 
Q 516 409 516 719 
L 516 2644 
L 63 2644 
L 63 2747 
Q 234 2816 414 2980 
Q 594 3144 734 3369 
Q 806 3488 934 3803 
L 1031 3803 
z
" transform="scale(0.015625)"/>
      <path id="TimesNewRomanPSMT-3a" d="M 903 2950 
Q 1047 2950 1148 2848 
Q 1250 2747 1250 2603 
Q 1250 2459 1148 2357 
Q 1047 2256 903 2256 
Q 759 2256 657 2357 
Q 556 2459 556 2603 
Q 556 2747 657 2848 
Q 759 2950 903 2950 
z
M 897 609 
Q 1044 609 1145 506 
Q 1247 403 1247 259 
Q 1247 116 1144 14 
Q 1041 -88 897 -88 
Q 753 -88 651 14 
Q 550 116 550 259 
Q 550 403 651 506 
Q 753 609 897 609 
z
" transform="scale(0.015625)"/>
      <path id="TimesNewRomanPSMT-20" transform="scale(0.015625)"/>
      <path id="TimesNewRomanPSMT-6b" d="M 1047 4444 
L 1047 1597 
L 1775 2259 
Q 2006 2472 2044 2528 
Q 2069 2566 2069 2603 
Q 2069 2666 2017 2711 
Q 1966 2756 1847 2763 
L 1847 2863 
L 3091 2863 
L 3091 2763 
Q 2834 2756 2664 2684 
Q 2494 2613 2291 2428 
L 1556 1750 
L 2291 822 
Q 2597 438 2703 334 
Q 2853 188 2966 144 
Q 3044 113 3238 113 
L 3238 0 
L 1847 0 
L 1847 113 
Q 1966 116 2008 148 
Q 2050 181 2050 241 
Q 2050 313 1925 472 
L 1047 1594 
L 1047 644 
Q 1047 366 1086 278 
Q 1125 191 1197 153 
Q 1269 116 1509 113 
L 1509 0 
L 53 0 
L 53 113 
Q 272 113 381 166 
Q 447 200 481 272 
Q 528 375 528 628 
L 528 3234 
Q 528 3731 506 3842 
Q 484 3953 434 3995 
Q 384 4038 303 4038 
Q 238 4038 106 3984 
L 53 4094 
L 903 4444 
L 1047 4444 
z
" transform="scale(0.015625)"/>
      <path id="TimesNewRomanPSMT-2c" d="M 344 -1066 
L 344 -928 
Q 666 -822 842 -598 
Q 1019 -375 1019 -125 
Q 1019 -66 991 -25 
Q 969 3 947 3 
Q 913 3 797 -59 
Q 741 -88 678 -88 
Q 525 -88 434 3 
Q 344 94 344 253 
Q 344 406 461 515 
Q 578 625 747 625 
Q 953 625 1114 445 
Q 1275 266 1275 -31 
Q 1275 -353 1051 -629 
Q 828 -906 344 -1066 
z
" transform="scale(0.015625)"/>
      <path id="TimesNewRomanPSMT-70" d="M -6 2578 
L 875 2934 
L 994 2934 
L 994 2266 
Q 1216 2644 1439 2795 
Q 1663 2947 1909 2947 
Q 2341 2947 2628 2609 
Q 2981 2197 2981 1534 
Q 2981 794 2556 309 
Q 2206 -88 1675 -88 
Q 1444 -88 1275 -22 
Q 1150 25 994 166 
L 994 -706 
Q 994 -1000 1030 -1079 
Q 1066 -1159 1155 -1206 
Q 1244 -1253 1478 -1253 
L 1478 -1369 
L -22 -1369 
L -22 -1253 
L 56 -1253 
Q 228 -1256 350 -1188 
Q 409 -1153 442 -1076 
Q 475 -1000 475 -688 
L 475 2019 
Q 475 2297 450 2372 
Q 425 2447 370 2484 
Q 316 2522 222 2522 
Q 147 2522 31 2478 
L -6 2578 
z
M 994 2081 
L 994 1013 
Q 994 666 1022 556 
Q 1066 375 1236 237 
Q 1406 100 1666 100 
Q 1978 100 2172 344 
Q 2425 663 2425 1241 
Q 2425 1897 2138 2250 
Q 1938 2494 1663 2494 
Q 1513 2494 1366 2419 
Q 1253 2363 994 2081 
z
" transform="scale(0.015625)"/>
      <path id="TimesNewRomanPSMT-42" d="M 2956 2163 
Q 3397 2069 3616 1863 
Q 3919 1575 3919 1159 
Q 3919 844 3719 555 
Q 3519 266 3170 133 
Q 2822 0 2106 0 
L 106 0 
L 106 116 
L 266 116 
Q 531 116 647 284 
Q 719 394 719 750 
L 719 3488 
Q 719 3881 628 3984 
Q 506 4122 266 4122 
L 106 4122 
L 106 4238 
L 1938 4238 
Q 2450 4238 2759 4163 
Q 3228 4050 3475 3764 
Q 3722 3478 3722 3106 
Q 3722 2788 3528 2536 
Q 3334 2284 2956 2163 
z
M 1319 2331 
Q 1434 2309 1582 2298 
Q 1731 2288 1909 2288 
Q 2366 2288 2595 2386 
Q 2825 2484 2947 2687 
Q 3069 2891 3069 3131 
Q 3069 3503 2766 3765 
Q 2463 4028 1881 4028 
Q 1569 4028 1319 3959 
L 1319 2331 
z
M 1319 306 
Q 1681 222 2034 222 
Q 2600 222 2897 476 
Q 3194 731 3194 1106 
Q 3194 1353 3059 1581 
Q 2925 1809 2622 1940 
Q 2319 2072 1872 2072 
Q 1678 2072 1540 2065 
Q 1403 2059 1319 2044 
L 1319 306 
z
" transform="scale(0.015625)"/>
      <path id="TimesNewRomanPSMT-6c" d="M 1184 4444 
L 1184 647 
Q 1184 378 1223 290 
Q 1263 203 1344 158 
Q 1425 113 1647 113 
L 1647 0 
L 244 0 
L 244 113 
Q 441 113 512 153 
Q 584 194 625 287 
Q 666 381 666 647 
L 666 3247 
Q 666 3731 644 3842 
Q 622 3953 573 3993 
Q 525 4034 450 4034 
Q 369 4034 244 3984 
L 191 4094 
L 1044 4444 
L 1184 4444 
z
" transform="scale(0.015625)"/>
      <path id="TimesNewRomanPSMT-64" d="M 2222 322 
Q 2013 103 1813 7 
Q 1613 -88 1381 -88 
Q 913 -88 563 304 
Q 213 697 213 1313 
Q 213 1928 600 2439 
Q 988 2950 1597 2950 
Q 1975 2950 2222 2709 
L 2222 3238 
Q 2222 3728 2198 3840 
Q 2175 3953 2125 3993 
Q 2075 4034 2000 4034 
Q 1919 4034 1784 3984 
L 1744 4094 
L 2597 4444 
L 2738 4444 
L 2738 1134 
Q 2738 631 2761 520 
Q 2784 409 2836 365 
Q 2888 322 2956 322 
Q 3041 322 3181 375 
L 3216 266 
L 2366 -88 
L 2222 -88 
L 2222 322 
z
M 2222 541 
L 2222 2016 
Q 2203 2228 2109 2403 
Q 2016 2578 1861 2667 
Q 1706 2756 1559 2756 
Q 1284 2756 1069 2509 
Q 784 2184 784 1559 
Q 784 928 1059 592 
Q 1334 256 1672 256 
Q 1956 256 2222 541 
z
" transform="scale(0.015625)"/>
      <path id="TimesNewRomanPSMT-5f" d="M 3256 -1381 
L -53 -1381 
L -53 -1119 
L 3256 -1119 
L 3256 -1381 
z
" transform="scale(0.015625)"/>
      <path id="TimesNewRomanPSMT-77" d="M 41 2863 
L 1241 2863 
L 1241 2747 
Q 1075 2734 1023 2687 
Q 972 2641 972 2553 
Q 972 2456 1025 2319 
L 1638 672 
L 2253 2013 
L 2091 2434 
Q 2016 2622 1894 2694 
Q 1825 2738 1638 2747 
L 1638 2863 
L 3000 2863 
L 3000 2747 
Q 2775 2738 2681 2666 
Q 2619 2616 2619 2506 
Q 2619 2444 2644 2378 
L 3294 734 
L 3897 2319 
Q 3959 2488 3959 2588 
Q 3959 2647 3898 2694 
Q 3838 2741 3659 2747 
L 3659 2863 
L 4563 2863 
L 4563 2747 
Q 4291 2706 4163 2378 
L 3206 -88 
L 3078 -88 
L 2363 1741 
L 1528 -88 
L 1413 -88 
L 494 2319 
Q 403 2547 315 2626 
Q 228 2706 41 2747 
L 41 2863 
z
" transform="scale(0.015625)"/>
      <path id="TimesNewRomanPSMT-6f" d="M 1600 2947 
Q 2250 2947 2644 2453 
Q 2978 2031 2978 1484 
Q 2978 1100 2793 706 
Q 2609 313 2286 112 
Q 1963 -88 1566 -88 
Q 919 -88 538 428 
Q 216 863 216 1403 
Q 216 1797 411 2186 
Q 606 2575 925 2761 
Q 1244 2947 1600 2947 
z
M 1503 2744 
Q 1338 2744 1170 2645 
Q 1003 2547 900 2300 
Q 797 2053 797 1666 
Q 797 1041 1045 587 
Q 1294 134 1700 134 
Q 2003 134 2200 384 
Q 2397 634 2397 1244 
Q 2397 2006 2069 2444 
Q 1847 2744 1503 2744 
z
" transform="scale(0.015625)"/>
      <path id="TimesNewRomanPSMT-72" d="M 1038 2947 
L 1038 2303 
Q 1397 2947 1775 2947 
Q 1947 2947 2059 2842 
Q 2172 2738 2172 2600 
Q 2172 2478 2090 2393 
Q 2009 2309 1897 2309 
Q 1788 2309 1652 2417 
Q 1516 2525 1450 2525 
Q 1394 2525 1328 2463 
Q 1188 2334 1038 2041 
L 1038 669 
Q 1038 431 1097 309 
Q 1138 225 1241 169 
Q 1344 113 1538 113 
L 1538 0 
L 72 0 
L 72 113 
Q 291 113 397 181 
Q 475 231 506 341 
Q 522 394 522 644 
L 522 1753 
Q 522 2253 501 2348 
Q 481 2444 426 2487 
Q 372 2531 291 2531 
Q 194 2531 72 2484 
L 41 2597 
L 906 2947 
L 1038 2947 
z
" transform="scale(0.015625)"/>
     </defs>
     <use xlink:href="#TimesNewRomanPSMT-49"/>
     <use xlink:href="#TimesNewRomanPSMT-6e" x="33.300781"/>
     <use xlink:href="#TimesNewRomanPSMT-73" x="83.300781"/>
     <use xlink:href="#TimesNewRomanPSMT-74" x="122.216797"/>
     <use xlink:href="#TimesNewRomanPSMT-61" x="150"/>
     <use xlink:href="#TimesNewRomanPSMT-6e" x="194.384766"/>
     <use xlink:href="#TimesNewRomanPSMT-63" x="244.384766"/>
     <use xlink:href="#TimesNewRomanPSMT-65" x="288.769531"/>
     <use xlink:href="#TimesNewRomanPSMT-3a" x="333.154297"/>
     <use xlink:href="#TimesNewRomanPSMT-20" x="360.9375"/>
     <use xlink:href="#TimesNewRomanPSMT-4d" x="385.9375"/>
     <use xlink:href="#TimesNewRomanPSMT-6b" x="474.853516"/>
     <use xlink:href="#TimesNewRomanPSMT-30" x="524.853516"/>
     <use xlink:href="#TimesNewRomanPSMT-31" x="574.853516"/>
     <use xlink:href="#TimesNewRomanPSMT-2c" x="624.853516"/>
     <use xlink:href="#TimesNewRomanPSMT-20" x="649.853516"/>
     <use xlink:href="#TimesNewRomanPSMT-4d" x="674.853516"/>
     <use xlink:href="#TimesNewRomanPSMT-61" x="763.769531"/>
     <use xlink:href="#TimesNewRomanPSMT-6b" x="808.154297"/>
     <use xlink:href="#TimesNewRomanPSMT-65" x="858.154297"/>
     <use xlink:href="#TimesNewRomanPSMT-73" x="902.539062"/>
     <use xlink:href="#TimesNewRomanPSMT-70" x="941.455078"/>
     <use xlink:href="#TimesNewRomanPSMT-61" x="991.455078"/>
     <use xlink:href="#TimesNewRomanPSMT-6e" x="1035.839844"/>
     <use xlink:href="#TimesNewRomanPSMT-3a" x="1085.839844"/>
     <use xlink:href="#TimesNewRomanPSMT-20" x="1113.623047"/>
     <use xlink:href="#TimesNewRomanPSMT-34" x="1138.623047"/>
     <use xlink:href="#TimesNewRomanPSMT-36" x="1188.623047"/>
     <use xlink:href="#TimesNewRomanPSMT-2c" x="1238.623047"/>
     <use xlink:href="#TimesNewRomanPSMT-42" x="1263.623047"/>
     <use xlink:href="#TimesNewRomanPSMT-61" x="1330.322266"/>
     <use xlink:href="#TimesNewRomanPSMT-6c" x="1374.707031"/>
     <use xlink:href="#TimesNewRomanPSMT-61" x="1402.490234"/>
     <use xlink:href="#TimesNewRomanPSMT-6e" x="1446.875"/>
     <use xlink:href="#TimesNewRomanPSMT-63" x="1496.875"/>
     <use xlink:href="#TimesNewRomanPSMT-65" x="1541.259766"/>
     <use xlink:href="#TimesNewRomanPSMT-64" x="1585.644531"/>
     <use xlink:href="#TimesNewRomanPSMT-5f" x="1635.644531"/>
     <use xlink:href="#TimesNewRomanPSMT-77" x="1685.644531"/>
     <use xlink:href="#TimesNewRomanPSMT-6f" x="1757.861328"/>
     <use xlink:href="#TimesNewRomanPSMT-72" x="1807.861328"/>
     <use xlink:href="#TimesNewRomanPSMT-6b" x="1841.162109"/>
     <use xlink:href="#TimesNewRomanPSMT-6c" x="1891.162109"/>
     <use xlink:href="#TimesNewRomanPSMT-6f" x="1918.945312"/>
     <use xlink:href="#TimesNewRomanPSMT-61" x="1968.945312"/>
     <use xlink:href="#TimesNewRomanPSMT-64" x="2013.330078"/>
     <use xlink:href="#TimesNewRomanPSMT-3a" x="2063.330078"/>
     <use xlink:href="#TimesNewRomanPSMT-33" x="2091.113281"/>
     <use xlink:href="#TimesNewRomanPSMT-36" x="2141.113281"/>
    </g>
   </g>
  </g>
 </g>
 <defs>
  <clipPath id="pa1b712c3a5">
   <rect x="64.15" y="27.0875" width="669.6" height="332.64"/>
  </clipPath>
 </defs>
 <defs>
  <pattern id="h54a9225d3e" patternUnits="userSpaceOnUse" x="0" y="0" width="72" height="72">
   <rect x="0" y="0" width="73" height="73" fill="#808080"/>
   <path d="M -36 36 
L 36 -36 
M -24 48 
L 48 -24 
M -12 60 
L 60 -12 
M 0 72 
L 72 0 
M 12 84 
L 84 12 
M 24 96 
L 96 24 
M 36 108 
L 108 36 
" style="fill: #000000; stroke: #000000; stroke-width: 1.0; stroke-linecap: butt; stroke-linejoin: miter"/>
  </pattern>
 </defs>
</svg>
