<?xml version="1.0" encoding="utf-8" standalone="no"?>
<!DOCTYPE svg PUBLIC "-//W3C//DTD SVG 1.1//EN"
  "http://www.w3.org/Graphics/SVG/1.1/DTD/svg11.dtd">
<svg xmlns:xlink="http://www.w3.org/1999/xlink" width="740.95pt" height="414.25875pt" viewBox="0 0 740.95 414.25875" xmlns="http://www.w3.org/2000/svg" version="1.1">
 <metadata>
  <rdf:RDF xmlns:dc="http://purl.org/dc/elements/1.1/" xmlns:cc="http://creativecommons.org/ns#" xmlns:rdf="http://www.w3.org/1999/02/22-rdf-syntax-ns#">
   <cc:Work>
    <dc:type rdf:resource="http://purl.org/dc/dcmitype/StillImage"/>
    <dc:date>2025-03-02T22:39:21.311482</dc:date>
    <dc:format>image/svg+xml</dc:format>
    <dc:creator>
     <cc:Agent>
      <dc:title>Matplotlib v3.9.2, https://matplotlib.org/</dc:title>
     </cc:Agent>
    </dc:creator>
   </cc:Work>
  </rdf:RDF>
 </metadata>
 <defs>
  <style type="text/css">*{stroke-linejoin: round; stroke-linecap: butt}</style>
 </defs>
 <g id="figure_1">
  <g id="patch_1">
   <path d="M 0 414.25875 
L 740.95 414.25875 
L 740.95 0 
L 0 0 
z
" style="fill: #ffffff"/>
  </g>
  <g id="axes_1">
   <g id="patch_2">
    <path d="M 64.15 359.7275 
L 733.75 359.7275 
L 733.75 27.0875 
L 64.15 27.0875 
z
" style="fill: #ffffff"/>
   </g>
   <g id="PolyCollection_1">
    <defs>
     <path id="m32f25a4768" d="M 94.586364 -69.65125 
L 94.586364 -111.361595 
L 108.113636 -111.361595 
L 108.113636 -69.65125 
z
" style="stroke: #000000"/>
    </defs>
    <g clip-path="url(#p63de7409ba)">
     <use xlink:href="#m32f25a4768" x="0" y="414.25875" style="fill: #9ecae1; stroke: #000000"/>
    </g>
   </g>
   <g id="PolyCollection_2">
    <path d="M 94.586364 344.6075 
L 94.586364 302.897155 
L 94.586364 302.897155 
L 94.586364 344.6075 
z
" clip-path="url(#p63de7409ba)" style="fill: url(#h72fa7e6857); stroke: #000000"/>
   </g>
   <g id="PolyCollection_3">
    <defs>
     <path id="m3b025e0c36" d="M 121.640909 -69.65125 
L 121.640909 -111.361595 
L 148.695455 -111.361595 
L 148.695455 -69.65125 
z
" style="stroke: #000000"/>
    </defs>
    <g clip-path="url(#p63de7409ba)">
     <use xlink:href="#m3b025e0c36" x="0" y="414.25875" style="fill: #d62728; stroke: #000000"/>
    </g>
   </g>
   <g id="PolyCollection_4">
    <path d="M 121.640909 344.6075 
L 121.640909 302.897155 
L 121.640909 302.897155 
L 121.640909 344.6075 
z
" clip-path="url(#p63de7409ba)" style="fill: url(#h72fa7e6857); stroke: #000000"/>
   </g>
   <g id="PolyCollection_5">
    <defs>
     <path id="m1308aaae93" d="M 148.695455 -69.65125 
L 148.695455 -111.361595 
L 216.331818 -111.361595 
L 216.331818 -69.65125 
z
" style="stroke: #000000"/>
    </defs>
    <g clip-path="url(#p63de7409ba)">
     <use xlink:href="#m1308aaae93" x="0" y="414.25875" style="fill: #1f77b4; stroke: #000000"/>
    </g>
   </g>
   <g id="PolyCollection_6">
    <path d="M 148.695455 344.6075 
L 148.695455 302.897155 
L 148.695455 302.897155 
L 148.695455 344.6075 
z
" clip-path="url(#p63de7409ba)" style="fill: url(#h72fa7e6857); stroke: #000000"/>
   </g>
   <g id="PolyCollection_7">
    <defs>
     <path id="m75409795ba" d="M 216.331818 -69.65125 
L 216.331818 -111.361595 
L 243.386364 -111.361595 
L 243.386364 -69.65125 
z
" style="stroke: #000000"/>
    </defs>
    <g clip-path="url(#p63de7409ba)">
     <use xlink:href="#m75409795ba" x="0" y="414.25875" style="fill: #4c78a8; stroke: #000000"/>
    </g>
   </g>
   <g id="PolyCollection_8">
    <path d="M 216.331818 344.6075 
L 216.331818 302.897155 
L 216.331818 302.897155 
L 216.331818 344.6075 
z
" clip-path="url(#p63de7409ba)" style="fill: url(#h72fa7e6857); stroke: #000000"/>
   </g>
   <g id="PolyCollection_9">
    <defs>
     <path id="m5d9f8875e4" d="M 270.440909 -69.65125 
L 270.440909 -111.361595 
L 283.968182 -111.361595 
L 283.968182 -69.65125 
z
" style="stroke: #000000"/>
    </defs>
    <g clip-path="url(#p63de7409ba)">
     <use xlink:href="#m5d9f8875e4" x="0" y="414.25875" style="fill: #c6dbef; stroke: #000000"/>
    </g>
   </g>
   <g id="PolyCollection_10">
    <path d="M 270.440909 344.6075 
L 270.440909 302.897155 
L 270.440909 302.897155 
L 270.440909 344.6075 
z
" clip-path="url(#p63de7409ba)" style="fill: url(#h72fa7e6857); stroke: #000000"/>
   </g>
   <g id="PolyCollection_11">
    <defs>
     <path id="m5f4fc66452" d="M 283.968182 -69.65125 
L 283.968182 -111.361595 
L 324.55 -111.361595 
L 324.55 -69.65125 
z
" style="stroke: #000000"/>
    </defs>
    <g clip-path="url(#p63de7409ba)">
     <use xlink:href="#m5f4fc66452" x="0" y="414.25875" style="fill: #e45756; stroke: #000000"/>
    </g>
   </g>
   <g id="PolyCollection_12">
    <path d="M 283.968182 344.6075 
L 283.968182 302.897155 
L 283.968182 302.897155 
L 283.968182 344.6075 
z
" clip-path="url(#p63de7409ba)" style="fill: url(#h72fa7e6857); stroke: #000000"/>
   </g>
   <g id="PolyCollection_13">
    <defs>
     <path id="m0626fa4747" d="M 324.55 -69.65125 
L 324.55 -111.361595 
L 338.077273 -111.361595 
L 338.077273 -69.65125 
z
" style="stroke: #000000"/>
    </defs>
    <g clip-path="url(#p63de7409ba)">
     <use xlink:href="#m0626fa4747" x="0" y="414.25875" style="fill: #6395b9; stroke: #000000"/>
    </g>
   </g>
   <g id="PolyCollection_14">
    <path d="M 324.55 344.6075 
L 324.55 302.897155 
L 324.55 302.897155 
L 324.55 344.6075 
z
" clip-path="url(#p63de7409ba)" style="fill: url(#h72fa7e6857); stroke: #000000"/>
   </g>
   <g id="PolyCollection_15">
    <defs>
     <path id="m479a9846e2" d="M 338.077273 -69.65125 
L 338.077273 -111.361595 
L 351.604545 -111.361595 
L 351.604545 -69.65125 
z
" style="stroke: #000000"/>
    </defs>
    <g clip-path="url(#p63de7409ba)">
     <use xlink:href="#m479a9846e2" x="0" y="414.25875" style="fill: #4c78a8; stroke: #000000"/>
    </g>
   </g>
   <g id="PolyCollection_16">
    <path d="M 338.077273 344.6075 
L 338.077273 302.897155 
L 338.077273 302.897155 
L 338.077273 344.6075 
z
" clip-path="url(#p63de7409ba)" style="fill: url(#h72fa7e6857); stroke: #000000"/>
   </g>
   <g id="PolyCollection_17">
    <defs>
     <path id="m54a148e363" d="M 365.131818 -69.65125 
L 365.131818 -111.361595 
L 378.659091 -111.361595 
L 378.659091 -69.65125 
z
" style="stroke: #000000"/>
    </defs>
    <g clip-path="url(#p63de7409ba)">
     <use xlink:href="#m54a148e363" x="0" y="414.25875" style="fill: #1f77b4; stroke: #000000"/>
    </g>
   </g>
   <g id="PolyCollection_18">
    <path d="M 365.131818 344.6075 
L 365.131818 302.897155 
L 365.131818 302.897155 
L 365.131818 344.6075 
z
" clip-path="url(#p63de7409ba)" style="fill: url(#h72fa7e6857); stroke: #000000"/>
   </g>
   <g id="PolyCollection_19">
    <defs>
     <path id="m3d1e0f8c28" d="M 378.659091 -69.65125 
L 378.659091 -111.361595 
L 405.713636 -111.361595 
L 405.713636 -69.65125 
z
" style="stroke: #000000"/>
    </defs>
    <g clip-path="url(#p63de7409ba)">
     <use xlink:href="#m3d1e0f8c28" x="0" y="414.25875" style="fill: #fc9272; stroke: #000000"/>
    </g>
   </g>
   <g id="PolyCollection_20">
    <path d="M 378.659091 344.6075 
L 378.659091 302.897155 
L 378.659091 302.897155 
L 378.659091 344.6075 
z
" clip-path="url(#p63de7409ba)" style="fill: url(#h72fa7e6857); stroke: #000000"/>
   </g>
   <g id="PolyCollection_21">
    <defs>
     <path id="md9d2c4e4b3" d="M 405.713636 -69.65125 
L 405.713636 -111.361595 
L 446.295455 -111.361595 
L 446.295455 -69.65125 
z
" style="stroke: #000000"/>
    </defs>
    <g clip-path="url(#p63de7409ba)">
     <use xlink:href="#md9d2c4e4b3" x="0" y="414.25875" style="fill: #fee0d2; stroke: #000000"/>
    </g>
   </g>
   <g id="PolyCollection_22">
    <path d="M 405.713636 344.6075 
L 405.713636 302.897155 
L 405.713636 302.897155 
L 405.713636 344.6075 
z
" clip-path="url(#p63de7409ba)" style="fill: url(#h72fa7e6857); stroke: #000000"/>
   </g>
   <g id="PolyCollection_23">
    <defs>
     <path id="m6c6ce85699" d="M 473.35 -69.65125 
L 473.35 -111.361595 
L 486.877273 -111.361595 
L 486.877273 -69.65125 
z
" style="stroke: #000000"/>
    </defs>
    <g clip-path="url(#p63de7409ba)">
     <use xlink:href="#m6c6ce85699" x="0" y="414.25875" style="fill: #f67e7d; stroke: #000000"/>
    </g>
   </g>
   <g id="PolyCollection_24">
    <path d="M 473.35 344.6075 
L 473.35 302.897155 
L 473.35 302.897155 
L 473.35 344.6075 
z
" clip-path="url(#p63de7409ba)" style="fill: url(#h72fa7e6857); stroke: #000000"/>
   </g>
   <g id="PolyCollection_25">
    <defs>
     <path id="mecc08a36a9" d="M 527.459091 -69.65125 
L 527.459091 -111.361595 
L 540.986364 -111.361595 
L 540.986364 -69.65125 
z
" style="stroke: #000000"/>
    </defs>
    <g clip-path="url(#p63de7409ba)">
     <use xlink:href="#mecc08a36a9" x="0" y="414.25875" style="fill: #d62728; stroke: #000000"/>
    </g>
   </g>
   <g id="PolyCollection_26">
    <path d="M 527.459091 344.6075 
L 527.459091 302.897155 
L 527.459091 302.897155 
L 527.459091 344.6075 
z
" clip-path="url(#p63de7409ba)" style="fill: url(#h72fa7e6857); stroke: #000000"/>
   </g>
   <g id="PolyCollection_27">
    <defs>
     <path id="m8a802f7128" d="M 540.986364 -69.65125 
L 540.986364 -111.361595 
L 581.568182 -111.361595 
L 581.568182 -69.65125 
z
" style="stroke: #000000"/>
    </defs>
    <g clip-path="url(#p63de7409ba)">
     <use xlink:href="#m8a802f7128" x="0" y="414.25875" style="fill: #d62728; stroke: #000000"/>
    </g>
   </g>
   <g id="PolyCollection_28">
    <path d="M 540.986364 344.6075 
L 540.986364 302.897155 
L 540.986364 302.897155 
L 540.986364 344.6075 
z
" clip-path="url(#p63de7409ba)" style="fill: url(#h72fa7e6857); stroke: #000000"/>
   </g>
   <g id="PolyCollection_29">
    <defs>
     <path id="m40184a9323" d="M 581.568182 -69.65125 
L 581.568182 -111.361595 
L 595.095455 -111.361595 
L 595.095455 -69.65125 
z
" style="stroke: #000000"/>
    </defs>
    <g clip-path="url(#p63de7409ba)">
     <use xlink:href="#m40184a9323" x="0" y="414.25875" style="fill: #6395b9; stroke: #000000"/>
    </g>
   </g>
   <g id="PolyCollection_30">
    <path d="M 581.568182 344.6075 
L 581.568182 302.897155 
L 581.568182 302.897155 
L 581.568182 344.6075 
z
" clip-path="url(#p63de7409ba)" style="fill: url(#h72fa7e6857); stroke: #000000"/>
   </g>
   <g id="PolyCollection_31">
    <defs>
     <path id="mfb48c2a9e8" d="M 94.586364 -121.789181 
L 94.586364 -163.499526 
L 175.75 -163.499526 
L 175.75 -121.789181 
z
" style="stroke: #000000"/>
    </defs>
    <g clip-path="url(#p63de7409ba)">
     <use xlink:href="#mfb48c2a9e8" x="0" y="414.25875" style="fill: #4c78a8; stroke: #000000"/>
    </g>
   </g>
   <g id="PolyCollection_32">
    <path d="M 94.586364 292.469569 
L 94.586364 250.759224 
L 94.586364 250.759224 
L 94.586364 292.469569 
z
" clip-path="url(#p63de7409ba)" style="fill: url(#h72fa7e6857); stroke: #000000"/>
   </g>
   <g id="PolyCollection_33">
    <defs>
     <path id="m05f36daf33" d="M 175.75 -121.789181 
L 175.75 -163.499526 
L 256.913636 -163.499526 
L 256.913636 -121.789181 
z
" style="stroke: #000000"/>
    </defs>
    <g clip-path="url(#p63de7409ba)">
     <use xlink:href="#m05f36daf33" x="0" y="414.25875" style="fill: #6395b9; stroke: #000000"/>
    </g>
   </g>
   <g id="PolyCollection_34">
    <path d="M 175.75 292.469569 
L 175.75 250.759224 
L 175.75 250.759224 
L 175.75 292.469569 
z
" clip-path="url(#p63de7409ba)" style="fill: url(#h72fa7e6857); stroke: #000000"/>
   </g>
   <g id="PolyCollection_35">
    <defs>
     <path id="mb5ae5a132a" d="M 256.913636 -121.789181 
L 256.913636 -163.499526 
L 270.440909 -163.499526 
L 270.440909 -121.789181 
z
" style="stroke: #000000"/>
    </defs>
    <g clip-path="url(#p63de7409ba)">
     <use xlink:href="#mb5ae5a132a" x="0" y="414.25875" style="fill: #c6dbef; stroke: #000000"/>
    </g>
   </g>
   <g id="PolyCollection_36">
    <path d="M 256.913636 292.469569 
L 256.913636 250.759224 
L 256.913636 250.759224 
L 256.913636 292.469569 
z
" clip-path="url(#p63de7409ba)" style="fill: url(#h72fa7e6857); stroke: #000000"/>
   </g>
   <g id="PolyCollection_37">
    <defs>
     <path id="m1829703a33" d="M 270.440909 -121.789181 
L 270.440909 -163.499526 
L 283.968182 -163.499526 
L 283.968182 -121.789181 
z
" style="stroke: #000000"/>
    </defs>
    <g clip-path="url(#p63de7409ba)">
     <use xlink:href="#m1829703a33" x="0" y="414.25875" style="fill: #1f77b4; stroke: #000000"/>
    </g>
   </g>
   <g id="PolyCollection_38">
    <path d="M 270.440909 292.469569 
L 270.440909 250.759224 
L 270.440909 250.759224 
L 270.440909 292.469569 
z
" clip-path="url(#p63de7409ba)" style="fill: url(#h72fa7e6857); stroke: #000000"/>
   </g>
   <g id="PolyCollection_39">
    <defs>
     <path id="m801801c46b" d="M 283.968182 -121.789181 
L 283.968182 -163.499526 
L 365.131818 -163.499526 
L 365.131818 -121.789181 
z
" style="stroke: #000000"/>
    </defs>
    <g clip-path="url(#p63de7409ba)">
     <use xlink:href="#m801801c46b" x="0" y="414.25875" style="fill: #c6dbef; stroke: #000000"/>
    </g>
   </g>
   <g id="PolyCollection_40">
    <path d="M 283.968182 292.469569 
L 283.968182 250.759224 
L 283.968182 250.759224 
L 283.968182 292.469569 
z
" clip-path="url(#p63de7409ba)" style="fill: url(#h72fa7e6857); stroke: #000000"/>
   </g>
   <g id="PolyCollection_41">
    <defs>
     <path id="m9a2116de6d" d="M 365.131818 -121.789181 
L 365.131818 -163.499526 
L 446.295455 -163.499526 
L 446.295455 -121.789181 
z
" style="stroke: #000000"/>
    </defs>
    <g clip-path="url(#p63de7409ba)">
     <use xlink:href="#m9a2116de6d" x="0" y="414.25875" style="fill: #9ecae1; stroke: #000000"/>
    </g>
   </g>
   <g id="PolyCollection_42">
    <path d="M 365.131818 292.469569 
L 365.131818 250.759224 
L 365.131818 250.759224 
L 365.131818 292.469569 
z
" clip-path="url(#p63de7409ba)" style="fill: url(#h72fa7e6857); stroke: #000000"/>
   </g>
   <g id="PolyCollection_43">
    <defs>
     <path id="m22e1f61370" d="M 446.295455 -121.789181 
L 446.295455 -163.499526 
L 527.459091 -163.499526 
L 527.459091 -121.789181 
z
" style="stroke: #000000"/>
    </defs>
    <g clip-path="url(#p63de7409ba)">
     <use xlink:href="#m22e1f61370" x="0" y="414.25875" style="fill: #d62728; stroke: #000000"/>
    </g>
   </g>
   <g id="PolyCollection_44">
    <path d="M 446.295455 292.469569 
L 446.295455 250.759224 
L 446.295455 250.759224 
L 446.295455 292.469569 
z
" clip-path="url(#p63de7409ba)" style="fill: url(#h72fa7e6857); stroke: #000000"/>
   </g>
   <g id="PolyCollection_45">
    <defs>
     <path id="m9ba2e067f4" d="M 527.459091 -121.789181 
L 527.459091 -163.499526 
L 540.986364 -163.499526 
L 540.986364 -121.789181 
z
" style="stroke: #000000"/>
    </defs>
    <g clip-path="url(#p63de7409ba)">
     <use xlink:href="#m9ba2e067f4" x="0" y="414.25875" style="fill: #9ecae1; stroke: #000000"/>
    </g>
   </g>
   <g id="PolyCollection_46">
    <path d="M 527.459091 292.469569 
L 527.459091 250.759224 
L 527.459091 250.759224 
L 527.459091 292.469569 
z
" clip-path="url(#p63de7409ba)" style="fill: url(#h72fa7e6857); stroke: #000000"/>
   </g>
   <g id="PolyCollection_47">
    <defs>
     <path id="m60ab57eea2" d="M 540.986364 -121.789181 
L 540.986364 -163.499526 
L 622.15 -163.499526 
L 622.15 -121.789181 
z
" style="stroke: #000000"/>
    </defs>
    <g clip-path="url(#p63de7409ba)">
     <use xlink:href="#m60ab57eea2" x="0" y="414.25875" style="fill: #f67e7d; stroke: #000000"/>
    </g>
   </g>
   <g id="PolyCollection_48">
    <path d="M 540.986364 292.469569 
L 540.986364 250.759224 
L 540.986364 250.759224 
L 540.986364 292.469569 
z
" clip-path="url(#p63de7409ba)" style="fill: url(#h72fa7e6857); stroke: #000000"/>
   </g>
   <g id="PolyCollection_49">
    <defs>
     <path id="m3cff0f7633" d="M 175.75 -173.927112 
L 175.75 -215.637457 
L 189.277273 -215.637457 
L 189.277273 -173.927112 
z
" style="stroke: #000000"/>
    </defs>
    <g clip-path="url(#p63de7409ba)">
     <use xlink:href="#m3cff0f7633" x="0" y="414.25875" style="fill: #4c78a8; stroke: #000000"/>
    </g>
   </g>
   <g id="PolyCollection_50">
    <path d="M 175.75 240.331638 
L 175.75 198.621293 
L 175.75 198.621293 
L 175.75 240.331638 
z
" clip-path="url(#p63de7409ba)" style="fill: url(#h72fa7e6857); stroke: #000000"/>
   </g>
   <g id="PolyCollection_51">
    <defs>
     <path id="m065d7cdc97" d="M 189.277273 -173.927112 
L 189.277273 -215.637457 
L 243.386364 -215.637457 
L 243.386364 -173.927112 
z
" style="stroke: #000000"/>
    </defs>
    <g clip-path="url(#p63de7409ba)">
     <use xlink:href="#m065d7cdc97" x="0" y="414.25875" style="fill: #d62728; stroke: #000000"/>
    </g>
   </g>
   <g id="PolyCollection_52">
    <path d="M 189.277273 240.331638 
L 189.277273 198.621293 
L 189.277273 198.621293 
L 189.277273 240.331638 
z
" clip-path="url(#p63de7409ba)" style="fill: url(#h72fa7e6857); stroke: #000000"/>
   </g>
   <g id="PolyCollection_53">
    <defs>
     <path id="mc12ead8a07" d="M 256.913636 -173.927112 
L 256.913636 -215.637457 
L 311.022727 -215.637457 
L 311.022727 -173.927112 
z
" style="stroke: #000000"/>
    </defs>
    <g clip-path="url(#p63de7409ba)">
     <use xlink:href="#mc12ead8a07" x="0" y="414.25875" style="fill: #6395b9; stroke: #000000"/>
    </g>
   </g>
   <g id="PolyCollection_54">
    <path d="M 256.913636 240.331638 
L 256.913636 198.621293 
L 256.913636 198.621293 
L 256.913636 240.331638 
z
" clip-path="url(#p63de7409ba)" style="fill: url(#h72fa7e6857); stroke: #000000"/>
   </g>
   <g id="PolyCollection_55">
    <defs>
     <path id="m04d548806c" d="M 311.022727 -173.927112 
L 311.022727 -215.637457 
L 365.131818 -215.637457 
L 365.131818 -173.927112 
z
" style="stroke: #000000"/>
    </defs>
    <g clip-path="url(#p63de7409ba)">
     <use xlink:href="#m04d548806c" x="0" y="414.25875" style="fill: #1f77b4; stroke: #000000"/>
    </g>
   </g>
   <g id="PolyCollection_56">
    <path d="M 311.022727 240.331638 
L 311.022727 198.621293 
L 311.022727 198.621293 
L 311.022727 240.331638 
z
" clip-path="url(#p63de7409ba)" style="fill: url(#h72fa7e6857); stroke: #000000"/>
   </g>
   <g id="PolyCollection_57">
    <defs>
     <path id="m03295575d9" d="M 365.131818 -173.927112 
L 365.131818 -215.637457 
L 419.240909 -215.637457 
L 419.240909 -173.927112 
z
" style="stroke: #000000"/>
    </defs>
    <g clip-path="url(#p63de7409ba)">
     <use xlink:href="#m03295575d9" x="0" y="414.25875" style="fill: #c6dbef; stroke: #000000"/>
    </g>
   </g>
   <g id="PolyCollection_58">
    <path d="M 365.131818 240.331638 
L 365.131818 198.621293 
L 365.131818 198.621293 
L 365.131818 240.331638 
z
" clip-path="url(#p63de7409ba)" style="fill: url(#h72fa7e6857); stroke: #000000"/>
   </g>
   <g id="PolyCollection_59">
    <defs>
     <path id="m96a75f1f16" d="M 419.240909 -173.927112 
L 419.240909 -215.637457 
L 473.35 -215.637457 
L 473.35 -173.927112 
z
" style="stroke: #000000"/>
    </defs>
    <g clip-path="url(#p63de7409ba)">
     <use xlink:href="#m96a75f1f16" x="0" y="414.25875" style="fill: #f67e7d; stroke: #000000"/>
    </g>
   </g>
   <g id="PolyCollection_60">
    <path d="M 419.240909 240.331638 
L 419.240909 198.621293 
L 419.240909 198.621293 
L 419.240909 240.331638 
z
" clip-path="url(#p63de7409ba)" style="fill: url(#h72fa7e6857); stroke: #000000"/>
   </g>
   <g id="PolyCollection_61">
    <defs>
     <path id="m6f91385fde" d="M 473.35 -173.927112 
L 473.35 -215.637457 
L 486.877273 -215.637457 
L 486.877273 -173.927112 
z
" style="stroke: #000000"/>
    </defs>
    <g clip-path="url(#p63de7409ba)">
     <use xlink:href="#m6f91385fde" x="0" y="414.25875" style="fill: #9ecae1; stroke: #000000"/>
    </g>
   </g>
   <g id="PolyCollection_62">
    <path d="M 473.35 240.331638 
L 473.35 198.621293 
L 473.35 198.621293 
L 473.35 240.331638 
z
" clip-path="url(#p63de7409ba)" style="fill: url(#h72fa7e6857); stroke: #000000"/>
   </g>
   <g id="PolyCollection_63">
    <defs>
     <path id="m6d9ced3eec" d="M 486.877273 -173.927112 
L 486.877273 -215.637457 
L 500.404545 -215.637457 
L 500.404545 -173.927112 
z
" style="stroke: #000000"/>
    </defs>
    <g clip-path="url(#p63de7409ba)">
     <use xlink:href="#m6d9ced3eec" x="0" y="414.25875" style="fill: #1f77b4; stroke: #000000"/>
    </g>
   </g>
   <g id="PolyCollection_64">
    <path d="M 486.877273 240.331638 
L 486.877273 198.621293 
L 486.877273 198.621293 
L 486.877273 240.331638 
z
" clip-path="url(#p63de7409ba)" style="fill: url(#h72fa7e6857); stroke: #000000"/>
   </g>
   <g id="PolyCollection_65">
    <defs>
     <path id="m455b3cd7ae" d="M 500.404545 -173.927112 
L 500.404545 -215.637457 
L 554.513636 -215.637457 
L 554.513636 -173.927112 
z
" style="stroke: #000000"/>
    </defs>
    <g clip-path="url(#p63de7409ba)">
     <use xlink:href="#m455b3cd7ae" x="0" y="414.25875" style="fill: #6395b9; stroke: #000000"/>
    </g>
   </g>
   <g id="PolyCollection_66">
    <path d="M 500.404545 240.331638 
L 500.404545 198.621293 
L 500.404545 198.621293 
L 500.404545 240.331638 
z
" clip-path="url(#p63de7409ba)" style="fill: url(#h72fa7e6857); stroke: #000000"/>
   </g>
   <g id="PolyCollection_67">
    <defs>
     <path id="m819b29dcb8" d="M 554.513636 -173.927112 
L 554.513636 -215.637457 
L 608.622727 -215.637457 
L 608.622727 -173.927112 
z
" style="stroke: #000000"/>
    </defs>
    <g clip-path="url(#p63de7409ba)">
     <use xlink:href="#m819b29dcb8" x="0" y="414.25875" style="fill: #c6dbef; stroke: #000000"/>
    </g>
   </g>
   <g id="PolyCollection_68">
    <path d="M 554.513636 240.331638 
L 554.513636 198.621293 
L 554.513636 198.621293 
L 554.513636 240.331638 
z
" clip-path="url(#p63de7409ba)" style="fill: url(#h72fa7e6857); stroke: #000000"/>
   </g>
   <g id="PolyCollection_69">
    <defs>
     <path id="mb318cd1225" d="M 608.622727 -173.927112 
L 608.622727 -215.637457 
L 622.15 -215.637457 
L 622.15 -173.927112 
z
" style="stroke: #000000"/>
    </defs>
    <g clip-path="url(#p63de7409ba)">
     <use xlink:href="#mb318cd1225" x="0" y="414.25875" style="fill: #e45756; stroke: #000000"/>
    </g>
   </g>
   <g id="PolyCollection_70">
    <path d="M 608.622727 240.331638 
L 608.622727 198.621293 
L 608.622727 198.621293 
L 608.622727 240.331638 
z
" clip-path="url(#p63de7409ba)" style="fill: url(#h72fa7e6857); stroke: #000000"/>
   </g>
   <g id="PolyCollection_71">
    <defs>
     <path id="m7110986959" d="M 243.386364 -226.065043 
L 243.386364 -267.775388 
L 324.55 -267.775388 
L 324.55 -226.065043 
z
" style="stroke: #000000"/>
    </defs>
    <g clip-path="url(#p63de7409ba)">
     <use xlink:href="#m7110986959" x="0" y="414.25875" style="fill: #4c78a8; stroke: #000000"/>
    </g>
   </g>
   <g id="PolyCollection_72">
    <path d="M 243.386364 188.193707 
L 243.386364 146.483362 
L 243.386364 146.483362 
L 243.386364 188.193707 
z
" clip-path="url(#p63de7409ba)" style="fill: url(#h72fa7e6857); stroke: #000000"/>
   </g>
   <g id="PolyCollection_73">
    <defs>
     <path id="me19f1387b4" d="M 324.55 -226.065043 
L 324.55 -267.775388 
L 405.713636 -267.775388 
L 405.713636 -226.065043 
z
" style="stroke: #000000"/>
    </defs>
    <g clip-path="url(#p63de7409ba)">
     <use xlink:href="#me19f1387b4" x="0" y="414.25875" style="fill: #fee0d2; stroke: #000000"/>
    </g>
   </g>
   <g id="PolyCollection_74">
    <path d="M 324.55 188.193707 
L 324.55 146.483362 
L 324.55 146.483362 
L 324.55 188.193707 
z
" clip-path="url(#p63de7409ba)" style="fill: url(#h72fa7e6857); stroke: #000000"/>
   </g>
   <g id="PolyCollection_75">
    <defs>
     <path id="m6b5905973a" d="M 419.240909 -226.065043 
L 419.240909 -267.775388 
L 500.404545 -267.775388 
L 500.404545 -226.065043 
z
" style="stroke: #000000"/>
    </defs>
    <g clip-path="url(#p63de7409ba)">
     <use xlink:href="#m6b5905973a" x="0" y="414.25875" style="fill: #c6dbef; stroke: #000000"/>
    </g>
   </g>
   <g id="PolyCollection_76">
    <path d="M 419.240909 188.193707 
L 419.240909 146.483362 
L 419.240909 146.483362 
L 419.240909 188.193707 
z
" clip-path="url(#p63de7409ba)" style="fill: url(#h72fa7e6857); stroke: #000000"/>
   </g>
   <g id="PolyCollection_77">
    <defs>
     <path id="m735f3eec15" d="M 500.404545 -226.065043 
L 500.404545 -267.775388 
L 540.986364 -267.775388 
L 540.986364 -226.065043 
z
" style="stroke: #000000"/>
    </defs>
    <g clip-path="url(#p63de7409ba)">
     <use xlink:href="#m735f3eec15" x="0" y="414.25875" style="fill: #1f77b4; stroke: #000000"/>
    </g>
   </g>
   <g id="PolyCollection_78">
    <path d="M 500.404545 188.193707 
L 500.404545 146.483362 
L 500.404545 146.483362 
L 500.404545 188.193707 
z
" clip-path="url(#p63de7409ba)" style="fill: url(#h72fa7e6857); stroke: #000000"/>
   </g>
   <g id="PolyCollection_79">
    <defs>
     <path id="me0f9cf7400" d="M 540.986364 -226.065043 
L 540.986364 -267.775388 
L 622.15 -267.775388 
L 622.15 -226.065043 
z
" style="stroke: #000000"/>
    </defs>
    <g clip-path="url(#p63de7409ba)">
     <use xlink:href="#me0f9cf7400" x="0" y="414.25875" style="fill: #fc9272; stroke: #000000"/>
    </g>
   </g>
   <g id="PolyCollection_80">
    <path d="M 540.986364 188.193707 
L 540.986364 146.483362 
L 540.986364 146.483362 
L 540.986364 188.193707 
z
" clip-path="url(#p63de7409ba)" style="fill: url(#h72fa7e6857); stroke: #000000"/>
   </g>
   <g id="PolyCollection_81">
    <defs>
     <path id="m017b648135" d="M 622.15 -226.065043 
L 622.15 -267.775388 
L 703.313636 -267.775388 
L 703.313636 -226.065043 
z
" style="stroke: #000000"/>
    </defs>
    <g clip-path="url(#p63de7409ba)">
     <use xlink:href="#m017b648135" x="0" y="414.25875" style="fill: #f67e7d; stroke: #000000"/>
    </g>
   </g>
   <g id="PolyCollection_82">
    <path d="M 622.15 188.193707 
L 622.15 146.483362 
L 622.15 146.483362 
L 622.15 188.193707 
z
" clip-path="url(#p63de7409ba)" style="fill: url(#h72fa7e6857); stroke: #000000"/>
   </g>
   <g id="PolyCollection_83">
    <defs>
     <path id="m36d873713e" d="M 162.222727 -278.202974 
L 162.222727 -319.913319 
L 229.859091 -319.913319 
L 229.859091 -278.202974 
z
" style="stroke: #000000"/>
    </defs>
    <g clip-path="url(#p63de7409ba)">
     <use xlink:href="#m36d873713e" x="0" y="414.25875" style="fill: #fc9272; stroke: #000000"/>
    </g>
   </g>
   <g id="PolyCollection_84">
    <path d="M 162.222727 136.055776 
L 162.222727 94.345431 
L 162.222727 94.345431 
L 162.222727 136.055776 
z
" clip-path="url(#p63de7409ba)" style="fill: url(#h72fa7e6857); stroke: #000000"/>
   </g>
   <g id="PolyCollection_85">
    <defs>
     <path id="mea0d0d1c1a" d="M 243.386364 -278.202974 
L 243.386364 -319.913319 
L 283.968182 -319.913319 
L 283.968182 -278.202974 
z
" style="stroke: #000000"/>
    </defs>
    <g clip-path="url(#p63de7409ba)">
     <use xlink:href="#mea0d0d1c1a" x="0" y="414.25875" style="fill: #fee0d2; stroke: #000000"/>
    </g>
   </g>
   <g id="PolyCollection_86">
    <path d="M 243.386364 136.055776 
L 243.386364 94.345431 
L 243.386364 94.345431 
L 243.386364 136.055776 
z
" clip-path="url(#p63de7409ba)" style="fill: url(#h72fa7e6857); stroke: #000000"/>
   </g>
   <g id="PolyCollection_87">
    <defs>
     <path id="m162434ebc1" d="M 459.822727 -278.202974 
L 459.822727 -319.913319 
L 473.35 -319.913319 
L 473.35 -278.202974 
z
" style="stroke: #000000"/>
    </defs>
    <g clip-path="url(#p63de7409ba)">
     <use xlink:href="#m162434ebc1" x="0" y="414.25875" style="fill: #e45756; stroke: #000000"/>
    </g>
   </g>
   <g id="PolyCollection_88">
    <path d="M 459.822727 136.055776 
L 459.822727 94.345431 
L 459.822727 94.345431 
L 459.822727 136.055776 
z
" clip-path="url(#p63de7409ba)" style="fill: url(#h72fa7e6857); stroke: #000000"/>
   </g>
   <g id="PolyCollection_89">
    <defs>
     <path id="m6740a22d56" d="M 94.586364 -330.340905 
L 94.586364 -372.05125 
L 121.640909 -372.05125 
L 121.640909 -330.340905 
z
" style="stroke: #000000"/>
    </defs>
    <g clip-path="url(#p63de7409ba)">
     <use xlink:href="#m6740a22d56" x="0" y="414.25875" style="fill: #d62728; stroke: #000000"/>
    </g>
   </g>
   <g id="PolyCollection_90">
    <path d="M 94.586364 83.917845 
L 94.586364 42.2075 
L 94.586364 42.2075 
L 94.586364 83.917845 
z
" clip-path="url(#p63de7409ba)" style="fill: url(#h72fa7e6857); stroke: #000000"/>
   </g>
   <g id="PolyCollection_91">
    <defs>
     <path id="m354c6d03d5" d="M 121.640909 -330.340905 
L 121.640909 -372.05125 
L 148.695455 -372.05125 
L 148.695455 -330.340905 
z
" style="stroke: #000000"/>
    </defs>
    <g clip-path="url(#p63de7409ba)">
     <use xlink:href="#m354c6d03d5" x="0" y="414.25875" style="fill: #fee0d2; stroke: #000000"/>
    </g>
   </g>
   <g id="PolyCollection_92">
    <path d="M 121.640909 83.917845 
L 121.640909 42.2075 
L 121.640909 42.2075 
L 121.640909 83.917845 
z
" clip-path="url(#p63de7409ba)" style="fill: url(#h72fa7e6857); stroke: #000000"/>
   </g>
   <g id="PolyCollection_93">
    <defs>
     <path id="m744c3573b1" d="M 148.695455 -330.340905 
L 148.695455 -372.05125 
L 162.222727 -372.05125 
L 162.222727 -330.340905 
z
" style="stroke: #000000"/>
    </defs>
    <g clip-path="url(#p63de7409ba)">
     <use xlink:href="#m744c3573b1" x="0" y="414.25875" style="fill: #fc9272; stroke: #000000"/>
    </g>
   </g>
   <g id="PolyCollection_94">
    <path d="M 148.695455 83.917845 
L 148.695455 42.2075 
L 148.695455 42.2075 
L 148.695455 83.917845 
z
" clip-path="url(#p63de7409ba)" style="fill: url(#h72fa7e6857); stroke: #000000"/>
   </g>
   <g id="PolyCollection_95">
    <defs>
     <path id="m4901923c92" d="M 162.222727 -330.340905 
L 162.222727 -372.05125 
L 243.386364 -372.05125 
L 243.386364 -330.340905 
z
" style="stroke: #000000"/>
    </defs>
    <g clip-path="url(#p63de7409ba)">
     <use xlink:href="#m4901923c92" x="0" y="414.25875" style="fill: #fee0d2; stroke: #000000"/>
    </g>
   </g>
   <g id="PolyCollection_96">
    <path d="M 162.222727 83.917845 
L 162.222727 42.2075 
L 162.222727 42.2075 
L 162.222727 83.917845 
z
" clip-path="url(#p63de7409ba)" style="fill: url(#h72fa7e6857); stroke: #000000"/>
   </g>
   <g id="PolyCollection_97">
    <defs>
     <path id="mc179024458" d="M 243.386364 -330.340905 
L 243.386364 -372.05125 
L 270.440909 -372.05125 
L 270.440909 -330.340905 
z
" style="stroke: #000000"/>
    </defs>
    <g clip-path="url(#p63de7409ba)">
     <use xlink:href="#mc179024458" x="0" y="414.25875" style="fill: #f67e7d; stroke: #000000"/>
    </g>
   </g>
   <g id="PolyCollection_98">
    <path d="M 243.386364 83.917845 
L 243.386364 42.2075 
L 243.386364 42.2075 
L 243.386364 83.917845 
z
" clip-path="url(#p63de7409ba)" style="fill: url(#h72fa7e6857); stroke: #000000"/>
   </g>
   <g id="PolyCollection_99">
    <defs>
     <path id="m96f0da8dc4" d="M 270.440909 -330.340905 
L 270.440909 -372.05125 
L 283.968182 -372.05125 
L 283.968182 -330.340905 
z
" style="stroke: #000000"/>
    </defs>
    <g clip-path="url(#p63de7409ba)">
     <use xlink:href="#m96f0da8dc4" x="0" y="414.25875" style="fill: #e45756; stroke: #000000"/>
    </g>
   </g>
   <g id="PolyCollection_100">
    <path d="M 270.440909 83.917845 
L 270.440909 42.2075 
L 270.440909 42.2075 
L 270.440909 83.917845 
z
" clip-path="url(#p63de7409ba)" style="fill: url(#h72fa7e6857); stroke: #000000"/>
   </g>
   <g id="PolyCollection_101">
    <defs>
     <path id="md96d980575" d="M 283.968182 -330.340905 
L 283.968182 -372.05125 
L 297.495455 -372.05125 
L 297.495455 -330.340905 
z
" style="stroke: #000000"/>
    </defs>
    <g clip-path="url(#p63de7409ba)">
     <use xlink:href="#md96d980575" x="0" y="414.25875" style="fill: #fee0d2; stroke: #000000"/>
    </g>
   </g>
   <g id="PolyCollection_102">
    <path d="M 283.968182 83.917845 
L 283.968182 42.2075 
L 283.968182 42.2075 
L 283.968182 83.917845 
z
" clip-path="url(#p63de7409ba)" style="fill: url(#h72fa7e6857); stroke: #000000"/>
   </g>
   <g id="PolyCollection_103">
    <defs>
     <path id="m8b43e93c99" d="M 297.495455 -330.340905 
L 297.495455 -372.05125 
L 378.659091 -372.05125 
L 378.659091 -330.340905 
z
" style="stroke: #000000"/>
    </defs>
    <g clip-path="url(#p63de7409ba)">
     <use xlink:href="#m8b43e93c99" x="0" y="414.25875" style="fill: #fc9272; stroke: #000000"/>
    </g>
   </g>
   <g id="PolyCollection_104">
    <path d="M 297.495455 83.917845 
L 297.495455 42.2075 
L 297.495455 42.2075 
L 297.495455 83.917845 
z
" clip-path="url(#p63de7409ba)" style="fill: url(#h72fa7e6857); stroke: #000000"/>
   </g>
   <g id="PolyCollection_105">
    <defs>
     <path id="mf641574051" d="M 378.659091 -330.340905 
L 378.659091 -372.05125 
L 459.822727 -372.05125 
L 459.822727 -330.340905 
z
" style="stroke: #000000"/>
    </defs>
    <g clip-path="url(#p63de7409ba)">
     <use xlink:href="#mf641574051" x="0" y="414.25875" style="fill: #e45756; stroke: #000000"/>
    </g>
   </g>
   <g id="PolyCollection_106">
    <path d="M 378.659091 83.917845 
L 378.659091 42.2075 
L 378.659091 42.2075 
L 378.659091 83.917845 
z
" clip-path="url(#p63de7409ba)" style="fill: url(#h72fa7e6857); stroke: #000000"/>
   </g>
   <g id="PolyCollection_107">
    <defs>
     <path id="m6bd19dd8ee" d="M 459.822727 -330.340905 
L 459.822727 -372.05125 
L 540.986364 -372.05125 
L 540.986364 -330.340905 
z
" style="stroke: #000000"/>
    </defs>
    <g clip-path="url(#p63de7409ba)">
     <use xlink:href="#m6bd19dd8ee" x="0" y="414.25875" style="fill: #fc9272; stroke: #000000"/>
    </g>
   </g>
   <g id="PolyCollection_108">
    <path d="M 459.822727 83.917845 
L 459.822727 42.2075 
L 459.822727 42.2075 
L 459.822727 83.917845 
z
" clip-path="url(#p63de7409ba)" style="fill: url(#h72fa7e6857); stroke: #000000"/>
   </g>
   <g id="PolyCollection_109">
    <defs>
     <path id="m9a0eddab6d" d="M 540.986364 -330.340905 
L 540.986364 -372.05125 
L 568.040909 -372.05125 
L 568.040909 -330.340905 
z
" style="stroke: #000000"/>
    </defs>
    <g clip-path="url(#p63de7409ba)">
     <use xlink:href="#m9a0eddab6d" x="0" y="414.25875" style="fill: #9ecae1; stroke: #000000"/>
    </g>
   </g>
   <g id="PolyCollection_110">
    <path d="M 540.986364 83.917845 
L 540.986364 42.2075 
L 540.986364 42.2075 
L 540.986364 83.917845 
z
" clip-path="url(#p63de7409ba)" style="fill: url(#h72fa7e6857); stroke: #000000"/>
   </g>
   <g id="matplotlib.axis_1">
    <g id="xtick_1">
     <g id="line2d_1">
      <defs>
       <path id="m7a11f8d050" d="M 0 0 
L 0 3.5 
" style="stroke: #000000; stroke-width: 0.8"/>
      </defs>
      <g>
       <use xlink:href="#m7a11f8d050" x="94.586364" y="359.7275" style="stroke: #000000; stroke-width: 0.8"/>
      </g>
     </g>
     <g id="text_1">
      <!-- 0 -->
      <g transform="translate(89.586364 380.615) scale(0.2 -0.2)">
       <defs>
        <path id="TimesNewRomanPSMT-30" d="M 231 2094 
Q 231 2819 450 3342 
Q 669 3866 1031 4122 
Q 1313 4325 1613 4325 
Q 2100 4325 2488 3828 
Q 2972 3213 2972 2159 
Q 2972 1422 2759 906 
Q 2547 391 2217 158 
Q 1888 -75 1581 -75 
Q 975 -75 572 641 
Q 231 1244 231 2094 
z
M 844 2016 
Q 844 1141 1059 588 
Q 1238 122 1591 122 
Q 1759 122 1940 273 
Q 2122 425 2216 781 
Q 2359 1319 2359 2297 
Q 2359 3022 2209 3506 
Q 2097 3866 1919 4016 
Q 1791 4119 1609 4119 
Q 1397 4119 1231 3928 
Q 1006 3669 925 3112 
Q 844 2556 844 2016 
z
" transform="scale(0.015625)"/>
       </defs>
       <use xlink:href="#TimesNewRomanPSMT-30"/>
      </g>
     </g>
    </g>
    <g id="xtick_2">
     <g id="line2d_2">
      <g>
       <use xlink:href="#m7a11f8d050" x="229.859091" y="359.7275" style="stroke: #000000; stroke-width: 0.8"/>
      </g>
     </g>
     <g id="text_2">
      <!-- 10 -->
      <g transform="translate(219.859091 380.615) scale(0.2 -0.2)">
       <defs>
        <path id="TimesNewRomanPSMT-31" d="M 750 3822 
L 1781 4325 
L 1884 4325 
L 1884 747 
Q 1884 391 1914 303 
Q 1944 216 2037 169 
Q 2131 122 2419 116 
L 2419 0 
L 825 0 
L 825 116 
Q 1125 122 1212 167 
Q 1300 213 1334 289 
Q 1369 366 1369 747 
L 1369 3034 
Q 1369 3497 1338 3628 
Q 1316 3728 1258 3775 
Q 1200 3822 1119 3822 
Q 1003 3822 797 3725 
L 750 3822 
z
" transform="scale(0.015625)"/>
       </defs>
       <use xlink:href="#TimesNewRomanPSMT-31"/>
       <use xlink:href="#TimesNewRomanPSMT-30" x="50"/>
      </g>
     </g>
    </g>
    <g id="xtick_3">
     <g id="line2d_3">
      <g>
       <use xlink:href="#m7a11f8d050" x="365.131818" y="359.7275" style="stroke: #000000; stroke-width: 0.8"/>
      </g>
     </g>
     <g id="text_3">
      <!-- 20 -->
      <g transform="translate(355.131818 380.615) scale(0.2 -0.2)">
       <defs>
        <path id="TimesNewRomanPSMT-32" d="M 2934 816 
L 2638 0 
L 138 0 
L 138 116 
Q 1241 1122 1691 1759 
Q 2141 2397 2141 2925 
Q 2141 3328 1894 3587 
Q 1647 3847 1303 3847 
Q 991 3847 742 3664 
Q 494 3481 375 3128 
L 259 3128 
Q 338 3706 661 4015 
Q 984 4325 1469 4325 
Q 1984 4325 2329 3994 
Q 2675 3663 2675 3213 
Q 2675 2891 2525 2569 
Q 2294 2063 1775 1497 
Q 997 647 803 472 
L 1909 472 
Q 2247 472 2383 497 
Q 2519 522 2628 598 
Q 2738 675 2819 816 
L 2934 816 
z
" transform="scale(0.015625)"/>
       </defs>
       <use xlink:href="#TimesNewRomanPSMT-32"/>
       <use xlink:href="#TimesNewRomanPSMT-30" x="50"/>
      </g>
     </g>
    </g>
    <g id="xtick_4">
     <g id="line2d_4">
      <g>
       <use xlink:href="#m7a11f8d050" x="500.404545" y="359.7275" style="stroke: #000000; stroke-width: 0.8"/>
      </g>
     </g>
     <g id="text_4">
      <!-- 30 -->
      <g transform="translate(490.404545 380.615) scale(0.2 -0.2)">
       <defs>
        <path id="TimesNewRomanPSMT-33" d="M 325 3431 
Q 506 3859 782 4092 
Q 1059 4325 1472 4325 
Q 1981 4325 2253 3994 
Q 2459 3747 2459 3466 
Q 2459 3003 1878 2509 
Q 2269 2356 2469 2072 
Q 2669 1788 2669 1403 
Q 2669 853 2319 450 
Q 1863 -75 997 -75 
Q 569 -75 414 31 
Q 259 138 259 259 
Q 259 350 332 419 
Q 406 488 509 488 
Q 588 488 669 463 
Q 722 447 909 348 
Q 1097 250 1169 231 
Q 1284 197 1416 197 
Q 1734 197 1970 444 
Q 2206 691 2206 1028 
Q 2206 1275 2097 1509 
Q 2016 1684 1919 1775 
Q 1784 1900 1550 2001 
Q 1316 2103 1072 2103 
L 972 2103 
L 972 2197 
Q 1219 2228 1467 2375 
Q 1716 2522 1828 2728 
Q 1941 2934 1941 3181 
Q 1941 3503 1739 3701 
Q 1538 3900 1238 3900 
Q 753 3900 428 3381 
L 325 3431 
z
" transform="scale(0.015625)"/>
       </defs>
       <use xlink:href="#TimesNewRomanPSMT-33"/>
       <use xlink:href="#TimesNewRomanPSMT-30" x="50"/>
      </g>
     </g>
    </g>
    <g id="xtick_5">
     <g id="line2d_5">
      <g>
       <use xlink:href="#m7a11f8d050" x="635.677273" y="359.7275" style="stroke: #000000; stroke-width: 0.8"/>
      </g>
     </g>
     <g id="text_5">
      <!-- 40 -->
      <g transform="translate(625.677273 380.615) scale(0.2 -0.2)">
       <defs>
        <path id="TimesNewRomanPSMT-34" d="M 2978 1563 
L 2978 1119 
L 2409 1119 
L 2409 0 
L 1894 0 
L 1894 1119 
L 100 1119 
L 100 1519 
L 2066 4325 
L 2409 4325 
L 2409 1563 
L 2978 1563 
z
M 1894 1563 
L 1894 3666 
L 406 1563 
L 1894 1563 
z
" transform="scale(0.015625)"/>
       </defs>
       <use xlink:href="#TimesNewRomanPSMT-34"/>
       <use xlink:href="#TimesNewRomanPSMT-30" x="50"/>
      </g>
     </g>
    </g>
    <g id="text_6">
     <!-- Time -->
     <g transform="translate(378.196875 402.780625) scale(0.2 -0.2)">
      <defs>
       <path id="TimesNewRomanPSMT-54" d="M 3703 4238 
L 3750 3244 
L 3631 3244 
Q 3597 3506 3538 3619 
Q 3441 3800 3280 3886 
Q 3119 3972 2856 3972 
L 2259 3972 
L 2259 734 
Q 2259 344 2344 247 
Q 2463 116 2709 116 
L 2856 116 
L 2856 0 
L 1059 0 
L 1059 116 
L 1209 116 
Q 1478 116 1591 278 
Q 1659 378 1659 734 
L 1659 3972 
L 1150 3972 
Q 853 3972 728 3928 
Q 566 3869 450 3700 
Q 334 3531 313 3244 
L 194 3244 
L 244 4238 
L 3703 4238 
z
" transform="scale(0.015625)"/>
       <path id="TimesNewRomanPSMT-69" d="M 928 4444 
Q 1059 4444 1151 4351 
Q 1244 4259 1244 4128 
Q 1244 3997 1151 3903 
Q 1059 3809 928 3809 
Q 797 3809 703 3903 
Q 609 3997 609 4128 
Q 609 4259 701 4351 
Q 794 4444 928 4444 
z
M 1188 2947 
L 1188 647 
Q 1188 378 1227 289 
Q 1266 200 1342 156 
Q 1419 113 1622 113 
L 1622 0 
L 231 0 
L 231 113 
Q 441 113 512 153 
Q 584 194 626 287 
Q 669 381 669 647 
L 669 1750 
Q 669 2216 641 2353 
Q 619 2453 572 2492 
Q 525 2531 444 2531 
Q 356 2531 231 2484 
L 188 2597 
L 1050 2947 
L 1188 2947 
z
" transform="scale(0.015625)"/>
       <path id="TimesNewRomanPSMT-6d" d="M 1050 2338 
Q 1363 2650 1419 2697 
Q 1559 2816 1721 2881 
Q 1884 2947 2044 2947 
Q 2313 2947 2506 2790 
Q 2700 2634 2766 2338 
Q 3088 2713 3309 2830 
Q 3531 2947 3766 2947 
Q 3994 2947 4170 2830 
Q 4347 2713 4450 2447 
Q 4519 2266 4519 1878 
L 4519 647 
Q 4519 378 4559 278 
Q 4591 209 4675 161 
Q 4759 113 4950 113 
L 4950 0 
L 3538 0 
L 3538 113 
L 3597 113 
Q 3781 113 3884 184 
Q 3956 234 3988 344 
Q 4000 397 4000 647 
L 4000 1878 
Q 4000 2228 3916 2372 
Q 3794 2572 3525 2572 
Q 3359 2572 3192 2489 
Q 3025 2406 2788 2181 
L 2781 2147 
L 2788 2013 
L 2788 647 
Q 2788 353 2820 281 
Q 2853 209 2943 161 
Q 3034 113 3253 113 
L 3253 0 
L 1806 0 
L 1806 113 
Q 2044 113 2133 169 
Q 2222 225 2256 338 
Q 2272 391 2272 647 
L 2272 1878 
Q 2272 2228 2169 2381 
Q 2031 2581 1784 2581 
Q 1616 2581 1450 2491 
Q 1191 2353 1050 2181 
L 1050 647 
Q 1050 366 1089 281 
Q 1128 197 1204 155 
Q 1281 113 1516 113 
L 1516 0 
L 100 0 
L 100 113 
Q 297 113 375 155 
Q 453 197 493 289 
Q 534 381 534 647 
L 534 1741 
Q 534 2213 506 2350 
Q 484 2453 437 2492 
Q 391 2531 309 2531 
Q 222 2531 100 2484 
L 53 2597 
L 916 2947 
L 1050 2947 
L 1050 2338 
z
" transform="scale(0.015625)"/>
       <path id="TimesNewRomanPSMT-65" d="M 681 1784 
Q 678 1147 991 784 
Q 1303 422 1725 422 
Q 2006 422 2214 576 
Q 2422 731 2563 1106 
L 2659 1044 
Q 2594 616 2278 264 
Q 1963 -88 1488 -88 
Q 972 -88 605 314 
Q 238 716 238 1394 
Q 238 2128 614 2539 
Q 991 2950 1559 2950 
Q 2041 2950 2350 2633 
Q 2659 2316 2659 1784 
L 681 1784 
z
M 681 1966 
L 2006 1966 
Q 1991 2241 1941 2353 
Q 1863 2528 1708 2628 
Q 1553 2728 1384 2728 
Q 1125 2728 920 2526 
Q 716 2325 681 1966 
z
" transform="scale(0.015625)"/>
      </defs>
      <use xlink:href="#TimesNewRomanPSMT-54"/>
      <use xlink:href="#TimesNewRomanPSMT-69" x="57.583984"/>
      <use xlink:href="#TimesNewRomanPSMT-6d" x="85.367188"/>
      <use xlink:href="#TimesNewRomanPSMT-65" x="163.150391"/>
     </g>
    </g>
   </g>
   <g id="matplotlib.axis_2">
    <g id="ytick_1">
     <g id="line2d_6">
      <defs>
       <path id="mb21cedfa83" d="M 0 0 
L -3.5 0 
" style="stroke: #000000; stroke-width: 0.8"/>
      </defs>
      <g>
       <use xlink:href="#mb21cedfa83" x="64.15" y="323.752328" style="stroke: #000000; stroke-width: 0.8"/>
      </g>
     </g>
     <g id="text_7">
      <!-- M1 -->
      <g transform="translate(29.365625 330.696078) scale(0.2 -0.2)">
       <defs>
        <path id="TimesNewRomanPSMT-4d" d="M 2619 0 
L 981 3566 
L 981 734 
Q 981 344 1066 247 
Q 1181 116 1431 116 
L 1581 116 
L 1581 0 
L 106 0 
L 106 116 
L 256 116 
Q 525 116 638 278 
Q 706 378 706 734 
L 706 3503 
Q 706 3784 644 3909 
Q 600 4000 483 4061 
Q 366 4122 106 4122 
L 106 4238 
L 1306 4238 
L 2844 922 
L 4356 4238 
L 5556 4238 
L 5556 4122 
L 5409 4122 
Q 5138 4122 5025 3959 
Q 4956 3859 4956 3503 
L 4956 734 
Q 4956 344 5044 247 
Q 5159 116 5409 116 
L 5556 116 
L 5556 0 
L 3756 0 
L 3756 116 
L 3906 116 
Q 4178 116 4288 278 
Q 4356 378 4356 734 
L 4356 3566 
L 2722 0 
L 2619 0 
z
" transform="scale(0.015625)"/>
       </defs>
       <use xlink:href="#TimesNewRomanPSMT-4d"/>
       <use xlink:href="#TimesNewRomanPSMT-31" x="88.916016"/>
      </g>
     </g>
    </g>
    <g id="ytick_2">
     <g id="line2d_7">
      <g>
       <use xlink:href="#mb21cedfa83" x="64.15" y="271.614397" style="stroke: #000000; stroke-width: 0.8"/>
      </g>
     </g>
     <g id="text_8">
      <!-- M2 -->
      <g transform="translate(29.365625 278.558147) scale(0.2 -0.2)">
       <use xlink:href="#TimesNewRomanPSMT-4d"/>
       <use xlink:href="#TimesNewRomanPSMT-32" x="88.916016"/>
      </g>
     </g>
    </g>
    <g id="ytick_3">
     <g id="line2d_8">
      <g>
       <use xlink:href="#mb21cedfa83" x="64.15" y="219.476466" style="stroke: #000000; stroke-width: 0.8"/>
      </g>
     </g>
     <g id="text_9">
      <!-- M3 -->
      <g transform="translate(29.365625 226.420216) scale(0.2 -0.2)">
       <use xlink:href="#TimesNewRomanPSMT-4d"/>
       <use xlink:href="#TimesNewRomanPSMT-33" x="88.916016"/>
      </g>
     </g>
    </g>
    <g id="ytick_4">
     <g id="line2d_9">
      <g>
       <use xlink:href="#mb21cedfa83" x="64.15" y="167.338534" style="stroke: #000000; stroke-width: 0.8"/>
      </g>
     </g>
     <g id="text_10">
      <!-- M4 -->
      <g transform="translate(29.365625 174.282284) scale(0.2 -0.2)">
       <use xlink:href="#TimesNewRomanPSMT-4d"/>
       <use xlink:href="#TimesNewRomanPSMT-34" x="88.916016"/>
      </g>
     </g>
    </g>
    <g id="ytick_5">
     <g id="line2d_10">
      <g>
       <use xlink:href="#mb21cedfa83" x="64.15" y="115.200603" style="stroke: #000000; stroke-width: 0.8"/>
      </g>
     </g>
     <g id="text_11">
      <!-- M5 -->
      <g transform="translate(29.365625 122.144353) scale(0.2 -0.2)">
       <defs>
        <path id="TimesNewRomanPSMT-35" d="M 2778 4238 
L 2534 3706 
L 1259 3706 
L 981 3138 
Q 1809 3016 2294 2522 
Q 2709 2097 2709 1522 
Q 2709 1188 2573 903 
Q 2438 619 2231 419 
Q 2025 219 1772 97 
Q 1413 -75 1034 -75 
Q 653 -75 479 54 
Q 306 184 306 341 
Q 306 428 378 495 
Q 450 563 559 563 
Q 641 563 702 538 
Q 763 513 909 409 
Q 1144 247 1384 247 
Q 1750 247 2026 523 
Q 2303 800 2303 1197 
Q 2303 1581 2056 1914 
Q 1809 2247 1375 2428 
Q 1034 2569 447 2591 
L 1259 4238 
L 2778 4238 
z
" transform="scale(0.015625)"/>
       </defs>
       <use xlink:href="#TimesNewRomanPSMT-4d"/>
       <use xlink:href="#TimesNewRomanPSMT-35" x="88.916016"/>
      </g>
     </g>
    </g>
    <g id="ytick_6">
     <g id="line2d_11">
      <g>
       <use xlink:href="#mb21cedfa83" x="64.15" y="63.062672" style="stroke: #000000; stroke-width: 0.8"/>
      </g>
     </g>
     <g id="text_12">
      <!-- M6 -->
      <g transform="translate(29.365625 70.006422) scale(0.2 -0.2)">
       <defs>
        <path id="TimesNewRomanPSMT-36" d="M 2869 4325 
L 2869 4209 
Q 2456 4169 2195 4045 
Q 1934 3922 1679 3669 
Q 1425 3416 1258 3105 
Q 1091 2794 978 2366 
Q 1428 2675 1881 2675 
Q 2316 2675 2634 2325 
Q 2953 1975 2953 1425 
Q 2953 894 2631 456 
Q 2244 -75 1606 -75 
Q 1172 -75 869 213 
Q 275 772 275 1663 
Q 275 2231 503 2743 
Q 731 3256 1154 3653 
Q 1578 4050 1965 4187 
Q 2353 4325 2688 4325 
L 2869 4325 
z
M 925 2138 
Q 869 1716 869 1456 
Q 869 1156 980 804 
Q 1091 453 1309 247 
Q 1469 100 1697 100 
Q 1969 100 2183 356 
Q 2397 613 2397 1088 
Q 2397 1622 2184 2012 
Q 1972 2403 1581 2403 
Q 1463 2403 1327 2353 
Q 1191 2303 925 2138 
z
" transform="scale(0.015625)"/>
       </defs>
       <use xlink:href="#TimesNewRomanPSMT-4d"/>
       <use xlink:href="#TimesNewRomanPSMT-36" x="88.916016"/>
      </g>
     </g>
    </g>
    <g id="text_13">
     <!-- Machine -->
     <g transform="translate(21.0875 228.395) rotate(-90) scale(0.2 -0.2)">
      <defs>
       <path id="TimesNewRomanPSMT-61" d="M 1822 413 
Q 1381 72 1269 19 
Q 1100 -59 909 -59 
Q 613 -59 420 144 
Q 228 347 228 678 
Q 228 888 322 1041 
Q 450 1253 767 1440 
Q 1084 1628 1822 1897 
L 1822 2009 
Q 1822 2438 1686 2597 
Q 1550 2756 1291 2756 
Q 1094 2756 978 2650 
Q 859 2544 859 2406 
L 866 2225 
Q 866 2081 792 2003 
Q 719 1925 600 1925 
Q 484 1925 411 2006 
Q 338 2088 338 2228 
Q 338 2497 613 2722 
Q 888 2947 1384 2947 
Q 1766 2947 2009 2819 
Q 2194 2722 2281 2516 
Q 2338 2381 2338 1966 
L 2338 994 
Q 2338 584 2353 492 
Q 2369 400 2405 369 
Q 2441 338 2488 338 
Q 2538 338 2575 359 
Q 2641 400 2828 588 
L 2828 413 
Q 2478 -56 2159 -56 
Q 2006 -56 1915 50 
Q 1825 156 1822 413 
z
M 1822 616 
L 1822 1706 
Q 1350 1519 1213 1441 
Q 966 1303 859 1153 
Q 753 1003 753 825 
Q 753 600 887 451 
Q 1022 303 1197 303 
Q 1434 303 1822 616 
z
" transform="scale(0.015625)"/>
       <path id="TimesNewRomanPSMT-63" d="M 2631 1088 
Q 2516 522 2178 217 
Q 1841 -88 1431 -88 
Q 944 -88 581 321 
Q 219 731 219 1428 
Q 219 2103 620 2525 
Q 1022 2947 1584 2947 
Q 2006 2947 2278 2723 
Q 2550 2500 2550 2259 
Q 2550 2141 2473 2067 
Q 2397 1994 2259 1994 
Q 2075 1994 1981 2113 
Q 1928 2178 1911 2362 
Q 1894 2547 1784 2644 
Q 1675 2738 1481 2738 
Q 1169 2738 978 2506 
Q 725 2200 725 1697 
Q 725 1184 976 792 
Q 1228 400 1656 400 
Q 1963 400 2206 609 
Q 2378 753 2541 1131 
L 2631 1088 
z
" transform="scale(0.015625)"/>
       <path id="TimesNewRomanPSMT-68" d="M 1041 4444 
L 1041 2350 
Q 1388 2731 1591 2839 
Q 1794 2947 1997 2947 
Q 2241 2947 2416 2812 
Q 2591 2678 2675 2391 
Q 2734 2191 2734 1659 
L 2734 647 
Q 2734 375 2778 275 
Q 2809 200 2884 156 
Q 2959 113 3159 113 
L 3159 0 
L 1753 0 
L 1753 113 
L 1819 113 
Q 2019 113 2097 173 
Q 2175 234 2206 353 
Q 2216 403 2216 647 
L 2216 1659 
Q 2216 2128 2167 2275 
Q 2119 2422 2012 2495 
Q 1906 2569 1756 2569 
Q 1603 2569 1437 2487 
Q 1272 2406 1041 2159 
L 1041 647 
Q 1041 353 1073 281 
Q 1106 209 1195 161 
Q 1284 113 1503 113 
L 1503 0 
L 84 0 
L 84 113 
Q 275 113 384 172 
Q 447 203 484 290 
Q 522 378 522 647 
L 522 3238 
Q 522 3728 498 3840 
Q 475 3953 426 3993 
Q 378 4034 297 4034 
Q 231 4034 84 3984 
L 41 4094 
L 897 4444 
L 1041 4444 
z
" transform="scale(0.015625)"/>
       <path id="TimesNewRomanPSMT-6e" d="M 1034 2341 
Q 1538 2947 1994 2947 
Q 2228 2947 2397 2830 
Q 2566 2713 2666 2444 
Q 2734 2256 2734 1869 
L 2734 647 
Q 2734 375 2778 278 
Q 2813 200 2889 156 
Q 2966 113 3172 113 
L 3172 0 
L 1756 0 
L 1756 113 
L 1816 113 
Q 2016 113 2095 173 
Q 2175 234 2206 353 
Q 2219 400 2219 647 
L 2219 1819 
Q 2219 2209 2117 2386 
Q 2016 2563 1775 2563 
Q 1403 2563 1034 2156 
L 1034 647 
Q 1034 356 1069 288 
Q 1113 197 1189 155 
Q 1266 113 1500 113 
L 1500 0 
L 84 0 
L 84 113 
L 147 113 
Q 366 113 442 223 
Q 519 334 519 647 
L 519 1709 
Q 519 2225 495 2337 
Q 472 2450 423 2490 
Q 375 2531 294 2531 
Q 206 2531 84 2484 
L 38 2597 
L 900 2947 
L 1034 2947 
L 1034 2341 
z
" transform="scale(0.015625)"/>
      </defs>
      <use xlink:href="#TimesNewRomanPSMT-4d"/>
      <use xlink:href="#TimesNewRomanPSMT-61" x="88.916016"/>
      <use xlink:href="#TimesNewRomanPSMT-63" x="133.300781"/>
      <use xlink:href="#TimesNewRomanPSMT-68" x="177.685547"/>
      <use xlink:href="#TimesNewRomanPSMT-69" x="227.685547"/>
      <use xlink:href="#TimesNewRomanPSMT-6e" x="255.46875"/>
      <use xlink:href="#TimesNewRomanPSMT-65" x="305.46875"/>
     </g>
    </g>
   </g>
   <g id="patch_3">
    <path d="M 64.15 359.7275 
L 64.15 27.0875 
" style="fill: none; stroke: #000000; stroke-width: 0.8; stroke-linejoin: miter; stroke-linecap: square"/>
   </g>
   <g id="patch_4">
    <path d="M 733.75 359.7275 
L 733.75 27.0875 
" style="fill: none; stroke: #000000; stroke-width: 0.8; stroke-linejoin: miter; stroke-linecap: square"/>
   </g>
   <g id="patch_5">
    <path d="M 64.15 359.7275 
L 733.75 359.7275 
" style="fill: none; stroke: #000000; stroke-width: 0.8; stroke-linejoin: miter; stroke-linecap: square"/>
   </g>
   <g id="patch_6">
    <path d="M 64.15 27.0875 
L 733.75 27.0875 
" style="fill: none; stroke: #000000; stroke-width: 0.8; stroke-linejoin: miter; stroke-linecap: square"/>
   </g>
   <g id="text_14">
    <!-- 16 -->
    <g transform="translate(93.35 327.596078) scale(0.16 -0.16)">
     <use xlink:href="#TimesNewRomanPSMT-31"/>
     <use xlink:href="#TimesNewRomanPSMT-36" x="50"/>
    </g>
   </g>
   <g id="text_15">
    <!-- 28 -->
    <g transform="translate(127.168182 327.596078) scale(0.16 -0.16)">
     <defs>
      <path id="TimesNewRomanPSMT-38" d="M 1228 2134 
Q 725 2547 579 2797 
Q 434 3047 434 3316 
Q 434 3728 753 4026 
Q 1072 4325 1600 4325 
Q 2113 4325 2425 4047 
Q 2738 3769 2738 3413 
Q 2738 3175 2569 2928 
Q 2400 2681 1866 2347 
Q 2416 1922 2594 1678 
Q 2831 1359 2831 1006 
Q 2831 559 2490 242 
Q 2150 -75 1597 -75 
Q 994 -75 656 303 
Q 388 606 388 966 
Q 388 1247 577 1523 
Q 766 1800 1228 2134 
z
M 1719 2469 
Q 2094 2806 2194 3001 
Q 2294 3197 2294 3444 
Q 2294 3772 2109 3958 
Q 1925 4144 1606 4144 
Q 1288 4144 1088 3959 
Q 888 3775 888 3528 
Q 888 3366 970 3203 
Q 1053 3041 1206 2894 
L 1719 2469 
z
M 1375 2016 
Q 1116 1797 991 1539 
Q 866 1281 866 981 
Q 866 578 1086 336 
Q 1306 94 1647 94 
Q 1984 94 2187 284 
Q 2391 475 2391 747 
Q 2391 972 2272 1150 
Q 2050 1481 1375 2016 
z
" transform="scale(0.015625)"/>
     </defs>
     <use xlink:href="#TimesNewRomanPSMT-32"/>
     <use xlink:href="#TimesNewRomanPSMT-38" x="50"/>
    </g>
   </g>
   <g id="text_16">
    <!-- 0 -->
    <g transform="translate(178.513636 327.596078) scale(0.16 -0.16)">
     <use xlink:href="#TimesNewRomanPSMT-30"/>
    </g>
   </g>
   <g id="text_17">
    <!-- 8 -->
    <g transform="translate(225.859091 327.596078) scale(0.16 -0.16)">
     <use xlink:href="#TimesNewRomanPSMT-38"/>
    </g>
   </g>
   <g id="text_18">
    <!-- 22 -->
    <g transform="translate(269.204545 327.596078) scale(0.16 -0.16)">
     <use xlink:href="#TimesNewRomanPSMT-32"/>
     <use xlink:href="#TimesNewRomanPSMT-32" x="50"/>
    </g>
   </g>
   <g id="text_19">
    <!-- 34 -->
    <g transform="translate(296.259091 327.596078) scale(0.16 -0.16)">
     <use xlink:href="#TimesNewRomanPSMT-33"/>
     <use xlink:href="#TimesNewRomanPSMT-34" x="50"/>
    </g>
   </g>
   <g id="text_20">
    <!-- 13 -->
    <g transform="translate(323.313636 327.596078) scale(0.16 -0.16)">
     <use xlink:href="#TimesNewRomanPSMT-31"/>
     <use xlink:href="#TimesNewRomanPSMT-33" x="50"/>
    </g>
   </g>
   <g id="text_21">
    <!-- 10 -->
    <g transform="translate(336.840909 327.596078) scale(0.16 -0.16)">
     <use xlink:href="#TimesNewRomanPSMT-31"/>
     <use xlink:href="#TimesNewRomanPSMT-30" x="50"/>
    </g>
   </g>
   <g id="text_22">
    <!-- 3 -->
    <g transform="translate(367.895455 327.596078) scale(0.16 -0.16)">
     <use xlink:href="#TimesNewRomanPSMT-33"/>
    </g>
   </g>
   <g id="text_23">
    <!-- 46 -->
    <g transform="translate(384.186364 327.596078) scale(0.16 -0.16)">
     <use xlink:href="#TimesNewRomanPSMT-34"/>
     <use xlink:href="#TimesNewRomanPSMT-36" x="50"/>
    </g>
   </g>
   <g id="text_24">
    <!-- 54 -->
    <g transform="translate(418.004545 327.596078) scale(0.16 -0.16)">
     <use xlink:href="#TimesNewRomanPSMT-35"/>
     <use xlink:href="#TimesNewRomanPSMT-34" x="50"/>
    </g>
   </g>
   <g id="text_25">
    <!-- 40 -->
    <g transform="translate(472.113636 327.596078) scale(0.16 -0.16)">
     <use xlink:href="#TimesNewRomanPSMT-34"/>
     <use xlink:href="#TimesNewRomanPSMT-30" x="50"/>
    </g>
   </g>
   <g id="text_26">
    <!-- 31 -->
    <g transform="translate(526.222727 327.596078) scale(0.16 -0.16)">
     <use xlink:href="#TimesNewRomanPSMT-33"/>
     <use xlink:href="#TimesNewRomanPSMT-31" x="50"/>
    </g>
   </g>
   <g id="text_27">
    <!-- 32 -->
    <g transform="translate(553.277273 327.596078) scale(0.16 -0.16)">
     <use xlink:href="#TimesNewRomanPSMT-33"/>
     <use xlink:href="#TimesNewRomanPSMT-32" x="50"/>
    </g>
   </g>
   <g id="text_28">
    <!-- 15 -->
    <g transform="translate(580.331818 327.596078) scale(0.16 -0.16)">
     <use xlink:href="#TimesNewRomanPSMT-31"/>
     <use xlink:href="#TimesNewRomanPSMT-35" x="50"/>
    </g>
   </g>
   <g id="text_29">
    <!-- 6 -->
    <g transform="translate(131.168182 275.458147) scale(0.16 -0.16)">
     <use xlink:href="#TimesNewRomanPSMT-36"/>
    </g>
   </g>
   <g id="text_30">
    <!-- 11 -->
    <g transform="translate(208.631818 275.458147) scale(0.16 -0.16)">
     <use xlink:href="#TimesNewRomanPSMT-31"/>
     <use xlink:href="#TimesNewRomanPSMT-31" x="46.25"/>
    </g>
   </g>
   <g id="text_31">
    <!-- 21 -->
    <g transform="translate(255.677273 275.458147) scale(0.16 -0.16)">
     <use xlink:href="#TimesNewRomanPSMT-32"/>
     <use xlink:href="#TimesNewRomanPSMT-31" x="50"/>
    </g>
   </g>
   <g id="text_32">
    <!-- 1 -->
    <g transform="translate(273.204545 275.458147) scale(0.16 -0.16)">
     <use xlink:href="#TimesNewRomanPSMT-31"/>
    </g>
   </g>
   <g id="text_33">
    <!-- 23 -->
    <g transform="translate(316.55 275.458147) scale(0.16 -0.16)">
     <use xlink:href="#TimesNewRomanPSMT-32"/>
     <use xlink:href="#TimesNewRomanPSMT-33" x="50"/>
    </g>
   </g>
   <g id="text_34">
    <!-- 17 -->
    <g transform="translate(397.713636 275.458147) scale(0.16 -0.16)">
     <defs>
      <path id="TimesNewRomanPSMT-37" d="M 644 4238 
L 2916 4238 
L 2916 4119 
L 1503 -88 
L 1153 -88 
L 2419 3728 
L 1253 3728 
Q 900 3728 750 3644 
Q 488 3500 328 3200 
L 238 3234 
L 644 4238 
z
" transform="scale(0.015625)"/>
     </defs>
     <use xlink:href="#TimesNewRomanPSMT-31"/>
     <use xlink:href="#TimesNewRomanPSMT-37" x="50"/>
    </g>
   </g>
   <g id="text_35">
    <!-- 30 -->
    <g transform="translate(478.877273 275.458147) scale(0.16 -0.16)">
     <use xlink:href="#TimesNewRomanPSMT-33"/>
     <use xlink:href="#TimesNewRomanPSMT-30" x="50"/>
    </g>
   </g>
   <g id="text_36">
    <!-- 19 -->
    <g transform="translate(526.222727 275.458147) scale(0.16 -0.16)">
     <defs>
      <path id="TimesNewRomanPSMT-39" d="M 338 -88 
L 338 28 
Q 744 34 1094 217 
Q 1444 400 1770 856 
Q 2097 1313 2225 1859 
Q 1734 1544 1338 1544 
Q 891 1544 572 1889 
Q 253 2234 253 2806 
Q 253 3363 572 3797 
Q 956 4325 1575 4325 
Q 2097 4325 2469 3894 
Q 2925 3359 2925 2575 
Q 2925 1869 2578 1258 
Q 2231 647 1613 244 
Q 1109 -88 516 -88 
L 338 -88 
z
M 2275 2091 
Q 2331 2497 2331 2741 
Q 2331 3044 2228 3395 
Q 2125 3747 1936 3934 
Q 1747 4122 1506 4122 
Q 1228 4122 1018 3872 
Q 809 3622 809 3128 
Q 809 2469 1088 2097 
Q 1291 1828 1588 1828 
Q 1731 1828 1928 1897 
Q 2125 1966 2275 2091 
z
" transform="scale(0.015625)"/>
     </defs>
     <use xlink:href="#TimesNewRomanPSMT-31"/>
     <use xlink:href="#TimesNewRomanPSMT-39" x="50"/>
    </g>
   </g>
   <g id="text_37">
    <!-- 41 -->
    <g transform="translate(573.568182 275.458147) scale(0.16 -0.16)">
     <use xlink:href="#TimesNewRomanPSMT-34"/>
     <use xlink:href="#TimesNewRomanPSMT-31" x="50"/>
    </g>
   </g>
   <g id="text_38">
    <!-- 7 -->
    <g transform="translate(178.513636 223.320216) scale(0.16 -0.16)">
     <use xlink:href="#TimesNewRomanPSMT-37"/>
    </g>
   </g>
   <g id="text_39">
    <!-- 29 -->
    <g transform="translate(208.331818 223.320216) scale(0.16 -0.16)">
     <use xlink:href="#TimesNewRomanPSMT-32"/>
     <use xlink:href="#TimesNewRomanPSMT-39" x="50"/>
    </g>
   </g>
   <g id="text_40">
    <!-- 12 -->
    <g transform="translate(275.968182 223.320216) scale(0.16 -0.16)">
     <use xlink:href="#TimesNewRomanPSMT-31"/>
     <use xlink:href="#TimesNewRomanPSMT-32" x="50"/>
    </g>
   </g>
   <g id="text_41">
    <!-- 2 -->
    <g transform="translate(334.077273 223.320216) scale(0.16 -0.16)">
     <use xlink:href="#TimesNewRomanPSMT-32"/>
    </g>
   </g>
   <g id="text_42">
    <!-- 24 -->
    <g transform="translate(384.186364 223.320216) scale(0.16 -0.16)">
     <use xlink:href="#TimesNewRomanPSMT-32"/>
     <use xlink:href="#TimesNewRomanPSMT-34" x="50"/>
    </g>
   </g>
   <g id="text_43">
    <!-- 39 -->
    <g transform="translate(438.295455 223.320216) scale(0.16 -0.16)">
     <use xlink:href="#TimesNewRomanPSMT-33"/>
     <use xlink:href="#TimesNewRomanPSMT-39" x="50"/>
    </g>
   </g>
   <g id="text_44">
    <!-- 18 -->
    <g transform="translate(472.113636 223.320216) scale(0.16 -0.16)">
     <use xlink:href="#TimesNewRomanPSMT-31"/>
     <use xlink:href="#TimesNewRomanPSMT-38" x="50"/>
    </g>
   </g>
   <g id="text_45">
    <!-- 4 -->
    <g transform="translate(489.640909 223.320216) scale(0.16 -0.16)">
     <use xlink:href="#TimesNewRomanPSMT-34"/>
    </g>
   </g>
   <g id="text_46">
    <!-- 14 -->
    <g transform="translate(519.459091 223.320216) scale(0.16 -0.16)">
     <use xlink:href="#TimesNewRomanPSMT-31"/>
     <use xlink:href="#TimesNewRomanPSMT-34" x="50"/>
    </g>
   </g>
   <g id="text_47">
    <!-- 26 -->
    <g transform="translate(573.568182 223.320216) scale(0.16 -0.16)">
     <use xlink:href="#TimesNewRomanPSMT-32"/>
     <use xlink:href="#TimesNewRomanPSMT-36" x="50"/>
    </g>
   </g>
   <g id="text_48">
    <!-- 37 -->
    <g transform="translate(607.386364 223.320216) scale(0.16 -0.16)">
     <use xlink:href="#TimesNewRomanPSMT-33"/>
     <use xlink:href="#TimesNewRomanPSMT-37" x="50"/>
    </g>
   </g>
   <g id="text_49">
    <!-- 9 -->
    <g transform="translate(279.968182 171.182284) scale(0.16 -0.16)">
     <use xlink:href="#TimesNewRomanPSMT-39"/>
    </g>
   </g>
   <g id="text_50">
    <!-- 53 -->
    <g transform="translate(357.131818 171.182284) scale(0.16 -0.16)">
     <use xlink:href="#TimesNewRomanPSMT-35"/>
     <use xlink:href="#TimesNewRomanPSMT-33" x="50"/>
    </g>
   </g>
   <g id="text_51">
    <!-- 25 -->
    <g transform="translate(451.822727 171.182284) scale(0.16 -0.16)">
     <use xlink:href="#TimesNewRomanPSMT-32"/>
     <use xlink:href="#TimesNewRomanPSMT-35" x="50"/>
    </g>
   </g>
   <g id="text_52">
    <!-- 5 -->
    <g transform="translate(516.695455 171.182284) scale(0.16 -0.16)">
     <use xlink:href="#TimesNewRomanPSMT-35"/>
    </g>
   </g>
   <g id="text_53">
    <!-- 48 -->
    <g transform="translate(573.568182 171.182284) scale(0.16 -0.16)">
     <use xlink:href="#TimesNewRomanPSMT-34"/>
     <use xlink:href="#TimesNewRomanPSMT-38" x="50"/>
    </g>
   </g>
   <g id="text_54">
    <!-- 42 -->
    <g transform="translate(654.731818 171.182284) scale(0.16 -0.16)">
     <use xlink:href="#TimesNewRomanPSMT-34"/>
     <use xlink:href="#TimesNewRomanPSMT-32" x="50"/>
    </g>
   </g>
   <g id="text_55">
    <!-- 44 -->
    <g transform="translate(188.040909 119.044353) scale(0.16 -0.16)">
     <use xlink:href="#TimesNewRomanPSMT-34"/>
     <use xlink:href="#TimesNewRomanPSMT-34" x="50"/>
    </g>
   </g>
   <g id="text_56">
    <!-- 51 -->
    <g transform="translate(255.677273 119.044353) scale(0.16 -0.16)">
     <use xlink:href="#TimesNewRomanPSMT-35"/>
     <use xlink:href="#TimesNewRomanPSMT-31" x="50"/>
    </g>
   </g>
   <g id="text_57">
    <!-- 36 -->
    <g transform="translate(458.586364 119.044353) scale(0.16 -0.16)">
     <use xlink:href="#TimesNewRomanPSMT-33"/>
     <use xlink:href="#TimesNewRomanPSMT-36" x="50"/>
    </g>
   </g>
   <g id="text_58">
    <!-- 27 -->
    <g transform="translate(100.113636 66.906422) scale(0.16 -0.16)">
     <use xlink:href="#TimesNewRomanPSMT-32"/>
     <use xlink:href="#TimesNewRomanPSMT-37" x="50"/>
    </g>
   </g>
   <g id="text_59">
    <!-- 49 -->
    <g transform="translate(127.168182 66.906422) scale(0.16 -0.16)">
     <use xlink:href="#TimesNewRomanPSMT-34"/>
     <use xlink:href="#TimesNewRomanPSMT-39" x="50"/>
    </g>
   </g>
   <g id="text_60">
    <!-- 43 -->
    <g transform="translate(147.459091 66.906422) scale(0.16 -0.16)">
     <use xlink:href="#TimesNewRomanPSMT-34"/>
     <use xlink:href="#TimesNewRomanPSMT-33" x="50"/>
    </g>
   </g>
   <g id="text_61">
    <!-- 50 -->
    <g transform="translate(194.804545 66.906422) scale(0.16 -0.16)">
     <use xlink:href="#TimesNewRomanPSMT-35"/>
     <use xlink:href="#TimesNewRomanPSMT-30" x="50"/>
    </g>
   </g>
   <g id="text_62">
    <!-- 38 -->
    <g transform="translate(248.913636 66.906422) scale(0.16 -0.16)">
     <use xlink:href="#TimesNewRomanPSMT-33"/>
     <use xlink:href="#TimesNewRomanPSMT-38" x="50"/>
    </g>
   </g>
   <g id="text_63">
    <!-- 33 -->
    <g transform="translate(269.204545 66.906422) scale(0.16 -0.16)">
     <use xlink:href="#TimesNewRomanPSMT-33"/>
     <use xlink:href="#TimesNewRomanPSMT-33" x="50"/>
    </g>
   </g>
   <g id="text_64">
    <!-- 52 -->
    <g transform="translate(282.731818 66.906422) scale(0.16 -0.16)">
     <use xlink:href="#TimesNewRomanPSMT-35"/>
     <use xlink:href="#TimesNewRomanPSMT-32" x="50"/>
    </g>
   </g>
   <g id="text_65">
    <!-- 45 -->
    <g transform="translate(330.077273 66.906422) scale(0.16 -0.16)">
     <use xlink:href="#TimesNewRomanPSMT-34"/>
     <use xlink:href="#TimesNewRomanPSMT-35" x="50"/>
    </g>
   </g>
   <g id="text_66">
    <!-- 35 -->
    <g transform="translate(411.240909 66.906422) scale(0.16 -0.16)">
     <use xlink:href="#TimesNewRomanPSMT-33"/>
     <use xlink:href="#TimesNewRomanPSMT-35" x="50"/>
    </g>
   </g>
   <g id="text_67">
    <!-- 47 -->
    <g transform="translate(492.404545 66.906422) scale(0.16 -0.16)">
     <use xlink:href="#TimesNewRomanPSMT-34"/>
     <use xlink:href="#TimesNewRomanPSMT-37" x="50"/>
    </g>
   </g>
   <g id="text_68">
    <!-- 20 -->
    <g transform="translate(546.513636 66.906422) scale(0.16 -0.16)">
     <use xlink:href="#TimesNewRomanPSMT-32"/>
     <use xlink:href="#TimesNewRomanPSMT-30" x="50"/>
    </g>
   </g>
   <g id="text_69">
    <!-- Instance: Mk01, Makespan: 45 -->
    <g transform="translate(275.082813 21.0875) scale(0.2 -0.2)">
     <defs>
      <path id="TimesNewRomanPSMT-49" d="M 1975 116 
L 1975 0 
L 159 0 
L 159 116 
L 309 116 
Q 572 116 691 269 
Q 766 369 766 750 
L 766 3488 
Q 766 3809 725 3913 
Q 694 3991 597 4047 
Q 459 4122 309 4122 
L 159 4122 
L 159 4238 
L 1975 4238 
L 1975 4122 
L 1822 4122 
Q 1563 4122 1444 3969 
Q 1366 3869 1366 3488 
L 1366 750 
Q 1366 428 1406 325 
Q 1438 247 1538 191 
Q 1672 116 1822 116 
L 1975 116 
z
" transform="scale(0.015625)"/>
      <path id="TimesNewRomanPSMT-73" d="M 2050 2947 
L 2050 1972 
L 1947 1972 
Q 1828 2431 1642 2597 
Q 1456 2763 1169 2763 
Q 950 2763 815 2647 
Q 681 2531 681 2391 
Q 681 2216 781 2091 
Q 878 1963 1175 1819 
L 1631 1597 
Q 2266 1288 2266 781 
Q 2266 391 1970 151 
Q 1675 -88 1309 -88 
Q 1047 -88 709 6 
Q 606 38 541 38 
Q 469 38 428 -44 
L 325 -44 
L 325 978 
L 428 978 
Q 516 541 762 319 
Q 1009 97 1316 97 
Q 1531 97 1667 223 
Q 1803 350 1803 528 
Q 1803 744 1651 891 
Q 1500 1038 1047 1263 
Q 594 1488 453 1669 
Q 313 1847 313 2119 
Q 313 2472 555 2709 
Q 797 2947 1181 2947 
Q 1350 2947 1591 2875 
Q 1750 2828 1803 2828 
Q 1853 2828 1881 2850 
Q 1909 2872 1947 2947 
L 2050 2947 
z
" transform="scale(0.015625)"/>
      <path id="TimesNewRomanPSMT-74" d="M 1031 3803 
L 1031 2863 
L 1700 2863 
L 1700 2644 
L 1031 2644 
L 1031 788 
Q 1031 509 1111 412 
Q 1191 316 1316 316 
Q 1419 316 1516 380 
Q 1613 444 1666 569 
L 1788 569 
Q 1678 263 1478 108 
Q 1278 -47 1066 -47 
Q 922 -47 784 33 
Q 647 113 581 261 
Q 516 409 516 719 
L 516 2644 
L 63 2644 
L 63 2747 
Q 234 2816 414 2980 
Q 594 3144 734 3369 
Q 806 3488 934 3803 
L 1031 3803 
z
" transform="scale(0.015625)"/>
      <path id="TimesNewRomanPSMT-3a" d="M 903 2950 
Q 1047 2950 1148 2848 
Q 1250 2747 1250 2603 
Q 1250 2459 1148 2357 
Q 1047 2256 903 2256 
Q 759 2256 657 2357 
Q 556 2459 556 2603 
Q 556 2747 657 2848 
Q 759 2950 903 2950 
z
M 897 609 
Q 1044 609 1145 506 
Q 1247 403 1247 259 
Q 1247 116 1144 14 
Q 1041 -88 897 -88 
Q 753 -88 651 14 
Q 550 116 550 259 
Q 550 403 651 506 
Q 753 609 897 609 
z
" transform="scale(0.015625)"/>
      <path id="TimesNewRomanPSMT-20" transform="scale(0.015625)"/>
      <path id="TimesNewRomanPSMT-6b" d="M 1047 4444 
L 1047 1597 
L 1775 2259 
Q 2006 2472 2044 2528 
Q 2069 2566 2069 2603 
Q 2069 2666 2017 2711 
Q 1966 2756 1847 2763 
L 1847 2863 
L 3091 2863 
L 3091 2763 
Q 2834 2756 2664 2684 
Q 2494 2613 2291 2428 
L 1556 1750 
L 2291 822 
Q 2597 438 2703 334 
Q 2853 188 2966 144 
Q 3044 113 3238 113 
L 3238 0 
L 1847 0 
L 1847 113 
Q 1966 116 2008 148 
Q 2050 181 2050 241 
Q 2050 313 1925 472 
L 1047 1594 
L 1047 644 
Q 1047 366 1086 278 
Q 1125 191 1197 153 
Q 1269 116 1509 113 
L 1509 0 
L 53 0 
L 53 113 
Q 272 113 381 166 
Q 447 200 481 272 
Q 528 375 528 628 
L 528 3234 
Q 528 3731 506 3842 
Q 484 3953 434 3995 
Q 384 4038 303 4038 
Q 238 4038 106 3984 
L 53 4094 
L 903 4444 
L 1047 4444 
z
" transform="scale(0.015625)"/>
      <path id="TimesNewRomanPSMT-2c" d="M 344 -1066 
L 344 -928 
Q 666 -822 842 -598 
Q 1019 -375 1019 -125 
Q 1019 -66 991 -25 
Q 969 3 947 3 
Q 913 3 797 -59 
Q 741 -88 678 -88 
Q 525 -88 434 3 
Q 344 94 344 253 
Q 344 406 461 515 
Q 578 625 747 625 
Q 953 625 1114 445 
Q 1275 266 1275 -31 
Q 1275 -353 1051 -629 
Q 828 -906 344 -1066 
z
" transform="scale(0.015625)"/>
      <path id="TimesNewRomanPSMT-70" d="M -6 2578 
L 875 2934 
L 994 2934 
L 994 2266 
Q 1216 2644 1439 2795 
Q 1663 2947 1909 2947 
Q 2341 2947 2628 2609 
Q 2981 2197 2981 1534 
Q 2981 794 2556 309 
Q 2206 -88 1675 -88 
Q 1444 -88 1275 -22 
Q 1150 25 994 166 
L 994 -706 
Q 994 -1000 1030 -1079 
Q 1066 -1159 1155 -1206 
Q 1244 -1253 1478 -1253 
L 1478 -1369 
L -22 -1369 
L -22 -1253 
L 56 -1253 
Q 228 -1256 350 -1188 
Q 409 -1153 442 -1076 
Q 475 -1000 475 -688 
L 475 2019 
Q 475 2297 450 2372 
Q 425 2447 370 2484 
Q 316 2522 222 2522 
Q 147 2522 31 2478 
L -6 2578 
z
M 994 2081 
L 994 1013 
Q 994 666 1022 556 
Q 1066 375 1236 237 
Q 1406 100 1666 100 
Q 1978 100 2172 344 
Q 2425 663 2425 1241 
Q 2425 1897 2138 2250 
Q 1938 2494 1663 2494 
Q 1513 2494 1366 2419 
Q 1253 2363 994 2081 
z
" transform="scale(0.015625)"/>
     </defs>
     <use xlink:href="#TimesNewRomanPSMT-49"/>
     <use xlink:href="#TimesNewRomanPSMT-6e" x="33.300781"/>
     <use xlink:href="#TimesNewRomanPSMT-73" x="83.300781"/>
     <use xlink:href="#TimesNewRomanPSMT-74" x="122.216797"/>
     <use xlink:href="#TimesNewRomanPSMT-61" x="150"/>
     <use xlink:href="#TimesNewRomanPSMT-6e" x="194.384766"/>
     <use xlink:href="#TimesNewRomanPSMT-63" x="244.384766"/>
     <use xlink:href="#TimesNewRomanPSMT-65" x="288.769531"/>
     <use xlink:href="#TimesNewRomanPSMT-3a" x="333.154297"/>
     <use xlink:href="#TimesNewRomanPSMT-20" x="360.9375"/>
     <use xlink:href="#TimesNewRomanPSMT-4d" x="385.9375"/>
     <use xlink:href="#TimesNewRomanPSMT-6b" x="474.853516"/>
     <use xlink:href="#TimesNewRomanPSMT-30" x="524.853516"/>
     <use xlink:href="#TimesNewRomanPSMT-31" x="574.853516"/>
     <use xlink:href="#TimesNewRomanPSMT-2c" x="624.853516"/>
     <use xlink:href="#TimesNewRomanPSMT-20" x="649.853516"/>
     <use xlink:href="#TimesNewRomanPSMT-4d" x="674.853516"/>
     <use xlink:href="#TimesNewRomanPSMT-61" x="763.769531"/>
     <use xlink:href="#TimesNewRomanPSMT-6b" x="808.154297"/>
     <use xlink:href="#TimesNewRomanPSMT-65" x="858.154297"/>
     <use xlink:href="#TimesNewRomanPSMT-73" x="902.539062"/>
     <use xlink:href="#TimesNewRomanPSMT-70" x="941.455078"/>
     <use xlink:href="#TimesNewRomanPSMT-61" x="991.455078"/>
     <use xlink:href="#TimesNewRomanPSMT-6e" x="1035.839844"/>
     <use xlink:href="#TimesNewRomanPSMT-3a" x="1085.839844"/>
     <use xlink:href="#TimesNewRomanPSMT-20" x="1113.623047"/>
     <use xlink:href="#TimesNewRomanPSMT-34" x="1138.623047"/>
     <use xlink:href="#TimesNewRomanPSMT-35" x="1188.623047"/>
    </g>
   </g>
  </g>
 </g>
 <defs>
  <clipPath id="p63de7409ba">
   <rect x="64.15" y="27.0875" width="669.6" height="332.64"/>
  </clipPath>
 </defs>
 <defs>
  <pattern id="h72fa7e6857" patternUnits="userSpaceOnUse" x="0" y="0" width="72" height="72">
   <rect x="0" y="0" width="73" height="73" fill="#808080"/>
   <path d="M -36 36 
L 36 -36 
M -24 48 
L 48 -24 
M -12 60 
L 60 -12 
M 0 72 
L 72 0 
M 12 84 
L 84 12 
M 24 96 
L 96 24 
M 36 108 
L 108 36 
" style="fill: #000000; stroke: #000000; stroke-width: 1.0; stroke-linecap: butt; stroke-linejoin: miter"/>
  </pattern>
 </defs>
</svg>
