<?xml version="1.0" encoding="utf-8" standalone="no"?>
<!DOCTYPE svg PUBLIC "-//W3C//DTD SVG 1.1//EN"
  "http://www.w3.org/Graphics/SVG/1.1/DTD/svg11.dtd">
<svg xmlns:xlink="http://www.w3.org/1999/xlink" width="740.95pt" height="414.25875pt" viewBox="0 0 740.95 414.25875" xmlns="http://www.w3.org/2000/svg" version="1.1">
 <metadata>
  <rdf:RDF xmlns:dc="http://purl.org/dc/elements/1.1/" xmlns:cc="http://creativecommons.org/ns#" xmlns:rdf="http://www.w3.org/1999/02/22-rdf-syntax-ns#">
   <cc:Work>
    <dc:type rdf:resource="http://purl.org/dc/dcmitype/StillImage"/>
    <dc:date>2025-03-02T22:05:00.293836</dc:date>
    <dc:format>image/svg+xml</dc:format>
    <dc:creator>
     <cc:Agent>
      <dc:title>Matplotlib v3.9.2, https://matplotlib.org/</dc:title>
     </cc:Agent>
    </dc:creator>
   </cc:Work>
  </rdf:RDF>
 </metadata>
 <defs>
  <style type="text/css">*{stroke-linejoin: round; stroke-linecap: butt}</style>
 </defs>
 <g id="figure_1">
  <g id="patch_1">
   <path d="M 0 414.25875 
L 740.95 414.25875 
L 740.95 0 
L 0 0 
z
" style="fill: #ffffff"/>
  </g>
  <g id="axes_1">
   <g id="patch_2">
    <path d="M 64.15 359.7275 
L 733.75 359.7275 
L 733.75 27.0875 
L 64.15 27.0875 
z
" style="fill: #ffffff"/>
   </g>
   <g id="PolyCollection_1">
    <defs>
     <path id="mf35a8b141a" d="M 94.586364 -69.65125 
L 94.586364 -100.666635 
L 130.273205 -100.666635 
L 130.273205 -69.65125 
z
" style="stroke: #000000"/>
    </defs>
    <g clip-path="url(#p8c8359ade6)">
     <use xlink:href="#mf35a8b141a" x="0" y="414.25875" style="fill: #9ecae1; stroke: #000000"/>
    </g>
   </g>
   <g id="PolyCollection_2">
    <path d="M 94.586364 344.6075 
L 94.586364 313.592115 
L 94.586364 313.592115 
L 94.586364 344.6075 
z
" clip-path="url(#p8c8359ade6)" style="fill: url(#hc828506ce6); stroke: #000000"/>
   </g>
   <g id="PolyCollection_3">
    <defs>
     <path id="mae6905a82a" d="M 130.273205 -69.65125 
L 130.273205 -100.666635 
L 182.777983 -100.666635 
L 182.777983 -69.65125 
z
" style="stroke: #000000"/>
    </defs>
    <g clip-path="url(#p8c8359ade6)">
     <use xlink:href="#mae6905a82a" x="0" y="414.25875" style="fill: #c6dbef; stroke: #000000"/>
    </g>
   </g>
   <g id="PolyCollection_4">
    <path d="M 130.273205 344.6075 
L 130.273205 313.592115 
L 130.273205 313.592115 
L 130.273205 344.6075 
z
" clip-path="url(#p8c8359ade6)" style="fill: url(#hc828506ce6); stroke: #000000"/>
   </g>
   <g id="PolyCollection_5">
    <defs>
     <path id="me01a7861dc" d="M 182.777983 -69.65125 
L 182.777983 -100.666635 
L 270.559409 -100.666635 
L 270.559409 -69.65125 
z
" style="stroke: #000000"/>
    </defs>
    <g clip-path="url(#p8c8359ade6)">
     <use xlink:href="#me01a7861dc" x="0" y="414.25875" style="fill: #4c78a8; stroke: #000000"/>
    </g>
   </g>
   <g id="PolyCollection_6">
    <path d="M 182.777983 344.6075 
L 182.777983 313.592115 
L 182.777983 313.592115 
L 182.777983 344.6075 
z
" clip-path="url(#p8c8359ade6)" style="fill: url(#hc828506ce6); stroke: #000000"/>
   </g>
   <g id="PolyCollection_7">
    <defs>
     <path id="m0830686ecc" d="M 270.559409 -69.65125 
L 270.559409 -100.666635 
L 306.246251 -100.666635 
L 306.246251 -69.65125 
z
" style="stroke: #000000"/>
    </defs>
    <g clip-path="url(#p8c8359ade6)">
     <use xlink:href="#m0830686ecc" x="0" y="414.25875" style="fill: #6395b9; stroke: #000000"/>
    </g>
   </g>
   <g id="PolyCollection_8">
    <path d="M 270.559409 344.6075 
L 270.559409 313.592115 
L 270.559409 313.592115 
L 270.559409 344.6075 
z
" clip-path="url(#p8c8359ade6)" style="fill: url(#hc828506ce6); stroke: #000000"/>
   </g>
   <g id="PolyCollection_9">
    <defs>
     <path id="ma2149f175c" d="M 306.246251 -69.65125 
L 306.246251 -100.666635 
L 407.564065 -100.666635 
L 407.564065 -69.65125 
z
" style="stroke: #000000"/>
    </defs>
    <g clip-path="url(#p8c8359ade6)">
     <use xlink:href="#ma2149f175c" x="0" y="414.25875" style="fill: #1f77b4; stroke: #000000"/>
    </g>
   </g>
   <g id="PolyCollection_10">
    <path d="M 306.246251 344.6075 
L 306.246251 313.592115 
L 306.246251 313.592115 
L 306.246251 344.6075 
z
" clip-path="url(#p8c8359ade6)" style="fill: url(#hc828506ce6); stroke: #000000"/>
   </g>
   <g id="PolyCollection_11">
    <defs>
     <path id="m9f68e64ec9" d="M 94.586364 -108.420481 
L 94.586364 -139.435865 
L 241.025472 -139.435865 
L 241.025472 -108.420481 
z
" style="stroke: #000000"/>
    </defs>
    <g clip-path="url(#p8c8359ade6)">
     <use xlink:href="#m9f68e64ec9" x="0" y="414.25875" style="fill: #8c6bb1; stroke: #000000"/>
    </g>
   </g>
   <g id="PolyCollection_12">
    <path d="M 94.586364 305.838269 
L 94.586364 274.822885 
L 94.586364 274.822885 
L 94.586364 305.838269 
z
" clip-path="url(#p8c8359ade6)" style="fill: url(#hc828506ce6); stroke: #000000"/>
   </g>
   <g id="PolyCollection_13">
    <defs>
     <path id="m11d412dde9" d="M 241.025472 -108.420481 
L 241.025472 -139.435865 
L 302.554509 -139.435865 
L 302.554509 -108.420481 
z
" style="stroke: #000000"/>
    </defs>
    <g clip-path="url(#p8c8359ade6)">
     <use xlink:href="#m11d412dde9" x="0" y="414.25875" style="fill: #fc9272; stroke: #000000"/>
    </g>
   </g>
   <g id="PolyCollection_14">
    <path d="M 241.025472 305.838269 
L 241.025472 274.822885 
L 241.025472 274.822885 
L 241.025472 305.838269 
z
" clip-path="url(#p8c8359ade6)" style="fill: url(#hc828506ce6); stroke: #000000"/>
   </g>
   <g id="PolyCollection_15">
    <defs>
     <path id="ma401ef3585" d="M 302.554509 -108.420481 
L 302.554509 -139.435865 
L 343.573867 -139.435865 
L 343.573867 -108.420481 
z
" style="stroke: #000000"/>
    </defs>
    <g clip-path="url(#p8c8359ade6)">
     <use xlink:href="#ma401ef3585" x="0" y="414.25875" style="fill: #c6dbef; stroke: #000000"/>
    </g>
   </g>
   <g id="PolyCollection_16">
    <path d="M 302.554509 305.838269 
L 302.554509 274.822885 
L 302.554509 274.822885 
L 302.554509 305.838269 
z
" clip-path="url(#p8c8359ade6)" style="fill: url(#hc828506ce6); stroke: #000000"/>
   </g>
   <g id="PolyCollection_17">
    <defs>
     <path id="m318f68892b" d="M 343.573867 -108.420481 
L 343.573867 -139.435865 
L 370.646643 -139.435865 
L 370.646643 -108.420481 
z
" style="stroke: #000000"/>
    </defs>
    <g clip-path="url(#p8c8359ade6)">
     <use xlink:href="#m318f68892b" x="0" y="414.25875" style="fill: #4c78a8; stroke: #000000"/>
    </g>
   </g>
   <g id="PolyCollection_18">
    <path d="M 343.573867 305.838269 
L 343.573867 274.822885 
L 343.573867 274.822885 
L 343.573867 305.838269 
z
" clip-path="url(#p8c8359ade6)" style="fill: url(#hc828506ce6); stroke: #000000"/>
   </g>
   <g id="PolyCollection_19">
    <defs>
     <path id="mfb8d1d6c6d" d="M 370.646643 -108.420481 
L 370.646643 -139.435865 
L 430.124712 -139.435865 
L 430.124712 -108.420481 
z
" style="stroke: #000000"/>
    </defs>
    <g clip-path="url(#p8c8359ade6)">
     <use xlink:href="#mfb8d1d6c6d" x="0" y="414.25875" style="fill: #d62728; stroke: #000000"/>
    </g>
   </g>
   <g id="PolyCollection_20">
    <path d="M 370.646643 305.838269 
L 370.646643 274.822885 
L 370.646643 274.822885 
L 370.646643 305.838269 
z
" clip-path="url(#p8c8359ade6)" style="fill: url(#hc828506ce6); stroke: #000000"/>
   </g>
   <g id="PolyCollection_21">
    <defs>
     <path id="m68254d00f1" d="M 430.124712 -108.420481 
L 430.124712 -139.435865 
L 491.653749 -139.435865 
L 491.653749 -108.420481 
z
" style="stroke: #000000"/>
    </defs>
    <g clip-path="url(#p8c8359ade6)">
     <use xlink:href="#m68254d00f1" x="0" y="414.25875" style="fill: #9467bd; stroke: #000000"/>
    </g>
   </g>
   <g id="PolyCollection_22">
    <path d="M 430.124712 305.838269 
L 430.124712 274.822885 
L 430.124712 274.822885 
L 430.124712 305.838269 
z
" clip-path="url(#p8c8359ade6)" style="fill: url(#hc828506ce6); stroke: #000000"/>
   </g>
   <g id="PolyCollection_23">
    <defs>
     <path id="m3d2d1c73b4" d="M 491.653749 -108.420481 
L 491.653749 -139.435865 
L 544.978914 -139.435865 
L 544.978914 -108.420481 
z
" style="stroke: #000000"/>
    </defs>
    <g clip-path="url(#p8c8359ade6)">
     <use xlink:href="#m3d2d1c73b4" x="0" y="414.25875" style="fill: #1f77b4; stroke: #000000"/>
    </g>
   </g>
   <g id="PolyCollection_24">
    <path d="M 491.653749 305.838269 
L 491.653749 274.822885 
L 491.653749 274.822885 
L 491.653749 305.838269 
z
" clip-path="url(#p8c8359ade6)" style="fill: url(#hc828506ce6); stroke: #000000"/>
   </g>
   <g id="PolyCollection_25">
    <defs>
     <path id="md9783638b1" d="M 94.586364 -147.189712 
L 94.586364 -178.205096 
L 154.064433 -178.205096 
L 154.064433 -147.189712 
z
" style="stroke: #000000"/>
    </defs>
    <g clip-path="url(#p8c8359ade6)">
     <use xlink:href="#md9783638b1" x="0" y="414.25875" style="fill: #e45756; stroke: #000000"/>
    </g>
   </g>
   <g id="PolyCollection_26">
    <path d="M 94.586364 267.069038 
L 94.586364 236.053654 
L 94.586364 236.053654 
L 94.586364 267.069038 
z
" clip-path="url(#p8c8359ade6)" style="fill: url(#hc828506ce6); stroke: #000000"/>
   </g>
   <g id="PolyCollection_27">
    <defs>
     <path id="mf18d09a2e4" d="M 154.064433 -147.189712 
L 154.064433 -178.205096 
L 204.928437 -178.205096 
L 204.928437 -147.189712 
z
" style="stroke: #000000"/>
    </defs>
    <g clip-path="url(#p8c8359ade6)">
     <use xlink:href="#mf18d09a2e4" x="0" y="414.25875" style="fill: #e45756; stroke: #000000"/>
    </g>
   </g>
   <g id="PolyCollection_28">
    <path d="M 154.064433 267.069038 
L 154.064433 236.053654 
L 154.064433 236.053654 
L 154.064433 267.069038 
z
" clip-path="url(#p8c8359ade6)" style="fill: url(#hc828506ce6); stroke: #000000"/>
   </g>
   <g id="PolyCollection_29">
    <defs>
     <path id="md7a47e549c" d="M 241.025472 -147.189712 
L 241.025472 -178.205096 
L 332.908834 -178.205096 
L 332.908834 -147.189712 
z
" style="stroke: #000000"/>
    </defs>
    <g clip-path="url(#p8c8359ade6)">
     <use xlink:href="#md7a47e549c" x="0" y="414.25875" style="fill: #8c6bb1; stroke: #000000"/>
    </g>
   </g>
   <g id="PolyCollection_30">
    <path d="M 241.025472 267.069038 
L 241.025472 236.053654 
L 241.025472 236.053654 
L 241.025472 267.069038 
z
" clip-path="url(#p8c8359ade6)" style="fill: url(#hc828506ce6); stroke: #000000"/>
   </g>
   <g id="PolyCollection_31">
    <defs>
     <path id="m5116395986" d="M 332.908834 -147.189712 
L 332.908834 -178.205096 
L 406.743678 -178.205096 
L 406.743678 -147.189712 
z
" style="stroke: #000000"/>
    </defs>
    <g clip-path="url(#p8c8359ade6)">
     <use xlink:href="#m5116395986" x="0" y="414.25875" style="fill: #fc9272; stroke: #000000"/>
    </g>
   </g>
   <g id="PolyCollection_32">
    <path d="M 332.908834 267.069038 
L 332.908834 236.053654 
L 332.908834 236.053654 
L 332.908834 267.069038 
z
" clip-path="url(#p8c8359ade6)" style="fill: url(#hc828506ce6); stroke: #000000"/>
   </g>
   <g id="PolyCollection_33">
    <defs>
     <path id="m5d606e13ea" d="M 430.124712 -147.189712 
L 430.124712 -178.205096 
L 480.578522 -178.205096 
L 480.578522 -147.189712 
z
" style="stroke: #000000"/>
    </defs>
    <g clip-path="url(#p8c8359ade6)">
     <use xlink:href="#m5d606e13ea" x="0" y="414.25875" style="fill: #d62728; stroke: #000000"/>
    </g>
   </g>
   <g id="PolyCollection_34">
    <path d="M 430.124712 267.069038 
L 430.124712 236.053654 
L 430.124712 236.053654 
L 430.124712 267.069038 
z
" clip-path="url(#p8c8359ade6)" style="fill: url(#hc828506ce6); stroke: #000000"/>
   </g>
   <g id="PolyCollection_35">
    <defs>
     <path id="m4d10485d46" d="M 491.653749 -147.189712 
L 491.653749 -178.205096 
L 565.488593 -178.205096 
L 565.488593 -147.189712 
z
" style="stroke: #000000"/>
    </defs>
    <g clip-path="url(#p8c8359ade6)">
     <use xlink:href="#m4d10485d46" x="0" y="414.25875" style="fill: #9467bd; stroke: #000000"/>
    </g>
   </g>
   <g id="PolyCollection_36">
    <path d="M 491.653749 267.069038 
L 491.653749 236.053654 
L 491.653749 236.053654 
L 491.653749 267.069038 
z
" clip-path="url(#p8c8359ade6)" style="fill: url(#hc828506ce6); stroke: #000000"/>
   </g>
   <g id="PolyCollection_37">
    <defs>
     <path id="mff93760e93" d="M 94.586364 -185.958942 
L 94.586364 -216.974327 
L 195.083791 -216.974327 
L 195.083791 -185.958942 
z
" style="stroke: #000000"/>
    </defs>
    <g clip-path="url(#p8c8359ade6)">
     <use xlink:href="#mff93760e93" x="0" y="414.25875" style="fill: #f67e7d; stroke: #000000"/>
    </g>
   </g>
   <g id="PolyCollection_38">
    <path d="M 94.586364 228.299808 
L 94.586364 197.284423 
L 94.586364 197.284423 
L 94.586364 228.299808 
z
" clip-path="url(#p8c8359ade6)" style="fill: url(#hc828506ce6); stroke: #000000"/>
   </g>
   <g id="PolyCollection_39">
    <defs>
     <path id="m9201aac2d0" d="M 195.083791 -185.958942 
L 195.083791 -216.974327 
L 295.581218 -216.974327 
L 295.581218 -185.958942 
z
" style="stroke: #000000"/>
    </defs>
    <g clip-path="url(#p8c8359ade6)">
     <use xlink:href="#m9201aac2d0" x="0" y="414.25875" style="fill: #fee0d2; stroke: #000000"/>
    </g>
   </g>
   <g id="PolyCollection_40">
    <path d="M 195.083791 228.299808 
L 195.083791 197.284423 
L 195.083791 197.284423 
L 195.083791 228.299808 
z
" clip-path="url(#p8c8359ade6)" style="fill: url(#hc828506ce6); stroke: #000000"/>
   </g>
   <g id="PolyCollection_41">
    <defs>
     <path id="mfe5ca6f472" d="M 306.246251 -185.958942 
L 306.246251 -216.974327 
L 349.316577 -216.974327 
L 349.316577 -185.958942 
z
" style="stroke: #000000"/>
    </defs>
    <g clip-path="url(#p8c8359ade6)">
     <use xlink:href="#mfe5ca6f472" x="0" y="414.25875" style="fill: #6395b9; stroke: #000000"/>
    </g>
   </g>
   <g id="PolyCollection_42">
    <path d="M 306.246251 228.299808 
L 306.246251 197.284423 
L 306.246251 197.284423 
L 306.246251 228.299808 
z
" clip-path="url(#p8c8359ade6)" style="fill: url(#hc828506ce6); stroke: #000000"/>
   </g>
   <g id="PolyCollection_43">
    <defs>
     <path id="m2b5dd1ecf0" d="M 349.316577 -185.958942 
L 349.316577 -216.974327 
L 408.794646 -216.974327 
L 408.794646 -185.958942 
z
" style="stroke: #000000"/>
    </defs>
    <g clip-path="url(#p8c8359ade6)">
     <use xlink:href="#m2b5dd1ecf0" x="0" y="414.25875" style="fill: #9ecae1; stroke: #000000"/>
    </g>
   </g>
   <g id="PolyCollection_44">
    <path d="M 349.316577 228.299808 
L 349.316577 197.284423 
L 349.316577 197.284423 
L 349.316577 228.299808 
z
" clip-path="url(#p8c8359ade6)" style="fill: url(#hc828506ce6); stroke: #000000"/>
   </g>
   <g id="PolyCollection_45">
    <defs>
     <path id="mcbbcb3e87c" d="M 544.978914 -185.958942 
L 544.978914 -216.974327 
L 606.507951 -216.974327 
L 606.507951 -185.958942 
z
" style="stroke: #000000"/>
    </defs>
    <g clip-path="url(#p8c8359ade6)">
     <use xlink:href="#mcbbcb3e87c" x="0" y="414.25875" style="fill: #1f77b4; stroke: #000000"/>
    </g>
   </g>
   <g id="PolyCollection_46">
    <path d="M 544.978914 228.299808 
L 544.978914 197.284423 
L 544.978914 197.284423 
L 544.978914 228.299808 
z
" clip-path="url(#p8c8359ade6)" style="fill: url(#hc828506ce6); stroke: #000000"/>
   </g>
   <g id="PolyCollection_47">
    <defs>
     <path id="m959349775f" d="M 130.273205 -224.728173 
L 130.273205 -255.743558 
L 201.236694 -255.743558 
L 201.236694 -224.728173 
z
" style="stroke: #000000"/>
    </defs>
    <g clip-path="url(#p8c8359ade6)">
     <use xlink:href="#m959349775f" x="0" y="414.25875" style="fill: #9ecae1; stroke: #000000"/>
    </g>
   </g>
   <g id="PolyCollection_48">
    <path d="M 130.273205 189.530577 
L 130.273205 158.515192 
L 130.273205 158.515192 
L 130.273205 189.530577 
z
" clip-path="url(#p8c8359ade6)" style="fill: url(#hc828506ce6); stroke: #000000"/>
   </g>
   <g id="PolyCollection_49">
    <defs>
     <path id="m52a1b9c904" d="M 201.236694 -224.728173 
L 201.236694 -255.743558 
L 220.515793 -255.743558 
L 220.515793 -224.728173 
z
" style="stroke: #000000"/>
    </defs>
    <g clip-path="url(#p8c8359ade6)">
     <use xlink:href="#m52a1b9c904" x="0" y="414.25875" style="fill: #c6dbef; stroke: #000000"/>
    </g>
   </g>
   <g id="PolyCollection_50">
    <path d="M 201.236694 189.530577 
L 201.236694 158.515192 
L 201.236694 158.515192 
L 201.236694 189.530577 
z
" clip-path="url(#p8c8359ade6)" style="fill: url(#hc828506ce6); stroke: #000000"/>
   </g>
   <g id="PolyCollection_51">
    <defs>
     <path id="m817a01fcf6" d="M 220.515793 -224.728173 
L 220.515793 -255.743558 
L 279.993862 -255.743558 
L 279.993862 -224.728173 
z
" style="stroke: #000000"/>
    </defs>
    <g clip-path="url(#p8c8359ade6)">
     <use xlink:href="#m817a01fcf6" x="0" y="414.25875" style="fill: #e45756; stroke: #000000"/>
    </g>
   </g>
   <g id="PolyCollection_52">
    <path d="M 220.515793 189.530577 
L 220.515793 158.515192 
L 220.515793 158.515192 
L 220.515793 189.530577 
z
" clip-path="url(#p8c8359ade6)" style="fill: url(#hc828506ce6); stroke: #000000"/>
   </g>
   <g id="PolyCollection_53">
    <defs>
     <path id="m997a96788a" d="M 286.967153 -224.728173 
L 286.967153 -255.743558 
L 346.445222 -255.743558 
L 346.445222 -224.728173 
z
" style="stroke: #000000"/>
    </defs>
    <g clip-path="url(#p8c8359ade6)">
     <use xlink:href="#m997a96788a" x="0" y="414.25875" style="fill: #f67e7d; stroke: #000000"/>
    </g>
   </g>
   <g id="PolyCollection_54">
    <path d="M 286.967153 189.530577 
L 286.967153 158.515192 
L 286.967153 158.515192 
L 286.967153 189.530577 
z
" clip-path="url(#p8c8359ade6)" style="fill: url(#hc828506ce6); stroke: #000000"/>
   </g>
   <g id="PolyCollection_55">
    <defs>
     <path id="mc153f46250" d="M 346.445222 -224.728173 
L 346.445222 -255.743558 
L 405.923291 -255.743558 
L 405.923291 -224.728173 
z
" style="stroke: #000000"/>
    </defs>
    <g clip-path="url(#p8c8359ade6)">
     <use xlink:href="#mc153f46250" x="0" y="414.25875" style="fill: #8c6bb1; stroke: #000000"/>
    </g>
   </g>
   <g id="PolyCollection_56">
    <path d="M 346.445222 189.530577 
L 346.445222 158.515192 
L 346.445222 158.515192 
L 346.445222 189.530577 
z
" clip-path="url(#p8c8359ade6)" style="fill: url(#hc828506ce6); stroke: #000000"/>
   </g>
   <g id="PolyCollection_57">
    <defs>
     <path id="meec77815d4" d="M 405.923291 -224.728173 
L 405.923291 -255.743558 
L 446.942649 -255.743558 
L 446.942649 -224.728173 
z
" style="stroke: #000000"/>
    </defs>
    <g clip-path="url(#p8c8359ade6)">
     <use xlink:href="#meec77815d4" x="0" y="414.25875" style="fill: #6395b9; stroke: #000000"/>
    </g>
   </g>
   <g id="PolyCollection_58">
    <path d="M 405.923291 189.530577 
L 405.923291 158.515192 
L 405.923291 158.515192 
L 405.923291 189.530577 
z
" clip-path="url(#p8c8359ade6)" style="fill: url(#hc828506ce6); stroke: #000000"/>
   </g>
   <g id="PolyCollection_59">
    <defs>
     <path id="meb969818ee" d="M 446.942649 -224.728173 
L 446.942649 -255.743558 
L 506.420718 -255.743558 
L 506.420718 -224.728173 
z
" style="stroke: #000000"/>
    </defs>
    <g clip-path="url(#p8c8359ade6)">
     <use xlink:href="#meb969818ee" x="0" y="414.25875" style="fill: #fee0d2; stroke: #000000"/>
    </g>
   </g>
   <g id="PolyCollection_60">
    <path d="M 446.942649 189.530577 
L 446.942649 158.515192 
L 446.942649 158.515192 
L 446.942649 189.530577 
z
" clip-path="url(#p8c8359ade6)" style="fill: url(#hc828506ce6); stroke: #000000"/>
   </g>
   <g id="PolyCollection_61">
    <defs>
     <path id="mf3d3bf6c42" d="M 506.420718 -224.728173 
L 506.420718 -255.743558 
L 563.847819 -255.743558 
L 563.847819 -224.728173 
z
" style="stroke: #000000"/>
    </defs>
    <g clip-path="url(#p8c8359ade6)">
     <use xlink:href="#mf3d3bf6c42" x="0" y="414.25875" style="fill: #e45756; stroke: #000000"/>
    </g>
   </g>
   <g id="PolyCollection_62">
    <path d="M 506.420718 189.530577 
L 506.420718 158.515192 
L 506.420718 158.515192 
L 506.420718 189.530577 
z
" clip-path="url(#p8c8359ade6)" style="fill: url(#hc828506ce6); stroke: #000000"/>
   </g>
   <g id="PolyCollection_63">
    <defs>
     <path id="m7070cd502f" d="M 563.847819 -224.728173 
L 563.847819 -255.743558 
L 580.255562 -255.743558 
L 580.255562 -224.728173 
z
" style="stroke: #000000"/>
    </defs>
    <g clip-path="url(#p8c8359ade6)">
     <use xlink:href="#m7070cd502f" x="0" y="414.25875" style="fill: #fc9272; stroke: #000000"/>
    </g>
   </g>
   <g id="PolyCollection_64">
    <path d="M 563.847819 189.530577 
L 563.847819 158.515192 
L 563.847819 158.515192 
L 563.847819 189.530577 
z
" clip-path="url(#p8c8359ade6)" style="fill: url(#hc828506ce6); stroke: #000000"/>
   </g>
   <g id="PolyCollection_65">
    <defs>
     <path id="m2e4265d900" d="M 580.255562 -224.728173 
L 580.255562 -255.743558 
L 596.663306 -255.743558 
L 596.663306 -224.728173 
z
" style="stroke: #000000"/>
    </defs>
    <g clip-path="url(#p8c8359ade6)">
     <use xlink:href="#m2e4265d900" x="0" y="414.25875" style="fill: #9467bd; stroke: #000000"/>
    </g>
   </g>
   <g id="PolyCollection_66">
    <path d="M 580.255562 189.530577 
L 580.255562 158.515192 
L 580.255562 158.515192 
L 580.255562 189.530577 
z
" clip-path="url(#p8c8359ade6)" style="fill: url(#hc828506ce6); stroke: #000000"/>
   </g>
   <g id="PolyCollection_67">
    <defs>
     <path id="m682b3d6e3d" d="M 596.663306 -224.728173 
L 596.663306 -255.743558 
L 645.886535 -255.743558 
L 645.886535 -224.728173 
z
" style="stroke: #000000"/>
    </defs>
    <g clip-path="url(#p8c8359ade6)">
     <use xlink:href="#m682b3d6e3d" x="0" y="414.25875" style="fill: #d62728; stroke: #000000"/>
    </g>
   </g>
   <g id="PolyCollection_68">
    <path d="M 596.663306 189.530577 
L 596.663306 158.515192 
L 596.663306 158.515192 
L 596.663306 189.530577 
z
" clip-path="url(#p8c8359ade6)" style="fill: url(#hc828506ce6); stroke: #000000"/>
   </g>
   <g id="PolyCollection_69">
    <defs>
     <path id="m47041b9bfd" d="M 645.886535 -224.728173 
L 645.886535 -255.743558 
L 695.109765 -255.743558 
L 695.109765 -224.728173 
z
" style="stroke: #000000"/>
    </defs>
    <g clip-path="url(#p8c8359ade6)">
     <use xlink:href="#m47041b9bfd" x="0" y="414.25875" style="fill: #4c78a8; stroke: #000000"/>
    </g>
   </g>
   <g id="PolyCollection_70">
    <path d="M 645.886535 189.530577 
L 645.886535 158.515192 
L 645.886535 158.515192 
L 645.886535 189.530577 
z
" clip-path="url(#p8c8359ade6)" style="fill: url(#hc828506ce6); stroke: #000000"/>
   </g>
   <g id="PolyCollection_71">
    <defs>
     <path id="m6d37b4dd3b" d="M 195.083791 -263.497404 
L 195.083791 -294.512788 
L 286.967153 -294.512788 
L 286.967153 -263.497404 
z
" style="stroke: #000000"/>
    </defs>
    <g clip-path="url(#p8c8359ade6)">
     <use xlink:href="#m6d37b4dd3b" x="0" y="414.25875" style="fill: #f67e7d; stroke: #000000"/>
    </g>
   </g>
   <g id="PolyCollection_72">
    <path d="M 195.083791 150.761346 
L 195.083791 119.745962 
L 195.083791 119.745962 
L 195.083791 150.761346 
z
" clip-path="url(#p8c8359ade6)" style="fill: url(#hc828506ce6); stroke: #000000"/>
   </g>
   <g id="PolyCollection_73">
    <defs>
     <path id="mde1f16f544" d="M 295.581218 -263.497404 
L 295.581218 -294.512788 
L 387.46458 -294.512788 
L 387.46458 -263.497404 
z
" style="stroke: #000000"/>
    </defs>
    <g clip-path="url(#p8c8359ade6)">
     <use xlink:href="#mde1f16f544" x="0" y="414.25875" style="fill: #fee0d2; stroke: #000000"/>
    </g>
   </g>
   <g id="PolyCollection_74">
    <path d="M 295.581218 150.761346 
L 295.581218 119.745962 
L 295.581218 119.745962 
L 295.581218 150.761346 
z
" clip-path="url(#p8c8359ade6)" style="fill: url(#hc828506ce6); stroke: #000000"/>
   </g>
   <g id="PolyCollection_75">
    <defs>
     <path id="ma282d3d6bd" d="M 387.46458 -263.497404 
L 387.46458 -294.512788 
L 461.299424 -294.512788 
L 461.299424 -263.497404 
z
" style="stroke: #000000"/>
    </defs>
    <g clip-path="url(#p8c8359ade6)">
     <use xlink:href="#ma282d3d6bd" x="0" y="414.25875" style="fill: #c6dbef; stroke: #000000"/>
    </g>
   </g>
   <g id="PolyCollection_76">
    <path d="M 387.46458 150.761346 
L 387.46458 119.745962 
L 387.46458 119.745962 
L 387.46458 150.761346 
z
" clip-path="url(#p8c8359ade6)" style="fill: url(#hc828506ce6); stroke: #000000"/>
   </g>
   <g id="PolyCollection_77">
    <defs>
     <path id="m417126dc08" d="M 461.299424 -263.497404 
L 461.299424 -294.512788 
L 531.032333 -294.512788 
L 531.032333 -263.497404 
z
" style="stroke: #000000"/>
    </defs>
    <g clip-path="url(#p8c8359ade6)">
     <use xlink:href="#m417126dc08" x="0" y="414.25875" style="fill: #9ecae1; stroke: #000000"/>
    </g>
   </g>
   <g id="PolyCollection_78">
    <path d="M 461.299424 150.761346 
L 461.299424 119.745962 
L 461.299424 119.745962 
L 461.299424 150.761346 
z
" clip-path="url(#p8c8359ade6)" style="fill: url(#hc828506ce6); stroke: #000000"/>
   </g>
   <g id="PolyCollection_79">
    <defs>
     <path id="me94d552799" d="M 531.032333 -263.497404 
L 531.032333 -294.512788 
L 570.000723 -294.512788 
L 570.000723 -263.497404 
z
" style="stroke: #000000"/>
    </defs>
    <g clip-path="url(#p8c8359ade6)">
     <use xlink:href="#me94d552799" x="0" y="414.25875" style="fill: #4c78a8; stroke: #000000"/>
    </g>
   </g>
   <g id="PolyCollection_80">
    <path d="M 531.032333 150.761346 
L 531.032333 119.745962 
L 531.032333 119.745962 
L 531.032333 150.761346 
z
" clip-path="url(#p8c8359ade6)" style="fill: url(#hc828506ce6); stroke: #000000"/>
   </g>
   <g id="PolyCollection_81">
    <defs>
     <path id="m444f66c14b" d="M 580.255562 -263.497404 
L 580.255562 -294.512788 
L 641.784599 -294.512788 
L 641.784599 -263.497404 
z
" style="stroke: #000000"/>
    </defs>
    <g clip-path="url(#p8c8359ade6)">
     <use xlink:href="#m444f66c14b" x="0" y="414.25875" style="fill: #fc9272; stroke: #000000"/>
    </g>
   </g>
   <g id="PolyCollection_82">
    <path d="M 580.255562 150.761346 
L 580.255562 119.745962 
L 580.255562 119.745962 
L 580.255562 150.761346 
z
" clip-path="url(#p8c8359ade6)" style="fill: url(#hc828506ce6); stroke: #000000"/>
   </g>
   <g id="PolyCollection_83">
    <defs>
     <path id="m5c745fcf73" d="M 641.784599 -263.497404 
L 641.784599 -294.512788 
L 703.313636 -294.512788 
L 703.313636 -263.497404 
z
" style="stroke: #000000"/>
    </defs>
    <g clip-path="url(#p8c8359ade6)">
     <use xlink:href="#m5c745fcf73" x="0" y="414.25875" style="fill: #9467bd; stroke: #000000"/>
    </g>
   </g>
   <g id="PolyCollection_84">
    <path d="M 641.784599 150.761346 
L 641.784599 119.745962 
L 641.784599 119.745962 
L 641.784599 150.761346 
z
" clip-path="url(#p8c8359ade6)" style="fill: url(#hc828506ce6); stroke: #000000"/>
   </g>
   <g id="PolyCollection_85">
    <defs>
     <path id="m744df66654" d="M 346.445222 -302.266635 
L 346.445222 -333.282019 
L 407.974259 -333.282019 
L 407.974259 -302.266635 
z
" style="stroke: #000000"/>
    </defs>
    <g clip-path="url(#p8c8359ade6)">
     <use xlink:href="#m744df66654" x="0" y="414.25875" style="fill: #f67e7d; stroke: #000000"/>
    </g>
   </g>
   <g id="PolyCollection_86">
    <path d="M 346.445222 111.992115 
L 346.445222 80.976731 
L 346.445222 80.976731 
L 346.445222 111.992115 
z
" clip-path="url(#p8c8359ade6)" style="fill: url(#hc828506ce6); stroke: #000000"/>
   </g>
   <g id="PolyCollection_87">
    <defs>
     <path id="m86491b7d57" d="M 506.420718 -302.266635 
L 506.420718 -333.282019 
L 567.949755 -333.282019 
L 567.949755 -302.266635 
z
" style="stroke: #000000"/>
    </defs>
    <g clip-path="url(#p8c8359ade6)">
     <use xlink:href="#m86491b7d57" x="0" y="414.25875" style="fill: #fee0d2; stroke: #000000"/>
    </g>
   </g>
   <g id="PolyCollection_88">
    <path d="M 506.420718 111.992115 
L 506.420718 80.976731 
L 506.420718 80.976731 
L 506.420718 111.992115 
z
" clip-path="url(#p8c8359ade6)" style="fill: url(#hc828506ce6); stroke: #000000"/>
   </g>
   <g id="PolyCollection_89">
    <defs>
     <path id="m0929154b12" d="M 645.886535 -302.266635 
L 645.886535 -333.282019 
L 666.396214 -333.282019 
L 666.396214 -302.266635 
z
" style="stroke: #000000"/>
    </defs>
    <g clip-path="url(#p8c8359ade6)">
     <use xlink:href="#m0929154b12" x="0" y="414.25875" style="fill: #d62728; stroke: #000000"/>
    </g>
   </g>
   <g id="PolyCollection_90">
    <path d="M 645.886535 111.992115 
L 645.886535 80.976731 
L 645.886535 80.976731 
L 645.886535 111.992115 
z
" clip-path="url(#p8c8359ade6)" style="fill: url(#hc828506ce6); stroke: #000000"/>
   </g>
   <g id="PolyCollection_91">
    <defs>
     <path id="m499cc83cb7" d="M 446.942649 -341.035865 
L 446.942649 -372.05125 
L 514.62459 -372.05125 
L 514.62459 -341.035865 
z
" style="stroke: #000000"/>
    </defs>
    <g clip-path="url(#p8c8359ade6)">
     <use xlink:href="#m499cc83cb7" x="0" y="414.25875" style="fill: #6395b9; stroke: #000000"/>
    </g>
   </g>
   <g id="PolyCollection_92">
    <path d="M 446.942649 73.222885 
L 446.942649 42.2075 
L 446.942649 42.2075 
L 446.942649 73.222885 
z
" clip-path="url(#p8c8359ade6)" style="fill: url(#hc828506ce6); stroke: #000000"/>
   </g>
   <g id="PolyCollection_93">
    <defs>
     <path id="mfedbeada84" d="M 514.62459 -341.035865 
L 514.62459 -372.05125 
L 608.969113 -372.05125 
L 608.969113 -341.035865 
z
" style="stroke: #000000"/>
    </defs>
    <g clip-path="url(#p8c8359ade6)">
     <use xlink:href="#mfedbeada84" x="0" y="414.25875" style="fill: #8c6bb1; stroke: #000000"/>
    </g>
   </g>
   <g id="PolyCollection_94">
    <path d="M 514.62459 73.222885 
L 514.62459 42.2075 
L 514.62459 42.2075 
L 514.62459 73.222885 
z
" clip-path="url(#p8c8359ade6)" style="fill: url(#hc828506ce6); stroke: #000000"/>
   </g>
   <g id="PolyCollection_95">
    <defs>
     <path id="mcc55531a90" d="M 608.969113 -341.035865 
L 608.969113 -372.05125 
L 668.447182 -372.05125 
L 668.447182 -341.035865 
z
" style="stroke: #000000"/>
    </defs>
    <g clip-path="url(#p8c8359ade6)">
     <use xlink:href="#mcc55531a90" x="0" y="414.25875" style="fill: #1f77b4; stroke: #000000"/>
    </g>
   </g>
   <g id="PolyCollection_96">
    <path d="M 608.969113 73.222885 
L 608.969113 42.2075 
L 608.969113 42.2075 
L 608.969113 73.222885 
z
" clip-path="url(#p8c8359ade6)" style="fill: url(#hc828506ce6); stroke: #000000"/>
   </g>
   <g id="matplotlib.axis_1">
    <g id="xtick_1">
     <g id="line2d_1">
      <defs>
       <path id="m45162dfb09" d="M 0 0 
L 0 3.5 
" style="stroke: #000000; stroke-width: 0.8"/>
      </defs>
      <g>
       <use xlink:href="#m45162dfb09" x="94.586364" y="359.7275" style="stroke: #000000; stroke-width: 0.8"/>
      </g>
     </g>
     <g id="text_1">
      <!-- 0 -->
      <g transform="translate(89.586364 380.615) scale(0.2 -0.2)">
       <defs>
        <path id="TimesNewRomanPSMT-30" d="M 231 2094 
Q 231 2819 450 3342 
Q 669 3866 1031 4122 
Q 1313 4325 1613 4325 
Q 2100 4325 2488 3828 
Q 2972 3213 2972 2159 
Q 2972 1422 2759 906 
Q 2547 391 2217 158 
Q 1888 -75 1581 -75 
Q 975 -75 572 641 
Q 231 1244 231 2094 
z
M 844 2016 
Q 844 1141 1059 588 
Q 1238 122 1591 122 
Q 1759 122 1940 273 
Q 2122 425 2216 781 
Q 2359 1319 2359 2297 
Q 2359 3022 2209 3506 
Q 2097 3866 1919 4016 
Q 1791 4119 1609 4119 
Q 1397 4119 1231 3928 
Q 1006 3669 925 3112 
Q 844 2556 844 2016 
z
" transform="scale(0.015625)"/>
       </defs>
       <use xlink:href="#TimesNewRomanPSMT-30"/>
      </g>
     </g>
    </g>
    <g id="xtick_2">
     <g id="line2d_2">
      <g>
       <use xlink:href="#m45162dfb09" x="176.62508" y="359.7275" style="stroke: #000000; stroke-width: 0.8"/>
      </g>
     </g>
     <g id="text_2">
      <!-- 200 -->
      <g transform="translate(161.62508 380.615) scale(0.2 -0.2)">
       <defs>
        <path id="TimesNewRomanPSMT-32" d="M 2934 816 
L 2638 0 
L 138 0 
L 138 116 
Q 1241 1122 1691 1759 
Q 2141 2397 2141 2925 
Q 2141 3328 1894 3587 
Q 1647 3847 1303 3847 
Q 991 3847 742 3664 
Q 494 3481 375 3128 
L 259 3128 
Q 338 3706 661 4015 
Q 984 4325 1469 4325 
Q 1984 4325 2329 3994 
Q 2675 3663 2675 3213 
Q 2675 2891 2525 2569 
Q 2294 2063 1775 1497 
Q 997 647 803 472 
L 1909 472 
Q 2247 472 2383 497 
Q 2519 522 2628 598 
Q 2738 675 2819 816 
L 2934 816 
z
" transform="scale(0.015625)"/>
       </defs>
       <use xlink:href="#TimesNewRomanPSMT-32"/>
       <use xlink:href="#TimesNewRomanPSMT-30" x="50"/>
       <use xlink:href="#TimesNewRomanPSMT-30" x="100"/>
      </g>
     </g>
    </g>
    <g id="xtick_3">
     <g id="line2d_3">
      <g>
       <use xlink:href="#m45162dfb09" x="258.663796" y="359.7275" style="stroke: #000000; stroke-width: 0.8"/>
      </g>
     </g>
     <g id="text_3">
      <!-- 400 -->
      <g transform="translate(243.663796 380.615) scale(0.2 -0.2)">
       <defs>
        <path id="TimesNewRomanPSMT-34" d="M 2978 1563 
L 2978 1119 
L 2409 1119 
L 2409 0 
L 1894 0 
L 1894 1119 
L 100 1119 
L 100 1519 
L 2066 4325 
L 2409 4325 
L 2409 1563 
L 2978 1563 
z
M 1894 1563 
L 1894 3666 
L 406 1563 
L 1894 1563 
z
" transform="scale(0.015625)"/>
       </defs>
       <use xlink:href="#TimesNewRomanPSMT-34"/>
       <use xlink:href="#TimesNewRomanPSMT-30" x="50"/>
       <use xlink:href="#TimesNewRomanPSMT-30" x="100"/>
      </g>
     </g>
    </g>
    <g id="xtick_4">
     <g id="line2d_4">
      <g>
       <use xlink:href="#m45162dfb09" x="340.702512" y="359.7275" style="stroke: #000000; stroke-width: 0.8"/>
      </g>
     </g>
     <g id="text_4">
      <!-- 600 -->
      <g transform="translate(325.702512 380.615) scale(0.2 -0.2)">
       <defs>
        <path id="TimesNewRomanPSMT-36" d="M 2869 4325 
L 2869 4209 
Q 2456 4169 2195 4045 
Q 1934 3922 1679 3669 
Q 1425 3416 1258 3105 
Q 1091 2794 978 2366 
Q 1428 2675 1881 2675 
Q 2316 2675 2634 2325 
Q 2953 1975 2953 1425 
Q 2953 894 2631 456 
Q 2244 -75 1606 -75 
Q 1172 -75 869 213 
Q 275 772 275 1663 
Q 275 2231 503 2743 
Q 731 3256 1154 3653 
Q 1578 4050 1965 4187 
Q 2353 4325 2688 4325 
L 2869 4325 
z
M 925 2138 
Q 869 1716 869 1456 
Q 869 1156 980 804 
Q 1091 453 1309 247 
Q 1469 100 1697 100 
Q 1969 100 2183 356 
Q 2397 613 2397 1088 
Q 2397 1622 2184 2012 
Q 1972 2403 1581 2403 
Q 1463 2403 1327 2353 
Q 1191 2303 925 2138 
z
" transform="scale(0.015625)"/>
       </defs>
       <use xlink:href="#TimesNewRomanPSMT-36"/>
       <use xlink:href="#TimesNewRomanPSMT-30" x="50"/>
       <use xlink:href="#TimesNewRomanPSMT-30" x="100"/>
      </g>
     </g>
    </g>
    <g id="xtick_5">
     <g id="line2d_5">
      <g>
       <use xlink:href="#m45162dfb09" x="422.741228" y="359.7275" style="stroke: #000000; stroke-width: 0.8"/>
      </g>
     </g>
     <g id="text_5">
      <!-- 800 -->
      <g transform="translate(407.741228 380.615) scale(0.2 -0.2)">
       <defs>
        <path id="TimesNewRomanPSMT-38" d="M 1228 2134 
Q 725 2547 579 2797 
Q 434 3047 434 3316 
Q 434 3728 753 4026 
Q 1072 4325 1600 4325 
Q 2113 4325 2425 4047 
Q 2738 3769 2738 3413 
Q 2738 3175 2569 2928 
Q 2400 2681 1866 2347 
Q 2416 1922 2594 1678 
Q 2831 1359 2831 1006 
Q 2831 559 2490 242 
Q 2150 -75 1597 -75 
Q 994 -75 656 303 
Q 388 606 388 966 
Q 388 1247 577 1523 
Q 766 1800 1228 2134 
z
M 1719 2469 
Q 2094 2806 2194 3001 
Q 2294 3197 2294 3444 
Q 2294 3772 2109 3958 
Q 1925 4144 1606 4144 
Q 1288 4144 1088 3959 
Q 888 3775 888 3528 
Q 888 3366 970 3203 
Q 1053 3041 1206 2894 
L 1719 2469 
z
M 1375 2016 
Q 1116 1797 991 1539 
Q 866 1281 866 981 
Q 866 578 1086 336 
Q 1306 94 1647 94 
Q 1984 94 2187 284 
Q 2391 475 2391 747 
Q 2391 972 2272 1150 
Q 2050 1481 1375 2016 
z
" transform="scale(0.015625)"/>
       </defs>
       <use xlink:href="#TimesNewRomanPSMT-38"/>
       <use xlink:href="#TimesNewRomanPSMT-30" x="50"/>
       <use xlink:href="#TimesNewRomanPSMT-30" x="100"/>
      </g>
     </g>
    </g>
    <g id="xtick_6">
     <g id="line2d_6">
      <g>
       <use xlink:href="#m45162dfb09" x="504.779944" y="359.7275" style="stroke: #000000; stroke-width: 0.8"/>
      </g>
     </g>
     <g id="text_6">
      <!-- 1000 -->
      <g transform="translate(484.779944 380.615) scale(0.2 -0.2)">
       <defs>
        <path id="TimesNewRomanPSMT-31" d="M 750 3822 
L 1781 4325 
L 1884 4325 
L 1884 747 
Q 1884 391 1914 303 
Q 1944 216 2037 169 
Q 2131 122 2419 116 
L 2419 0 
L 825 0 
L 825 116 
Q 1125 122 1212 167 
Q 1300 213 1334 289 
Q 1369 366 1369 747 
L 1369 3034 
Q 1369 3497 1338 3628 
Q 1316 3728 1258 3775 
Q 1200 3822 1119 3822 
Q 1003 3822 797 3725 
L 750 3822 
z
" transform="scale(0.015625)"/>
       </defs>
       <use xlink:href="#TimesNewRomanPSMT-31"/>
       <use xlink:href="#TimesNewRomanPSMT-30" x="50"/>
       <use xlink:href="#TimesNewRomanPSMT-30" x="100"/>
       <use xlink:href="#TimesNewRomanPSMT-30" x="150"/>
      </g>
     </g>
    </g>
    <g id="xtick_7">
     <g id="line2d_7">
      <g>
       <use xlink:href="#m45162dfb09" x="586.81866" y="359.7275" style="stroke: #000000; stroke-width: 0.8"/>
      </g>
     </g>
     <g id="text_7">
      <!-- 1200 -->
      <g transform="translate(566.81866 380.615) scale(0.2 -0.2)">
       <use xlink:href="#TimesNewRomanPSMT-31"/>
       <use xlink:href="#TimesNewRomanPSMT-32" x="50"/>
       <use xlink:href="#TimesNewRomanPSMT-30" x="100"/>
       <use xlink:href="#TimesNewRomanPSMT-30" x="150"/>
      </g>
     </g>
    </g>
    <g id="xtick_8">
     <g id="line2d_8">
      <g>
       <use xlink:href="#m45162dfb09" x="668.857376" y="359.7275" style="stroke: #000000; stroke-width: 0.8"/>
      </g>
     </g>
     <g id="text_8">
      <!-- 1400 -->
      <g transform="translate(648.857376 380.615) scale(0.2 -0.2)">
       <use xlink:href="#TimesNewRomanPSMT-31"/>
       <use xlink:href="#TimesNewRomanPSMT-34" x="50"/>
       <use xlink:href="#TimesNewRomanPSMT-30" x="100"/>
       <use xlink:href="#TimesNewRomanPSMT-30" x="150"/>
      </g>
     </g>
    </g>
    <g id="text_9">
     <!-- Time -->
     <g transform="translate(378.196875 402.780625) scale(0.2 -0.2)">
      <defs>
       <path id="TimesNewRomanPSMT-54" d="M 3703 4238 
L 3750 3244 
L 3631 3244 
Q 3597 3506 3538 3619 
Q 3441 3800 3280 3886 
Q 3119 3972 2856 3972 
L 2259 3972 
L 2259 734 
Q 2259 344 2344 247 
Q 2463 116 2709 116 
L 2856 116 
L 2856 0 
L 1059 0 
L 1059 116 
L 1209 116 
Q 1478 116 1591 278 
Q 1659 378 1659 734 
L 1659 3972 
L 1150 3972 
Q 853 3972 728 3928 
Q 566 3869 450 3700 
Q 334 3531 313 3244 
L 194 3244 
L 244 4238 
L 3703 4238 
z
" transform="scale(0.015625)"/>
       <path id="TimesNewRomanPSMT-69" d="M 928 4444 
Q 1059 4444 1151 4351 
Q 1244 4259 1244 4128 
Q 1244 3997 1151 3903 
Q 1059 3809 928 3809 
Q 797 3809 703 3903 
Q 609 3997 609 4128 
Q 609 4259 701 4351 
Q 794 4444 928 4444 
z
M 1188 2947 
L 1188 647 
Q 1188 378 1227 289 
Q 1266 200 1342 156 
Q 1419 113 1622 113 
L 1622 0 
L 231 0 
L 231 113 
Q 441 113 512 153 
Q 584 194 626 287 
Q 669 381 669 647 
L 669 1750 
Q 669 2216 641 2353 
Q 619 2453 572 2492 
Q 525 2531 444 2531 
Q 356 2531 231 2484 
L 188 2597 
L 1050 2947 
L 1188 2947 
z
" transform="scale(0.015625)"/>
       <path id="TimesNewRomanPSMT-6d" d="M 1050 2338 
Q 1363 2650 1419 2697 
Q 1559 2816 1721 2881 
Q 1884 2947 2044 2947 
Q 2313 2947 2506 2790 
Q 2700 2634 2766 2338 
Q 3088 2713 3309 2830 
Q 3531 2947 3766 2947 
Q 3994 2947 4170 2830 
Q 4347 2713 4450 2447 
Q 4519 2266 4519 1878 
L 4519 647 
Q 4519 378 4559 278 
Q 4591 209 4675 161 
Q 4759 113 4950 113 
L 4950 0 
L 3538 0 
L 3538 113 
L 3597 113 
Q 3781 113 3884 184 
Q 3956 234 3988 344 
Q 4000 397 4000 647 
L 4000 1878 
Q 4000 2228 3916 2372 
Q 3794 2572 3525 2572 
Q 3359 2572 3192 2489 
Q 3025 2406 2788 2181 
L 2781 2147 
L 2788 2013 
L 2788 647 
Q 2788 353 2820 281 
Q 2853 209 2943 161 
Q 3034 113 3253 113 
L 3253 0 
L 1806 0 
L 1806 113 
Q 2044 113 2133 169 
Q 2222 225 2256 338 
Q 2272 391 2272 647 
L 2272 1878 
Q 2272 2228 2169 2381 
Q 2031 2581 1784 2581 
Q 1616 2581 1450 2491 
Q 1191 2353 1050 2181 
L 1050 647 
Q 1050 366 1089 281 
Q 1128 197 1204 155 
Q 1281 113 1516 113 
L 1516 0 
L 100 0 
L 100 113 
Q 297 113 375 155 
Q 453 197 493 289 
Q 534 381 534 647 
L 534 1741 
Q 534 2213 506 2350 
Q 484 2453 437 2492 
Q 391 2531 309 2531 
Q 222 2531 100 2484 
L 53 2597 
L 916 2947 
L 1050 2947 
L 1050 2338 
z
" transform="scale(0.015625)"/>
       <path id="TimesNewRomanPSMT-65" d="M 681 1784 
Q 678 1147 991 784 
Q 1303 422 1725 422 
Q 2006 422 2214 576 
Q 2422 731 2563 1106 
L 2659 1044 
Q 2594 616 2278 264 
Q 1963 -88 1488 -88 
Q 972 -88 605 314 
Q 238 716 238 1394 
Q 238 2128 614 2539 
Q 991 2950 1559 2950 
Q 2041 2950 2350 2633 
Q 2659 2316 2659 1784 
L 681 1784 
z
M 681 1966 
L 2006 1966 
Q 1991 2241 1941 2353 
Q 1863 2528 1708 2628 
Q 1553 2728 1384 2728 
Q 1125 2728 920 2526 
Q 716 2325 681 1966 
z
" transform="scale(0.015625)"/>
      </defs>
      <use xlink:href="#TimesNewRomanPSMT-54"/>
      <use xlink:href="#TimesNewRomanPSMT-69" x="57.583984"/>
      <use xlink:href="#TimesNewRomanPSMT-6d" x="85.367188"/>
      <use xlink:href="#TimesNewRomanPSMT-65" x="163.150391"/>
     </g>
    </g>
   </g>
   <g id="matplotlib.axis_2">
    <g id="ytick_1">
     <g id="line2d_9">
      <defs>
       <path id="m4ba7ed442a" d="M 0 0 
L -3.5 0 
" style="stroke: #000000; stroke-width: 0.8"/>
      </defs>
      <g>
       <use xlink:href="#m4ba7ed442a" x="64.15" y="329.099808" style="stroke: #000000; stroke-width: 0.8"/>
      </g>
     </g>
     <g id="text_10">
      <!-- M1 -->
      <g transform="translate(29.365625 336.043558) scale(0.2 -0.2)">
       <defs>
        <path id="TimesNewRomanPSMT-4d" d="M 2619 0 
L 981 3566 
L 981 734 
Q 981 344 1066 247 
Q 1181 116 1431 116 
L 1581 116 
L 1581 0 
L 106 0 
L 106 116 
L 256 116 
Q 525 116 638 278 
Q 706 378 706 734 
L 706 3503 
Q 706 3784 644 3909 
Q 600 4000 483 4061 
Q 366 4122 106 4122 
L 106 4238 
L 1306 4238 
L 2844 922 
L 4356 4238 
L 5556 4238 
L 5556 4122 
L 5409 4122 
Q 5138 4122 5025 3959 
Q 4956 3859 4956 3503 
L 4956 734 
Q 4956 344 5044 247 
Q 5159 116 5409 116 
L 5556 116 
L 5556 0 
L 3756 0 
L 3756 116 
L 3906 116 
Q 4178 116 4288 278 
Q 4356 378 4356 734 
L 4356 3566 
L 2722 0 
L 2619 0 
z
" transform="scale(0.015625)"/>
       </defs>
       <use xlink:href="#TimesNewRomanPSMT-4d"/>
       <use xlink:href="#TimesNewRomanPSMT-31" x="88.916016"/>
      </g>
     </g>
    </g>
    <g id="ytick_2">
     <g id="line2d_10">
      <g>
       <use xlink:href="#m4ba7ed442a" x="64.15" y="290.330577" style="stroke: #000000; stroke-width: 0.8"/>
      </g>
     </g>
     <g id="text_11">
      <!-- M2 -->
      <g transform="translate(29.365625 297.274327) scale(0.2 -0.2)">
       <use xlink:href="#TimesNewRomanPSMT-4d"/>
       <use xlink:href="#TimesNewRomanPSMT-32" x="88.916016"/>
      </g>
     </g>
    </g>
    <g id="ytick_3">
     <g id="line2d_11">
      <g>
       <use xlink:href="#m4ba7ed442a" x="64.15" y="251.561346" style="stroke: #000000; stroke-width: 0.8"/>
      </g>
     </g>
     <g id="text_12">
      <!-- M3 -->
      <g transform="translate(29.365625 258.505096) scale(0.2 -0.2)">
       <defs>
        <path id="TimesNewRomanPSMT-33" d="M 325 3431 
Q 506 3859 782 4092 
Q 1059 4325 1472 4325 
Q 1981 4325 2253 3994 
Q 2459 3747 2459 3466 
Q 2459 3003 1878 2509 
Q 2269 2356 2469 2072 
Q 2669 1788 2669 1403 
Q 2669 853 2319 450 
Q 1863 -75 997 -75 
Q 569 -75 414 31 
Q 259 138 259 259 
Q 259 350 332 419 
Q 406 488 509 488 
Q 588 488 669 463 
Q 722 447 909 348 
Q 1097 250 1169 231 
Q 1284 197 1416 197 
Q 1734 197 1970 444 
Q 2206 691 2206 1028 
Q 2206 1275 2097 1509 
Q 2016 1684 1919 1775 
Q 1784 1900 1550 2001 
Q 1316 2103 1072 2103 
L 972 2103 
L 972 2197 
Q 1219 2228 1467 2375 
Q 1716 2522 1828 2728 
Q 1941 2934 1941 3181 
Q 1941 3503 1739 3701 
Q 1538 3900 1238 3900 
Q 753 3900 428 3381 
L 325 3431 
z
" transform="scale(0.015625)"/>
       </defs>
       <use xlink:href="#TimesNewRomanPSMT-4d"/>
       <use xlink:href="#TimesNewRomanPSMT-33" x="88.916016"/>
      </g>
     </g>
    </g>
    <g id="ytick_4">
     <g id="line2d_12">
      <g>
       <use xlink:href="#m4ba7ed442a" x="64.15" y="212.792115" style="stroke: #000000; stroke-width: 0.8"/>
      </g>
     </g>
     <g id="text_13">
      <!-- M4 -->
      <g transform="translate(29.365625 219.735865) scale(0.2 -0.2)">
       <use xlink:href="#TimesNewRomanPSMT-4d"/>
       <use xlink:href="#TimesNewRomanPSMT-34" x="88.916016"/>
      </g>
     </g>
    </g>
    <g id="ytick_5">
     <g id="line2d_13">
      <g>
       <use xlink:href="#m4ba7ed442a" x="64.15" y="174.022885" style="stroke: #000000; stroke-width: 0.8"/>
      </g>
     </g>
     <g id="text_14">
      <!-- M5 -->
      <g transform="translate(29.365625 180.966635) scale(0.2 -0.2)">
       <defs>
        <path id="TimesNewRomanPSMT-35" d="M 2778 4238 
L 2534 3706 
L 1259 3706 
L 981 3138 
Q 1809 3016 2294 2522 
Q 2709 2097 2709 1522 
Q 2709 1188 2573 903 
Q 2438 619 2231 419 
Q 2025 219 1772 97 
Q 1413 -75 1034 -75 
Q 653 -75 479 54 
Q 306 184 306 341 
Q 306 428 378 495 
Q 450 563 559 563 
Q 641 563 702 538 
Q 763 513 909 409 
Q 1144 247 1384 247 
Q 1750 247 2026 523 
Q 2303 800 2303 1197 
Q 2303 1581 2056 1914 
Q 1809 2247 1375 2428 
Q 1034 2569 447 2591 
L 1259 4238 
L 2778 4238 
z
" transform="scale(0.015625)"/>
       </defs>
       <use xlink:href="#TimesNewRomanPSMT-4d"/>
       <use xlink:href="#TimesNewRomanPSMT-35" x="88.916016"/>
      </g>
     </g>
    </g>
    <g id="ytick_6">
     <g id="line2d_14">
      <g>
       <use xlink:href="#m4ba7ed442a" x="64.15" y="135.253654" style="stroke: #000000; stroke-width: 0.8"/>
      </g>
     </g>
     <g id="text_15">
      <!-- M6 -->
      <g transform="translate(29.365625 142.197404) scale(0.2 -0.2)">
       <use xlink:href="#TimesNewRomanPSMT-4d"/>
       <use xlink:href="#TimesNewRomanPSMT-36" x="88.916016"/>
      </g>
     </g>
    </g>
    <g id="ytick_7">
     <g id="line2d_15">
      <g>
       <use xlink:href="#m4ba7ed442a" x="64.15" y="96.484423" style="stroke: #000000; stroke-width: 0.8"/>
      </g>
     </g>
     <g id="text_16">
      <!-- M7 -->
      <g transform="translate(29.365625 103.428173) scale(0.2 -0.2)">
       <defs>
        <path id="TimesNewRomanPSMT-37" d="M 644 4238 
L 2916 4238 
L 2916 4119 
L 1503 -88 
L 1153 -88 
L 2419 3728 
L 1253 3728 
Q 900 3728 750 3644 
Q 488 3500 328 3200 
L 238 3234 
L 644 4238 
z
" transform="scale(0.015625)"/>
       </defs>
       <use xlink:href="#TimesNewRomanPSMT-4d"/>
       <use xlink:href="#TimesNewRomanPSMT-37" x="88.916016"/>
      </g>
     </g>
    </g>
    <g id="ytick_8">
     <g id="line2d_16">
      <g>
       <use xlink:href="#m4ba7ed442a" x="64.15" y="57.715192" style="stroke: #000000; stroke-width: 0.8"/>
      </g>
     </g>
     <g id="text_17">
      <!-- M8 -->
      <g transform="translate(29.365625 64.658942) scale(0.2 -0.2)">
       <use xlink:href="#TimesNewRomanPSMT-4d"/>
       <use xlink:href="#TimesNewRomanPSMT-38" x="88.916016"/>
      </g>
     </g>
    </g>
    <g id="text_18">
     <!-- Machine -->
     <g transform="translate(21.0875 228.395) rotate(-90) scale(0.2 -0.2)">
      <defs>
       <path id="TimesNewRomanPSMT-61" d="M 1822 413 
Q 1381 72 1269 19 
Q 1100 -59 909 -59 
Q 613 -59 420 144 
Q 228 347 228 678 
Q 228 888 322 1041 
Q 450 1253 767 1440 
Q 1084 1628 1822 1897 
L 1822 2009 
Q 1822 2438 1686 2597 
Q 1550 2756 1291 2756 
Q 1094 2756 978 2650 
Q 859 2544 859 2406 
L 866 2225 
Q 866 2081 792 2003 
Q 719 1925 600 1925 
Q 484 1925 411 2006 
Q 338 2088 338 2228 
Q 338 2497 613 2722 
Q 888 2947 1384 2947 
Q 1766 2947 2009 2819 
Q 2194 2722 2281 2516 
Q 2338 2381 2338 1966 
L 2338 994 
Q 2338 584 2353 492 
Q 2369 400 2405 369 
Q 2441 338 2488 338 
Q 2538 338 2575 359 
Q 2641 400 2828 588 
L 2828 413 
Q 2478 -56 2159 -56 
Q 2006 -56 1915 50 
Q 1825 156 1822 413 
z
M 1822 616 
L 1822 1706 
Q 1350 1519 1213 1441 
Q 966 1303 859 1153 
Q 753 1003 753 825 
Q 753 600 887 451 
Q 1022 303 1197 303 
Q 1434 303 1822 616 
z
" transform="scale(0.015625)"/>
       <path id="TimesNewRomanPSMT-63" d="M 2631 1088 
Q 2516 522 2178 217 
Q 1841 -88 1431 -88 
Q 944 -88 581 321 
Q 219 731 219 1428 
Q 219 2103 620 2525 
Q 1022 2947 1584 2947 
Q 2006 2947 2278 2723 
Q 2550 2500 2550 2259 
Q 2550 2141 2473 2067 
Q 2397 1994 2259 1994 
Q 2075 1994 1981 2113 
Q 1928 2178 1911 2362 
Q 1894 2547 1784 2644 
Q 1675 2738 1481 2738 
Q 1169 2738 978 2506 
Q 725 2200 725 1697 
Q 725 1184 976 792 
Q 1228 400 1656 400 
Q 1963 400 2206 609 
Q 2378 753 2541 1131 
L 2631 1088 
z
" transform="scale(0.015625)"/>
       <path id="TimesNewRomanPSMT-68" d="M 1041 4444 
L 1041 2350 
Q 1388 2731 1591 2839 
Q 1794 2947 1997 2947 
Q 2241 2947 2416 2812 
Q 2591 2678 2675 2391 
Q 2734 2191 2734 1659 
L 2734 647 
Q 2734 375 2778 275 
Q 2809 200 2884 156 
Q 2959 113 3159 113 
L 3159 0 
L 1753 0 
L 1753 113 
L 1819 113 
Q 2019 113 2097 173 
Q 2175 234 2206 353 
Q 2216 403 2216 647 
L 2216 1659 
Q 2216 2128 2167 2275 
Q 2119 2422 2012 2495 
Q 1906 2569 1756 2569 
Q 1603 2569 1437 2487 
Q 1272 2406 1041 2159 
L 1041 647 
Q 1041 353 1073 281 
Q 1106 209 1195 161 
Q 1284 113 1503 113 
L 1503 0 
L 84 0 
L 84 113 
Q 275 113 384 172 
Q 447 203 484 290 
Q 522 378 522 647 
L 522 3238 
Q 522 3728 498 3840 
Q 475 3953 426 3993 
Q 378 4034 297 4034 
Q 231 4034 84 3984 
L 41 4094 
L 897 4444 
L 1041 4444 
z
" transform="scale(0.015625)"/>
       <path id="TimesNewRomanPSMT-6e" d="M 1034 2341 
Q 1538 2947 1994 2947 
Q 2228 2947 2397 2830 
Q 2566 2713 2666 2444 
Q 2734 2256 2734 1869 
L 2734 647 
Q 2734 375 2778 278 
Q 2813 200 2889 156 
Q 2966 113 3172 113 
L 3172 0 
L 1756 0 
L 1756 113 
L 1816 113 
Q 2016 113 2095 173 
Q 2175 234 2206 353 
Q 2219 400 2219 647 
L 2219 1819 
Q 2219 2209 2117 2386 
Q 2016 2563 1775 2563 
Q 1403 2563 1034 2156 
L 1034 647 
Q 1034 356 1069 288 
Q 1113 197 1189 155 
Q 1266 113 1500 113 
L 1500 0 
L 84 0 
L 84 113 
L 147 113 
Q 366 113 442 223 
Q 519 334 519 647 
L 519 1709 
Q 519 2225 495 2337 
Q 472 2450 423 2490 
Q 375 2531 294 2531 
Q 206 2531 84 2484 
L 38 2597 
L 900 2947 
L 1034 2947 
L 1034 2341 
z
" transform="scale(0.015625)"/>
      </defs>
      <use xlink:href="#TimesNewRomanPSMT-4d"/>
      <use xlink:href="#TimesNewRomanPSMT-61" x="88.916016"/>
      <use xlink:href="#TimesNewRomanPSMT-63" x="133.300781"/>
      <use xlink:href="#TimesNewRomanPSMT-68" x="177.685547"/>
      <use xlink:href="#TimesNewRomanPSMT-69" x="227.685547"/>
      <use xlink:href="#TimesNewRomanPSMT-6e" x="255.46875"/>
      <use xlink:href="#TimesNewRomanPSMT-65" x="305.46875"/>
     </g>
    </g>
   </g>
   <g id="patch_3">
    <path d="M 64.15 359.7275 
L 64.15 27.0875 
" style="fill: none; stroke: #000000; stroke-width: 0.8; stroke-linejoin: miter; stroke-linecap: square"/>
   </g>
   <g id="patch_4">
    <path d="M 733.75 359.7275 
L 733.75 27.0875 
" style="fill: none; stroke: #000000; stroke-width: 0.8; stroke-linejoin: miter; stroke-linecap: square"/>
   </g>
   <g id="patch_5">
    <path d="M 64.15 359.7275 
L 733.75 359.7275 
" style="fill: none; stroke: #000000; stroke-width: 0.8; stroke-linejoin: miter; stroke-linecap: square"/>
   </g>
   <g id="patch_6">
    <path d="M 64.15 27.0875 
L 733.75 27.0875 
" style="fill: none; stroke: #000000; stroke-width: 0.8; stroke-linejoin: miter; stroke-linecap: square"/>
   </g>
   <g id="text_19">
    <!-- 12 -->
    <g transform="translate(104.429784 332.943558) scale(0.16 -0.16)">
     <use xlink:href="#TimesNewRomanPSMT-31"/>
     <use xlink:href="#TimesNewRomanPSMT-32" x="50"/>
    </g>
   </g>
   <g id="text_20">
    <!-- 16 -->
    <g transform="translate(148.525594 332.943558) scale(0.16 -0.16)">
     <use xlink:href="#TimesNewRomanPSMT-31"/>
     <use xlink:href="#TimesNewRomanPSMT-36" x="50"/>
    </g>
   </g>
   <g id="text_21">
    <!-- 4 -->
    <g transform="translate(222.668696 332.943558) scale(0.16 -0.16)">
     <use xlink:href="#TimesNewRomanPSMT-34"/>
    </g>
   </g>
   <g id="text_22">
    <!-- 8 -->
    <g transform="translate(284.40283 332.943558) scale(0.16 -0.16)">
     <use xlink:href="#TimesNewRomanPSMT-38"/>
    </g>
   </g>
   <g id="text_23">
    <!-- 0 -->
    <g transform="translate(352.905158 332.943558) scale(0.16 -0.16)">
     <use xlink:href="#TimesNewRomanPSMT-30"/>
    </g>
   </g>
   <g id="text_24">
    <!-- 44 -->
    <g transform="translate(159.805918 294.174327) scale(0.16 -0.16)">
     <use xlink:href="#TimesNewRomanPSMT-34"/>
     <use xlink:href="#TimesNewRomanPSMT-34" x="50"/>
    </g>
   </g>
   <g id="text_25">
    <!-- 32 -->
    <g transform="translate(263.78999 294.174327) scale(0.16 -0.16)">
     <use xlink:href="#TimesNewRomanPSMT-33"/>
     <use xlink:href="#TimesNewRomanPSMT-32" x="50"/>
    </g>
   </g>
   <g id="text_26">
    <!-- 18 -->
    <g transform="translate(315.064188 294.174327) scale(0.16 -0.16)">
     <use xlink:href="#TimesNewRomanPSMT-31"/>
     <use xlink:href="#TimesNewRomanPSMT-38" x="50"/>
    </g>
   </g>
   <g id="text_27">
    <!-- 5 -->
    <g transform="translate(353.110255 294.174327) scale(0.16 -0.16)">
     <use xlink:href="#TimesNewRomanPSMT-35"/>
    </g>
   </g>
   <g id="text_28">
    <!-- 20 -->
    <g transform="translate(392.385678 294.174327) scale(0.16 -0.16)">
     <use xlink:href="#TimesNewRomanPSMT-32"/>
     <use xlink:href="#TimesNewRomanPSMT-30" x="50"/>
    </g>
   </g>
   <g id="text_29">
    <!-- 40 -->
    <g transform="translate(452.889231 294.174327) scale(0.16 -0.16)">
     <use xlink:href="#TimesNewRomanPSMT-34"/>
     <use xlink:href="#TimesNewRomanPSMT-30" x="50"/>
    </g>
   </g>
   <g id="text_30">
    <!-- 1 -->
    <g transform="translate(514.316332 294.174327) scale(0.16 -0.16)">
     <use xlink:href="#TimesNewRomanPSMT-31"/>
    </g>
   </g>
   <g id="text_31">
    <!-- 24 -->
    <g transform="translate(116.325398 255.405096) scale(0.16 -0.16)">
     <use xlink:href="#TimesNewRomanPSMT-32"/>
     <use xlink:href="#TimesNewRomanPSMT-34" x="50"/>
    </g>
   </g>
   <g id="text_32">
    <!-- 25 -->
    <g transform="translate(171.496435 255.405096) scale(0.16 -0.16)">
     <use xlink:href="#TimesNewRomanPSMT-32"/>
     <use xlink:href="#TimesNewRomanPSMT-35" x="50"/>
    </g>
   </g>
   <g id="text_33">
    <!-- 45 -->
    <g transform="translate(278.967153 255.405096) scale(0.16 -0.16)">
     <use xlink:href="#TimesNewRomanPSMT-34"/>
     <use xlink:href="#TimesNewRomanPSMT-35" x="50"/>
    </g>
   </g>
   <g id="text_34">
    <!-- 33 -->
    <g transform="translate(361.826256 255.405096) scale(0.16 -0.16)">
     <use xlink:href="#TimesNewRomanPSMT-33"/>
     <use xlink:href="#TimesNewRomanPSMT-33" x="50"/>
    </g>
   </g>
   <g id="text_35">
    <!-- 21 -->
    <g transform="translate(447.351617 255.405096) scale(0.16 -0.16)">
     <use xlink:href="#TimesNewRomanPSMT-32"/>
     <use xlink:href="#TimesNewRomanPSMT-31" x="50"/>
    </g>
   </g>
   <g id="text_36">
    <!-- 41 -->
    <g transform="translate(520.571171 255.405096) scale(0.16 -0.16)">
     <use xlink:href="#TimesNewRomanPSMT-34"/>
     <use xlink:href="#TimesNewRomanPSMT-31" x="50"/>
    </g>
   </g>
   <g id="text_37">
    <!-- 28 -->
    <g transform="translate(136.835077 216.635865) scale(0.16 -0.16)">
     <use xlink:href="#TimesNewRomanPSMT-32"/>
     <use xlink:href="#TimesNewRomanPSMT-38" x="50"/>
    </g>
   </g>
   <g id="text_38">
    <!-- 36 -->
    <g transform="translate(237.332504 216.635865) scale(0.16 -0.16)">
     <use xlink:href="#TimesNewRomanPSMT-33"/>
     <use xlink:href="#TimesNewRomanPSMT-36" x="50"/>
    </g>
   </g>
   <g id="text_39">
    <!-- 9 -->
    <g transform="translate(323.781414 216.635865) scale(0.16 -0.16)">
     <defs>
      <path id="TimesNewRomanPSMT-39" d="M 338 -88 
L 338 28 
Q 744 34 1094 217 
Q 1444 400 1770 856 
Q 2097 1313 2225 1859 
Q 1734 1544 1338 1544 
Q 891 1544 572 1889 
Q 253 2234 253 2806 
Q 253 3363 572 3797 
Q 956 4325 1575 4325 
Q 2097 4325 2469 3894 
Q 2925 3359 2925 2575 
Q 2925 1869 2578 1258 
Q 2231 647 1613 244 
Q 1109 -88 516 -88 
L 338 -88 
z
M 2275 2091 
Q 2331 2497 2331 2741 
Q 2331 3044 2228 3395 
Q 2125 3747 1936 3934 
Q 1747 4122 1506 4122 
Q 1228 4122 1018 3872 
Q 809 3622 809 3128 
Q 809 2469 1088 2097 
Q 1291 1828 1588 1828 
Q 1731 1828 1928 1897 
Q 2125 1966 2275 2091 
z
" transform="scale(0.015625)"/>
     </defs>
     <use xlink:href="#TimesNewRomanPSMT-39"/>
    </g>
   </g>
   <g id="text_40">
    <!-- 14 -->
    <g transform="translate(371.055611 216.635865) scale(0.16 -0.16)">
     <use xlink:href="#TimesNewRomanPSMT-31"/>
     <use xlink:href="#TimesNewRomanPSMT-34" x="50"/>
    </g>
   </g>
   <g id="text_41">
    <!-- 2 -->
    <g transform="translate(571.743433 216.635865) scale(0.16 -0.16)">
     <use xlink:href="#TimesNewRomanPSMT-32"/>
    </g>
   </g>
   <g id="text_42">
    <!-- 13 -->
    <g transform="translate(157.75495 177.866635) scale(0.16 -0.16)">
     <use xlink:href="#TimesNewRomanPSMT-31"/>
     <use xlink:href="#TimesNewRomanPSMT-33" x="50"/>
    </g>
   </g>
   <g id="text_43">
    <!-- 17 -->
    <g transform="translate(202.876244 177.866635) scale(0.16 -0.16)">
     <use xlink:href="#TimesNewRomanPSMT-31"/>
     <use xlink:href="#TimesNewRomanPSMT-37" x="50"/>
    </g>
   </g>
   <g id="text_44">
    <!-- 26 -->
    <g transform="translate(242.254827 177.866635) scale(0.16 -0.16)">
     <use xlink:href="#TimesNewRomanPSMT-32"/>
     <use xlink:href="#TimesNewRomanPSMT-36" x="50"/>
    </g>
   </g>
   <g id="text_45">
    <!-- 30 -->
    <g transform="translate(308.706187 177.866635) scale(0.16 -0.16)">
     <use xlink:href="#TimesNewRomanPSMT-33"/>
     <use xlink:href="#TimesNewRomanPSMT-30" x="50"/>
    </g>
   </g>
   <g id="text_46">
    <!-- 46 -->
    <g transform="translate(368.184256 177.866635) scale(0.16 -0.16)">
     <use xlink:href="#TimesNewRomanPSMT-34"/>
     <use xlink:href="#TimesNewRomanPSMT-36" x="50"/>
    </g>
   </g>
   <g id="text_47">
    <!-- 10 -->
    <g transform="translate(418.43297 177.866635) scale(0.16 -0.16)">
     <use xlink:href="#TimesNewRomanPSMT-31"/>
     <use xlink:href="#TimesNewRomanPSMT-30" x="50"/>
    </g>
   </g>
   <g id="text_48">
    <!-- 38 -->
    <g transform="translate(468.681683 177.866635) scale(0.16 -0.16)">
     <use xlink:href="#TimesNewRomanPSMT-33"/>
     <use xlink:href="#TimesNewRomanPSMT-38" x="50"/>
    </g>
   </g>
   <g id="text_49">
    <!-- 27 -->
    <g transform="translate(527.134269 177.866635) scale(0.16 -0.16)">
     <use xlink:href="#TimesNewRomanPSMT-32"/>
     <use xlink:href="#TimesNewRomanPSMT-37" x="50"/>
    </g>
   </g>
   <g id="text_50">
    <!-- 34 -->
    <g transform="translate(564.051691 177.866635) scale(0.16 -0.16)">
     <use xlink:href="#TimesNewRomanPSMT-33"/>
     <use xlink:href="#TimesNewRomanPSMT-34" x="50"/>
    </g>
   </g>
   <g id="text_51">
    <!-- 42 -->
    <g transform="translate(580.459434 177.866635) scale(0.16 -0.16)">
     <use xlink:href="#TimesNewRomanPSMT-34"/>
     <use xlink:href="#TimesNewRomanPSMT-32" x="50"/>
    </g>
   </g>
   <g id="text_52">
    <!-- 22 -->
    <g transform="translate(613.27492 177.866635) scale(0.16 -0.16)">
     <use xlink:href="#TimesNewRomanPSMT-32"/>
     <use xlink:href="#TimesNewRomanPSMT-32" x="50"/>
    </g>
   </g>
   <g id="text_53">
    <!-- 7 -->
    <g transform="translate(666.49815 177.866635) scale(0.16 -0.16)">
     <use xlink:href="#TimesNewRomanPSMT-37"/>
    </g>
   </g>
   <g id="text_54">
    <!-- 29 -->
    <g transform="translate(233.025472 139.097404) scale(0.16 -0.16)">
     <use xlink:href="#TimesNewRomanPSMT-32"/>
     <use xlink:href="#TimesNewRomanPSMT-39" x="50"/>
    </g>
   </g>
   <g id="text_55">
    <!-- 37 -->
    <g transform="translate(333.522899 139.097404) scale(0.16 -0.16)">
     <use xlink:href="#TimesNewRomanPSMT-33"/>
     <use xlink:href="#TimesNewRomanPSMT-37" x="50"/>
    </g>
   </g>
   <g id="text_56">
    <!-- 19 -->
    <g transform="translate(416.382002 139.097404) scale(0.16 -0.16)">
     <use xlink:href="#TimesNewRomanPSMT-31"/>
     <use xlink:href="#TimesNewRomanPSMT-39" x="50"/>
    </g>
   </g>
   <g id="text_57">
    <!-- 15 -->
    <g transform="translate(488.165878 139.097404) scale(0.16 -0.16)">
     <use xlink:href="#TimesNewRomanPSMT-31"/>
     <use xlink:href="#TimesNewRomanPSMT-35" x="50"/>
    </g>
   </g>
   <g id="text_58">
    <!-- 6 -->
    <g transform="translate(546.516528 139.097404) scale(0.16 -0.16)">
     <use xlink:href="#TimesNewRomanPSMT-36"/>
    </g>
   </g>
   <g id="text_59">
    <!-- 35 -->
    <g transform="translate(603.020081 139.097404) scale(0.16 -0.16)">
     <use xlink:href="#TimesNewRomanPSMT-33"/>
     <use xlink:href="#TimesNewRomanPSMT-35" x="50"/>
    </g>
   </g>
   <g id="text_60">
    <!-- 43 -->
    <g transform="translate(664.549118 139.097404) scale(0.16 -0.16)">
     <use xlink:href="#TimesNewRomanPSMT-34"/>
     <use xlink:href="#TimesNewRomanPSMT-33" x="50"/>
    </g>
   </g>
   <g id="text_61">
    <!-- 31 -->
    <g transform="translate(369.20974 100.328173) scale(0.16 -0.16)">
     <use xlink:href="#TimesNewRomanPSMT-33"/>
     <use xlink:href="#TimesNewRomanPSMT-31" x="50"/>
    </g>
   </g>
   <g id="text_62">
    <!-- 39 -->
    <g transform="translate(529.185236 100.328173) scale(0.16 -0.16)">
     <use xlink:href="#TimesNewRomanPSMT-33"/>
     <use xlink:href="#TimesNewRomanPSMT-39" x="50"/>
    </g>
   </g>
   <g id="text_63">
    <!-- 23 -->
    <g transform="translate(648.141375 100.328173) scale(0.16 -0.16)">
     <use xlink:href="#TimesNewRomanPSMT-32"/>
     <use xlink:href="#TimesNewRomanPSMT-33" x="50"/>
    </g>
   </g>
   <g id="text_64">
    <!-- 11 -->
    <g transform="translate(473.083619 61.558942) scale(0.16 -0.16)">
     <use xlink:href="#TimesNewRomanPSMT-31"/>
     <use xlink:href="#TimesNewRomanPSMT-31" x="46.25"/>
    </g>
   </g>
   <g id="text_65">
    <!-- 47 -->
    <g transform="translate(553.796851 61.558942) scale(0.16 -0.16)">
     <use xlink:href="#TimesNewRomanPSMT-34"/>
     <use xlink:href="#TimesNewRomanPSMT-37" x="50"/>
    </g>
   </g>
   <g id="text_66">
    <!-- 3 -->
    <g transform="translate(634.708148 61.558942) scale(0.16 -0.16)">
     <use xlink:href="#TimesNewRomanPSMT-33"/>
    </g>
   </g>
   <g id="text_67">
    <!-- Instance: MFJS10, Makespan: 1484 -->
    <g transform="translate(255.06875 21.0875) scale(0.2 -0.2)">
     <defs>
      <path id="TimesNewRomanPSMT-49" d="M 1975 116 
L 1975 0 
L 159 0 
L 159 116 
L 309 116 
Q 572 116 691 269 
Q 766 369 766 750 
L 766 3488 
Q 766 3809 725 3913 
Q 694 3991 597 4047 
Q 459 4122 309 4122 
L 159 4122 
L 159 4238 
L 1975 4238 
L 1975 4122 
L 1822 4122 
Q 1563 4122 1444 3969 
Q 1366 3869 1366 3488 
L 1366 750 
Q 1366 428 1406 325 
Q 1438 247 1538 191 
Q 1672 116 1822 116 
L 1975 116 
z
" transform="scale(0.015625)"/>
      <path id="TimesNewRomanPSMT-73" d="M 2050 2947 
L 2050 1972 
L 1947 1972 
Q 1828 2431 1642 2597 
Q 1456 2763 1169 2763 
Q 950 2763 815 2647 
Q 681 2531 681 2391 
Q 681 2216 781 2091 
Q 878 1963 1175 1819 
L 1631 1597 
Q 2266 1288 2266 781 
Q 2266 391 1970 151 
Q 1675 -88 1309 -88 
Q 1047 -88 709 6 
Q 606 38 541 38 
Q 469 38 428 -44 
L 325 -44 
L 325 978 
L 428 978 
Q 516 541 762 319 
Q 1009 97 1316 97 
Q 1531 97 1667 223 
Q 1803 350 1803 528 
Q 1803 744 1651 891 
Q 1500 1038 1047 1263 
Q 594 1488 453 1669 
Q 313 1847 313 2119 
Q 313 2472 555 2709 
Q 797 2947 1181 2947 
Q 1350 2947 1591 2875 
Q 1750 2828 1803 2828 
Q 1853 2828 1881 2850 
Q 1909 2872 1947 2947 
L 2050 2947 
z
" transform="scale(0.015625)"/>
      <path id="TimesNewRomanPSMT-74" d="M 1031 3803 
L 1031 2863 
L 1700 2863 
L 1700 2644 
L 1031 2644 
L 1031 788 
Q 1031 509 1111 412 
Q 1191 316 1316 316 
Q 1419 316 1516 380 
Q 1613 444 1666 569 
L 1788 569 
Q 1678 263 1478 108 
Q 1278 -47 1066 -47 
Q 922 -47 784 33 
Q 647 113 581 261 
Q 516 409 516 719 
L 516 2644 
L 63 2644 
L 63 2747 
Q 234 2816 414 2980 
Q 594 3144 734 3369 
Q 806 3488 934 3803 
L 1031 3803 
z
" transform="scale(0.015625)"/>
      <path id="TimesNewRomanPSMT-3a" d="M 903 2950 
Q 1047 2950 1148 2848 
Q 1250 2747 1250 2603 
Q 1250 2459 1148 2357 
Q 1047 2256 903 2256 
Q 759 2256 657 2357 
Q 556 2459 556 2603 
Q 556 2747 657 2848 
Q 759 2950 903 2950 
z
M 897 609 
Q 1044 609 1145 506 
Q 1247 403 1247 259 
Q 1247 116 1144 14 
Q 1041 -88 897 -88 
Q 753 -88 651 14 
Q 550 116 550 259 
Q 550 403 651 506 
Q 753 609 897 609 
z
" transform="scale(0.015625)"/>
      <path id="TimesNewRomanPSMT-20" transform="scale(0.015625)"/>
      <path id="TimesNewRomanPSMT-46" d="M 1309 4006 
L 1309 2341 
L 2081 2341 
Q 2347 2341 2470 2458 
Q 2594 2575 2634 2922 
L 2750 2922 
L 2750 1488 
L 2634 1488 
Q 2631 1734 2570 1850 
Q 2509 1966 2401 2023 
Q 2294 2081 2081 2081 
L 1309 2081 
L 1309 750 
Q 1309 428 1350 325 
Q 1381 247 1481 191 
Q 1619 116 1769 116 
L 1922 116 
L 1922 0 
L 103 0 
L 103 116 
L 253 116 
Q 516 116 634 269 
Q 709 369 709 750 
L 709 3488 
Q 709 3809 669 3913 
Q 638 3991 541 4047 
Q 406 4122 253 4122 
L 103 4122 
L 103 4238 
L 3256 4238 
L 3297 3306 
L 3188 3306 
Q 3106 3603 2998 3742 
Q 2891 3881 2733 3943 
Q 2575 4006 2244 4006 
L 1309 4006 
z
" transform="scale(0.015625)"/>
      <path id="TimesNewRomanPSMT-4a" d="M 638 4122 
L 638 4238 
L 2453 4238 
L 2453 4122 
L 2300 4122 
Q 2041 4122 1922 3969 
Q 1847 3869 1847 3488 
L 1847 1416 
Q 1847 938 1742 641 
Q 1638 344 1381 123 
Q 1125 -97 763 -97 
Q 469 -97 300 48 
Q 131 194 131 381 
Q 131 534 209 613 
Q 313 709 450 709 
Q 550 709 629 643 
Q 709 578 831 294 
Q 903 125 1016 125 
Q 1100 125 1173 228 
Q 1247 331 1247 594 
L 1247 3488 
Q 1247 3809 1206 3913 
Q 1175 3991 1075 4047 
Q 941 4122 791 4122 
L 638 4122 
z
" transform="scale(0.015625)"/>
      <path id="TimesNewRomanPSMT-53" d="M 2934 4334 
L 2934 2869 
L 2819 2869 
Q 2763 3291 2617 3541 
Q 2472 3791 2203 3937 
Q 1934 4084 1647 4084 
Q 1322 4084 1109 3886 
Q 897 3688 897 3434 
Q 897 3241 1031 3081 
Q 1225 2847 1953 2456 
Q 2547 2138 2764 1967 
Q 2981 1797 3098 1565 
Q 3216 1334 3216 1081 
Q 3216 600 2842 251 
Q 2469 -97 1881 -97 
Q 1697 -97 1534 -69 
Q 1438 -53 1133 45 
Q 828 144 747 144 
Q 669 144 623 97 
Q 578 50 556 -97 
L 441 -97 
L 441 1356 
L 556 1356 
Q 638 900 775 673 
Q 913 447 1195 297 
Q 1478 147 1816 147 
Q 2206 147 2432 353 
Q 2659 559 2659 841 
Q 2659 997 2573 1156 
Q 2488 1316 2306 1453 
Q 2184 1547 1640 1851 
Q 1097 2156 867 2337 
Q 638 2519 519 2737 
Q 400 2956 400 3219 
Q 400 3675 750 4004 
Q 1100 4334 1641 4334 
Q 1978 4334 2356 4169 
Q 2531 4091 2603 4091 
Q 2684 4091 2736 4139 
Q 2788 4188 2819 4334 
L 2934 4334 
z
" transform="scale(0.015625)"/>
      <path id="TimesNewRomanPSMT-2c" d="M 344 -1066 
L 344 -928 
Q 666 -822 842 -598 
Q 1019 -375 1019 -125 
Q 1019 -66 991 -25 
Q 969 3 947 3 
Q 913 3 797 -59 
Q 741 -88 678 -88 
Q 525 -88 434 3 
Q 344 94 344 253 
Q 344 406 461 515 
Q 578 625 747 625 
Q 953 625 1114 445 
Q 1275 266 1275 -31 
Q 1275 -353 1051 -629 
Q 828 -906 344 -1066 
z
" transform="scale(0.015625)"/>
      <path id="TimesNewRomanPSMT-6b" d="M 1047 4444 
L 1047 1597 
L 1775 2259 
Q 2006 2472 2044 2528 
Q 2069 2566 2069 2603 
Q 2069 2666 2017 2711 
Q 1966 2756 1847 2763 
L 1847 2863 
L 3091 2863 
L 3091 2763 
Q 2834 2756 2664 2684 
Q 2494 2613 2291 2428 
L 1556 1750 
L 2291 822 
Q 2597 438 2703 334 
Q 2853 188 2966 144 
Q 3044 113 3238 113 
L 3238 0 
L 1847 0 
L 1847 113 
Q 1966 116 2008 148 
Q 2050 181 2050 241 
Q 2050 313 1925 472 
L 1047 1594 
L 1047 644 
Q 1047 366 1086 278 
Q 1125 191 1197 153 
Q 1269 116 1509 113 
L 1509 0 
L 53 0 
L 53 113 
Q 272 113 381 166 
Q 447 200 481 272 
Q 528 375 528 628 
L 528 3234 
Q 528 3731 506 3842 
Q 484 3953 434 3995 
Q 384 4038 303 4038 
Q 238 4038 106 3984 
L 53 4094 
L 903 4444 
L 1047 4444 
z
" transform="scale(0.015625)"/>
      <path id="TimesNewRomanPSMT-70" d="M -6 2578 
L 875 2934 
L 994 2934 
L 994 2266 
Q 1216 2644 1439 2795 
Q 1663 2947 1909 2947 
Q 2341 2947 2628 2609 
Q 2981 2197 2981 1534 
Q 2981 794 2556 309 
Q 2206 -88 1675 -88 
Q 1444 -88 1275 -22 
Q 1150 25 994 166 
L 994 -706 
Q 994 -1000 1030 -1079 
Q 1066 -1159 1155 -1206 
Q 1244 -1253 1478 -1253 
L 1478 -1369 
L -22 -1369 
L -22 -1253 
L 56 -1253 
Q 228 -1256 350 -1188 
Q 409 -1153 442 -1076 
Q 475 -1000 475 -688 
L 475 2019 
Q 475 2297 450 2372 
Q 425 2447 370 2484 
Q 316 2522 222 2522 
Q 147 2522 31 2478 
L -6 2578 
z
M 994 2081 
L 994 1013 
Q 994 666 1022 556 
Q 1066 375 1236 237 
Q 1406 100 1666 100 
Q 1978 100 2172 344 
Q 2425 663 2425 1241 
Q 2425 1897 2138 2250 
Q 1938 2494 1663 2494 
Q 1513 2494 1366 2419 
Q 1253 2363 994 2081 
z
" transform="scale(0.015625)"/>
     </defs>
     <use xlink:href="#TimesNewRomanPSMT-49"/>
     <use xlink:href="#TimesNewRomanPSMT-6e" x="33.300781"/>
     <use xlink:href="#TimesNewRomanPSMT-73" x="83.300781"/>
     <use xlink:href="#TimesNewRomanPSMT-74" x="122.216797"/>
     <use xlink:href="#TimesNewRomanPSMT-61" x="150"/>
     <use xlink:href="#TimesNewRomanPSMT-6e" x="194.384766"/>
     <use xlink:href="#TimesNewRomanPSMT-63" x="244.384766"/>
     <use xlink:href="#TimesNewRomanPSMT-65" x="288.769531"/>
     <use xlink:href="#TimesNewRomanPSMT-3a" x="333.154297"/>
     <use xlink:href="#TimesNewRomanPSMT-20" x="360.9375"/>
     <use xlink:href="#TimesNewRomanPSMT-4d" x="385.9375"/>
     <use xlink:href="#TimesNewRomanPSMT-46" x="474.853516"/>
     <use xlink:href="#TimesNewRomanPSMT-4a" x="530.46875"/>
     <use xlink:href="#TimesNewRomanPSMT-53" x="569.384766"/>
     <use xlink:href="#TimesNewRomanPSMT-31" x="625"/>
     <use xlink:href="#TimesNewRomanPSMT-30" x="675"/>
     <use xlink:href="#TimesNewRomanPSMT-2c" x="725"/>
     <use xlink:href="#TimesNewRomanPSMT-20" x="750"/>
     <use xlink:href="#TimesNewRomanPSMT-4d" x="775"/>
     <use xlink:href="#TimesNewRomanPSMT-61" x="863.916016"/>
     <use xlink:href="#TimesNewRomanPSMT-6b" x="908.300781"/>
     <use xlink:href="#TimesNewRomanPSMT-65" x="958.300781"/>
     <use xlink:href="#TimesNewRomanPSMT-73" x="1002.685547"/>
     <use xlink:href="#TimesNewRomanPSMT-70" x="1041.601562"/>
     <use xlink:href="#TimesNewRomanPSMT-61" x="1091.601562"/>
     <use xlink:href="#TimesNewRomanPSMT-6e" x="1135.986328"/>
     <use xlink:href="#TimesNewRomanPSMT-3a" x="1185.986328"/>
     <use xlink:href="#TimesNewRomanPSMT-20" x="1213.769531"/>
     <use xlink:href="#TimesNewRomanPSMT-31" x="1238.769531"/>
     <use xlink:href="#TimesNewRomanPSMT-34" x="1288.769531"/>
     <use xlink:href="#TimesNewRomanPSMT-38" x="1338.769531"/>
     <use xlink:href="#TimesNewRomanPSMT-34" x="1388.769531"/>
    </g>
   </g>
  </g>
 </g>
 <defs>
  <clipPath id="p8c8359ade6">
   <rect x="64.15" y="27.0875" width="669.6" height="332.64"/>
  </clipPath>
 </defs>
 <defs>
  <pattern id="hc828506ce6" patternUnits="userSpaceOnUse" x="0" y="0" width="72" height="72">
   <rect x="0" y="0" width="73" height="73" fill="#808080"/>
   <path d="M -36 36 
L 36 -36 
M -24 48 
L 48 -24 
M -12 60 
L 60 -12 
M 0 72 
L 72 0 
M 12 84 
L 84 12 
M 24 96 
L 96 24 
M 36 108 
L 108 36 
" style="fill: #000000; stroke: #000000; stroke-width: 1.0; stroke-linecap: butt; stroke-linejoin: miter"/>
  </pattern>
 </defs>
</svg>
