<?xml version="1.0" encoding="utf-8" standalone="no"?>
<!DOCTYPE svg PUBLIC "-//W3C//DTD SVG 1.1//EN"
  "http://www.w3.org/Graphics/SVG/1.1/DTD/svg11.dtd">
<svg xmlns:xlink="http://www.w3.org/1999/xlink" width="733.59375pt" height="413.336875pt" viewBox="0 0 733.59375 413.336875" xmlns="http://www.w3.org/2000/svg" version="1.1">
 <metadata>
  <rdf:RDF xmlns:dc="http://purl.org/dc/elements/1.1/" xmlns:cc="http://creativecommons.org/ns#" xmlns:rdf="http://www.w3.org/1999/02/22-rdf-syntax-ns#">
   <cc:Work>
    <dc:type rdf:resource="http://purl.org/dc/dcmitype/StillImage"/>
    <dc:date>2025-03-02T21:46:20.060198</dc:date>
    <dc:format>image/svg+xml</dc:format>
    <dc:creator>
     <cc:Agent>
      <dc:title>Matplotlib v3.9.2, https://matplotlib.org/</dc:title>
     </cc:Agent>
    </dc:creator>
   </cc:Work>
  </rdf:RDF>
 </metadata>
 <defs>
  <style type="text/css">*{stroke-linejoin: round; stroke-linecap: butt}</style>
 </defs>
 <g id="figure_1">
  <g id="patch_1">
   <path d="M 0 413.336875 
L 733.59375 413.336875 
L 733.59375 0 
L 0 0 
z
" style="fill: #ffffff"/>
  </g>
  <g id="axes_1">
   <g id="patch_2">
    <path d="M 56.79375 360.136875 
L 726.39375 360.136875 
L 726.39375 27.496875 
L 56.79375 27.496875 
z
" style="fill: #ffffff"/>
   </g>
   <g id="PolyCollection_1">
    <defs>
     <path id="m4b251df9ca" d="M 87.230114 -68.32 
L 87.230114 -99.335385 
L 137.908844 -99.335385 
L 137.908844 -68.32 
z
" style="stroke: #000000"/>
    </defs>
    <g clip-path="url(#p90f259736d)">
     <use xlink:href="#m4b251df9ca" x="0" y="413.336875" style="fill: #9ecae1; stroke: #000000"/>
    </g>
   </g>
   <g id="PolyCollection_2">
    <path d="M 87.230114 345.016875 
L 87.230114 314.00149 
L 87.230114 314.00149 
L 87.230114 345.016875 
z
" clip-path="url(#p90f259736d)" style="fill: url(#h5879655a40); stroke: #000000"/>
   </g>
   <g id="PolyCollection_3">
    <defs>
     <path id="m8882e6ee0f" d="M 137.908844 -68.32 
L 137.908844 -99.335385 
L 262.566869 -99.335385 
L 262.566869 -68.32 
z
" style="stroke: #000000"/>
    </defs>
    <g clip-path="url(#p90f259736d)">
     <use xlink:href="#m8882e6ee0f" x="0" y="413.336875" style="fill: #4c78a8; stroke: #000000"/>
    </g>
   </g>
   <g id="PolyCollection_4">
    <path d="M 137.908844 345.016875 
L 137.908844 314.00149 
L 137.908844 314.00149 
L 137.908844 345.016875 
z
" clip-path="url(#p90f259736d)" style="fill: url(#h5879655a40); stroke: #000000"/>
   </g>
   <g id="PolyCollection_5">
    <defs>
     <path id="mdbed7158ab" d="M 87.230114 -107.089231 
L 87.230114 -138.104615 
L 123.34599 -138.104615 
L 123.34599 -107.089231 
z
" style="stroke: #000000"/>
    </defs>
    <g clip-path="url(#p90f259736d)">
     <use xlink:href="#mdbed7158ab" x="0" y="413.336875" style="fill: #6395b9; stroke: #000000"/>
    </g>
   </g>
   <g id="PolyCollection_6">
    <path d="M 87.230114 306.247644 
L 87.230114 275.23226 
L 87.230114 275.23226 
L 87.230114 306.247644 
z
" clip-path="url(#p90f259736d)" style="fill: url(#h5879655a40); stroke: #000000"/>
   </g>
   <g id="PolyCollection_7">
    <defs>
     <path id="mc746f75165" d="M 123.34599 -107.089231 
L 123.34599 -138.104615 
L 194.995229 -138.104615 
L 194.995229 -107.089231 
z
" style="stroke: #000000"/>
    </defs>
    <g clip-path="url(#p90f259736d)">
     <use xlink:href="#mc746f75165" x="0" y="413.336875" style="fill: #c6dbef; stroke: #000000"/>
    </g>
   </g>
   <g id="PolyCollection_8">
    <path d="M 123.34599 306.247644 
L 123.34599 275.23226 
L 123.34599 275.23226 
L 123.34599 306.247644 
z
" clip-path="url(#p90f259736d)" style="fill: url(#h5879655a40); stroke: #000000"/>
   </g>
   <g id="PolyCollection_9">
    <defs>
     <path id="m02e7e059c2" d="M 194.995229 -107.089231 
L 194.995229 -138.104615 
L 279.459779 -138.104615 
L 279.459779 -107.089231 
z
" style="stroke: #000000"/>
    </defs>
    <g clip-path="url(#p90f259736d)">
     <use xlink:href="#m02e7e059c2" x="0" y="413.336875" style="fill: #d62728; stroke: #000000"/>
    </g>
   </g>
   <g id="PolyCollection_10">
    <path d="M 194.995229 306.247644 
L 194.995229 275.23226 
L 194.995229 275.23226 
L 194.995229 306.247644 
z
" clip-path="url(#p90f259736d)" style="fill: url(#h5879655a40); stroke: #000000"/>
   </g>
   <g id="PolyCollection_11">
    <defs>
     <path id="maaf29c3d0e" d="M 279.459779 -107.089231 
L 279.459779 -138.104615 
L 366.836899 -138.104615 
L 366.836899 -107.089231 
z
" style="stroke: #000000"/>
    </defs>
    <g clip-path="url(#p90f259736d)">
     <use xlink:href="#maaf29c3d0e" x="0" y="413.336875" style="fill: #fc9272; stroke: #000000"/>
    </g>
   </g>
   <g id="PolyCollection_12">
    <path d="M 279.459779 306.247644 
L 279.459779 275.23226 
L 279.459779 275.23226 
L 279.459779 306.247644 
z
" clip-path="url(#p90f259736d)" style="fill: url(#h5879655a40); stroke: #000000"/>
   </g>
   <g id="PolyCollection_13">
    <defs>
     <path id="mf8b9c31f7d" d="M 366.836899 -107.089231 
L 366.836899 -138.104615 
L 405.282832 -138.104615 
L 405.282832 -107.089231 
z
" style="stroke: #000000"/>
    </defs>
    <g clip-path="url(#p90f259736d)">
     <use xlink:href="#mf8b9c31f7d" x="0" y="413.336875" style="fill: #4c78a8; stroke: #000000"/>
    </g>
   </g>
   <g id="PolyCollection_14">
    <path d="M 366.836899 306.247644 
L 366.836899 275.23226 
L 366.836899 275.23226 
L 366.836899 306.247644 
z
" clip-path="url(#p90f259736d)" style="fill: url(#h5879655a40); stroke: #000000"/>
   </g>
   <g id="PolyCollection_15">
    <defs>
     <path id="mc23891f018" d="M 409.360431 -107.089231 
L 409.360431 -138.104615 
L 485.087269 -138.104615 
L 485.087269 -107.089231 
z
" style="stroke: #000000"/>
    </defs>
    <g clip-path="url(#p90f259736d)">
     <use xlink:href="#mc23891f018" x="0" y="413.336875" style="fill: #1f77b4; stroke: #000000"/>
    </g>
   </g>
   <g id="PolyCollection_16">
    <path d="M 409.360431 306.247644 
L 409.360431 275.23226 
L 409.360431 275.23226 
L 409.360431 306.247644 
z
" clip-path="url(#p90f259736d)" style="fill: url(#h5879655a40); stroke: #000000"/>
   </g>
   <g id="PolyCollection_17">
    <defs>
     <path id="m295ad2d33a" d="M 485.087269 -107.089231 
L 485.087269 -138.104615 
L 543.338683 -138.104615 
L 543.338683 -107.089231 
z
" style="stroke: #000000"/>
    </defs>
    <g clip-path="url(#p90f259736d)">
     <use xlink:href="#m295ad2d33a" x="0" y="413.336875" style="fill: #c6dbef; stroke: #000000"/>
    </g>
   </g>
   <g id="PolyCollection_18">
    <path d="M 485.087269 306.247644 
L 485.087269 275.23226 
L 485.087269 275.23226 
L 485.087269 306.247644 
z
" clip-path="url(#p90f259736d)" style="fill: url(#h5879655a40); stroke: #000000"/>
   </g>
   <g id="PolyCollection_19">
    <defs>
     <path id="m87eedea291" d="M 87.230114 -145.858462 
L 87.230114 -176.873846 
L 171.694663 -176.873846 
L 171.694663 -145.858462 
z
" style="stroke: #000000"/>
    </defs>
    <g clip-path="url(#p90f259736d)">
     <use xlink:href="#m87eedea291" x="0" y="413.336875" style="fill: #e45756; stroke: #000000"/>
    </g>
   </g>
   <g id="PolyCollection_20">
    <path d="M 87.230114 267.478413 
L 87.230114 236.463029 
L 87.230114 236.463029 
L 87.230114 267.478413 
z
" clip-path="url(#p90f259736d)" style="fill: url(#h5879655a40); stroke: #000000"/>
   </g>
   <g id="PolyCollection_21">
    <defs>
     <path id="m1f49e93c05" d="M 171.694663 -145.858462 
L 171.694663 -176.873846 
L 243.926416 -176.873846 
L 243.926416 -145.858462 
z
" style="stroke: #000000"/>
    </defs>
    <g clip-path="url(#p90f259736d)">
     <use xlink:href="#m1f49e93c05" x="0" y="413.336875" style="fill: #e45756; stroke: #000000"/>
    </g>
   </g>
   <g id="PolyCollection_22">
    <path d="M 171.694663 267.478413 
L 171.694663 236.463029 
L 171.694663 236.463029 
L 171.694663 267.478413 
z
" clip-path="url(#p90f259736d)" style="fill: url(#h5879655a40); stroke: #000000"/>
   </g>
   <g id="PolyCollection_23">
    <defs>
     <path id="mfa6df2080a" d="M 279.459779 -145.858462 
L 279.459779 -176.873846 
L 351.109018 -176.873846 
L 351.109018 -145.858462 
z
" style="stroke: #000000"/>
    </defs>
    <g clip-path="url(#p90f259736d)">
     <use xlink:href="#mfa6df2080a" x="0" y="413.336875" style="fill: #d62728; stroke: #000000"/>
    </g>
   </g>
   <g id="PolyCollection_24">
    <path d="M 279.459779 267.478413 
L 279.459779 236.463029 
L 279.459779 236.463029 
L 279.459779 267.478413 
z
" clip-path="url(#p90f259736d)" style="fill: url(#h5879655a40); stroke: #000000"/>
   </g>
   <g id="PolyCollection_25">
    <defs>
     <path id="m50b45a65e2" d="M 351.109018 -145.858462 
L 351.109018 -176.873846 
L 409.360431 -176.873846 
L 409.360431 -145.858462 
z
" style="stroke: #000000"/>
    </defs>
    <g clip-path="url(#p90f259736d)">
     <use xlink:href="#m50b45a65e2" x="0" y="413.336875" style="fill: #1f77b4; stroke: #000000"/>
    </g>
   </g>
   <g id="PolyCollection_26">
    <path d="M 351.109018 267.478413 
L 351.109018 236.463029 
L 351.109018 236.463029 
L 351.109018 267.478413 
z
" clip-path="url(#p90f259736d)" style="fill: url(#h5879655a40); stroke: #000000"/>
   </g>
   <g id="PolyCollection_27">
    <defs>
     <path id="mb089a07cdc" d="M 409.360431 -145.858462 
L 409.360431 -176.873846 
L 514.212976 -176.873846 
L 514.212976 -145.858462 
z
" style="stroke: #000000"/>
    </defs>
    <g clip-path="url(#p90f259736d)">
     <use xlink:href="#mb089a07cdc" x="0" y="413.336875" style="fill: #fc9272; stroke: #000000"/>
    </g>
   </g>
   <g id="PolyCollection_28">
    <path d="M 409.360431 267.478413 
L 409.360431 236.463029 
L 409.360431 236.463029 
L 409.360431 267.478413 
z
" clip-path="url(#p90f259736d)" style="fill: url(#h5879655a40); stroke: #000000"/>
   </g>
   <g id="PolyCollection_29">
    <defs>
     <path id="m313325afdd" d="M 87.230114 -184.627692 
L 87.230114 -215.643077 
L 229.946077 -215.643077 
L 229.946077 -184.627692 
z
" style="stroke: #000000"/>
    </defs>
    <g clip-path="url(#p90f259736d)">
     <use xlink:href="#m313325afdd" x="0" y="413.336875" style="fill: #f67e7d; stroke: #000000"/>
    </g>
   </g>
   <g id="PolyCollection_30">
    <path d="M 87.230114 228.709183 
L 87.230114 197.693798 
L 87.230114 197.693798 
L 87.230114 228.709183 
z
" clip-path="url(#p90f259736d)" style="fill: url(#h5879655a40); stroke: #000000"/>
   </g>
   <g id="PolyCollection_31">
    <defs>
     <path id="m9a8eecc14b" d="M 229.946077 -184.627692 
L 229.946077 -215.643077 
L 291.110061 -215.643077 
L 291.110061 -184.627692 
z
" style="stroke: #000000"/>
    </defs>
    <g clip-path="url(#p90f259736d)">
     <use xlink:href="#m9a8eecc14b" x="0" y="413.336875" style="fill: #6395b9; stroke: #000000"/>
    </g>
   </g>
   <g id="PolyCollection_32">
    <path d="M 229.946077 228.709183 
L 229.946077 197.693798 
L 229.946077 197.693798 
L 229.946077 228.709183 
z
" clip-path="url(#p90f259736d)" style="fill: url(#h5879655a40); stroke: #000000"/>
   </g>
   <g id="PolyCollection_33">
    <defs>
     <path id="ma0a02e70b6" d="M 291.110061 -184.627692 
L 291.110061 -215.643077 
L 401.787747 -215.643077 
L 401.787747 -184.627692 
z
" style="stroke: #000000"/>
    </defs>
    <g clip-path="url(#p90f259736d)">
     <use xlink:href="#ma0a02e70b6" x="0" y="413.336875" style="fill: #6395b9; stroke: #000000"/>
    </g>
   </g>
   <g id="PolyCollection_34">
    <path d="M 291.110061 228.709183 
L 291.110061 197.693798 
L 291.110061 197.693798 
L 291.110061 228.709183 
z
" clip-path="url(#p90f259736d)" style="fill: url(#h5879655a40); stroke: #000000"/>
   </g>
   <g id="PolyCollection_35">
    <defs>
     <path id="mf746bdb3ed" d="M 401.787747 -184.627692 
L 401.787747 -215.643077 
L 486.252297 -215.643077 
L 486.252297 -184.627692 
z
" style="stroke: #000000"/>
    </defs>
    <g clip-path="url(#p90f259736d)">
     <use xlink:href="#mf746bdb3ed" x="0" y="413.336875" style="fill: #9ecae1; stroke: #000000"/>
    </g>
   </g>
   <g id="PolyCollection_36">
    <path d="M 401.787747 228.709183 
L 401.787747 197.693798 
L 401.787747 197.693798 
L 401.787747 228.709183 
z
" clip-path="url(#p90f259736d)" style="fill: url(#h5879655a40); stroke: #000000"/>
   </g>
   <g id="PolyCollection_37">
    <defs>
     <path id="ma1f75ef141" d="M 486.252297 -184.627692 
L 486.252297 -215.643077 
L 573.629418 -215.643077 
L 573.629418 -184.627692 
z
" style="stroke: #000000"/>
    </defs>
    <g clip-path="url(#p90f259736d)">
     <use xlink:href="#ma1f75ef141" x="0" y="413.336875" style="fill: #1f77b4; stroke: #000000"/>
    </g>
   </g>
   <g id="PolyCollection_38">
    <path d="M 486.252297 228.709183 
L 486.252297 197.693798 
L 486.252297 197.693798 
L 486.252297 228.709183 
z
" clip-path="url(#p90f259736d)" style="fill: url(#h5879655a40); stroke: #000000"/>
   </g>
   <g id="PolyCollection_39">
    <defs>
     <path id="mf062ff8206" d="M 137.908844 -223.396923 
L 137.908844 -254.412308 
L 238.683789 -254.412308 
L 238.683789 -223.396923 
z
" style="stroke: #000000"/>
    </defs>
    <g clip-path="url(#p90f259736d)">
     <use xlink:href="#mf062ff8206" x="0" y="413.336875" style="fill: #9ecae1; stroke: #000000"/>
    </g>
   </g>
   <g id="PolyCollection_40">
    <path d="M 137.908844 189.939952 
L 137.908844 158.924567 
L 137.908844 158.924567 
L 137.908844 189.939952 
z
" clip-path="url(#p90f259736d)" style="fill: url(#h5879655a40); stroke: #000000"/>
   </g>
   <g id="PolyCollection_41">
    <defs>
     <path id="md17e904197" d="M 243.926416 -223.396923 
L 243.926416 -254.412308 
L 328.390966 -254.412308 
L 328.390966 -223.396923 
z
" style="stroke: #000000"/>
    </defs>
    <g clip-path="url(#p90f259736d)">
     <use xlink:href="#md17e904197" x="0" y="413.336875" style="fill: #e45756; stroke: #000000"/>
    </g>
   </g>
   <g id="PolyCollection_42">
    <path d="M 243.926416 189.939952 
L 243.926416 158.924567 
L 243.926416 158.924567 
L 243.926416 189.939952 
z
" clip-path="url(#p90f259736d)" style="fill: url(#h5879655a40); stroke: #000000"/>
   </g>
   <g id="PolyCollection_43">
    <defs>
     <path id="maca5e779ff" d="M 328.390966 -223.396923 
L 328.390966 -254.412308 
L 355.769131 -254.412308 
L 355.769131 -223.396923 
z
" style="stroke: #000000"/>
    </defs>
    <g clip-path="url(#p90f259736d)">
     <use xlink:href="#maca5e779ff" x="0" y="413.336875" style="fill: #c6dbef; stroke: #000000"/>
    </g>
   </g>
   <g id="PolyCollection_44">
    <path d="M 328.390966 189.939952 
L 328.390966 158.924567 
L 328.390966 158.924567 
L 328.390966 189.939952 
z
" clip-path="url(#p90f259736d)" style="fill: url(#h5879655a40); stroke: #000000"/>
   </g>
   <g id="PolyCollection_45">
    <defs>
     <path id="m3708b2b42f" d="M 360.429244 -223.396923 
L 360.429244 -254.412308 
L 444.893793 -254.412308 
L 444.893793 -223.396923 
z
" style="stroke: #000000"/>
    </defs>
    <g clip-path="url(#p90f259736d)">
     <use xlink:href="#m3708b2b42f" x="0" y="413.336875" style="fill: #f67e7d; stroke: #000000"/>
    </g>
   </g>
   <g id="PolyCollection_46">
    <path d="M 360.429244 189.939952 
L 360.429244 158.924567 
L 360.429244 158.924567 
L 360.429244 189.939952 
z
" clip-path="url(#p90f259736d)" style="fill: url(#h5879655a40); stroke: #000000"/>
   </g>
   <g id="PolyCollection_47">
    <defs>
     <path id="mff13b8467d" d="M 444.893793 -223.396923 
L 444.893793 -254.412308 
L 514.79549 -254.412308 
L 514.79549 -223.396923 
z
" style="stroke: #000000"/>
    </defs>
    <g clip-path="url(#p90f259736d)">
     <use xlink:href="#mff13b8467d" x="0" y="413.336875" style="fill: #d62728; stroke: #000000"/>
    </g>
   </g>
   <g id="PolyCollection_48">
    <path d="M 444.893793 189.939952 
L 444.893793 158.924567 
L 444.893793 158.924567 
L 444.893793 189.939952 
z
" clip-path="url(#p90f259736d)" style="fill: url(#h5879655a40); stroke: #000000"/>
   </g>
   <g id="PolyCollection_49">
    <defs>
     <path id="m6876d85de6" d="M 514.79549 -223.396923 
L 514.79549 -254.412308 
L 538.096055 -254.412308 
L 538.096055 -223.396923 
z
" style="stroke: #000000"/>
    </defs>
    <g clip-path="url(#p90f259736d)">
     <use xlink:href="#m6876d85de6" x="0" y="413.336875" style="fill: #fc9272; stroke: #000000"/>
    </g>
   </g>
   <g id="PolyCollection_50">
    <path d="M 514.79549 189.939952 
L 514.79549 158.924567 
L 514.79549 158.924567 
L 514.79549 189.939952 
z
" clip-path="url(#p90f259736d)" style="fill: url(#h5879655a40); stroke: #000000"/>
   </g>
   <g id="PolyCollection_51">
    <defs>
     <path id="m2e4e2d0ed2" d="M 538.096055 -223.396923 
L 538.096055 -254.412308 
L 619.648034 -254.412308 
L 619.648034 -223.396923 
z
" style="stroke: #000000"/>
    </defs>
    <g clip-path="url(#p90f259736d)">
     <use xlink:href="#m2e4e2d0ed2" x="0" y="413.336875" style="fill: #e45756; stroke: #000000"/>
    </g>
   </g>
   <g id="PolyCollection_52">
    <path d="M 538.096055 189.939952 
L 538.096055 158.924567 
L 538.096055 158.924567 
L 538.096055 189.939952 
z
" clip-path="url(#p90f259736d)" style="fill: url(#h5879655a40); stroke: #000000"/>
   </g>
   <g id="PolyCollection_53">
    <defs>
     <path id="m57e67724a5" d="M 619.648034 -223.396923 
L 619.648034 -254.412308 
L 689.549731 -254.412308 
L 689.549731 -223.396923 
z
" style="stroke: #000000"/>
    </defs>
    <g clip-path="url(#p90f259736d)">
     <use xlink:href="#m57e67724a5" x="0" y="413.336875" style="fill: #4c78a8; stroke: #000000"/>
    </g>
   </g>
   <g id="PolyCollection_54">
    <path d="M 619.648034 189.939952 
L 619.648034 158.924567 
L 619.648034 158.924567 
L 619.648034 189.939952 
z
" clip-path="url(#p90f259736d)" style="fill: url(#h5879655a40); stroke: #000000"/>
   </g>
   <g id="PolyCollection_55">
    <defs>
     <path id="m664da4ba08" d="M 229.946077 -262.166154 
L 229.946077 -293.181538 
L 360.429244 -293.181538 
L 360.429244 -262.166154 
z
" style="stroke: #000000"/>
    </defs>
    <g clip-path="url(#p90f259736d)">
     <use xlink:href="#m664da4ba08" x="0" y="413.336875" style="fill: #f67e7d; stroke: #000000"/>
    </g>
   </g>
   <g id="PolyCollection_56">
    <path d="M 229.946077 151.170721 
L 229.946077 120.155337 
L 229.946077 120.155337 
L 229.946077 151.170721 
z
" clip-path="url(#p90f259736d)" style="fill: url(#h5879655a40); stroke: #000000"/>
   </g>
   <g id="PolyCollection_57">
    <defs>
     <path id="mbda3c0e790" d="M 405.282832 -262.166154 
L 405.282832 -293.181538 
L 460.621675 -293.181538 
L 460.621675 -262.166154 
z
" style="stroke: #000000"/>
    </defs>
    <g clip-path="url(#p90f259736d)">
     <use xlink:href="#mbda3c0e790" x="0" y="413.336875" style="fill: #4c78a8; stroke: #000000"/>
    </g>
   </g>
   <g id="PolyCollection_58">
    <path d="M 405.282832 151.170721 
L 405.282832 120.155337 
L 405.282832 120.155337 
L 405.282832 151.170721 
z
" clip-path="url(#p90f259736d)" style="fill: url(#h5879655a40); stroke: #000000"/>
   </g>
   <g id="PolyCollection_59">
    <defs>
     <path id="m24a96283cd" d="M 486.252297 -262.166154 
L 486.252297 -293.181538 
L 585.2797 -293.181538 
L 585.2797 -262.166154 
z
" style="stroke: #000000"/>
    </defs>
    <g clip-path="url(#p90f259736d)">
     <use xlink:href="#m24a96283cd" x="0" y="413.336875" style="fill: #9ecae1; stroke: #000000"/>
    </g>
   </g>
   <g id="PolyCollection_60">
    <path d="M 486.252297 151.170721 
L 486.252297 120.155337 
L 486.252297 120.155337 
L 486.252297 151.170721 
z
" clip-path="url(#p90f259736d)" style="fill: url(#h5879655a40); stroke: #000000"/>
   </g>
   <g id="PolyCollection_61">
    <defs>
     <path id="m5d83af5c8f" d="M 585.2797 -262.166154 
L 585.2797 -293.181538 
L 672.656821 -293.181538 
L 672.656821 -262.166154 
z
" style="stroke: #000000"/>
    </defs>
    <g clip-path="url(#p90f259736d)">
     <use xlink:href="#m5d83af5c8f" x="0" y="413.336875" style="fill: #fc9272; stroke: #000000"/>
    </g>
   </g>
   <g id="PolyCollection_62">
    <path d="M 585.2797 151.170721 
L 585.2797 120.155337 
L 585.2797 120.155337 
L 585.2797 151.170721 
z
" clip-path="url(#p90f259736d)" style="fill: url(#h5879655a40); stroke: #000000"/>
   </g>
   <g id="PolyCollection_63">
    <defs>
     <path id="m6457ee0436" d="M 444.893793 -300.935385 
L 444.893793 -331.950769 
L 532.270914 -331.950769 
L 532.270914 -300.935385 
z
" style="stroke: #000000"/>
    </defs>
    <g clip-path="url(#p90f259736d)">
     <use xlink:href="#m6457ee0436" x="0" y="413.336875" style="fill: #f67e7d; stroke: #000000"/>
    </g>
   </g>
   <g id="PolyCollection_64">
    <path d="M 444.893793 112.40149 
L 444.893793 81.386106 
L 444.893793 81.386106 
L 444.893793 112.40149 
z
" clip-path="url(#p90f259736d)" style="fill: url(#h5879655a40); stroke: #000000"/>
   </g>
   <g id="PolyCollection_65">
    <defs>
     <path id="mbfd65bb80a" d="M 532.270914 -300.935385 
L 532.270914 -331.950769 
L 561.396621 -331.950769 
L 561.396621 -300.935385 
z
" style="stroke: #000000"/>
    </defs>
    <g clip-path="url(#p90f259736d)">
     <use xlink:href="#mbfd65bb80a" x="0" y="413.336875" style="fill: #d62728; stroke: #000000"/>
    </g>
   </g>
   <g id="PolyCollection_66">
    <path d="M 532.270914 112.40149 
L 532.270914 81.386106 
L 532.270914 81.386106 
L 532.270914 112.40149 
z
" clip-path="url(#p90f259736d)" style="fill: url(#h5879655a40); stroke: #000000"/>
   </g>
   <g id="PolyCollection_67">
    <defs>
     <path id="m671b110686" d="M 573.629418 -300.935385 
L 573.629418 -331.950769 
L 695.957386 -331.950769 
L 695.957386 -300.935385 
z
" style="stroke: #000000"/>
    </defs>
    <g clip-path="url(#p90f259736d)">
     <use xlink:href="#m671b110686" x="0" y="413.336875" style="fill: #1f77b4; stroke: #000000"/>
    </g>
   </g>
   <g id="PolyCollection_68">
    <path d="M 573.629418 112.40149 
L 573.629418 81.386106 
L 573.629418 81.386106 
L 573.629418 112.40149 
z
" clip-path="url(#p90f259736d)" style="fill: url(#h5879655a40); stroke: #000000"/>
   </g>
   <g id="PolyCollection_69">
    <defs>
     <path id="m0da3c0c6d3" d="M 401.787747 -339.704615 
L 401.787747 -370.72 
L 497.90258 -370.72 
L 497.90258 -339.704615 
z
" style="stroke: #000000"/>
    </defs>
    <g clip-path="url(#p90f259736d)">
     <use xlink:href="#m0da3c0c6d3" x="0" y="413.336875" style="fill: #6395b9; stroke: #000000"/>
    </g>
   </g>
   <g id="PolyCollection_70">
    <path d="M 401.787747 73.63226 
L 401.787747 42.616875 
L 401.787747 42.616875 
L 401.787747 73.63226 
z
" clip-path="url(#p90f259736d)" style="fill: url(#h5879655a40); stroke: #000000"/>
   </g>
   <g id="PolyCollection_71">
    <defs>
     <path id="ma3d87233c8" d="M 543.338683 -339.704615 
L 543.338683 -370.72 
L 639.453515 -370.72 
L 639.453515 -339.704615 
z
" style="stroke: #000000"/>
    </defs>
    <g clip-path="url(#p90f259736d)">
     <use xlink:href="#ma3d87233c8" x="0" y="413.336875" style="fill: #c6dbef; stroke: #000000"/>
    </g>
   </g>
   <g id="PolyCollection_72">
    <path d="M 543.338683 73.63226 
L 543.338683 42.616875 
L 543.338683 42.616875 
L 543.338683 73.63226 
z
" clip-path="url(#p90f259736d)" style="fill: url(#h5879655a40); stroke: #000000"/>
   </g>
   <g id="matplotlib.axis_1">
    <g id="xtick_1">
     <g id="line2d_1">
      <path d="M 87.230114 360.136875 
L 87.230114 27.496875 
" clip-path="url(#p90f259736d)" style="fill: none; stroke: #b0b0b0; stroke-width: 0.8; stroke-linecap: square"/>
     </g>
     <g id="line2d_2">
      <defs>
       <path id="m507462c2c8" d="M 0 0 
L 0 3.5 
" style="stroke: #000000; stroke-width: 0.8"/>
      </defs>
      <g>
       <use xlink:href="#m507462c2c8" x="87.230114" y="360.136875" style="stroke: #000000; stroke-width: 0.8"/>
      </g>
     </g>
     <g id="text_1">
      <!-- 0 -->
      <g transform="translate(82.230114 381.43375) scale(0.2 -0.2)">
       <defs>
        <path id="SimSun-30" d="M 1600 4225 
Q 1250 4225 1012 3687 
Q 775 3150 775 2250 
Q 775 1300 1012 775 
Q 1250 250 1600 250 
Q 1975 250 2187 775 
Q 2400 1300 2400 2250 
Q 2400 3150 2200 3687 
Q 2000 4225 1600 4225 
z
M 1600 50 
Q 1050 50 675 625 
Q 300 1200 300 2250 
Q 300 3225 662 3825 
Q 1025 4425 1600 4425 
Q 2150 4425 2512 3850 
Q 2875 3275 2875 2250 
Q 2875 1225 2512 637 
Q 2150 50 1600 50 
z
" transform="scale(0.015625)"/>
       </defs>
       <use xlink:href="#SimSun-30"/>
      </g>
     </g>
    </g>
    <g id="xtick_2">
     <g id="line2d_3">
      <path d="M 203.732941 360.136875 
L 203.732941 27.496875 
" clip-path="url(#p90f259736d)" style="fill: none; stroke: #b0b0b0; stroke-width: 0.8; stroke-linecap: square"/>
     </g>
     <g id="line2d_4">
      <g>
       <use xlink:href="#m507462c2c8" x="203.732941" y="360.136875" style="stroke: #000000; stroke-width: 0.8"/>
      </g>
     </g>
     <g id="text_2">
      <!-- 200 -->
      <g transform="translate(188.732941 381.43375) scale(0.2 -0.2)">
       <defs>
        <path id="SimSun-32" d="M 2325 3325 
Q 2325 3775 2125 4012 
Q 1925 4250 1525 4250 
Q 1225 4250 1012 4087 
Q 800 3925 800 3675 
Q 800 3525 900 3425 
Q 975 3325 975 3225 
Q 975 3100 912 3037 
Q 850 2975 725 2975 
Q 575 2975 487 3062 
Q 400 3150 400 3350 
Q 400 3875 775 4150 
Q 1150 4425 1575 4425 
Q 2175 4425 2462 4125 
Q 2750 3825 2750 3375 
Q 2750 3075 2612 2775 
Q 2475 2475 2175 2200 
Q 1450 1500 1062 1062 
Q 675 625 600 475 
L 2075 475 
Q 2300 475 2450 650 
Q 2600 825 2650 1175 
L 2800 1175 
L 2650 100 
L 325 100 
L 325 425 
Q 450 650 737 1000 
Q 1025 1350 1500 1825 
Q 1925 2250 2125 2625 
Q 2325 3000 2325 3325 
z
" transform="scale(0.015625)"/>
       </defs>
       <use xlink:href="#SimSun-32"/>
       <use xlink:href="#SimSun-30" x="50"/>
       <use xlink:href="#SimSun-30" x="100"/>
      </g>
     </g>
    </g>
    <g id="xtick_3">
     <g id="line2d_5">
      <path d="M 320.235768 360.136875 
L 320.235768 27.496875 
" clip-path="url(#p90f259736d)" style="fill: none; stroke: #b0b0b0; stroke-width: 0.8; stroke-linecap: square"/>
     </g>
     <g id="line2d_6">
      <g>
       <use xlink:href="#m507462c2c8" x="320.235768" y="360.136875" style="stroke: #000000; stroke-width: 0.8"/>
      </g>
     </g>
     <g id="text_3">
      <!-- 400 -->
      <g transform="translate(305.235768 381.43375) scale(0.2 -0.2)">
       <defs>
        <path id="SimSun-34" d="M 2300 575 
Q 2300 400 2400 325 
Q 2500 250 2675 250 
L 2900 250 
L 2900 100 
L 1250 100 
L 1250 250 
L 1525 250 
Q 1725 250 1812 325 
Q 1900 400 1900 575 
L 1900 1400 
L 225 1400 
L 225 1525 
L 2050 4425 
L 2300 4425 
L 2300 1550 
L 2975 1550 
L 2975 1400 
L 2300 1400 
L 2300 575 
z
M 1875 3800 
L 450 1550 
L 1900 1550 
L 1900 3800 
L 1875 3800 
z
" transform="scale(0.015625)"/>
       </defs>
       <use xlink:href="#SimSun-34"/>
       <use xlink:href="#SimSun-30" x="50"/>
       <use xlink:href="#SimSun-30" x="100"/>
      </g>
     </g>
    </g>
    <g id="xtick_4">
     <g id="line2d_7">
      <path d="M 436.738596 360.136875 
L 436.738596 27.496875 
" clip-path="url(#p90f259736d)" style="fill: none; stroke: #b0b0b0; stroke-width: 0.8; stroke-linecap: square"/>
     </g>
     <g id="line2d_8">
      <g>
       <use xlink:href="#m507462c2c8" x="436.738596" y="360.136875" style="stroke: #000000; stroke-width: 0.8"/>
      </g>
     </g>
     <g id="text_4">
      <!-- 600 -->
      <g transform="translate(421.738596 381.43375) scale(0.2 -0.2)">
       <defs>
        <path id="SimSun-36" d="M 775 1800 
Q 775 1050 1037 637 
Q 1300 225 1675 225 
Q 2050 225 2250 500 
Q 2450 775 2450 1525 
Q 2450 2025 2237 2300 
Q 2025 2575 1725 2575 
Q 1450 2575 1212 2412 
Q 975 2250 775 1800 
z
M 1750 2825 
Q 2350 2825 2612 2425 
Q 2875 2025 2875 1525 
Q 2875 775 2512 412 
Q 2150 50 1675 50 
Q 1000 50 650 562 
Q 300 1075 300 2050 
Q 300 3200 725 3812 
Q 1150 4425 1875 4425 
Q 2225 4425 2437 4225 
Q 2650 4025 2650 3875 
Q 2650 3725 2587 3650 
Q 2525 3575 2375 3575 
Q 2250 3575 2187 3637 
Q 2125 3700 2125 3825 
Q 2125 3875 2150 3925 
Q 2150 3975 2150 4025 
Q 2150 4125 2075 4187 
Q 2000 4250 1800 4250 
Q 1375 4250 1075 3862 
Q 775 3475 775 2175 
Q 925 2500 1187 2662 
Q 1450 2825 1750 2825 
z
" transform="scale(0.015625)"/>
       </defs>
       <use xlink:href="#SimSun-36"/>
       <use xlink:href="#SimSun-30" x="50"/>
       <use xlink:href="#SimSun-30" x="100"/>
      </g>
     </g>
    </g>
    <g id="xtick_5">
     <g id="line2d_9">
      <path d="M 553.241423 360.136875 
L 553.241423 27.496875 
" clip-path="url(#p90f259736d)" style="fill: none; stroke: #b0b0b0; stroke-width: 0.8; stroke-linecap: square"/>
     </g>
     <g id="line2d_10">
      <g>
       <use xlink:href="#m507462c2c8" x="553.241423" y="360.136875" style="stroke: #000000; stroke-width: 0.8"/>
      </g>
     </g>
     <g id="text_5">
      <!-- 800 -->
      <g transform="translate(538.241423 381.43375) scale(0.2 -0.2)">
       <defs>
        <path id="SimSun-38" d="M 625 1125 
Q 625 725 887 475 
Q 1150 225 1550 225 
Q 2025 225 2237 475 
Q 2450 725 2450 1100 
Q 2450 1425 2150 1725 
Q 1850 2025 1250 2275 
Q 950 2075 787 1775 
Q 625 1475 625 1125 
z
M 2825 1175 
Q 2825 700 2475 375 
Q 2125 50 1550 50 
Q 1025 50 650 375 
Q 275 700 275 1125 
Q 275 1550 487 1850 
Q 700 2150 1100 2375 
Q 750 2550 562 2812 
Q 375 3075 375 3400 
Q 375 3825 700 4125 
Q 1025 4425 1600 4425 
Q 2125 4425 2450 4125 
Q 2775 3825 2775 3400 
Q 2775 3100 2587 2837 
Q 2400 2575 2000 2375 
Q 2425 2125 2625 1825 
Q 2825 1525 2825 1175 
z
M 2425 3375 
Q 2425 3725 2225 3987 
Q 2025 4250 1600 4250 
Q 1125 4250 925 4000 
Q 725 3750 725 3475 
Q 725 3200 1012 2937 
Q 1300 2675 1825 2475 
Q 2125 2625 2275 2850 
Q 2425 3075 2425 3375 
z
" transform="scale(0.015625)"/>
       </defs>
       <use xlink:href="#SimSun-38"/>
       <use xlink:href="#SimSun-30" x="50"/>
       <use xlink:href="#SimSun-30" x="100"/>
      </g>
     </g>
    </g>
    <g id="xtick_6">
     <g id="line2d_11">
      <path d="M 669.74425 360.136875 
L 669.74425 27.496875 
" clip-path="url(#p90f259736d)" style="fill: none; stroke: #b0b0b0; stroke-width: 0.8; stroke-linecap: square"/>
     </g>
     <g id="line2d_12">
      <g>
       <use xlink:href="#m507462c2c8" x="669.74425" y="360.136875" style="stroke: #000000; stroke-width: 0.8"/>
      </g>
     </g>
     <g id="text_6">
      <!-- 1000 -->
      <g transform="translate(649.74425 381.43375) scale(0.2 -0.2)">
       <defs>
        <path id="SimSun-31" d="M 1825 4450 
L 1825 650 
Q 1825 450 1950 350 
Q 2075 250 2300 250 
L 2550 250 
L 2550 100 
L 725 100 
L 725 250 
L 950 250 
Q 1200 250 1312 350 
Q 1425 450 1425 650 
L 1425 3675 
Q 1425 3775 1362 3837 
Q 1300 3900 1175 3900 
L 725 3900 
L 725 4050 
L 950 4050 
Q 1250 4050 1437 4150 
Q 1625 4250 1725 4450 
L 1825 4450 
z
" transform="scale(0.015625)"/>
       </defs>
       <use xlink:href="#SimSun-31"/>
       <use xlink:href="#SimSun-30" x="50"/>
       <use xlink:href="#SimSun-30" x="100"/>
       <use xlink:href="#SimSun-30" x="150"/>
      </g>
     </g>
    </g>
    <g id="text_7">
     <!-- 时间 -->
     <g transform="translate(371.59375 403.55875) scale(0.2 -0.2)">
      <defs>
       <path id="SimSun-65f6" d="M 4500 3600 
Q 4500 4575 4475 5225 
L 5100 4900 
L 4850 4725 
L 4850 3600 
L 5225 3600 
L 5550 3925 
L 6025 3450 
L 4850 3450 
L 4850 100 
Q 4850 -375 4300 -575 
Q 4275 -200 3475 -25 
L 3475 100 
Q 4150 0 4325 25 
Q 4500 50 4500 325 
L 4500 3450 
L 3200 3450 
Q 2875 3450 2600 3375 
L 2375 3600 
L 4500 3600 
z
M 2875 2825 
Q 3525 2375 3637 2200 
Q 3750 2025 3750 1925 
Q 3750 1800 3637 1637 
Q 3525 1475 3475 1475 
Q 3400 1475 3325 1775 
Q 3200 2225 2800 2750 
L 2875 2825 
z
M 925 4150 
L 925 2650 
L 1950 2650 
L 1950 4150 
L 925 4150 
z
M 925 2500 
L 925 900 
L 1950 900 
L 1950 2500 
L 925 2500 
z
M 2300 2000 
Q 2300 800 2325 450 
L 1950 250 
L 1950 750 
L 925 750 
L 925 225 
L 550 25 
Q 575 825 575 2425 
Q 575 4025 550 4500 
L 950 4300 
L 1900 4300 
L 2100 4550 
L 2500 4225 
L 2300 4050 
L 2300 2000 
z
" transform="scale(0.015625)"/>
       <path id="SimSun-95f4" d="M 2150 525 
Q 2175 1325 2175 2112 
Q 2175 2900 2150 3675 
L 2525 3450 
L 3750 3450 
L 4000 3700 
L 4325 3375 
L 4125 3200 
Q 4125 1550 4150 775 
L 3800 575 
L 3800 975 
L 2500 975 
L 2500 700 
L 2150 525 
z
M 2500 3300 
L 2500 2325 
L 3800 2325 
L 3800 3300 
L 2500 3300 
z
M 2500 2175 
L 2500 1125 
L 3800 1125 
L 3800 2175 
L 2500 2175 
z
M 1275 5200 
Q 1850 4825 1950 4675 
Q 2050 4525 2050 4425 
Q 2050 4275 1950 4137 
Q 1850 4000 1825 4000 
Q 1750 4000 1675 4275 
Q 1550 4650 1200 5125 
L 1275 5200 
z
M 1125 425 
Q 1125 25 1150 -375 
L 750 -525 
Q 775 -150 775 1950 
Q 775 4050 750 4425 
L 1350 4125 
L 1125 3975 
L 1125 425 
z
M 4225 125 
Q 5025 0 5125 37 
Q 5225 75 5225 250 
L 5225 4450 
L 3225 4450 
Q 2900 4450 2625 4375 
L 2400 4600 
L 5175 4600 
L 5425 4850 
L 5775 4500 
L 5575 4350 
L 5575 225 
Q 5575 -100 5462 -250 
Q 5350 -400 5000 -550 
Q 4800 -125 4225 25 
L 4225 125 
z
" transform="scale(0.015625)"/>
      </defs>
      <use xlink:href="#SimSun-65f6"/>
      <use xlink:href="#SimSun-95f4" x="100"/>
     </g>
    </g>
   </g>
   <g id="matplotlib.axis_2">
    <g id="ytick_1">
     <g id="line2d_13">
      <path d="M 56.79375 329.509183 
L 726.39375 329.509183 
" clip-path="url(#p90f259736d)" style="fill: none; stroke: #b0b0b0; stroke-width: 0.8; stroke-linecap: square"/>
     </g>
     <g id="line2d_14">
      <defs>
       <path id="m18ae175af4" d="M 0 0 
L -3.5 0 
" style="stroke: #000000; stroke-width: 0.8"/>
      </defs>
      <g>
       <use xlink:href="#m18ae175af4" x="56.79375" y="329.509183" style="stroke: #000000; stroke-width: 0.8"/>
      </g>
     </g>
     <g id="text_8">
      <!-- M1 -->
      <g transform="translate(29.79375 336.65762) scale(0.2 -0.2)">
       <defs>
        <path id="SimSun-4d" d="M 2800 450 
Q 2800 350 2862 300 
Q 2925 250 3025 250 
L 3125 250 
L 3125 100 
L 2050 100 
L 2050 250 
L 2175 250 
Q 2300 250 2350 300 
Q 2400 350 2400 450 
L 2400 3725 
L 2350 3725 
L 1500 100 
L 1350 100 
L 575 3650 
L 525 3650 
L 525 450 
Q 525 350 587 300 
Q 650 250 750 250 
L 825 250 
L 825 100 
L 75 100 
L 75 250 
L 150 250 
Q 275 250 325 300 
Q 375 350 375 450 
L 375 4025 
Q 375 4125 325 4175 
Q 275 4225 150 4225 
L 50 4225 
L 50 4375 
L 775 4375 
L 1500 1025 
L 1550 1025 
L 2325 4375 
L 3125 4375 
L 3125 4225 
L 3025 4225 
Q 2925 4225 2862 4175 
Q 2800 4125 2800 4025 
L 2800 450 
z
" transform="scale(0.015625)"/>
       </defs>
       <use xlink:href="#SimSun-4d"/>
       <use xlink:href="#SimSun-31" x="50"/>
      </g>
     </g>
    </g>
    <g id="ytick_2">
     <g id="line2d_15">
      <path d="M 56.79375 290.739952 
L 726.39375 290.739952 
" clip-path="url(#p90f259736d)" style="fill: none; stroke: #b0b0b0; stroke-width: 0.8; stroke-linecap: square"/>
     </g>
     <g id="line2d_16">
      <g>
       <use xlink:href="#m18ae175af4" x="56.79375" y="290.739952" style="stroke: #000000; stroke-width: 0.8"/>
      </g>
     </g>
     <g id="text_9">
      <!-- M2 -->
      <g transform="translate(29.79375 297.888389) scale(0.2 -0.2)">
       <use xlink:href="#SimSun-4d"/>
       <use xlink:href="#SimSun-32" x="50"/>
      </g>
     </g>
    </g>
    <g id="ytick_3">
     <g id="line2d_17">
      <path d="M 56.79375 251.970721 
L 726.39375 251.970721 
" clip-path="url(#p90f259736d)" style="fill: none; stroke: #b0b0b0; stroke-width: 0.8; stroke-linecap: square"/>
     </g>
     <g id="line2d_18">
      <g>
       <use xlink:href="#m18ae175af4" x="56.79375" y="251.970721" style="stroke: #000000; stroke-width: 0.8"/>
      </g>
     </g>
     <g id="text_10">
      <!-- M3 -->
      <g transform="translate(29.79375 259.119159) scale(0.2 -0.2)">
       <defs>
        <path id="SimSun-33" d="M 2800 1250 
Q 2800 775 2450 412 
Q 2100 50 1475 50 
Q 1025 50 700 300 
Q 375 550 375 875 
Q 375 1025 475 1137 
Q 575 1250 675 1250 
Q 825 1250 887 1137 
Q 950 1025 950 950 
Q 950 825 900 750 
Q 850 650 850 575 
Q 850 425 1037 325 
Q 1225 225 1450 225 
Q 1900 225 2125 487 
Q 2350 750 2350 1300 
Q 2350 1750 2112 2025 
Q 1875 2300 1225 2300 
L 1225 2475 
Q 1725 2475 1962 2712 
Q 2200 2950 2200 3375 
Q 2200 3725 2012 3987 
Q 1825 4250 1425 4250 
Q 1250 4250 1050 4162 
Q 850 4075 850 3875 
Q 850 3675 900 3625 
Q 950 3575 950 3500 
Q 950 3375 900 3300 
Q 850 3225 725 3225 
Q 625 3225 537 3300 
Q 450 3375 450 3575 
Q 450 3950 775 4187 
Q 1100 4425 1525 4425 
Q 2025 4425 2325 4112 
Q 2625 3800 2625 3450 
Q 2625 3075 2437 2812 
Q 2250 2550 1850 2425 
Q 2400 2225 2600 1900 
Q 2800 1575 2800 1250 
z
" transform="scale(0.015625)"/>
       </defs>
       <use xlink:href="#SimSun-4d"/>
       <use xlink:href="#SimSun-33" x="50"/>
      </g>
     </g>
    </g>
    <g id="ytick_4">
     <g id="line2d_19">
      <path d="M 56.79375 213.20149 
L 726.39375 213.20149 
" clip-path="url(#p90f259736d)" style="fill: none; stroke: #b0b0b0; stroke-width: 0.8; stroke-linecap: square"/>
     </g>
     <g id="line2d_20">
      <g>
       <use xlink:href="#m18ae175af4" x="56.79375" y="213.20149" style="stroke: #000000; stroke-width: 0.8"/>
      </g>
     </g>
     <g id="text_11">
      <!-- M4 -->
      <g transform="translate(29.79375 220.349928) scale(0.2 -0.2)">
       <use xlink:href="#SimSun-4d"/>
       <use xlink:href="#SimSun-34" x="50"/>
      </g>
     </g>
    </g>
    <g id="ytick_5">
     <g id="line2d_21">
      <path d="M 56.79375 174.43226 
L 726.39375 174.43226 
" clip-path="url(#p90f259736d)" style="fill: none; stroke: #b0b0b0; stroke-width: 0.8; stroke-linecap: square"/>
     </g>
     <g id="line2d_22">
      <g>
       <use xlink:href="#m18ae175af4" x="56.79375" y="174.43226" style="stroke: #000000; stroke-width: 0.8"/>
      </g>
     </g>
     <g id="text_12">
      <!-- M5 -->
      <g transform="translate(29.79375 181.580697) scale(0.2 -0.2)">
       <defs>
        <path id="SimSun-35" d="M 1725 2850 
Q 2200 2850 2500 2487 
Q 2800 2125 2800 1525 
Q 2800 850 2487 450 
Q 2175 50 1525 50 
Q 1075 50 725 312 
Q 375 575 375 950 
Q 375 1100 462 1212 
Q 550 1325 700 1325 
Q 850 1325 900 1225 
Q 950 1125 950 1050 
Q 950 900 875 825 
Q 800 725 800 625 
Q 800 425 1037 325 
Q 1275 225 1550 225 
Q 1950 225 2162 550 
Q 2375 875 2375 1475 
Q 2375 1975 2187 2287 
Q 2000 2600 1625 2600 
Q 1350 2600 1150 2500 
Q 950 2400 775 2075 
L 550 2100 
L 675 4375 
L 2725 4375 
L 2650 4000 
L 850 4000 
L 750 2350 
Q 1000 2700 1237 2775 
Q 1475 2850 1725 2850 
z
" transform="scale(0.015625)"/>
       </defs>
       <use xlink:href="#SimSun-4d"/>
       <use xlink:href="#SimSun-35" x="50"/>
      </g>
     </g>
    </g>
    <g id="ytick_6">
     <g id="line2d_23">
      <path d="M 56.79375 135.663029 
L 726.39375 135.663029 
" clip-path="url(#p90f259736d)" style="fill: none; stroke: #b0b0b0; stroke-width: 0.8; stroke-linecap: square"/>
     </g>
     <g id="line2d_24">
      <g>
       <use xlink:href="#m18ae175af4" x="56.79375" y="135.663029" style="stroke: #000000; stroke-width: 0.8"/>
      </g>
     </g>
     <g id="text_13">
      <!-- M6 -->
      <g transform="translate(29.79375 142.811466) scale(0.2 -0.2)">
       <use xlink:href="#SimSun-4d"/>
       <use xlink:href="#SimSun-36" x="50"/>
      </g>
     </g>
    </g>
    <g id="ytick_7">
     <g id="line2d_25">
      <path d="M 56.79375 96.893798 
L 726.39375 96.893798 
" clip-path="url(#p90f259736d)" style="fill: none; stroke: #b0b0b0; stroke-width: 0.8; stroke-linecap: square"/>
     </g>
     <g id="line2d_26">
      <g>
       <use xlink:href="#m18ae175af4" x="56.79375" y="96.893798" style="stroke: #000000; stroke-width: 0.8"/>
      </g>
     </g>
     <g id="text_14">
      <!-- M7 -->
      <g transform="translate(29.79375 104.042236) scale(0.2 -0.2)">
       <defs>
        <path id="SimSun-37" d="M 2825 4200 
Q 2300 3350 1987 2537 
Q 1675 1725 1675 1125 
Q 1675 1025 1700 850 
Q 1700 650 1700 400 
Q 1700 200 1637 125 
Q 1575 50 1425 50 
Q 1300 50 1212 137 
Q 1125 225 1125 450 
Q 1125 925 1337 1625 
Q 1550 2325 2475 4000 
L 1225 4000 
Q 950 4000 787 3825 
Q 625 3650 550 3300 
L 400 3325 
L 575 4375 
L 2825 4375 
L 2825 4200 
z
" transform="scale(0.015625)"/>
       </defs>
       <use xlink:href="#SimSun-4d"/>
       <use xlink:href="#SimSun-37" x="50"/>
      </g>
     </g>
    </g>
    <g id="ytick_8">
     <g id="line2d_27">
      <path d="M 56.79375 58.124567 
L 726.39375 58.124567 
" clip-path="url(#p90f259736d)" style="fill: none; stroke: #b0b0b0; stroke-width: 0.8; stroke-linecap: square"/>
     </g>
     <g id="line2d_28">
      <g>
       <use xlink:href="#m18ae175af4" x="56.79375" y="58.124567" style="stroke: #000000; stroke-width: 0.8"/>
      </g>
     </g>
     <g id="text_15">
      <!-- M8 -->
      <g transform="translate(29.79375 65.273005) scale(0.2 -0.2)">
       <use xlink:href="#SimSun-4d"/>
       <use xlink:href="#SimSun-38" x="50"/>
      </g>
     </g>
    </g>
    <g id="text_16">
     <!-- 机器 -->
     <g transform="translate(23.215625 213.816875) rotate(-90) scale(0.2 -0.2)">
      <defs>
       <path id="SimSun-673a" d="M 3400 4425 
L 3400 2250 
Q 3400 400 2000 -575 
L 1925 -500 
Q 3050 525 3050 2250 
L 3050 3450 
Q 3050 4125 3025 4825 
L 3400 4575 
L 4550 4575 
L 4775 4825 
L 5175 4475 
L 4925 4325 
L 4925 250 
Q 4925 0 5175 0 
L 5475 0 
Q 5600 0 5650 200 
Q 5700 400 5725 1100 
L 5850 1100 
Q 5850 550 5900 362 
Q 5950 175 6150 75 
Q 6000 -225 5837 -262 
Q 5675 -300 5525 -300 
L 5000 -300 
Q 4575 -300 4575 100 
L 4575 4425 
L 3400 4425 
z
M 1725 2700 
Q 1725 50 1750 -500 
L 1350 -675 
Q 1375 425 1375 2375 
Q 1000 1325 275 525 
L 225 600 
Q 975 1775 1350 3500 
L 750 3500 
L 525 3450 
L 325 3650 
L 1375 3650 
Q 1375 4525 1350 5275 
L 1900 5050 
L 1725 4875 
L 1725 3650 
L 2075 3650 
L 2350 3925 
L 2775 3500 
L 1725 3500 
L 1725 2825 
Q 2325 2600 2512 2475 
Q 2700 2350 2700 2150 
Q 2700 2025 2662 1900 
Q 2625 1775 2600 1775 
Q 2525 1775 2375 2025 
Q 2150 2375 1725 2700 
z
" transform="scale(0.015625)"/>
       <path id="SimSun-5668" d="M 1475 4625 
L 1475 3650 
L 2475 3650 
L 2475 4625 
L 1475 4625 
z
M 1125 3075 
Q 1150 3575 1150 4062 
Q 1150 4550 1125 5000 
L 1475 4775 
L 2450 4775 
L 2625 5000 
L 3025 4675 
L 2800 4525 
Q 2800 3625 2825 3350 
L 2475 3200 
L 2475 3500 
L 1475 3500 
L 1475 3250 
L 1125 3075 
z
M 5250 1200 
Q 5250 150 5275 -225 
L 4900 -375 
L 4900 25 
L 3775 25 
L 3775 -350 
L 3425 -475 
Q 3450 50 3450 562 
Q 3450 1075 3425 1550 
L 3775 1375 
L 4825 1375 
L 4875 1425 
Q 4025 1900 3600 2525 
L 2850 2525 
Q 2200 1750 1425 1375 
L 2475 1375 
L 2650 1600 
L 3025 1300 
L 2850 1150 
Q 2850 100 2875 -225 
L 2525 -350 
L 2525 25 
L 1550 25 
L 1550 -300 
L 1200 -425 
Q 1225 0 1225 475 
Q 1225 950 1225 1275 
Q 725 1100 275 1000 
L 250 1075 
Q 950 1325 1475 1662 
Q 2000 2000 2450 2525 
L 1250 2525 
Q 925 2525 650 2450 
L 425 2675 
L 2525 2675 
Q 2750 3025 2925 3400 
L 3400 3075 
Q 3150 2975 2925 2675 
L 4500 2675 
Q 4375 3025 4000 3275 
L 4050 3350 
Q 4525 3225 4650 3125 
Q 4775 3025 4775 2950 
Q 4775 2825 4650 2675 
L 5150 2675 
L 5500 3025 
L 6000 2525 
L 3750 2525 
Q 4175 2125 4737 1850 
Q 5300 1575 6125 1550 
L 6125 1450 
Q 5725 1400 5650 1100 
L 5275 1225 
L 5250 1200 
z
M 1550 1225 
L 1550 175 
L 2525 175 
L 2525 1225 
L 1550 1225 
z
M 3775 1225 
L 3775 175 
L 4900 175 
L 4900 1225 
L 3775 1225 
z
M 3925 4625 
L 3925 3650 
L 4900 3650 
L 4900 4625 
L 3925 4625 
z
M 3575 3200 
Q 3600 3650 3600 4112 
Q 3600 4575 3575 5000 
L 3925 4775 
L 4875 4775 
L 5050 5000 
L 5425 4700 
L 5225 4525 
Q 5225 3700 5250 3375 
L 4900 3250 
L 4900 3500 
L 3925 3500 
L 3925 3325 
L 3575 3200 
z
" transform="scale(0.015625)"/>
      </defs>
      <use xlink:href="#SimSun-673a"/>
      <use xlink:href="#SimSun-5668" x="100"/>
     </g>
    </g>
   </g>
   <g id="patch_3">
    <path d="M 56.79375 360.136875 
L 56.79375 27.496875 
" style="fill: none; stroke: #000000; stroke-width: 0.8; stroke-linejoin: miter; stroke-linecap: square"/>
   </g>
   <g id="patch_4">
    <path d="M 726.39375 360.136875 
L 726.39375 27.496875 
" style="fill: none; stroke: #000000; stroke-width: 0.8; stroke-linejoin: miter; stroke-linecap: square"/>
   </g>
   <g id="patch_5">
    <path d="M 56.79375 360.136875 
L 726.39375 360.136875 
" style="fill: none; stroke: #000000; stroke-width: 0.8; stroke-linejoin: miter; stroke-linecap: square"/>
   </g>
   <g id="patch_6">
    <path d="M 56.79375 27.496875 
L 726.39375 27.496875 
" style="fill: none; stroke: #000000; stroke-width: 0.8; stroke-linejoin: miter; stroke-linecap: square"/>
   </g>
   <g id="text_17">
    <!-- 12 -->
    <g transform="translate(104.569479 334.196683) scale(0.16 -0.16)">
     <use xlink:href="#SimSun-31"/>
     <use xlink:href="#SimSun-32" x="50"/>
    </g>
   </g>
   <g id="text_18">
    <!-- 4 -->
    <g transform="translate(196.237856 334.196683) scale(0.16 -0.16)">
     <use xlink:href="#SimSun-34"/>
    </g>
   </g>
   <g id="text_19">
    <!-- 8 -->
    <g transform="translate(101.288052 295.427452) scale(0.16 -0.16)">
     <use xlink:href="#SimSun-38"/>
    </g>
   </g>
   <g id="text_20">
    <!-- 16 -->
    <g transform="translate(151.17061 295.427452) scale(0.16 -0.16)">
     <use xlink:href="#SimSun-31"/>
     <use xlink:href="#SimSun-36" x="50"/>
    </g>
   </g>
   <g id="text_21">
    <!-- 20 -->
    <g transform="translate(229.227504 295.427452) scale(0.16 -0.16)">
     <use xlink:href="#SimSun-32"/>
     <use xlink:href="#SimSun-30" x="50"/>
    </g>
   </g>
   <g id="text_22">
    <!-- 32 -->
    <g transform="translate(315.148339 295.427452) scale(0.16 -0.16)">
     <use xlink:href="#SimSun-33"/>
     <use xlink:href="#SimSun-32" x="50"/>
    </g>
   </g>
   <g id="text_23">
    <!-- 5 -->
    <g transform="translate(382.059866 295.427452) scale(0.16 -0.16)">
     <use xlink:href="#SimSun-35"/>
    </g>
   </g>
   <g id="text_24">
    <!-- 1 -->
    <g transform="translate(443.22385 295.427452) scale(0.16 -0.16)">
     <use xlink:href="#SimSun-31"/>
    </g>
   </g>
   <g id="text_25">
    <!-- 18 -->
    <g transform="translate(506.212976 295.427452) scale(0.16 -0.16)">
     <use xlink:href="#SimSun-31"/>
     <use xlink:href="#SimSun-38" x="50"/>
    </g>
   </g>
   <g id="text_26">
    <!-- 24 -->
    <g transform="translate(121.462389 256.658221) scale(0.16 -0.16)">
     <use xlink:href="#SimSun-32"/>
     <use xlink:href="#SimSun-34" x="50"/>
    </g>
   </g>
   <g id="text_27">
    <!-- 25 -->
    <g transform="translate(199.81054 256.658221) scale(0.16 -0.16)">
     <use xlink:href="#SimSun-32"/>
     <use xlink:href="#SimSun-35" x="50"/>
    </g>
   </g>
   <g id="text_28">
    <!-- 21 -->
    <g transform="translate(307.284398 256.658221) scale(0.16 -0.16)">
     <use xlink:href="#SimSun-32"/>
     <use xlink:href="#SimSun-31" x="50"/>
    </g>
   </g>
   <g id="text_29">
    <!-- 0 -->
    <g transform="translate(376.234724 256.658221) scale(0.16 -0.16)">
     <use xlink:href="#SimSun-30"/>
    </g>
   </g>
   <g id="text_30">
    <!-- 33 -->
    <g transform="translate(453.786703 256.658221) scale(0.16 -0.16)">
     <use xlink:href="#SimSun-33"/>
     <use xlink:href="#SimSun-33" x="50"/>
    </g>
   </g>
   <g id="text_31">
    <!-- 28 -->
    <g transform="translate(150.588095 217.88899) scale(0.16 -0.16)">
     <use xlink:href="#SimSun-32"/>
     <use xlink:href="#SimSun-38" x="50"/>
    </g>
   </g>
   <g id="text_32">
    <!-- 9 -->
    <g transform="translate(256.528069 217.88899) scale(0.16 -0.16)">
     <defs>
      <path id="SimSun-39" d="M 700 3050 
Q 700 2500 912 2212 
Q 1125 1925 1450 1925 
Q 1825 1925 2100 2275 
Q 2375 2625 2375 2925 
Q 2375 3525 2175 3887 
Q 1975 4250 1525 4250 
Q 1100 4250 900 3912 
Q 700 3575 700 3050 
z
M 1375 1700 
Q 875 1700 575 2012 
Q 275 2325 275 3025 
Q 275 3625 600 4025 
Q 925 4425 1525 4425 
Q 2150 4425 2500 3925 
Q 2850 3425 2850 2475 
Q 2850 1425 2437 737 
Q 2025 50 1300 50 
Q 975 50 737 200 
Q 500 350 500 600 
Q 500 700 562 800 
Q 625 900 775 900 
Q 925 900 975 787 
Q 1025 675 1025 525 
Q 1025 425 1050 362 
Q 1075 300 1100 275 
Q 1125 250 1187 237 
Q 1250 225 1325 225 
Q 1775 225 2050 725 
Q 2325 1225 2375 2400 
Q 2250 2100 2000 1900 
Q 1750 1700 1375 1700 
z
" transform="scale(0.015625)"/>
     </defs>
     <use xlink:href="#SimSun-39"/>
    </g>
   </g>
   <g id="text_33">
    <!-- 10 -->
    <g transform="translate(338.448904 217.88899) scale(0.16 -0.16)">
     <use xlink:href="#SimSun-31"/>
     <use xlink:href="#SimSun-30" x="50"/>
    </g>
   </g>
   <g id="text_34">
    <!-- 14 -->
    <g transform="translate(436.020022 217.88899) scale(0.16 -0.16)">
     <use xlink:href="#SimSun-31"/>
     <use xlink:href="#SimSun-34" x="50"/>
    </g>
   </g>
   <g id="text_35">
    <!-- 2 -->
    <g transform="translate(525.940857 217.88899) scale(0.16 -0.16)">
     <use xlink:href="#SimSun-32"/>
    </g>
   </g>
   <g id="text_36">
    <!-- 13 -->
    <g transform="translate(180.296316 179.11976) scale(0.16 -0.16)">
     <use xlink:href="#SimSun-31"/>
     <use xlink:href="#SimSun-33" x="50"/>
    </g>
   </g>
   <g id="text_37">
    <!-- 26 -->
    <g transform="translate(278.158691 179.11976) scale(0.16 -0.16)">
     <use xlink:href="#SimSun-32"/>
     <use xlink:href="#SimSun-36" x="50"/>
    </g>
   </g>
   <g id="text_38">
    <!-- 17 -->
    <g transform="translate(334.080048 179.11976) scale(0.16 -0.16)">
     <use xlink:href="#SimSun-31"/>
     <use xlink:href="#SimSun-37" x="50"/>
    </g>
   </g>
   <g id="text_39">
    <!-- 30 -->
    <g transform="translate(394.661519 179.11976) scale(0.16 -0.16)">
     <use xlink:href="#SimSun-33"/>
     <use xlink:href="#SimSun-30" x="50"/>
    </g>
   </g>
   <g id="text_40">
    <!-- 22 -->
    <g transform="translate(471.844642 179.11976) scale(0.16 -0.16)">
     <use xlink:href="#SimSun-32"/>
     <use xlink:href="#SimSun-32" x="50"/>
    </g>
   </g>
   <g id="text_41">
    <!-- 34 -->
    <g transform="translate(518.445773 179.11976) scale(0.16 -0.16)">
     <use xlink:href="#SimSun-33"/>
     <use xlink:href="#SimSun-34" x="50"/>
    </g>
   </g>
   <g id="text_42">
    <!-- 27 -->
    <g transform="translate(570.872045 179.11976) scale(0.16 -0.16)">
     <use xlink:href="#SimSun-32"/>
     <use xlink:href="#SimSun-37" x="50"/>
    </g>
   </g>
   <g id="text_43">
    <!-- 7 -->
    <g transform="translate(650.598883 179.11976) scale(0.16 -0.16)">
     <use xlink:href="#SimSun-37"/>
    </g>
   </g>
   <g id="text_44">
    <!-- 29 -->
    <g transform="translate(287.18766 140.350529) scale(0.16 -0.16)">
     <use xlink:href="#SimSun-32"/>
     <use xlink:href="#SimSun-39" x="50"/>
    </g>
   </g>
   <g id="text_45">
    <!-- 6 -->
    <g transform="translate(428.952254 140.350529) scale(0.16 -0.16)">
     <use xlink:href="#SimSun-36"/>
    </g>
   </g>
   <g id="text_46">
    <!-- 15 -->
    <g transform="translate(527.765999 140.350529) scale(0.16 -0.16)">
     <use xlink:href="#SimSun-31"/>
     <use xlink:href="#SimSun-35" x="50"/>
    </g>
   </g>
   <g id="text_47">
    <!-- 35 -->
    <g transform="translate(620.968261 140.350529) scale(0.16 -0.16)">
     <use xlink:href="#SimSun-33"/>
     <use xlink:href="#SimSun-35" x="50"/>
    </g>
   </g>
   <g id="text_48">
    <!-- 31 -->
    <g transform="translate(480.582354 101.581298) scale(0.16 -0.16)">
     <use xlink:href="#SimSun-33"/>
     <use xlink:href="#SimSun-31" x="50"/>
    </g>
   </g>
   <g id="text_49">
    <!-- 23 -->
    <g transform="translate(538.833767 101.581298) scale(0.16 -0.16)">
     <use xlink:href="#SimSun-32"/>
     <use xlink:href="#SimSun-33" x="50"/>
    </g>
   </g>
   <g id="text_50">
    <!-- 3 -->
    <g transform="translate(630.793402 101.581298) scale(0.16 -0.16)">
     <use xlink:href="#SimSun-33"/>
    </g>
   </g>
   <g id="text_51">
    <!-- 11 -->
    <g transform="translate(441.845164 62.812067) scale(0.16 -0.16)">
     <use xlink:href="#SimSun-31"/>
     <use xlink:href="#SimSun-31" x="50"/>
    </g>
   </g>
   <g id="text_52">
    <!-- 19 -->
    <g transform="translate(583.396099 62.812067) scale(0.16 -0.16)">
     <use xlink:href="#SimSun-31"/>
     <use xlink:href="#SimSun-39" x="50"/>
    </g>
   </g>
   <g id="text_53">
    <!-- Instance: MFJS8, Makespan: 1045 -->
    <g transform="translate(236.59375 21.496875) scale(0.2 -0.2)">
     <defs>
      <path id="SimSun-49" d="M 600 4225 
L 600 4375 
L 2600 4375 
L 2600 4225 
L 2025 4225 
Q 1925 4225 1862 4175 
Q 1800 4125 1800 4025 
L 1800 450 
Q 1800 350 1862 300 
Q 1925 250 2025 250 
L 2600 250 
L 2600 100 
L 600 100 
L 600 250 
L 1175 250 
Q 1300 250 1350 300 
Q 1400 350 1400 450 
L 1400 4025 
Q 1400 4125 1350 4175 
Q 1300 4225 1175 4225 
L 600 4225 
z
" transform="scale(0.015625)"/>
      <path id="SimSun-6e" d="M 200 100 
L 200 250 
L 325 250 
Q 450 250 500 300 
Q 550 350 550 450 
L 550 2600 
Q 550 2675 525 2712 
Q 500 2750 425 2750 
L 225 2750 
L 225 2900 
L 400 2900 
Q 525 2900 637 2925 
Q 750 2950 850 3025 
L 900 3025 
L 900 2450 
Q 1125 2700 1350 2825 
Q 1575 2950 1825 2950 
Q 2250 2950 2450 2725 
Q 2650 2500 2650 2050 
L 2650 450 
Q 2650 350 2712 300 
Q 2775 250 2875 250 
L 3000 250 
L 3000 100 
L 1950 100 
L 1950 250 
L 2075 250 
Q 2200 250 2250 300 
Q 2300 350 2300 450 
L 2300 2125 
Q 2300 2425 2175 2587 
Q 2050 2750 1800 2750 
Q 1575 2750 1337 2600 
Q 1100 2450 900 2175 
L 900 450 
Q 900 350 962 300 
Q 1025 250 1125 250 
L 1250 250 
L 1250 100 
L 200 100 
z
" transform="scale(0.015625)"/>
      <path id="SimSun-73" d="M 625 2175 
Q 625 2550 912 2750 
Q 1200 2950 1600 2950 
Q 1825 2950 2025 2900 
Q 2225 2825 2300 2825 
Q 2375 2825 2425 2850 
Q 2475 2875 2550 2950 
L 2650 2125 
L 2500 2100 
Q 2400 2425 2162 2612 
Q 1925 2800 1625 2800 
Q 1300 2800 1112 2675 
Q 925 2550 925 2325 
Q 925 2125 1012 2012 
Q 1100 1900 1325 1850 
Q 1500 1775 1775 1700 
Q 2025 1600 2250 1500 
Q 2450 1400 2587 1237 
Q 2725 1075 2725 875 
Q 2725 500 2462 287 
Q 2200 75 1700 75 
Q 1375 75 1225 150 
Q 1050 200 950 200 
Q 875 200 787 162 
Q 700 125 600 75 
L 525 1000 
L 675 1025 
Q 750 625 1000 425 
Q 1250 225 1700 225 
Q 2050 225 2237 350 
Q 2425 475 2425 725 
Q 2425 900 2325 1012 
Q 2225 1125 2125 1175 
Q 1875 1275 1575 1400 
Q 1275 1500 1050 1600 
Q 825 1700 725 1850 
Q 625 2000 625 2175 
z
" transform="scale(0.015625)"/>
      <path id="SimSun-74" d="M 1500 900 
Q 1500 550 1625 425 
Q 1750 300 2000 300 
Q 2250 300 2400 462 
Q 2550 625 2600 925 
L 2725 875 
Q 2675 525 2462 300 
Q 2250 75 1900 75 
Q 1525 75 1337 300 
Q 1150 525 1150 1000 
L 1150 2750 
L 400 2750 
L 400 2900 
L 600 2900 
Q 900 2900 1087 3087 
Q 1275 3275 1325 3675 
L 1350 3875 
L 1500 3875 
L 1500 2900 
L 2500 2900 
L 2500 2750 
L 1500 2750 
L 1500 900 
z
" transform="scale(0.015625)"/>
      <path id="SimSun-61" d="M 1225 75 
Q 775 75 525 287 
Q 275 500 275 775 
Q 275 1225 662 1512 
Q 1050 1800 2200 1925 
L 2200 2225 
Q 2200 2475 2087 2637 
Q 1975 2800 1575 2800 
Q 1150 2800 975 2662 
Q 800 2525 850 2375 
Q 875 2325 875 2275 
Q 875 2225 837 2150 
Q 800 2075 650 2075 
Q 550 2075 487 2137 
Q 425 2200 425 2325 
Q 425 2550 750 2750 
Q 1075 2950 1550 2950 
Q 2050 2950 2300 2762 
Q 2550 2575 2550 2225 
L 2550 575 
Q 2550 375 2587 337 
Q 2625 300 2725 300 
Q 2850 300 2900 412 
Q 2950 525 2950 725 
L 3075 725 
Q 3075 375 2950 237 
Q 2825 100 2625 100 
Q 2450 100 2350 175 
Q 2250 250 2200 425 
Q 1950 250 1737 162 
Q 1525 75 1225 75 
z
M 700 850 
Q 700 625 837 437 
Q 975 250 1275 250 
Q 1500 250 1725 337 
Q 1950 425 2200 600 
L 2200 1775 
Q 1350 1675 1025 1437 
Q 700 1200 700 850 
z
" transform="scale(0.015625)"/>
      <path id="SimSun-63" d="M 2150 2225 
Q 2150 2300 2175 2325 
Q 2175 2350 2200 2425 
Q 2225 2525 2100 2662 
Q 1975 2800 1675 2800 
Q 1300 2800 1037 2437 
Q 775 2075 775 1475 
Q 775 925 1000 587 
Q 1225 250 1750 250 
Q 2100 250 2337 475 
Q 2575 700 2675 1000 
L 2800 950 
Q 2700 575 2425 312 
Q 2150 50 1675 50 
Q 1075 50 725 425 
Q 375 800 375 1500 
Q 375 2125 750 2537 
Q 1125 2950 1725 2950 
Q 2150 2950 2387 2725 
Q 2625 2500 2625 2275 
Q 2625 2125 2562 2062 
Q 2500 2000 2375 2000 
Q 2275 2000 2212 2062 
Q 2150 2125 2150 2225 
z
" transform="scale(0.015625)"/>
      <path id="SimSun-65" d="M 2400 1650 
Q 2425 2200 2212 2487 
Q 2000 2775 1650 2775 
Q 1275 2775 1037 2475 
Q 800 2175 800 1650 
L 2400 1650 
z
M 800 1500 
Q 800 825 1062 537 
Q 1325 250 1750 250 
Q 2075 250 2300 437 
Q 2525 625 2625 900 
L 2750 850 
Q 2675 575 2412 312 
Q 2150 50 1700 50 
Q 1125 50 762 425 
Q 400 800 400 1500 
Q 400 2125 762 2537 
Q 1125 2950 1650 2950 
Q 2125 2950 2475 2625 
Q 2825 2300 2825 1500 
L 800 1500 
z
" transform="scale(0.015625)"/>
      <path id="SimSun-3a" d="M 1900 2725 
Q 1900 2575 1800 2475 
Q 1700 2375 1550 2375 
Q 1400 2375 1300 2475 
Q 1200 2575 1200 2725 
Q 1200 2875 1300 2975 
Q 1400 3075 1550 3075 
Q 1700 3075 1800 2975 
Q 1900 2875 1900 2725 
z
M 1900 375 
Q 1900 225 1800 125 
Q 1700 25 1550 25 
Q 1400 25 1300 125 
Q 1200 225 1200 375 
Q 1200 525 1300 625 
Q 1400 725 1550 725 
Q 1700 725 1800 625 
Q 1900 525 1900 375 
z
" transform="scale(0.015625)"/>
      <path id="SimSun-20" d="M 0 0 
Q 0 0 0 0 
z
" transform="scale(0.015625)"/>
      <path id="SimSun-46" d="M 1350 250 
L 1350 100 
L 150 100 
L 150 250 
L 325 250 
Q 450 250 500 300 
Q 550 350 550 450 
L 550 4025 
Q 550 4125 500 4175 
Q 450 4225 325 4225 
L 175 4225 
L 175 4375 
L 2775 4375 
L 3075 3475 
L 2950 3425 
Q 2750 3825 2475 4025 
Q 2200 4225 1875 4225 
L 1175 4225 
Q 1075 4225 1012 4175 
Q 950 4125 950 4025 
L 950 2425 
L 1775 2425 
Q 2025 2425 2137 2537 
Q 2250 2650 2250 2900 
L 2250 3025 
L 2400 3025 
L 2400 1575 
L 2250 1575 
L 2250 1675 
Q 2250 1975 2137 2125 
Q 2025 2275 1775 2275 
L 950 2275 
L 950 450 
Q 950 350 1012 300 
Q 1075 250 1175 250 
L 1350 250 
z
" transform="scale(0.015625)"/>
      <path id="SimSun-4a" d="M 1825 4025 
Q 1825 4125 1775 4175 
Q 1725 4225 1600 4225 
L 1000 4225 
L 1000 4375 
L 3050 4375 
L 3050 4225 
L 2450 4225 
Q 2350 4225 2287 4175 
Q 2225 4125 2225 4025 
L 2225 475 
Q 2225 -75 1875 -387 
Q 1525 -700 1000 -700 
Q 625 -700 425 -550 
Q 225 -400 225 -200 
Q 225 -50 312 25 
Q 400 100 500 100 
Q 625 100 700 12 
Q 775 -75 775 -200 
Q 775 -250 762 -287 
Q 750 -325 700 -375 
Q 750 -450 850 -487 
Q 950 -525 1100 -525 
Q 1425 -525 1625 -312 
Q 1825 -100 1825 475 
L 1825 4025 
z
" transform="scale(0.015625)"/>
      <path id="SimSun-53" d="M 1500 2150 
Q 825 2450 575 2675 
Q 325 2900 325 3375 
Q 325 3750 637 4087 
Q 950 4425 1525 4425 
Q 1775 4425 2000 4350 
Q 2225 4250 2325 4250 
Q 2400 4250 2462 4287 
Q 2525 4325 2575 4425 
L 2675 3400 
L 2550 3350 
Q 2325 3875 2087 4062 
Q 1850 4250 1475 4250 
Q 1000 4250 825 3987 
Q 650 3725 650 3425 
Q 650 3150 812 2987 
Q 975 2825 1700 2500 
Q 2300 2250 2562 1937 
Q 2825 1625 2825 1200 
Q 2825 750 2512 400 
Q 2200 50 1600 50 
Q 1350 50 1150 150 
Q 925 225 800 225 
Q 725 225 650 175 
Q 575 125 475 50 
L 275 1275 
L 425 1325 
Q 600 700 912 462 
Q 1225 225 1625 225 
Q 2050 225 2262 475 
Q 2475 725 2475 1200 
Q 2475 1450 2237 1687 
Q 2000 1925 1500 2150 
z
" transform="scale(0.015625)"/>
      <path id="SimSun-2c" d="M 450 550 
Q 450 650 537 750 
Q 625 850 800 850 
Q 1000 850 1112 687 
Q 1225 525 1225 350 
Q 1225 0 1025 -300 
Q 825 -600 450 -750 
L 350 -625 
Q 600 -475 725 -312 
Q 850 -150 850 25 
Q 850 150 650 250 
Q 450 350 450 550 
z
" transform="scale(0.015625)"/>
      <path id="SimSun-6b" d="M 1675 1900 
L 2625 425 
Q 2700 325 2762 287 
Q 2825 250 2900 250 
L 3000 250 
L 3000 100 
L 1975 100 
L 1975 250 
L 2050 250 
Q 2175 250 2225 287 
Q 2275 325 2200 425 
L 1425 1650 
L 925 1125 
L 925 450 
Q 925 350 987 300 
Q 1050 250 1150 250 
L 1275 250 
L 1275 100 
L 225 100 
L 225 250 
L 350 250 
Q 475 250 525 300 
Q 575 350 575 450 
L 575 4025 
Q 575 4125 525 4175 
Q 475 4225 350 4225 
L 200 4225 
L 200 4375 
L 425 4375 
Q 575 4375 687 4425 
Q 800 4475 875 4575 
L 925 4575 
L 925 1400 
L 1975 2525 
Q 2025 2625 2012 2687 
Q 2000 2750 1900 2750 
L 1750 2750 
L 1750 2900 
L 2800 2900 
L 2800 2750 
L 2675 2750 
Q 2600 2750 2487 2712 
Q 2375 2675 2275 2575 
L 1675 1900 
z
M 2450 2750 
L 2450 2750 
z
M 2175 2750 
L 2175 2750 
z
M 2300 250 
L 2300 250 
z
M 2750 250 
L 2750 250 
z
" transform="scale(0.015625)"/>
      <path id="SimSun-70" d="M 1150 -675 
L 1325 -675 
L 1325 -825 
L 175 -825 
L 175 -675 
L 325 -675 
Q 450 -675 500 -625 
Q 550 -575 550 -450 
L 550 2500 
Q 550 2600 500 2662 
Q 450 2725 325 2725 
L 175 2725 
L 175 2875 
L 400 2875 
Q 525 2875 637 2900 
Q 750 2925 850 3000 
L 900 3000 
L 900 2425 
Q 1075 2675 1287 2800 
Q 1500 2925 1750 2925 
Q 2250 2925 2575 2587 
Q 2900 2250 2900 1525 
Q 2900 825 2550 450 
Q 2200 75 1725 75 
Q 1450 75 1262 162 
Q 1075 250 900 425 
L 900 -450 
Q 900 -575 975 -625 
Q 1050 -675 1150 -675 
z
M 900 750 
Q 1025 500 1212 375 
Q 1400 250 1650 250 
Q 2000 250 2250 562 
Q 2500 875 2500 1525 
Q 2500 2125 2312 2425 
Q 2125 2725 1750 2725 
Q 1525 2725 1300 2587 
Q 1075 2450 900 2150 
L 900 750 
z
" transform="scale(0.015625)"/>
     </defs>
     <use xlink:href="#SimSun-49"/>
     <use xlink:href="#SimSun-6e" x="50"/>
     <use xlink:href="#SimSun-73" x="100"/>
     <use xlink:href="#SimSun-74" x="150"/>
     <use xlink:href="#SimSun-61" x="200"/>
     <use xlink:href="#SimSun-6e" x="250"/>
     <use xlink:href="#SimSun-63" x="300"/>
     <use xlink:href="#SimSun-65" x="350"/>
     <use xlink:href="#SimSun-3a" x="400"/>
     <use xlink:href="#SimSun-20" x="450"/>
     <use xlink:href="#SimSun-4d" x="500"/>
     <use xlink:href="#SimSun-46" x="550"/>
     <use xlink:href="#SimSun-4a" x="600"/>
     <use xlink:href="#SimSun-53" x="650"/>
     <use xlink:href="#SimSun-38" x="700"/>
     <use xlink:href="#SimSun-2c" x="750"/>
     <use xlink:href="#SimSun-20" x="800"/>
     <use xlink:href="#SimSun-4d" x="850"/>
     <use xlink:href="#SimSun-61" x="900"/>
     <use xlink:href="#SimSun-6b" x="950"/>
     <use xlink:href="#SimSun-65" x="1000"/>
     <use xlink:href="#SimSun-73" x="1050"/>
     <use xlink:href="#SimSun-70" x="1100"/>
     <use xlink:href="#SimSun-61" x="1150"/>
     <use xlink:href="#SimSun-6e" x="1200"/>
     <use xlink:href="#SimSun-3a" x="1250"/>
     <use xlink:href="#SimSun-20" x="1300"/>
     <use xlink:href="#SimSun-31" x="1350"/>
     <use xlink:href="#SimSun-30" x="1400"/>
     <use xlink:href="#SimSun-34" x="1450"/>
     <use xlink:href="#SimSun-35" x="1500"/>
    </g>
   </g>
  </g>
 </g>
 <defs>
  <clipPath id="p90f259736d">
   <rect x="56.79375" y="27.496875" width="669.6" height="332.64"/>
  </clipPath>
 </defs>
 <defs>
  <pattern id="h5879655a40" patternUnits="userSpaceOnUse" x="0" y="0" width="72" height="72">
   <rect x="0" y="0" width="73" height="73" fill="#808080"/>
   <path d="M -36 36 
L 36 -36 
M -24 48 
L 48 -24 
M -12 60 
L 60 -12 
M 0 72 
L 72 0 
M 12 84 
L 84 12 
M 24 96 
L 96 24 
M 36 108 
L 108 36 
" style="fill: #000000; stroke: #000000; stroke-width: 1.0; stroke-linecap: butt; stroke-linejoin: miter"/>
  </pattern>
 </defs>
</svg>
