<?xml version="1.0" encoding="utf-8" standalone="no"?>
<!DOCTYPE svg PUBLIC "-//W3C//DTD SVG 1.1//EN"
  "http://www.w3.org/Graphics/SVG/1.1/DTD/svg11.dtd">
<svg xmlns:xlink="http://www.w3.org/1999/xlink" width="740.95pt" height="414.25875pt" viewBox="0 0 740.95 414.25875" xmlns="http://www.w3.org/2000/svg" version="1.1">
 <metadata>
  <rdf:RDF xmlns:dc="http://purl.org/dc/elements/1.1/" xmlns:cc="http://creativecommons.org/ns#" xmlns:rdf="http://www.w3.org/1999/02/22-rdf-syntax-ns#">
   <cc:Work>
    <dc:type rdf:resource="http://purl.org/dc/dcmitype/StillImage"/>
    <dc:date>2025-03-02T23:39:04.458739</dc:date>
    <dc:format>image/svg+xml</dc:format>
    <dc:creator>
     <cc:Agent>
      <dc:title>Matplotlib v3.9.2, https://matplotlib.org/</dc:title>
     </cc:Agent>
    </dc:creator>
   </cc:Work>
  </rdf:RDF>
 </metadata>
 <defs>
  <style type="text/css">*{stroke-linejoin: round; stroke-linecap: butt}</style>
 </defs>
 <g id="figure_1">
  <g id="patch_1">
   <path d="M 0 414.25875 
L 740.95 414.25875 
L 740.95 0 
L 0 0 
z
" style="fill: #ffffff"/>
  </g>
  <g id="axes_1">
   <g id="patch_2">
    <path d="M 64.15 359.7275 
L 733.75 359.7275 
L 733.75 27.0875 
L 64.15 27.0875 
z
" style="fill: #ffffff"/>
   </g>
   <g id="PolyCollection_1">
    <defs>
     <path id="ma33c6c44e9" d="M 94.586364 -69.65125 
L 94.586364 -100.666635 
L 173.440865 -100.666635 
L 173.440865 -69.65125 
z
" style="stroke: #000000"/>
    </defs>
    <g clip-path="url(#pd57f41a329)">
     <use xlink:href="#ma33c6c44e9" x="0" y="414.25875" style="fill: #4c78a8; stroke: #000000"/>
    </g>
   </g>
   <g id="PolyCollection_2">
    <path d="M 94.586364 344.6075 
L 94.586364 313.592115 
L 94.586364 313.592115 
L 94.586364 344.6075 
z
" clip-path="url(#pd57f41a329)" style="fill: url(#h85990ee6ae); stroke: #000000"/>
   </g>
   <g id="PolyCollection_3">
    <defs>
     <path id="m19d9f9f2ed" d="M 173.440865 -69.65125 
L 173.440865 -100.666635 
L 264.455173 -100.666635 
L 264.455173 -69.65125 
z
" style="stroke: #000000"/>
    </defs>
    <g clip-path="url(#pd57f41a329)">
     <use xlink:href="#m19d9f9f2ed" x="0" y="414.25875" style="fill: #1f77b4; stroke: #000000"/>
    </g>
   </g>
   <g id="PolyCollection_4">
    <path d="M 173.440865 344.6075 
L 173.440865 313.592115 
L 173.440865 313.592115 
L 173.440865 344.6075 
z
" clip-path="url(#pd57f41a329)" style="fill: url(#h85990ee6ae); stroke: #000000"/>
   </g>
   <g id="PolyCollection_5">
    <defs>
     <path id="m323125c89a" d="M 264.455173 -69.65125 
L 264.455173 -100.666635 
L 311.620482 -100.666635 
L 311.620482 -69.65125 
z
" style="stroke: #000000"/>
    </defs>
    <g clip-path="url(#pd57f41a329)">
     <use xlink:href="#m323125c89a" x="0" y="414.25875" style="fill: #c6dbef; stroke: #000000"/>
    </g>
   </g>
   <g id="PolyCollection_6">
    <path d="M 264.455173 344.6075 
L 264.455173 313.592115 
L 264.455173 313.592115 
L 264.455173 344.6075 
z
" clip-path="url(#pd57f41a329)" style="fill: url(#h85990ee6ae); stroke: #000000"/>
   </g>
   <g id="PolyCollection_7">
    <defs>
     <path id="m3c6112db4c" d="M 311.620482 -69.65125 
L 311.620482 -100.666635 
L 343.678153 -100.666635 
L 343.678153 -69.65125 
z
" style="stroke: #000000"/>
    </defs>
    <g clip-path="url(#pd57f41a329)">
     <use xlink:href="#m3c6112db4c" x="0" y="414.25875" style="fill: #6395b9; stroke: #000000"/>
    </g>
   </g>
   <g id="PolyCollection_8">
    <path d="M 311.620482 344.6075 
L 311.620482 313.592115 
L 311.620482 313.592115 
L 311.620482 344.6075 
z
" clip-path="url(#pd57f41a329)" style="fill: url(#h85990ee6ae); stroke: #000000"/>
   </g>
   <g id="PolyCollection_9">
    <defs>
     <path id="m998097d781" d="M 343.678153 -69.65125 
L 343.678153 -100.666635 
L 375.735824 -100.666635 
L 375.735824 -69.65125 
z
" style="stroke: #000000"/>
    </defs>
    <g clip-path="url(#pd57f41a329)">
     <use xlink:href="#m998097d781" x="0" y="414.25875" style="fill: #9ecae1; stroke: #000000"/>
    </g>
   </g>
   <g id="PolyCollection_10">
    <path d="M 343.678153 344.6075 
L 343.678153 313.592115 
L 343.678153 313.592115 
L 343.678153 344.6075 
z
" clip-path="url(#pd57f41a329)" style="fill: url(#h85990ee6ae); stroke: #000000"/>
   </g>
   <g id="PolyCollection_11">
    <defs>
     <path id="ma3c0b866e0" d="M 94.586364 -108.420481 
L 94.586364 -139.435865 
L 149.85821 -139.435865 
L 149.85821 -108.420481 
z
" style="stroke: #000000"/>
    </defs>
    <g clip-path="url(#pd57f41a329)">
     <use xlink:href="#ma3c0b866e0" x="0" y="414.25875" style="fill: #9467bd; stroke: #000000"/>
    </g>
   </g>
   <g id="PolyCollection_12">
    <path d="M 94.586364 305.838269 
L 94.586364 274.822885 
L 94.586364 274.822885 
L 94.586364 305.838269 
z
" clip-path="url(#pd57f41a329)" style="fill: url(#h85990ee6ae); stroke: #000000"/>
   </g>
   <g id="PolyCollection_13">
    <defs>
     <path id="m2a664d4e54" d="M 149.85821 -108.420481 
L 149.85821 -139.435865 
L 207.70941 -139.435865 
L 207.70941 -108.420481 
z
" style="stroke: #000000"/>
    </defs>
    <g clip-path="url(#pd57f41a329)">
     <use xlink:href="#m2a664d4e54" x="0" y="414.25875" style="fill: #e45756; stroke: #000000"/>
    </g>
   </g>
   <g id="PolyCollection_14">
    <path d="M 149.85821 305.838269 
L 149.85821 274.822885 
L 149.85821 274.822885 
L 149.85821 305.838269 
z
" clip-path="url(#pd57f41a329)" style="fill: url(#h85990ee6ae); stroke: #000000"/>
   </g>
   <g id="PolyCollection_15">
    <defs>
     <path id="maedec31b7a" d="M 207.70941 -108.420481 
L 207.70941 -139.435865 
L 232.029023 -139.435865 
L 232.029023 -108.420481 
z
" style="stroke: #000000"/>
    </defs>
    <g clip-path="url(#pd57f41a329)">
     <use xlink:href="#maedec31b7a" x="0" y="414.25875" style="fill: #4c78a8; stroke: #000000"/>
    </g>
   </g>
   <g id="PolyCollection_16">
    <path d="M 207.70941 305.838269 
L 207.70941 274.822885 
L 207.70941 274.822885 
L 207.70941 305.838269 
z
" clip-path="url(#pd57f41a329)" style="fill: url(#h85990ee6ae); stroke: #000000"/>
   </g>
   <g id="PolyCollection_17">
    <defs>
     <path id="mceeff53bf7" d="M 232.029023 -108.420481 
L 232.029023 -139.435865 
L 285.458475 -139.435865 
L 285.458475 -108.420481 
z
" style="stroke: #000000"/>
    </defs>
    <g clip-path="url(#pd57f41a329)">
     <use xlink:href="#mceeff53bf7" x="0" y="414.25875" style="fill: #d62728; stroke: #000000"/>
    </g>
   </g>
   <g id="PolyCollection_18">
    <path d="M 232.029023 305.838269 
L 232.029023 274.822885 
L 232.029023 274.822885 
L 232.029023 305.838269 
z
" clip-path="url(#pd57f41a329)" style="fill: url(#h85990ee6ae); stroke: #000000"/>
   </g>
   <g id="PolyCollection_19">
    <defs>
     <path id="maed9769eca" d="M 285.458475 -108.420481 
L 285.458475 -139.435865 
L 340.730321 -139.435865 
L 340.730321 -108.420481 
z
" style="stroke: #000000"/>
    </defs>
    <g clip-path="url(#pd57f41a329)">
     <use xlink:href="#maed9769eca" x="0" y="414.25875" style="fill: #fc9272; stroke: #000000"/>
    </g>
   </g>
   <g id="PolyCollection_20">
    <path d="M 285.458475 305.838269 
L 285.458475 274.822885 
L 285.458475 274.822885 
L 285.458475 305.838269 
z
" clip-path="url(#pd57f41a329)" style="fill: url(#h85990ee6ae); stroke: #000000"/>
   </g>
   <g id="PolyCollection_21">
    <defs>
     <path id="m2f304a0725" d="M 340.730321 -108.420481 
L 340.730321 -139.435865 
L 377.578219 -139.435865 
L 377.578219 -108.420481 
z
" style="stroke: #000000"/>
    </defs>
    <g clip-path="url(#pd57f41a329)">
     <use xlink:href="#m2f304a0725" x="0" y="414.25875" style="fill: #c6dbef; stroke: #000000"/>
    </g>
   </g>
   <g id="PolyCollection_22">
    <path d="M 340.730321 305.838269 
L 340.730321 274.822885 
L 340.730321 274.822885 
L 340.730321 305.838269 
z
" clip-path="url(#pd57f41a329)" style="fill: url(#h85990ee6ae); stroke: #000000"/>
   </g>
   <g id="PolyCollection_23">
    <defs>
     <path id="mb41966b444" d="M 377.578219 -108.420481 
L 377.578219 -139.435865 
L 425.480486 -139.435865 
L 425.480486 -108.420481 
z
" style="stroke: #000000"/>
    </defs>
    <g clip-path="url(#pd57f41a329)">
     <use xlink:href="#mb41966b444" x="0" y="414.25875" style="fill: #1f77b4; stroke: #000000"/>
    </g>
   </g>
   <g id="PolyCollection_24">
    <path d="M 377.578219 305.838269 
L 377.578219 274.822885 
L 377.578219 274.822885 
L 377.578219 305.838269 
z
" clip-path="url(#pd57f41a329)" style="fill: url(#h85990ee6ae); stroke: #000000"/>
   </g>
   <g id="PolyCollection_25">
    <defs>
     <path id="m509d7b92be" d="M 149.85821 -147.189712 
L 149.85821 -178.205096 
L 216.184427 -178.205096 
L 216.184427 -147.189712 
z
" style="stroke: #000000"/>
    </defs>
    <g clip-path="url(#pd57f41a329)">
     <use xlink:href="#m509d7b92be" x="0" y="414.25875" style="fill: #9467bd; stroke: #000000"/>
    </g>
   </g>
   <g id="PolyCollection_26">
    <path d="M 149.85821 267.069038 
L 149.85821 236.053654 
L 149.85821 236.053654 
L 149.85821 267.069038 
z
" clip-path="url(#pd57f41a329)" style="fill: url(#h85990ee6ae); stroke: #000000"/>
   </g>
   <g id="PolyCollection_27">
    <defs>
     <path id="maf54484ba5" d="M 216.184427 -147.189712 
L 216.184427 -178.205096 
L 261.87582 -178.205096 
L 261.87582 -147.189712 
z
" style="stroke: #000000"/>
    </defs>
    <g clip-path="url(#pd57f41a329)">
     <use xlink:href="#maf54484ba5" x="0" y="414.25875" style="fill: #e45756; stroke: #000000"/>
    </g>
   </g>
   <g id="PolyCollection_28">
    <path d="M 216.184427 267.069038 
L 216.184427 236.053654 
L 216.184427 236.053654 
L 216.184427 267.069038 
z
" clip-path="url(#pd57f41a329)" style="fill: url(#h85990ee6ae); stroke: #000000"/>
   </g>
   <g id="PolyCollection_29">
    <defs>
     <path id="md9fd426de2" d="M 285.458475 -147.189712 
L 285.458475 -178.205096 
L 330.781389 -178.205096 
L 330.781389 -147.189712 
z
" style="stroke: #000000"/>
    </defs>
    <g clip-path="url(#pd57f41a329)">
     <use xlink:href="#md9fd426de2" x="0" y="414.25875" style="fill: #d62728; stroke: #000000"/>
    </g>
   </g>
   <g id="PolyCollection_30">
    <path d="M 285.458475 267.069038 
L 285.458475 236.053654 
L 285.458475 236.053654 
L 285.458475 267.069038 
z
" clip-path="url(#pd57f41a329)" style="fill: url(#h85990ee6ae); stroke: #000000"/>
   </g>
   <g id="PolyCollection_31">
    <defs>
     <path id="m5da0703743" d="M 343.678153 -147.189712 
L 343.678153 -178.205096 
L 410.004369 -178.205096 
L 410.004369 -147.189712 
z
" style="stroke: #000000"/>
    </defs>
    <g clip-path="url(#pd57f41a329)">
     <use xlink:href="#m5da0703743" x="0" y="414.25875" style="fill: #6395b9; stroke: #000000"/>
    </g>
   </g>
   <g id="PolyCollection_32">
    <path d="M 343.678153 267.069038 
L 343.678153 236.053654 
L 343.678153 236.053654 
L 343.678153 267.069038 
z
" clip-path="url(#pd57f41a329)" style="fill: url(#h85990ee6ae); stroke: #000000"/>
   </g>
   <g id="PolyCollection_33">
    <defs>
     <path id="mccde4654b7" d="M 410.004369 -147.189712 
L 410.004369 -178.205096 
L 502.124114 -178.205096 
L 502.124114 -147.189712 
z
" style="stroke: #000000"/>
    </defs>
    <g clip-path="url(#pd57f41a329)">
     <use xlink:href="#mccde4654b7" x="0" y="414.25875" style="fill: #9ecae1; stroke: #000000"/>
    </g>
   </g>
   <g id="PolyCollection_34">
    <path d="M 410.004369 267.069038 
L 410.004369 236.053654 
L 410.004369 236.053654 
L 410.004369 267.069038 
z
" clip-path="url(#pd57f41a329)" style="fill: url(#h85990ee6ae); stroke: #000000"/>
   </g>
   <g id="PolyCollection_35">
    <defs>
     <path id="m33094fa08a" d="M 502.124114 -147.189712 
L 502.124114 -178.205096 
L 568.45033 -178.205096 
L 568.45033 -147.189712 
z
" style="stroke: #000000"/>
    </defs>
    <g clip-path="url(#pd57f41a329)">
     <use xlink:href="#m33094fa08a" x="0" y="414.25875" style="fill: #fc9272; stroke: #000000"/>
    </g>
   </g>
   <g id="PolyCollection_36">
    <path d="M 502.124114 267.069038 
L 502.124114 236.053654 
L 502.124114 236.053654 
L 502.124114 267.069038 
z
" clip-path="url(#pd57f41a329)" style="fill: url(#h85990ee6ae); stroke: #000000"/>
   </g>
   <g id="PolyCollection_37">
    <defs>
     <path id="md3b9cc1e1b" d="M 94.586364 -185.958942 
L 94.586364 -216.974327 
L 184.863713 -216.974327 
L 184.863713 -185.958942 
z
" style="stroke: #000000"/>
    </defs>
    <g clip-path="url(#pd57f41a329)">
     <use xlink:href="#md3b9cc1e1b" x="0" y="414.25875" style="fill: #f67e7d; stroke: #000000"/>
    </g>
   </g>
   <g id="PolyCollection_38">
    <path d="M 94.586364 228.299808 
L 94.586364 197.284423 
L 94.586364 197.284423 
L 94.586364 228.299808 
z
" clip-path="url(#pd57f41a329)" style="fill: url(#h85990ee6ae); stroke: #000000"/>
   </g>
   <g id="PolyCollection_39">
    <defs>
     <path id="m44ecc6b2c7" d="M 184.863713 -185.958942 
L 184.863713 -216.974327 
L 275.141063 -216.974327 
L 275.141063 -185.958942 
z
" style="stroke: #000000"/>
    </defs>
    <g clip-path="url(#pd57f41a329)">
     <use xlink:href="#m44ecc6b2c7" x="0" y="414.25875" style="fill: #fee0d2; stroke: #000000"/>
    </g>
   </g>
   <g id="PolyCollection_40">
    <path d="M 184.863713 228.299808 
L 184.863713 197.284423 
L 184.863713 197.284423 
L 184.863713 228.299808 
z
" clip-path="url(#pd57f41a329)" style="fill: url(#h85990ee6ae); stroke: #000000"/>
   </g>
   <g id="PolyCollection_41">
    <defs>
     <path id="m75bd62cd2d" d="M 311.620482 -185.958942 
L 311.620482 -216.974327 
L 335.571616 -216.974327 
L 335.571616 -185.958942 
z
" style="stroke: #000000"/>
    </defs>
    <g clip-path="url(#pd57f41a329)">
     <use xlink:href="#m75bd62cd2d" x="0" y="414.25875" style="fill: #c6dbef; stroke: #000000"/>
    </g>
   </g>
   <g id="PolyCollection_42">
    <path d="M 311.620482 228.299808 
L 311.620482 197.284423 
L 311.620482 197.284423 
L 311.620482 228.299808 
z
" clip-path="url(#pd57f41a329)" style="fill: url(#h85990ee6ae); stroke: #000000"/>
   </g>
   <g id="PolyCollection_43">
    <defs>
     <path id="m587afeeb22" d="M 425.480486 -185.958942 
L 425.480486 -216.974327 
L 480.752333 -216.974327 
L 480.752333 -185.958942 
z
" style="stroke: #000000"/>
    </defs>
    <g clip-path="url(#pd57f41a329)">
     <use xlink:href="#m587afeeb22" x="0" y="414.25875" style="fill: #1f77b4; stroke: #000000"/>
    </g>
   </g>
   <g id="PolyCollection_44">
    <path d="M 425.480486 228.299808 
L 425.480486 197.284423 
L 425.480486 197.284423 
L 425.480486 228.299808 
z
" clip-path="url(#pd57f41a329)" style="fill: url(#h85990ee6ae); stroke: #000000"/>
   </g>
   <g id="PolyCollection_45">
    <defs>
     <path id="m63da2237e9" d="M 480.752333 -185.958942 
L 480.752333 -216.974327 
L 550.763339 -216.974327 
L 550.763339 -185.958942 
z
" style="stroke: #000000"/>
    </defs>
    <g clip-path="url(#pd57f41a329)">
     <use xlink:href="#m63da2237e9" x="0" y="414.25875" style="fill: #6395b9; stroke: #000000"/>
    </g>
   </g>
   <g id="PolyCollection_46">
    <path d="M 480.752333 228.299808 
L 480.752333 197.284423 
L 480.752333 197.284423 
L 480.752333 228.299808 
z
" clip-path="url(#pd57f41a329)" style="fill: url(#h85990ee6ae); stroke: #000000"/>
   </g>
   <g id="PolyCollection_47">
    <defs>
     <path id="m1045f4aea8" d="M 216.184427 -224.728173 
L 216.184427 -255.743558 
L 230.923586 -255.743558 
L 230.923586 -224.728173 
z
" style="stroke: #000000"/>
    </defs>
    <g clip-path="url(#pd57f41a329)">
     <use xlink:href="#m1045f4aea8" x="0" y="414.25875" style="fill: #9467bd; stroke: #000000"/>
    </g>
   </g>
   <g id="PolyCollection_48">
    <path d="M 216.184427 189.530577 
L 216.184427 158.515192 
L 216.184427 158.515192 
L 216.184427 189.530577 
z
" clip-path="url(#pd57f41a329)" style="fill: url(#h85990ee6ae); stroke: #000000"/>
   </g>
   <g id="PolyCollection_49">
    <defs>
     <path id="m9825c41718" d="M 267.403005 -224.728173 
L 267.403005 -255.743558 
L 320.832457 -255.743558 
L 320.832457 -224.728173 
z
" style="stroke: #000000"/>
    </defs>
    <g clip-path="url(#pd57f41a329)">
     <use xlink:href="#m9825c41718" x="0" y="414.25875" style="fill: #f67e7d; stroke: #000000"/>
    </g>
   </g>
   <g id="PolyCollection_50">
    <path d="M 267.403005 189.530577 
L 267.403005 158.515192 
L 267.403005 158.515192 
L 267.403005 189.530577 
z
" clip-path="url(#pd57f41a329)" style="fill: url(#h85990ee6ae); stroke: #000000"/>
   </g>
   <g id="PolyCollection_51">
    <defs>
     <path id="m8d62665bfd" d="M 320.832457 -224.728173 
L 320.832457 -255.743558 
L 374.261908 -255.743558 
L 374.261908 -224.728173 
z
" style="stroke: #000000"/>
    </defs>
    <g clip-path="url(#pd57f41a329)">
     <use xlink:href="#m8d62665bfd" x="0" y="414.25875" style="fill: #e45756; stroke: #000000"/>
    </g>
   </g>
   <g id="PolyCollection_52">
    <path d="M 320.832457 189.530577 
L 320.832457 158.515192 
L 320.832457 158.515192 
L 320.832457 189.530577 
z
" clip-path="url(#pd57f41a329)" style="fill: url(#h85990ee6ae); stroke: #000000"/>
   </g>
   <g id="PolyCollection_53">
    <defs>
     <path id="mc1d7b575fb" d="M 374.261908 -224.728173 
L 374.261908 -255.743558 
L 473.014275 -255.743558 
L 473.014275 -224.728173 
z
" style="stroke: #000000"/>
    </defs>
    <g clip-path="url(#pd57f41a329)">
     <use xlink:href="#mc1d7b575fb" x="0" y="414.25875" style="fill: #fee0d2; stroke: #000000"/>
    </g>
   </g>
   <g id="PolyCollection_54">
    <path d="M 374.261908 189.530577 
L 374.261908 158.515192 
L 374.261908 158.515192 
L 374.261908 189.530577 
z
" clip-path="url(#pd57f41a329)" style="fill: url(#h85990ee6ae); stroke: #000000"/>
   </g>
   <g id="PolyCollection_55">
    <defs>
     <path id="mcaa0ae903f" d="M 473.014275 -224.728173 
L 473.014275 -255.743558 
L 526.443727 -255.743558 
L 526.443727 -224.728173 
z
" style="stroke: #000000"/>
    </defs>
    <g clip-path="url(#pd57f41a329)">
     <use xlink:href="#mcaa0ae903f" x="0" y="414.25875" style="fill: #fee0d2; stroke: #000000"/>
    </g>
   </g>
   <g id="PolyCollection_56">
    <path d="M 473.014275 189.530577 
L 473.014275 158.515192 
L 473.014275 158.515192 
L 473.014275 189.530577 
z
" clip-path="url(#pd57f41a329)" style="fill: url(#h85990ee6ae); stroke: #000000"/>
   </g>
   <g id="PolyCollection_57">
    <defs>
     <path id="m5b06eb998f" d="M 526.443727 -224.728173 
L 526.443727 -255.743558 
L 570.661204 -255.743558 
L 570.661204 -224.728173 
z
" style="stroke: #000000"/>
    </defs>
    <g clip-path="url(#pd57f41a329)">
     <use xlink:href="#m5b06eb998f" x="0" y="414.25875" style="fill: #d62728; stroke: #000000"/>
    </g>
   </g>
   <g id="PolyCollection_58">
    <path d="M 526.443727 189.530577 
L 526.443727 158.515192 
L 526.443727 158.515192 
L 526.443727 189.530577 
z
" clip-path="url(#pd57f41a329)" style="fill: url(#h85990ee6ae); stroke: #000000"/>
   </g>
   <g id="PolyCollection_59">
    <defs>
     <path id="m9f5c27c93c" d="M 570.661204 -224.728173 
L 570.661204 -255.743558 
L 585.400363 -255.743558 
L 585.400363 -224.728173 
z
" style="stroke: #000000"/>
    </defs>
    <g clip-path="url(#pd57f41a329)">
     <use xlink:href="#m9f5c27c93c" x="0" y="414.25875" style="fill: #fc9272; stroke: #000000"/>
    </g>
   </g>
   <g id="PolyCollection_60">
    <path d="M 570.661204 189.530577 
L 570.661204 158.515192 
L 570.661204 158.515192 
L 570.661204 189.530577 
z
" clip-path="url(#pd57f41a329)" style="fill: url(#h85990ee6ae); stroke: #000000"/>
   </g>
   <g id="PolyCollection_61">
    <defs>
     <path id="m39db6132f2" d="M 184.863713 -263.497404 
L 184.863713 -294.512788 
L 267.403005 -294.512788 
L 267.403005 -263.497404 
z
" style="stroke: #000000"/>
    </defs>
    <g clip-path="url(#pd57f41a329)">
     <use xlink:href="#m39db6132f2" x="0" y="414.25875" style="fill: #f67e7d; stroke: #000000"/>
    </g>
   </g>
   <g id="PolyCollection_62">
    <path d="M 184.863713 150.761346 
L 184.863713 119.745962 
L 184.863713 119.745962 
L 184.863713 150.761346 
z
" clip-path="url(#pd57f41a329)" style="fill: url(#h85990ee6ae); stroke: #000000"/>
   </g>
   <g id="PolyCollection_63">
    <defs>
     <path id="m817c319e8c" d="M 267.403005 -263.497404 
L 267.403005 -294.512788 
L 302.408508 -294.512788 
L 302.408508 -263.497404 
z
" style="stroke: #000000"/>
    </defs>
    <g clip-path="url(#pd57f41a329)">
     <use xlink:href="#m817c319e8c" x="0" y="414.25875" style="fill: #4c78a8; stroke: #000000"/>
    </g>
   </g>
   <g id="PolyCollection_64">
    <path d="M 267.403005 150.761346 
L 267.403005 119.745962 
L 267.403005 119.745962 
L 267.403005 150.761346 
z
" clip-path="url(#pd57f41a329)" style="fill: url(#h85990ee6ae); stroke: #000000"/>
   </g>
   <g id="PolyCollection_65">
    <defs>
     <path id="md373470d1c" d="M 302.408508 -263.497404 
L 302.408508 -294.512788 
L 357.680354 -294.512788 
L 357.680354 -263.497404 
z
" style="stroke: #000000"/>
    </defs>
    <g clip-path="url(#pd57f41a329)">
     <use xlink:href="#md373470d1c" x="0" y="414.25875" style="fill: #9467bd; stroke: #000000"/>
    </g>
   </g>
   <g id="PolyCollection_66">
    <path d="M 302.408508 150.761346 
L 302.408508 119.745962 
L 302.408508 119.745962 
L 302.408508 150.761346 
z
" clip-path="url(#pd57f41a329)" style="fill: url(#h85990ee6ae); stroke: #000000"/>
   </g>
   <g id="PolyCollection_67">
    <defs>
     <path id="m9a24b59a87" d="M 502.124114 -263.497404 
L 502.124114 -294.512788 
L 552.237255 -294.512788 
L 552.237255 -263.497404 
z
" style="stroke: #000000"/>
    </defs>
    <g clip-path="url(#pd57f41a329)">
     <use xlink:href="#m9a24b59a87" x="0" y="414.25875" style="fill: #9ecae1; stroke: #000000"/>
    </g>
   </g>
   <g id="PolyCollection_68">
    <path d="M 502.124114 150.761346 
L 502.124114 119.745962 
L 502.124114 119.745962 
L 502.124114 150.761346 
z
" clip-path="url(#pd57f41a329)" style="fill: url(#h85990ee6ae); stroke: #000000"/>
   </g>
   <g id="PolyCollection_69">
    <defs>
     <path id="md70534cb52" d="M 585.400363 -263.497404 
L 585.400363 -294.512788 
L 640.67221 -294.512788 
L 640.67221 -263.497404 
z
" style="stroke: #000000"/>
    </defs>
    <g clip-path="url(#pd57f41a329)">
     <use xlink:href="#md70534cb52" x="0" y="414.25875" style="fill: #fc9272; stroke: #000000"/>
    </g>
   </g>
   <g id="PolyCollection_70">
    <path d="M 585.400363 150.761346 
L 585.400363 119.745962 
L 585.400363 119.745962 
L 585.400363 150.761346 
z
" clip-path="url(#pd57f41a329)" style="fill: url(#h85990ee6ae); stroke: #000000"/>
   </g>
   <g id="PolyCollection_71">
    <defs>
     <path id="m6ecd9225c2" d="M 640.67221 -263.497404 
L 640.67221 -294.512788 
L 703.313636 -294.512788 
L 703.313636 -263.497404 
z
" style="stroke: #000000"/>
    </defs>
    <g clip-path="url(#pd57f41a329)">
     <use xlink:href="#m6ecd9225c2" x="0" y="414.25875" style="fill: #9ecae1; stroke: #000000"/>
    </g>
   </g>
   <g id="PolyCollection_72">
    <path d="M 640.67221 150.761346 
L 640.67221 119.745962 
L 640.67221 119.745962 
L 640.67221 150.761346 
z
" clip-path="url(#pd57f41a329)" style="fill: url(#h85990ee6ae); stroke: #000000"/>
   </g>
   <g id="PolyCollection_73">
    <defs>
     <path id="m4ea827ed65" d="M 320.832457 -302.266635 
L 320.832457 -333.282019 
L 376.104303 -333.282019 
L 376.104303 -302.266635 
z
" style="stroke: #000000"/>
    </defs>
    <g clip-path="url(#pd57f41a329)">
     <use xlink:href="#m4ea827ed65" x="0" y="414.25875" style="fill: #f67e7d; stroke: #000000"/>
    </g>
   </g>
   <g id="PolyCollection_74">
    <path d="M 320.832457 111.992115 
L 320.832457 80.976731 
L 320.832457 80.976731 
L 320.832457 111.992115 
z
" clip-path="url(#pd57f41a329)" style="fill: url(#h85990ee6ae); stroke: #000000"/>
   </g>
   <g id="PolyCollection_75">
    <defs>
     <path id="m39b043a184" d="M 526.443727 -302.266635 
L 526.443727 -333.282019 
L 581.715573 -333.282019 
L 581.715573 -302.266635 
z
" style="stroke: #000000"/>
    </defs>
    <g clip-path="url(#pd57f41a329)">
     <use xlink:href="#m39b043a184" x="0" y="414.25875" style="fill: #fee0d2; stroke: #000000"/>
    </g>
   </g>
   <g id="PolyCollection_76">
    <path d="M 526.443727 111.992115 
L 526.443727 80.976731 
L 526.443727 80.976731 
L 526.443727 111.992115 
z
" clip-path="url(#pd57f41a329)" style="fill: url(#h85990ee6ae); stroke: #000000"/>
   </g>
   <g id="PolyCollection_77">
    <defs>
     <path id="m41eb3fbbb0" d="M 581.715573 -302.266635 
L 581.715573 -333.282019 
L 659.096159 -333.282019 
L 659.096159 -302.266635 
z
" style="stroke: #000000"/>
    </defs>
    <g clip-path="url(#pd57f41a329)">
     <use xlink:href="#m41eb3fbbb0" x="0" y="414.25875" style="fill: #1f77b4; stroke: #000000"/>
    </g>
   </g>
   <g id="PolyCollection_78">
    <path d="M 581.715573 111.992115 
L 581.715573 80.976731 
L 581.715573 80.976731 
L 581.715573 111.992115 
z
" clip-path="url(#pd57f41a329)" style="fill: url(#h85990ee6ae); stroke: #000000"/>
   </g>
   <g id="PolyCollection_79">
    <defs>
     <path id="m6a84a4a3b0" d="M 659.096159 -302.266635 
L 659.096159 -333.282019 
L 677.520108 -333.282019 
L 677.520108 -302.266635 
z
" style="stroke: #000000"/>
    </defs>
    <g clip-path="url(#pd57f41a329)">
     <use xlink:href="#m6a84a4a3b0" x="0" y="414.25875" style="fill: #d62728; stroke: #000000"/>
    </g>
   </g>
   <g id="PolyCollection_80">
    <path d="M 659.096159 111.992115 
L 659.096159 80.976731 
L 659.096159 80.976731 
L 659.096159 111.992115 
z
" clip-path="url(#pd57f41a329)" style="fill: url(#h85990ee6ae); stroke: #000000"/>
   </g>
   <g id="PolyCollection_81">
    <defs>
     <path id="m3c1331fea2" d="M 302.408508 -341.035865 
L 302.408508 -372.05125 
L 357.680354 -372.05125 
L 357.680354 -341.035865 
z
" style="stroke: #000000"/>
    </defs>
    <g clip-path="url(#pd57f41a329)">
     <use xlink:href="#m3c1331fea2" x="0" y="414.25875" style="fill: #4c78a8; stroke: #000000"/>
    </g>
   </g>
   <g id="PolyCollection_82">
    <path d="M 302.408508 73.222885 
L 302.408508 42.2075 
L 302.408508 42.2075 
L 302.408508 73.222885 
z
" clip-path="url(#pd57f41a329)" style="fill: url(#h85990ee6ae); stroke: #000000"/>
   </g>
   <g id="PolyCollection_83">
    <defs>
     <path id="m4045c8adf4" d="M 377.578219 -341.035865 
L 377.578219 -372.05125 
L 438.377251 -372.05125 
L 438.377251 -341.035865 
z
" style="stroke: #000000"/>
    </defs>
    <g clip-path="url(#pd57f41a329)">
     <use xlink:href="#m4045c8adf4" x="0" y="414.25875" style="fill: #c6dbef; stroke: #000000"/>
    </g>
   </g>
   <g id="PolyCollection_84">
    <path d="M 377.578219 73.222885 
L 377.578219 42.2075 
L 377.578219 42.2075 
L 377.578219 73.222885 
z
" clip-path="url(#pd57f41a329)" style="fill: url(#h85990ee6ae); stroke: #000000"/>
   </g>
   <g id="PolyCollection_85">
    <defs>
     <path id="m2e340ea1b2" d="M 438.377251 -341.035865 
L 438.377251 -372.05125 
L 523.127416 -372.05125 
L 523.127416 -341.035865 
z
" style="stroke: #000000"/>
    </defs>
    <g clip-path="url(#pd57f41a329)">
     <use xlink:href="#m2e340ea1b2" x="0" y="414.25875" style="fill: #e45756; stroke: #000000"/>
    </g>
   </g>
   <g id="PolyCollection_86">
    <path d="M 438.377251 73.222885 
L 438.377251 42.2075 
L 438.377251 42.2075 
L 438.377251 73.222885 
z
" clip-path="url(#pd57f41a329)" style="fill: url(#h85990ee6ae); stroke: #000000"/>
   </g>
   <g id="PolyCollection_87">
    <defs>
     <path id="m302e27086a" d="M 550.763339 -341.035865 
L 550.763339 -372.05125 
L 611.562371 -372.05125 
L 611.562371 -341.035865 
z
" style="stroke: #000000"/>
    </defs>
    <g clip-path="url(#pd57f41a329)">
     <use xlink:href="#m302e27086a" x="0" y="414.25875" style="fill: #6395b9; stroke: #000000"/>
    </g>
   </g>
   <g id="PolyCollection_88">
    <path d="M 550.763339 73.222885 
L 550.763339 42.2075 
L 550.763339 42.2075 
L 550.763339 73.222885 
z
" clip-path="url(#pd57f41a329)" style="fill: url(#h85990ee6ae); stroke: #000000"/>
   </g>
   <g id="matplotlib.axis_1">
    <g id="xtick_1">
     <g id="line2d_1">
      <defs>
       <path id="m237b5a55c1" d="M 0 0 
L 0 3.5 
" style="stroke: #000000; stroke-width: 0.8"/>
      </defs>
      <g>
       <use xlink:href="#m237b5a55c1" x="94.586364" y="359.7275" style="stroke: #000000; stroke-width: 0.8"/>
      </g>
     </g>
     <g id="text_1">
      <!-- 0 -->
      <g transform="translate(89.586364 380.615) scale(0.2 -0.2)">
       <defs>
        <path id="TimesNewRomanPSMT-30" d="M 231 2094 
Q 231 2819 450 3342 
Q 669 3866 1031 4122 
Q 1313 4325 1613 4325 
Q 2100 4325 2488 3828 
Q 2972 3213 2972 2159 
Q 2972 1422 2759 906 
Q 2547 391 2217 158 
Q 1888 -75 1581 -75 
Q 975 -75 572 641 
Q 231 1244 231 2094 
z
M 844 2016 
Q 844 1141 1059 588 
Q 1238 122 1591 122 
Q 1759 122 1940 273 
Q 2122 425 2216 781 
Q 2359 1319 2359 2297 
Q 2359 3022 2209 3506 
Q 2097 3866 1919 4016 
Q 1791 4119 1609 4119 
Q 1397 4119 1231 3928 
Q 1006 3669 925 3112 
Q 844 2556 844 2016 
z
" transform="scale(0.015625)"/>
       </defs>
       <use xlink:href="#TimesNewRomanPSMT-30"/>
      </g>
     </g>
    </g>
    <g id="xtick_2">
     <g id="line2d_2">
      <g>
       <use xlink:href="#m237b5a55c1" x="186.706108" y="359.7275" style="stroke: #000000; stroke-width: 0.8"/>
      </g>
     </g>
     <g id="text_2">
      <!-- 250 -->
      <g transform="translate(171.706108 380.615) scale(0.2 -0.2)">
       <defs>
        <path id="TimesNewRomanPSMT-32" d="M 2934 816 
L 2638 0 
L 138 0 
L 138 116 
Q 1241 1122 1691 1759 
Q 2141 2397 2141 2925 
Q 2141 3328 1894 3587 
Q 1647 3847 1303 3847 
Q 991 3847 742 3664 
Q 494 3481 375 3128 
L 259 3128 
Q 338 3706 661 4015 
Q 984 4325 1469 4325 
Q 1984 4325 2329 3994 
Q 2675 3663 2675 3213 
Q 2675 2891 2525 2569 
Q 2294 2063 1775 1497 
Q 997 647 803 472 
L 1909 472 
Q 2247 472 2383 497 
Q 2519 522 2628 598 
Q 2738 675 2819 816 
L 2934 816 
z
" transform="scale(0.015625)"/>
        <path id="TimesNewRomanPSMT-35" d="M 2778 4238 
L 2534 3706 
L 1259 3706 
L 981 3138 
Q 1809 3016 2294 2522 
Q 2709 2097 2709 1522 
Q 2709 1188 2573 903 
Q 2438 619 2231 419 
Q 2025 219 1772 97 
Q 1413 -75 1034 -75 
Q 653 -75 479 54 
Q 306 184 306 341 
Q 306 428 378 495 
Q 450 563 559 563 
Q 641 563 702 538 
Q 763 513 909 409 
Q 1144 247 1384 247 
Q 1750 247 2026 523 
Q 2303 800 2303 1197 
Q 2303 1581 2056 1914 
Q 1809 2247 1375 2428 
Q 1034 2569 447 2591 
L 1259 4238 
L 2778 4238 
z
" transform="scale(0.015625)"/>
       </defs>
       <use xlink:href="#TimesNewRomanPSMT-32"/>
       <use xlink:href="#TimesNewRomanPSMT-35" x="50"/>
       <use xlink:href="#TimesNewRomanPSMT-30" x="100"/>
      </g>
     </g>
    </g>
    <g id="xtick_3">
     <g id="line2d_3">
      <g>
       <use xlink:href="#m237b5a55c1" x="278.825853" y="359.7275" style="stroke: #000000; stroke-width: 0.8"/>
      </g>
     </g>
     <g id="text_3">
      <!-- 500 -->
      <g transform="translate(263.825853 380.615) scale(0.2 -0.2)">
       <use xlink:href="#TimesNewRomanPSMT-35"/>
       <use xlink:href="#TimesNewRomanPSMT-30" x="50"/>
       <use xlink:href="#TimesNewRomanPSMT-30" x="100"/>
      </g>
     </g>
    </g>
    <g id="xtick_4">
     <g id="line2d_4">
      <g>
       <use xlink:href="#m237b5a55c1" x="370.945598" y="359.7275" style="stroke: #000000; stroke-width: 0.8"/>
      </g>
     </g>
     <g id="text_4">
      <!-- 750 -->
      <g transform="translate(355.945598 380.615) scale(0.2 -0.2)">
       <defs>
        <path id="TimesNewRomanPSMT-37" d="M 644 4238 
L 2916 4238 
L 2916 4119 
L 1503 -88 
L 1153 -88 
L 2419 3728 
L 1253 3728 
Q 900 3728 750 3644 
Q 488 3500 328 3200 
L 238 3234 
L 644 4238 
z
" transform="scale(0.015625)"/>
       </defs>
       <use xlink:href="#TimesNewRomanPSMT-37"/>
       <use xlink:href="#TimesNewRomanPSMT-35" x="50"/>
       <use xlink:href="#TimesNewRomanPSMT-30" x="100"/>
      </g>
     </g>
    </g>
    <g id="xtick_5">
     <g id="line2d_5">
      <g>
       <use xlink:href="#m237b5a55c1" x="463.065342" y="359.7275" style="stroke: #000000; stroke-width: 0.8"/>
      </g>
     </g>
     <g id="text_5">
      <!-- 1000 -->
      <g transform="translate(443.065342 380.615) scale(0.2 -0.2)">
       <defs>
        <path id="TimesNewRomanPSMT-31" d="M 750 3822 
L 1781 4325 
L 1884 4325 
L 1884 747 
Q 1884 391 1914 303 
Q 1944 216 2037 169 
Q 2131 122 2419 116 
L 2419 0 
L 825 0 
L 825 116 
Q 1125 122 1212 167 
Q 1300 213 1334 289 
Q 1369 366 1369 747 
L 1369 3034 
Q 1369 3497 1338 3628 
Q 1316 3728 1258 3775 
Q 1200 3822 1119 3822 
Q 1003 3822 797 3725 
L 750 3822 
z
" transform="scale(0.015625)"/>
       </defs>
       <use xlink:href="#TimesNewRomanPSMT-31"/>
       <use xlink:href="#TimesNewRomanPSMT-30" x="50"/>
       <use xlink:href="#TimesNewRomanPSMT-30" x="100"/>
       <use xlink:href="#TimesNewRomanPSMT-30" x="150"/>
      </g>
     </g>
    </g>
    <g id="xtick_6">
     <g id="line2d_6">
      <g>
       <use xlink:href="#m237b5a55c1" x="555.185087" y="359.7275" style="stroke: #000000; stroke-width: 0.8"/>
      </g>
     </g>
     <g id="text_6">
      <!-- 1250 -->
      <g transform="translate(535.185087 380.615) scale(0.2 -0.2)">
       <use xlink:href="#TimesNewRomanPSMT-31"/>
       <use xlink:href="#TimesNewRomanPSMT-32" x="50"/>
       <use xlink:href="#TimesNewRomanPSMT-35" x="100"/>
       <use xlink:href="#TimesNewRomanPSMT-30" x="150"/>
      </g>
     </g>
    </g>
    <g id="xtick_7">
     <g id="line2d_7">
      <g>
       <use xlink:href="#m237b5a55c1" x="647.304832" y="359.7275" style="stroke: #000000; stroke-width: 0.8"/>
      </g>
     </g>
     <g id="text_7">
      <!-- 1500 -->
      <g transform="translate(627.304832 380.615) scale(0.2 -0.2)">
       <use xlink:href="#TimesNewRomanPSMT-31"/>
       <use xlink:href="#TimesNewRomanPSMT-35" x="50"/>
       <use xlink:href="#TimesNewRomanPSMT-30" x="100"/>
       <use xlink:href="#TimesNewRomanPSMT-30" x="150"/>
      </g>
     </g>
    </g>
    <g id="text_8">
     <!-- Time -->
     <g transform="translate(378.196875 402.780625) scale(0.2 -0.2)">
      <defs>
       <path id="TimesNewRomanPSMT-54" d="M 3703 4238 
L 3750 3244 
L 3631 3244 
Q 3597 3506 3538 3619 
Q 3441 3800 3280 3886 
Q 3119 3972 2856 3972 
L 2259 3972 
L 2259 734 
Q 2259 344 2344 247 
Q 2463 116 2709 116 
L 2856 116 
L 2856 0 
L 1059 0 
L 1059 116 
L 1209 116 
Q 1478 116 1591 278 
Q 1659 378 1659 734 
L 1659 3972 
L 1150 3972 
Q 853 3972 728 3928 
Q 566 3869 450 3700 
Q 334 3531 313 3244 
L 194 3244 
L 244 4238 
L 3703 4238 
z
" transform="scale(0.015625)"/>
       <path id="TimesNewRomanPSMT-69" d="M 928 4444 
Q 1059 4444 1151 4351 
Q 1244 4259 1244 4128 
Q 1244 3997 1151 3903 
Q 1059 3809 928 3809 
Q 797 3809 703 3903 
Q 609 3997 609 4128 
Q 609 4259 701 4351 
Q 794 4444 928 4444 
z
M 1188 2947 
L 1188 647 
Q 1188 378 1227 289 
Q 1266 200 1342 156 
Q 1419 113 1622 113 
L 1622 0 
L 231 0 
L 231 113 
Q 441 113 512 153 
Q 584 194 626 287 
Q 669 381 669 647 
L 669 1750 
Q 669 2216 641 2353 
Q 619 2453 572 2492 
Q 525 2531 444 2531 
Q 356 2531 231 2484 
L 188 2597 
L 1050 2947 
L 1188 2947 
z
" transform="scale(0.015625)"/>
       <path id="TimesNewRomanPSMT-6d" d="M 1050 2338 
Q 1363 2650 1419 2697 
Q 1559 2816 1721 2881 
Q 1884 2947 2044 2947 
Q 2313 2947 2506 2790 
Q 2700 2634 2766 2338 
Q 3088 2713 3309 2830 
Q 3531 2947 3766 2947 
Q 3994 2947 4170 2830 
Q 4347 2713 4450 2447 
Q 4519 2266 4519 1878 
L 4519 647 
Q 4519 378 4559 278 
Q 4591 209 4675 161 
Q 4759 113 4950 113 
L 4950 0 
L 3538 0 
L 3538 113 
L 3597 113 
Q 3781 113 3884 184 
Q 3956 234 3988 344 
Q 4000 397 4000 647 
L 4000 1878 
Q 4000 2228 3916 2372 
Q 3794 2572 3525 2572 
Q 3359 2572 3192 2489 
Q 3025 2406 2788 2181 
L 2781 2147 
L 2788 2013 
L 2788 647 
Q 2788 353 2820 281 
Q 2853 209 2943 161 
Q 3034 113 3253 113 
L 3253 0 
L 1806 0 
L 1806 113 
Q 2044 113 2133 169 
Q 2222 225 2256 338 
Q 2272 391 2272 647 
L 2272 1878 
Q 2272 2228 2169 2381 
Q 2031 2581 1784 2581 
Q 1616 2581 1450 2491 
Q 1191 2353 1050 2181 
L 1050 647 
Q 1050 366 1089 281 
Q 1128 197 1204 155 
Q 1281 113 1516 113 
L 1516 0 
L 100 0 
L 100 113 
Q 297 113 375 155 
Q 453 197 493 289 
Q 534 381 534 647 
L 534 1741 
Q 534 2213 506 2350 
Q 484 2453 437 2492 
Q 391 2531 309 2531 
Q 222 2531 100 2484 
L 53 2597 
L 916 2947 
L 1050 2947 
L 1050 2338 
z
" transform="scale(0.015625)"/>
       <path id="TimesNewRomanPSMT-65" d="M 681 1784 
Q 678 1147 991 784 
Q 1303 422 1725 422 
Q 2006 422 2214 576 
Q 2422 731 2563 1106 
L 2659 1044 
Q 2594 616 2278 264 
Q 1963 -88 1488 -88 
Q 972 -88 605 314 
Q 238 716 238 1394 
Q 238 2128 614 2539 
Q 991 2950 1559 2950 
Q 2041 2950 2350 2633 
Q 2659 2316 2659 1784 
L 681 1784 
z
M 681 1966 
L 2006 1966 
Q 1991 2241 1941 2353 
Q 1863 2528 1708 2628 
Q 1553 2728 1384 2728 
Q 1125 2728 920 2526 
Q 716 2325 681 1966 
z
" transform="scale(0.015625)"/>
      </defs>
      <use xlink:href="#TimesNewRomanPSMT-54"/>
      <use xlink:href="#TimesNewRomanPSMT-69" x="57.583984"/>
      <use xlink:href="#TimesNewRomanPSMT-6d" x="85.367188"/>
      <use xlink:href="#TimesNewRomanPSMT-65" x="163.150391"/>
     </g>
    </g>
   </g>
   <g id="matplotlib.axis_2">
    <g id="ytick_1">
     <g id="line2d_8">
      <defs>
       <path id="m07018be7b2" d="M 0 0 
L -3.5 0 
" style="stroke: #000000; stroke-width: 0.8"/>
      </defs>
      <g>
       <use xlink:href="#m07018be7b2" x="64.15" y="329.099808" style="stroke: #000000; stroke-width: 0.8"/>
      </g>
     </g>
     <g id="text_9">
      <!-- M1 -->
      <g transform="translate(29.365625 336.043558) scale(0.2 -0.2)">
       <defs>
        <path id="TimesNewRomanPSMT-4d" d="M 2619 0 
L 981 3566 
L 981 734 
Q 981 344 1066 247 
Q 1181 116 1431 116 
L 1581 116 
L 1581 0 
L 106 0 
L 106 116 
L 256 116 
Q 525 116 638 278 
Q 706 378 706 734 
L 706 3503 
Q 706 3784 644 3909 
Q 600 4000 483 4061 
Q 366 4122 106 4122 
L 106 4238 
L 1306 4238 
L 2844 922 
L 4356 4238 
L 5556 4238 
L 5556 4122 
L 5409 4122 
Q 5138 4122 5025 3959 
Q 4956 3859 4956 3503 
L 4956 734 
Q 4956 344 5044 247 
Q 5159 116 5409 116 
L 5556 116 
L 5556 0 
L 3756 0 
L 3756 116 
L 3906 116 
Q 4178 116 4288 278 
Q 4356 378 4356 734 
L 4356 3566 
L 2722 0 
L 2619 0 
z
" transform="scale(0.015625)"/>
       </defs>
       <use xlink:href="#TimesNewRomanPSMT-4d"/>
       <use xlink:href="#TimesNewRomanPSMT-31" x="88.916016"/>
      </g>
     </g>
    </g>
    <g id="ytick_2">
     <g id="line2d_9">
      <g>
       <use xlink:href="#m07018be7b2" x="64.15" y="290.330577" style="stroke: #000000; stroke-width: 0.8"/>
      </g>
     </g>
     <g id="text_10">
      <!-- M2 -->
      <g transform="translate(29.365625 297.274327) scale(0.2 -0.2)">
       <use xlink:href="#TimesNewRomanPSMT-4d"/>
       <use xlink:href="#TimesNewRomanPSMT-32" x="88.916016"/>
      </g>
     </g>
    </g>
    <g id="ytick_3">
     <g id="line2d_10">
      <g>
       <use xlink:href="#m07018be7b2" x="64.15" y="251.561346" style="stroke: #000000; stroke-width: 0.8"/>
      </g>
     </g>
     <g id="text_11">
      <!-- M3 -->
      <g transform="translate(29.365625 258.505096) scale(0.2 -0.2)">
       <defs>
        <path id="TimesNewRomanPSMT-33" d="M 325 3431 
Q 506 3859 782 4092 
Q 1059 4325 1472 4325 
Q 1981 4325 2253 3994 
Q 2459 3747 2459 3466 
Q 2459 3003 1878 2509 
Q 2269 2356 2469 2072 
Q 2669 1788 2669 1403 
Q 2669 853 2319 450 
Q 1863 -75 997 -75 
Q 569 -75 414 31 
Q 259 138 259 259 
Q 259 350 332 419 
Q 406 488 509 488 
Q 588 488 669 463 
Q 722 447 909 348 
Q 1097 250 1169 231 
Q 1284 197 1416 197 
Q 1734 197 1970 444 
Q 2206 691 2206 1028 
Q 2206 1275 2097 1509 
Q 2016 1684 1919 1775 
Q 1784 1900 1550 2001 
Q 1316 2103 1072 2103 
L 972 2103 
L 972 2197 
Q 1219 2228 1467 2375 
Q 1716 2522 1828 2728 
Q 1941 2934 1941 3181 
Q 1941 3503 1739 3701 
Q 1538 3900 1238 3900 
Q 753 3900 428 3381 
L 325 3431 
z
" transform="scale(0.015625)"/>
       </defs>
       <use xlink:href="#TimesNewRomanPSMT-4d"/>
       <use xlink:href="#TimesNewRomanPSMT-33" x="88.916016"/>
      </g>
     </g>
    </g>
    <g id="ytick_4">
     <g id="line2d_11">
      <g>
       <use xlink:href="#m07018be7b2" x="64.15" y="212.792115" style="stroke: #000000; stroke-width: 0.8"/>
      </g>
     </g>
     <g id="text_12">
      <!-- M4 -->
      <g transform="translate(29.365625 219.735865) scale(0.2 -0.2)">
       <defs>
        <path id="TimesNewRomanPSMT-34" d="M 2978 1563 
L 2978 1119 
L 2409 1119 
L 2409 0 
L 1894 0 
L 1894 1119 
L 100 1119 
L 100 1519 
L 2066 4325 
L 2409 4325 
L 2409 1563 
L 2978 1563 
z
M 1894 1563 
L 1894 3666 
L 406 1563 
L 1894 1563 
z
" transform="scale(0.015625)"/>
       </defs>
       <use xlink:href="#TimesNewRomanPSMT-4d"/>
       <use xlink:href="#TimesNewRomanPSMT-34" x="88.916016"/>
      </g>
     </g>
    </g>
    <g id="ytick_5">
     <g id="line2d_12">
      <g>
       <use xlink:href="#m07018be7b2" x="64.15" y="174.022885" style="stroke: #000000; stroke-width: 0.8"/>
      </g>
     </g>
     <g id="text_13">
      <!-- M5 -->
      <g transform="translate(29.365625 180.966635) scale(0.2 -0.2)">
       <use xlink:href="#TimesNewRomanPSMT-4d"/>
       <use xlink:href="#TimesNewRomanPSMT-35" x="88.916016"/>
      </g>
     </g>
    </g>
    <g id="ytick_6">
     <g id="line2d_13">
      <g>
       <use xlink:href="#m07018be7b2" x="64.15" y="135.253654" style="stroke: #000000; stroke-width: 0.8"/>
      </g>
     </g>
     <g id="text_14">
      <!-- M6 -->
      <g transform="translate(29.365625 142.197404) scale(0.2 -0.2)">
       <defs>
        <path id="TimesNewRomanPSMT-36" d="M 2869 4325 
L 2869 4209 
Q 2456 4169 2195 4045 
Q 1934 3922 1679 3669 
Q 1425 3416 1258 3105 
Q 1091 2794 978 2366 
Q 1428 2675 1881 2675 
Q 2316 2675 2634 2325 
Q 2953 1975 2953 1425 
Q 2953 894 2631 456 
Q 2244 -75 1606 -75 
Q 1172 -75 869 213 
Q 275 772 275 1663 
Q 275 2231 503 2743 
Q 731 3256 1154 3653 
Q 1578 4050 1965 4187 
Q 2353 4325 2688 4325 
L 2869 4325 
z
M 925 2138 
Q 869 1716 869 1456 
Q 869 1156 980 804 
Q 1091 453 1309 247 
Q 1469 100 1697 100 
Q 1969 100 2183 356 
Q 2397 613 2397 1088 
Q 2397 1622 2184 2012 
Q 1972 2403 1581 2403 
Q 1463 2403 1327 2353 
Q 1191 2303 925 2138 
z
" transform="scale(0.015625)"/>
       </defs>
       <use xlink:href="#TimesNewRomanPSMT-4d"/>
       <use xlink:href="#TimesNewRomanPSMT-36" x="88.916016"/>
      </g>
     </g>
    </g>
    <g id="ytick_7">
     <g id="line2d_14">
      <g>
       <use xlink:href="#m07018be7b2" x="64.15" y="96.484423" style="stroke: #000000; stroke-width: 0.8"/>
      </g>
     </g>
     <g id="text_15">
      <!-- M7 -->
      <g transform="translate(29.365625 103.428173) scale(0.2 -0.2)">
       <use xlink:href="#TimesNewRomanPSMT-4d"/>
       <use xlink:href="#TimesNewRomanPSMT-37" x="88.916016"/>
      </g>
     </g>
    </g>
    <g id="ytick_8">
     <g id="line2d_15">
      <g>
       <use xlink:href="#m07018be7b2" x="64.15" y="57.715192" style="stroke: #000000; stroke-width: 0.8"/>
      </g>
     </g>
     <g id="text_16">
      <!-- M8 -->
      <g transform="translate(29.365625 64.658942) scale(0.2 -0.2)">
       <defs>
        <path id="TimesNewRomanPSMT-38" d="M 1228 2134 
Q 725 2547 579 2797 
Q 434 3047 434 3316 
Q 434 3728 753 4026 
Q 1072 4325 1600 4325 
Q 2113 4325 2425 4047 
Q 2738 3769 2738 3413 
Q 2738 3175 2569 2928 
Q 2400 2681 1866 2347 
Q 2416 1922 2594 1678 
Q 2831 1359 2831 1006 
Q 2831 559 2490 242 
Q 2150 -75 1597 -75 
Q 994 -75 656 303 
Q 388 606 388 966 
Q 388 1247 577 1523 
Q 766 1800 1228 2134 
z
M 1719 2469 
Q 2094 2806 2194 3001 
Q 2294 3197 2294 3444 
Q 2294 3772 2109 3958 
Q 1925 4144 1606 4144 
Q 1288 4144 1088 3959 
Q 888 3775 888 3528 
Q 888 3366 970 3203 
Q 1053 3041 1206 2894 
L 1719 2469 
z
M 1375 2016 
Q 1116 1797 991 1539 
Q 866 1281 866 981 
Q 866 578 1086 336 
Q 1306 94 1647 94 
Q 1984 94 2187 284 
Q 2391 475 2391 747 
Q 2391 972 2272 1150 
Q 2050 1481 1375 2016 
z
" transform="scale(0.015625)"/>
       </defs>
       <use xlink:href="#TimesNewRomanPSMT-4d"/>
       <use xlink:href="#TimesNewRomanPSMT-38" x="88.916016"/>
      </g>
     </g>
    </g>
    <g id="text_17">
     <!-- Machine -->
     <g transform="translate(21.0875 228.395) rotate(-90) scale(0.2 -0.2)">
      <defs>
       <path id="TimesNewRomanPSMT-61" d="M 1822 413 
Q 1381 72 1269 19 
Q 1100 -59 909 -59 
Q 613 -59 420 144 
Q 228 347 228 678 
Q 228 888 322 1041 
Q 450 1253 767 1440 
Q 1084 1628 1822 1897 
L 1822 2009 
Q 1822 2438 1686 2597 
Q 1550 2756 1291 2756 
Q 1094 2756 978 2650 
Q 859 2544 859 2406 
L 866 2225 
Q 866 2081 792 2003 
Q 719 1925 600 1925 
Q 484 1925 411 2006 
Q 338 2088 338 2228 
Q 338 2497 613 2722 
Q 888 2947 1384 2947 
Q 1766 2947 2009 2819 
Q 2194 2722 2281 2516 
Q 2338 2381 2338 1966 
L 2338 994 
Q 2338 584 2353 492 
Q 2369 400 2405 369 
Q 2441 338 2488 338 
Q 2538 338 2575 359 
Q 2641 400 2828 588 
L 2828 413 
Q 2478 -56 2159 -56 
Q 2006 -56 1915 50 
Q 1825 156 1822 413 
z
M 1822 616 
L 1822 1706 
Q 1350 1519 1213 1441 
Q 966 1303 859 1153 
Q 753 1003 753 825 
Q 753 600 887 451 
Q 1022 303 1197 303 
Q 1434 303 1822 616 
z
" transform="scale(0.015625)"/>
       <path id="TimesNewRomanPSMT-63" d="M 2631 1088 
Q 2516 522 2178 217 
Q 1841 -88 1431 -88 
Q 944 -88 581 321 
Q 219 731 219 1428 
Q 219 2103 620 2525 
Q 1022 2947 1584 2947 
Q 2006 2947 2278 2723 
Q 2550 2500 2550 2259 
Q 2550 2141 2473 2067 
Q 2397 1994 2259 1994 
Q 2075 1994 1981 2113 
Q 1928 2178 1911 2362 
Q 1894 2547 1784 2644 
Q 1675 2738 1481 2738 
Q 1169 2738 978 2506 
Q 725 2200 725 1697 
Q 725 1184 976 792 
Q 1228 400 1656 400 
Q 1963 400 2206 609 
Q 2378 753 2541 1131 
L 2631 1088 
z
" transform="scale(0.015625)"/>
       <path id="TimesNewRomanPSMT-68" d="M 1041 4444 
L 1041 2350 
Q 1388 2731 1591 2839 
Q 1794 2947 1997 2947 
Q 2241 2947 2416 2812 
Q 2591 2678 2675 2391 
Q 2734 2191 2734 1659 
L 2734 647 
Q 2734 375 2778 275 
Q 2809 200 2884 156 
Q 2959 113 3159 113 
L 3159 0 
L 1753 0 
L 1753 113 
L 1819 113 
Q 2019 113 2097 173 
Q 2175 234 2206 353 
Q 2216 403 2216 647 
L 2216 1659 
Q 2216 2128 2167 2275 
Q 2119 2422 2012 2495 
Q 1906 2569 1756 2569 
Q 1603 2569 1437 2487 
Q 1272 2406 1041 2159 
L 1041 647 
Q 1041 353 1073 281 
Q 1106 209 1195 161 
Q 1284 113 1503 113 
L 1503 0 
L 84 0 
L 84 113 
Q 275 113 384 172 
Q 447 203 484 290 
Q 522 378 522 647 
L 522 3238 
Q 522 3728 498 3840 
Q 475 3953 426 3993 
Q 378 4034 297 4034 
Q 231 4034 84 3984 
L 41 4094 
L 897 4444 
L 1041 4444 
z
" transform="scale(0.015625)"/>
       <path id="TimesNewRomanPSMT-6e" d="M 1034 2341 
Q 1538 2947 1994 2947 
Q 2228 2947 2397 2830 
Q 2566 2713 2666 2444 
Q 2734 2256 2734 1869 
L 2734 647 
Q 2734 375 2778 278 
Q 2813 200 2889 156 
Q 2966 113 3172 113 
L 3172 0 
L 1756 0 
L 1756 113 
L 1816 113 
Q 2016 113 2095 173 
Q 2175 234 2206 353 
Q 2219 400 2219 647 
L 2219 1819 
Q 2219 2209 2117 2386 
Q 2016 2563 1775 2563 
Q 1403 2563 1034 2156 
L 1034 647 
Q 1034 356 1069 288 
Q 1113 197 1189 155 
Q 1266 113 1500 113 
L 1500 0 
L 84 0 
L 84 113 
L 147 113 
Q 366 113 442 223 
Q 519 334 519 647 
L 519 1709 
Q 519 2225 495 2337 
Q 472 2450 423 2490 
Q 375 2531 294 2531 
Q 206 2531 84 2484 
L 38 2597 
L 900 2947 
L 1034 2947 
L 1034 2341 
z
" transform="scale(0.015625)"/>
      </defs>
      <use xlink:href="#TimesNewRomanPSMT-4d"/>
      <use xlink:href="#TimesNewRomanPSMT-61" x="88.916016"/>
      <use xlink:href="#TimesNewRomanPSMT-63" x="133.300781"/>
      <use xlink:href="#TimesNewRomanPSMT-68" x="177.685547"/>
      <use xlink:href="#TimesNewRomanPSMT-69" x="227.685547"/>
      <use xlink:href="#TimesNewRomanPSMT-6e" x="255.46875"/>
      <use xlink:href="#TimesNewRomanPSMT-65" x="305.46875"/>
     </g>
    </g>
   </g>
   <g id="patch_3">
    <path d="M 64.15 359.7275 
L 64.15 27.0875 
" style="fill: none; stroke: #000000; stroke-width: 0.8; stroke-linejoin: miter; stroke-linecap: square"/>
   </g>
   <g id="patch_4">
    <path d="M 733.75 359.7275 
L 733.75 27.0875 
" style="fill: none; stroke: #000000; stroke-width: 0.8; stroke-linejoin: miter; stroke-linecap: square"/>
   </g>
   <g id="patch_5">
    <path d="M 64.15 359.7275 
L 733.75 359.7275 
" style="fill: none; stroke: #000000; stroke-width: 0.8; stroke-linejoin: miter; stroke-linecap: square"/>
   </g>
   <g id="patch_6">
    <path d="M 64.15 27.0875 
L 733.75 27.0875 
" style="fill: none; stroke: #000000; stroke-width: 0.8; stroke-linejoin: miter; stroke-linecap: square"/>
   </g>
   <g id="text_18">
    <!-- 4 -->
    <g transform="translate(130.013614 332.943558) scale(0.16 -0.16)">
     <use xlink:href="#TimesNewRomanPSMT-34"/>
    </g>
   </g>
   <g id="text_19">
    <!-- 0 -->
    <g transform="translate(214.948019 332.943558) scale(0.16 -0.16)">
     <use xlink:href="#TimesNewRomanPSMT-30"/>
    </g>
   </g>
   <g id="text_20">
    <!-- 16 -->
    <g transform="translate(280.037827 332.943558) scale(0.16 -0.16)">
     <use xlink:href="#TimesNewRomanPSMT-31"/>
     <use xlink:href="#TimesNewRomanPSMT-36" x="50"/>
    </g>
   </g>
   <g id="text_21">
    <!-- 8 -->
    <g transform="translate(323.649318 332.943558) scale(0.16 -0.16)">
     <use xlink:href="#TimesNewRomanPSMT-38"/>
    </g>
   </g>
   <g id="text_22">
    <!-- 12 -->
    <g transform="translate(351.706989 332.943558) scale(0.16 -0.16)">
     <use xlink:href="#TimesNewRomanPSMT-31"/>
     <use xlink:href="#TimesNewRomanPSMT-32" x="50"/>
    </g>
   </g>
   <g id="text_23">
    <!-- 40 -->
    <g transform="translate(114.222287 294.174327) scale(0.16 -0.16)">
     <use xlink:href="#TimesNewRomanPSMT-34"/>
     <use xlink:href="#TimesNewRomanPSMT-30" x="50"/>
    </g>
   </g>
   <g id="text_24">
    <!-- 24 -->
    <g transform="translate(170.78381 294.174327) scale(0.16 -0.16)">
     <use xlink:href="#TimesNewRomanPSMT-32"/>
     <use xlink:href="#TimesNewRomanPSMT-34" x="50"/>
    </g>
   </g>
   <g id="text_25">
    <!-- 5 -->
    <g transform="translate(215.869216 294.174327) scale(0.16 -0.16)">
     <use xlink:href="#TimesNewRomanPSMT-35"/>
    </g>
   </g>
   <g id="text_26">
    <!-- 20 -->
    <g transform="translate(250.743749 294.174327) scale(0.16 -0.16)">
     <use xlink:href="#TimesNewRomanPSMT-32"/>
     <use xlink:href="#TimesNewRomanPSMT-30" x="50"/>
    </g>
   </g>
   <g id="text_27">
    <!-- 32 -->
    <g transform="translate(305.094398 294.174327) scale(0.16 -0.16)">
     <use xlink:href="#TimesNewRomanPSMT-33"/>
     <use xlink:href="#TimesNewRomanPSMT-32" x="50"/>
    </g>
   </g>
   <g id="text_28">
    <!-- 18 -->
    <g transform="translate(351.15427 294.174327) scale(0.16 -0.16)">
     <use xlink:href="#TimesNewRomanPSMT-31"/>
     <use xlink:href="#TimesNewRomanPSMT-38" x="50"/>
    </g>
   </g>
   <g id="text_29">
    <!-- 1 -->
    <g transform="translate(397.529353 294.174327) scale(0.16 -0.16)">
     <use xlink:href="#TimesNewRomanPSMT-31"/>
    </g>
   </g>
   <g id="text_30">
    <!-- 41 -->
    <g transform="translate(175.021319 255.405096) scale(0.16 -0.16)">
     <use xlink:href="#TimesNewRomanPSMT-34"/>
     <use xlink:href="#TimesNewRomanPSMT-31" x="50"/>
    </g>
   </g>
   <g id="text_31">
    <!-- 25 -->
    <g transform="translate(231.030123 255.405096) scale(0.16 -0.16)">
     <use xlink:href="#TimesNewRomanPSMT-32"/>
     <use xlink:href="#TimesNewRomanPSMT-35" x="50"/>
    </g>
   </g>
   <g id="text_32">
    <!-- 21 -->
    <g transform="translate(300.119932 255.405096) scale(0.16 -0.16)">
     <use xlink:href="#TimesNewRomanPSMT-32"/>
     <use xlink:href="#TimesNewRomanPSMT-31" x="50"/>
    </g>
   </g>
   <g id="text_33">
    <!-- 9 -->
    <g transform="translate(372.841261 255.405096) scale(0.16 -0.16)">
     <defs>
      <path id="TimesNewRomanPSMT-39" d="M 338 -88 
L 338 28 
Q 744 34 1094 217 
Q 1444 400 1770 856 
Q 2097 1313 2225 1859 
Q 1734 1544 1338 1544 
Q 891 1544 572 1889 
Q 253 2234 253 2806 
Q 253 3363 572 3797 
Q 956 4325 1575 4325 
Q 2097 4325 2469 3894 
Q 2925 3359 2925 2575 
Q 2925 1869 2578 1258 
Q 2231 647 1613 244 
Q 1109 -88 516 -88 
L 338 -88 
z
M 2275 2091 
Q 2331 2497 2331 2741 
Q 2331 3044 2228 3395 
Q 2125 3747 1936 3934 
Q 1747 4122 1506 4122 
Q 1228 4122 1018 3872 
Q 809 3622 809 3128 
Q 809 2469 1088 2097 
Q 1291 1828 1588 1828 
Q 1731 1828 1928 1897 
Q 2125 1966 2275 2091 
z
" transform="scale(0.015625)"/>
     </defs>
     <use xlink:href="#TimesNewRomanPSMT-39"/>
    </g>
   </g>
   <g id="text_34">
    <!-- 13 -->
    <g transform="translate(448.064242 255.405096) scale(0.16 -0.16)">
     <use xlink:href="#TimesNewRomanPSMT-31"/>
     <use xlink:href="#TimesNewRomanPSMT-33" x="50"/>
    </g>
   </g>
   <g id="text_35">
    <!-- 33 -->
    <g transform="translate(527.287222 255.405096) scale(0.16 -0.16)">
     <use xlink:href="#TimesNewRomanPSMT-33"/>
     <use xlink:href="#TimesNewRomanPSMT-33" x="50"/>
    </g>
   </g>
   <g id="text_36">
    <!-- 28 -->
    <g transform="translate(131.725039 216.635865) scale(0.16 -0.16)">
     <use xlink:href="#TimesNewRomanPSMT-32"/>
     <use xlink:href="#TimesNewRomanPSMT-38" x="50"/>
    </g>
   </g>
   <g id="text_37">
    <!-- 36 -->
    <g transform="translate(222.002388 216.635865) scale(0.16 -0.16)">
     <use xlink:href="#TimesNewRomanPSMT-33"/>
     <use xlink:href="#TimesNewRomanPSMT-36" x="50"/>
    </g>
   </g>
   <g id="text_38">
    <!-- 17 -->
    <g transform="translate(315.596049 216.635865) scale(0.16 -0.16)">
     <use xlink:href="#TimesNewRomanPSMT-31"/>
     <use xlink:href="#TimesNewRomanPSMT-37" x="50"/>
    </g>
   </g>
   <g id="text_39">
    <!-- 2 -->
    <g transform="translate(449.11641 216.635865) scale(0.16 -0.16)">
     <use xlink:href="#TimesNewRomanPSMT-32"/>
    </g>
   </g>
   <g id="text_40">
    <!-- 10 -->
    <g transform="translate(507.757836 216.635865) scale(0.16 -0.16)">
     <use xlink:href="#TimesNewRomanPSMT-31"/>
     <use xlink:href="#TimesNewRomanPSMT-30" x="50"/>
    </g>
   </g>
   <g id="text_41">
    <!-- 42 -->
    <g transform="translate(215.554006 177.866635) scale(0.16 -0.16)">
     <use xlink:href="#TimesNewRomanPSMT-34"/>
     <use xlink:href="#TimesNewRomanPSMT-32" x="50"/>
    </g>
   </g>
   <g id="text_42">
    <!-- 30 -->
    <g transform="translate(286.117731 177.866635) scale(0.16 -0.16)">
     <use xlink:href="#TimesNewRomanPSMT-33"/>
     <use xlink:href="#TimesNewRomanPSMT-30" x="50"/>
    </g>
   </g>
   <g id="text_43">
    <!-- 26 -->
    <g transform="translate(339.547182 177.866635) scale(0.16 -0.16)">
     <use xlink:href="#TimesNewRomanPSMT-32"/>
     <use xlink:href="#TimesNewRomanPSMT-36" x="50"/>
    </g>
   </g>
   <g id="text_44">
    <!-- 37 -->
    <g transform="translate(415.638092 177.866635) scale(0.16 -0.16)">
     <use xlink:href="#TimesNewRomanPSMT-33"/>
     <use xlink:href="#TimesNewRomanPSMT-37" x="50"/>
    </g>
   </g>
   <g id="text_45">
    <!-- 38 -->
    <g transform="translate(491.729001 177.866635) scale(0.16 -0.16)">
     <use xlink:href="#TimesNewRomanPSMT-33"/>
     <use xlink:href="#TimesNewRomanPSMT-38" x="50"/>
    </g>
   </g>
   <g id="text_46">
    <!-- 22 -->
    <g transform="translate(540.552465 177.866635) scale(0.16 -0.16)">
     <use xlink:href="#TimesNewRomanPSMT-32"/>
     <use xlink:href="#TimesNewRomanPSMT-32" x="50"/>
    </g>
   </g>
   <g id="text_47">
    <!-- 34 -->
    <g transform="translate(570.030784 177.866635) scale(0.16 -0.16)">
     <use xlink:href="#TimesNewRomanPSMT-33"/>
     <use xlink:href="#TimesNewRomanPSMT-34" x="50"/>
    </g>
   </g>
   <g id="text_48">
    <!-- 29 -->
    <g transform="translate(218.133359 139.097404) scale(0.16 -0.16)">
     <use xlink:href="#TimesNewRomanPSMT-32"/>
     <use xlink:href="#TimesNewRomanPSMT-39" x="50"/>
    </g>
   </g>
   <g id="text_49">
    <!-- 6 -->
    <g transform="translate(280.905756 139.097404) scale(0.16 -0.16)">
     <use xlink:href="#TimesNewRomanPSMT-36"/>
    </g>
   </g>
   <g id="text_50">
    <!-- 43 -->
    <g transform="translate(322.044431 139.097404) scale(0.16 -0.16)">
     <use xlink:href="#TimesNewRomanPSMT-34"/>
     <use xlink:href="#TimesNewRomanPSMT-33" x="50"/>
    </g>
   </g>
   <g id="text_51">
    <!-- 14 -->
    <g transform="translate(519.180685 139.097404) scale(0.16 -0.16)">
     <use xlink:href="#TimesNewRomanPSMT-31"/>
     <use xlink:href="#TimesNewRomanPSMT-34" x="50"/>
    </g>
   </g>
   <g id="text_52">
    <!-- 35 -->
    <g transform="translate(605.036287 139.097404) scale(0.16 -0.16)">
     <use xlink:href="#TimesNewRomanPSMT-33"/>
     <use xlink:href="#TimesNewRomanPSMT-35" x="50"/>
    </g>
   </g>
   <g id="text_53">
    <!-- 15 -->
    <g transform="translate(663.992923 139.097404) scale(0.16 -0.16)">
     <use xlink:href="#TimesNewRomanPSMT-31"/>
     <use xlink:href="#TimesNewRomanPSMT-35" x="50"/>
    </g>
   </g>
   <g id="text_54">
    <!-- 31 -->
    <g transform="translate(340.46838 100.328173) scale(0.16 -0.16)">
     <use xlink:href="#TimesNewRomanPSMT-33"/>
     <use xlink:href="#TimesNewRomanPSMT-31" x="50"/>
    </g>
   </g>
   <g id="text_55">
    <!-- 39 -->
    <g transform="translate(546.07965 100.328173) scale(0.16 -0.16)">
     <use xlink:href="#TimesNewRomanPSMT-33"/>
     <use xlink:href="#TimesNewRomanPSMT-39" x="50"/>
    </g>
   </g>
   <g id="text_56">
    <!-- 3 -->
    <g transform="translate(616.405866 100.328173) scale(0.16 -0.16)">
     <use xlink:href="#TimesNewRomanPSMT-33"/>
    </g>
   </g>
   <g id="text_57">
    <!-- 23 -->
    <g transform="translate(660.308133 100.328173) scale(0.16 -0.16)">
     <use xlink:href="#TimesNewRomanPSMT-32"/>
     <use xlink:href="#TimesNewRomanPSMT-33" x="50"/>
    </g>
   </g>
   <g id="text_58">
    <!-- 7 -->
    <g transform="translate(326.044431 61.558942) scale(0.16 -0.16)">
     <use xlink:href="#TimesNewRomanPSMT-37"/>
    </g>
   </g>
   <g id="text_59">
    <!-- 19 -->
    <g transform="translate(399.977735 61.558942) scale(0.16 -0.16)">
     <use xlink:href="#TimesNewRomanPSMT-31"/>
     <use xlink:href="#TimesNewRomanPSMT-39" x="50"/>
    </g>
   </g>
   <g id="text_60">
    <!-- 27 -->
    <g transform="translate(472.752333 61.558942) scale(0.16 -0.16)">
     <use xlink:href="#TimesNewRomanPSMT-32"/>
     <use xlink:href="#TimesNewRomanPSMT-37" x="50"/>
    </g>
   </g>
   <g id="text_61">
    <!-- 11 -->
    <g transform="translate(573.462855 61.558942) scale(0.16 -0.16)">
     <use xlink:href="#TimesNewRomanPSMT-31"/>
     <use xlink:href="#TimesNewRomanPSMT-31" x="46.25"/>
    </g>
   </g>
   <g id="text_62">
    <!-- Instance: MFJS9, Makespan: 1652, Balanced_workload: 477 -->
    <g transform="translate(154.817188 21.0875) scale(0.2 -0.2)">
     <defs>
      <path id="TimesNewRomanPSMT-49" d="M 1975 116 
L 1975 0 
L 159 0 
L 159 116 
L 309 116 
Q 572 116 691 269 
Q 766 369 766 750 
L 766 3488 
Q 766 3809 725 3913 
Q 694 3991 597 4047 
Q 459 4122 309 4122 
L 159 4122 
L 159 4238 
L 1975 4238 
L 1975 4122 
L 1822 4122 
Q 1563 4122 1444 3969 
Q 1366 3869 1366 3488 
L 1366 750 
Q 1366 428 1406 325 
Q 1438 247 1538 191 
Q 1672 116 1822 116 
L 1975 116 
z
" transform="scale(0.015625)"/>
      <path id="TimesNewRomanPSMT-73" d="M 2050 2947 
L 2050 1972 
L 1947 1972 
Q 1828 2431 1642 2597 
Q 1456 2763 1169 2763 
Q 950 2763 815 2647 
Q 681 2531 681 2391 
Q 681 2216 781 2091 
Q 878 1963 1175 1819 
L 1631 1597 
Q 2266 1288 2266 781 
Q 2266 391 1970 151 
Q 1675 -88 1309 -88 
Q 1047 -88 709 6 
Q 606 38 541 38 
Q 469 38 428 -44 
L 325 -44 
L 325 978 
L 428 978 
Q 516 541 762 319 
Q 1009 97 1316 97 
Q 1531 97 1667 223 
Q 1803 350 1803 528 
Q 1803 744 1651 891 
Q 1500 1038 1047 1263 
Q 594 1488 453 1669 
Q 313 1847 313 2119 
Q 313 2472 555 2709 
Q 797 2947 1181 2947 
Q 1350 2947 1591 2875 
Q 1750 2828 1803 2828 
Q 1853 2828 1881 2850 
Q 1909 2872 1947 2947 
L 2050 2947 
z
" transform="scale(0.015625)"/>
      <path id="TimesNewRomanPSMT-74" d="M 1031 3803 
L 1031 2863 
L 1700 2863 
L 1700 2644 
L 1031 2644 
L 1031 788 
Q 1031 509 1111 412 
Q 1191 316 1316 316 
Q 1419 316 1516 380 
Q 1613 444 1666 569 
L 1788 569 
Q 1678 263 1478 108 
Q 1278 -47 1066 -47 
Q 922 -47 784 33 
Q 647 113 581 261 
Q 516 409 516 719 
L 516 2644 
L 63 2644 
L 63 2747 
Q 234 2816 414 2980 
Q 594 3144 734 3369 
Q 806 3488 934 3803 
L 1031 3803 
z
" transform="scale(0.015625)"/>
      <path id="TimesNewRomanPSMT-3a" d="M 903 2950 
Q 1047 2950 1148 2848 
Q 1250 2747 1250 2603 
Q 1250 2459 1148 2357 
Q 1047 2256 903 2256 
Q 759 2256 657 2357 
Q 556 2459 556 2603 
Q 556 2747 657 2848 
Q 759 2950 903 2950 
z
M 897 609 
Q 1044 609 1145 506 
Q 1247 403 1247 259 
Q 1247 116 1144 14 
Q 1041 -88 897 -88 
Q 753 -88 651 14 
Q 550 116 550 259 
Q 550 403 651 506 
Q 753 609 897 609 
z
" transform="scale(0.015625)"/>
      <path id="TimesNewRomanPSMT-20" transform="scale(0.015625)"/>
      <path id="TimesNewRomanPSMT-46" d="M 1309 4006 
L 1309 2341 
L 2081 2341 
Q 2347 2341 2470 2458 
Q 2594 2575 2634 2922 
L 2750 2922 
L 2750 1488 
L 2634 1488 
Q 2631 1734 2570 1850 
Q 2509 1966 2401 2023 
Q 2294 2081 2081 2081 
L 1309 2081 
L 1309 750 
Q 1309 428 1350 325 
Q 1381 247 1481 191 
Q 1619 116 1769 116 
L 1922 116 
L 1922 0 
L 103 0 
L 103 116 
L 253 116 
Q 516 116 634 269 
Q 709 369 709 750 
L 709 3488 
Q 709 3809 669 3913 
Q 638 3991 541 4047 
Q 406 4122 253 4122 
L 103 4122 
L 103 4238 
L 3256 4238 
L 3297 3306 
L 3188 3306 
Q 3106 3603 2998 3742 
Q 2891 3881 2733 3943 
Q 2575 4006 2244 4006 
L 1309 4006 
z
" transform="scale(0.015625)"/>
      <path id="TimesNewRomanPSMT-4a" d="M 638 4122 
L 638 4238 
L 2453 4238 
L 2453 4122 
L 2300 4122 
Q 2041 4122 1922 3969 
Q 1847 3869 1847 3488 
L 1847 1416 
Q 1847 938 1742 641 
Q 1638 344 1381 123 
Q 1125 -97 763 -97 
Q 469 -97 300 48 
Q 131 194 131 381 
Q 131 534 209 613 
Q 313 709 450 709 
Q 550 709 629 643 
Q 709 578 831 294 
Q 903 125 1016 125 
Q 1100 125 1173 228 
Q 1247 331 1247 594 
L 1247 3488 
Q 1247 3809 1206 3913 
Q 1175 3991 1075 4047 
Q 941 4122 791 4122 
L 638 4122 
z
" transform="scale(0.015625)"/>
      <path id="TimesNewRomanPSMT-53" d="M 2934 4334 
L 2934 2869 
L 2819 2869 
Q 2763 3291 2617 3541 
Q 2472 3791 2203 3937 
Q 1934 4084 1647 4084 
Q 1322 4084 1109 3886 
Q 897 3688 897 3434 
Q 897 3241 1031 3081 
Q 1225 2847 1953 2456 
Q 2547 2138 2764 1967 
Q 2981 1797 3098 1565 
Q 3216 1334 3216 1081 
Q 3216 600 2842 251 
Q 2469 -97 1881 -97 
Q 1697 -97 1534 -69 
Q 1438 -53 1133 45 
Q 828 144 747 144 
Q 669 144 623 97 
Q 578 50 556 -97 
L 441 -97 
L 441 1356 
L 556 1356 
Q 638 900 775 673 
Q 913 447 1195 297 
Q 1478 147 1816 147 
Q 2206 147 2432 353 
Q 2659 559 2659 841 
Q 2659 997 2573 1156 
Q 2488 1316 2306 1453 
Q 2184 1547 1640 1851 
Q 1097 2156 867 2337 
Q 638 2519 519 2737 
Q 400 2956 400 3219 
Q 400 3675 750 4004 
Q 1100 4334 1641 4334 
Q 1978 4334 2356 4169 
Q 2531 4091 2603 4091 
Q 2684 4091 2736 4139 
Q 2788 4188 2819 4334 
L 2934 4334 
z
" transform="scale(0.015625)"/>
      <path id="TimesNewRomanPSMT-2c" d="M 344 -1066 
L 344 -928 
Q 666 -822 842 -598 
Q 1019 -375 1019 -125 
Q 1019 -66 991 -25 
Q 969 3 947 3 
Q 913 3 797 -59 
Q 741 -88 678 -88 
Q 525 -88 434 3 
Q 344 94 344 253 
Q 344 406 461 515 
Q 578 625 747 625 
Q 953 625 1114 445 
Q 1275 266 1275 -31 
Q 1275 -353 1051 -629 
Q 828 -906 344 -1066 
z
" transform="scale(0.015625)"/>
      <path id="TimesNewRomanPSMT-6b" d="M 1047 4444 
L 1047 1597 
L 1775 2259 
Q 2006 2472 2044 2528 
Q 2069 2566 2069 2603 
Q 2069 2666 2017 2711 
Q 1966 2756 1847 2763 
L 1847 2863 
L 3091 2863 
L 3091 2763 
Q 2834 2756 2664 2684 
Q 2494 2613 2291 2428 
L 1556 1750 
L 2291 822 
Q 2597 438 2703 334 
Q 2853 188 2966 144 
Q 3044 113 3238 113 
L 3238 0 
L 1847 0 
L 1847 113 
Q 1966 116 2008 148 
Q 2050 181 2050 241 
Q 2050 313 1925 472 
L 1047 1594 
L 1047 644 
Q 1047 366 1086 278 
Q 1125 191 1197 153 
Q 1269 116 1509 113 
L 1509 0 
L 53 0 
L 53 113 
Q 272 113 381 166 
Q 447 200 481 272 
Q 528 375 528 628 
L 528 3234 
Q 528 3731 506 3842 
Q 484 3953 434 3995 
Q 384 4038 303 4038 
Q 238 4038 106 3984 
L 53 4094 
L 903 4444 
L 1047 4444 
z
" transform="scale(0.015625)"/>
      <path id="TimesNewRomanPSMT-70" d="M -6 2578 
L 875 2934 
L 994 2934 
L 994 2266 
Q 1216 2644 1439 2795 
Q 1663 2947 1909 2947 
Q 2341 2947 2628 2609 
Q 2981 2197 2981 1534 
Q 2981 794 2556 309 
Q 2206 -88 1675 -88 
Q 1444 -88 1275 -22 
Q 1150 25 994 166 
L 994 -706 
Q 994 -1000 1030 -1079 
Q 1066 -1159 1155 -1206 
Q 1244 -1253 1478 -1253 
L 1478 -1369 
L -22 -1369 
L -22 -1253 
L 56 -1253 
Q 228 -1256 350 -1188 
Q 409 -1153 442 -1076 
Q 475 -1000 475 -688 
L 475 2019 
Q 475 2297 450 2372 
Q 425 2447 370 2484 
Q 316 2522 222 2522 
Q 147 2522 31 2478 
L -6 2578 
z
M 994 2081 
L 994 1013 
Q 994 666 1022 556 
Q 1066 375 1236 237 
Q 1406 100 1666 100 
Q 1978 100 2172 344 
Q 2425 663 2425 1241 
Q 2425 1897 2138 2250 
Q 1938 2494 1663 2494 
Q 1513 2494 1366 2419 
Q 1253 2363 994 2081 
z
" transform="scale(0.015625)"/>
      <path id="TimesNewRomanPSMT-42" d="M 2956 2163 
Q 3397 2069 3616 1863 
Q 3919 1575 3919 1159 
Q 3919 844 3719 555 
Q 3519 266 3170 133 
Q 2822 0 2106 0 
L 106 0 
L 106 116 
L 266 116 
Q 531 116 647 284 
Q 719 394 719 750 
L 719 3488 
Q 719 3881 628 3984 
Q 506 4122 266 4122 
L 106 4122 
L 106 4238 
L 1938 4238 
Q 2450 4238 2759 4163 
Q 3228 4050 3475 3764 
Q 3722 3478 3722 3106 
Q 3722 2788 3528 2536 
Q 3334 2284 2956 2163 
z
M 1319 2331 
Q 1434 2309 1582 2298 
Q 1731 2288 1909 2288 
Q 2366 2288 2595 2386 
Q 2825 2484 2947 2687 
Q 3069 2891 3069 3131 
Q 3069 3503 2766 3765 
Q 2463 4028 1881 4028 
Q 1569 4028 1319 3959 
L 1319 2331 
z
M 1319 306 
Q 1681 222 2034 222 
Q 2600 222 2897 476 
Q 3194 731 3194 1106 
Q 3194 1353 3059 1581 
Q 2925 1809 2622 1940 
Q 2319 2072 1872 2072 
Q 1678 2072 1540 2065 
Q 1403 2059 1319 2044 
L 1319 306 
z
" transform="scale(0.015625)"/>
      <path id="TimesNewRomanPSMT-6c" d="M 1184 4444 
L 1184 647 
Q 1184 378 1223 290 
Q 1263 203 1344 158 
Q 1425 113 1647 113 
L 1647 0 
L 244 0 
L 244 113 
Q 441 113 512 153 
Q 584 194 625 287 
Q 666 381 666 647 
L 666 3247 
Q 666 3731 644 3842 
Q 622 3953 573 3993 
Q 525 4034 450 4034 
Q 369 4034 244 3984 
L 191 4094 
L 1044 4444 
L 1184 4444 
z
" transform="scale(0.015625)"/>
      <path id="TimesNewRomanPSMT-64" d="M 2222 322 
Q 2013 103 1813 7 
Q 1613 -88 1381 -88 
Q 913 -88 563 304 
Q 213 697 213 1313 
Q 213 1928 600 2439 
Q 988 2950 1597 2950 
Q 1975 2950 2222 2709 
L 2222 3238 
Q 2222 3728 2198 3840 
Q 2175 3953 2125 3993 
Q 2075 4034 2000 4034 
Q 1919 4034 1784 3984 
L 1744 4094 
L 2597 4444 
L 2738 4444 
L 2738 1134 
Q 2738 631 2761 520 
Q 2784 409 2836 365 
Q 2888 322 2956 322 
Q 3041 322 3181 375 
L 3216 266 
L 2366 -88 
L 2222 -88 
L 2222 322 
z
M 2222 541 
L 2222 2016 
Q 2203 2228 2109 2403 
Q 2016 2578 1861 2667 
Q 1706 2756 1559 2756 
Q 1284 2756 1069 2509 
Q 784 2184 784 1559 
Q 784 928 1059 592 
Q 1334 256 1672 256 
Q 1956 256 2222 541 
z
" transform="scale(0.015625)"/>
      <path id="TimesNewRomanPSMT-5f" d="M 3256 -1381 
L -53 -1381 
L -53 -1119 
L 3256 -1119 
L 3256 -1381 
z
" transform="scale(0.015625)"/>
      <path id="TimesNewRomanPSMT-77" d="M 41 2863 
L 1241 2863 
L 1241 2747 
Q 1075 2734 1023 2687 
Q 972 2641 972 2553 
Q 972 2456 1025 2319 
L 1638 672 
L 2253 2013 
L 2091 2434 
Q 2016 2622 1894 2694 
Q 1825 2738 1638 2747 
L 1638 2863 
L 3000 2863 
L 3000 2747 
Q 2775 2738 2681 2666 
Q 2619 2616 2619 2506 
Q 2619 2444 2644 2378 
L 3294 734 
L 3897 2319 
Q 3959 2488 3959 2588 
Q 3959 2647 3898 2694 
Q 3838 2741 3659 2747 
L 3659 2863 
L 4563 2863 
L 4563 2747 
Q 4291 2706 4163 2378 
L 3206 -88 
L 3078 -88 
L 2363 1741 
L 1528 -88 
L 1413 -88 
L 494 2319 
Q 403 2547 315 2626 
Q 228 2706 41 2747 
L 41 2863 
z
" transform="scale(0.015625)"/>
      <path id="TimesNewRomanPSMT-6f" d="M 1600 2947 
Q 2250 2947 2644 2453 
Q 2978 2031 2978 1484 
Q 2978 1100 2793 706 
Q 2609 313 2286 112 
Q 1963 -88 1566 -88 
Q 919 -88 538 428 
Q 216 863 216 1403 
Q 216 1797 411 2186 
Q 606 2575 925 2761 
Q 1244 2947 1600 2947 
z
M 1503 2744 
Q 1338 2744 1170 2645 
Q 1003 2547 900 2300 
Q 797 2053 797 1666 
Q 797 1041 1045 587 
Q 1294 134 1700 134 
Q 2003 134 2200 384 
Q 2397 634 2397 1244 
Q 2397 2006 2069 2444 
Q 1847 2744 1503 2744 
z
" transform="scale(0.015625)"/>
      <path id="TimesNewRomanPSMT-72" d="M 1038 2947 
L 1038 2303 
Q 1397 2947 1775 2947 
Q 1947 2947 2059 2842 
Q 2172 2738 2172 2600 
Q 2172 2478 2090 2393 
Q 2009 2309 1897 2309 
Q 1788 2309 1652 2417 
Q 1516 2525 1450 2525 
Q 1394 2525 1328 2463 
Q 1188 2334 1038 2041 
L 1038 669 
Q 1038 431 1097 309 
Q 1138 225 1241 169 
Q 1344 113 1538 113 
L 1538 0 
L 72 0 
L 72 113 
Q 291 113 397 181 
Q 475 231 506 341 
Q 522 394 522 644 
L 522 1753 
Q 522 2253 501 2348 
Q 481 2444 426 2487 
Q 372 2531 291 2531 
Q 194 2531 72 2484 
L 41 2597 
L 906 2947 
L 1038 2947 
z
" transform="scale(0.015625)"/>
     </defs>
     <use xlink:href="#TimesNewRomanPSMT-49"/>
     <use xlink:href="#TimesNewRomanPSMT-6e" x="33.300781"/>
     <use xlink:href="#TimesNewRomanPSMT-73" x="83.300781"/>
     <use xlink:href="#TimesNewRomanPSMT-74" x="122.216797"/>
     <use xlink:href="#TimesNewRomanPSMT-61" x="150"/>
     <use xlink:href="#TimesNewRomanPSMT-6e" x="194.384766"/>
     <use xlink:href="#TimesNewRomanPSMT-63" x="244.384766"/>
     <use xlink:href="#TimesNewRomanPSMT-65" x="288.769531"/>
     <use xlink:href="#TimesNewRomanPSMT-3a" x="333.154297"/>
     <use xlink:href="#TimesNewRomanPSMT-20" x="360.9375"/>
     <use xlink:href="#TimesNewRomanPSMT-4d" x="385.9375"/>
     <use xlink:href="#TimesNewRomanPSMT-46" x="474.853516"/>
     <use xlink:href="#TimesNewRomanPSMT-4a" x="530.46875"/>
     <use xlink:href="#TimesNewRomanPSMT-53" x="569.384766"/>
     <use xlink:href="#TimesNewRomanPSMT-39" x="625"/>
     <use xlink:href="#TimesNewRomanPSMT-2c" x="675"/>
     <use xlink:href="#TimesNewRomanPSMT-20" x="700"/>
     <use xlink:href="#TimesNewRomanPSMT-4d" x="725"/>
     <use xlink:href="#TimesNewRomanPSMT-61" x="813.916016"/>
     <use xlink:href="#TimesNewRomanPSMT-6b" x="858.300781"/>
     <use xlink:href="#TimesNewRomanPSMT-65" x="908.300781"/>
     <use xlink:href="#TimesNewRomanPSMT-73" x="952.685547"/>
     <use xlink:href="#TimesNewRomanPSMT-70" x="991.601562"/>
     <use xlink:href="#TimesNewRomanPSMT-61" x="1041.601562"/>
     <use xlink:href="#TimesNewRomanPSMT-6e" x="1085.986328"/>
     <use xlink:href="#TimesNewRomanPSMT-3a" x="1135.986328"/>
     <use xlink:href="#TimesNewRomanPSMT-20" x="1163.769531"/>
     <use xlink:href="#TimesNewRomanPSMT-31" x="1188.769531"/>
     <use xlink:href="#TimesNewRomanPSMT-36" x="1238.769531"/>
     <use xlink:href="#TimesNewRomanPSMT-35" x="1288.769531"/>
     <use xlink:href="#TimesNewRomanPSMT-32" x="1338.769531"/>
     <use xlink:href="#TimesNewRomanPSMT-2c" x="1388.769531"/>
     <use xlink:href="#TimesNewRomanPSMT-20" x="1413.769531"/>
     <use xlink:href="#TimesNewRomanPSMT-42" x="1438.769531"/>
     <use xlink:href="#TimesNewRomanPSMT-61" x="1505.46875"/>
     <use xlink:href="#TimesNewRomanPSMT-6c" x="1549.853516"/>
     <use xlink:href="#TimesNewRomanPSMT-61" x="1577.636719"/>
     <use xlink:href="#TimesNewRomanPSMT-6e" x="1622.021484"/>
     <use xlink:href="#TimesNewRomanPSMT-63" x="1672.021484"/>
     <use xlink:href="#TimesNewRomanPSMT-65" x="1716.40625"/>
     <use xlink:href="#TimesNewRomanPSMT-64" x="1760.791016"/>
     <use xlink:href="#TimesNewRomanPSMT-5f" x="1810.791016"/>
     <use xlink:href="#TimesNewRomanPSMT-77" x="1860.791016"/>
     <use xlink:href="#TimesNewRomanPSMT-6f" x="1933.007812"/>
     <use xlink:href="#TimesNewRomanPSMT-72" x="1983.007812"/>
     <use xlink:href="#TimesNewRomanPSMT-6b" x="2016.308594"/>
     <use xlink:href="#TimesNewRomanPSMT-6c" x="2066.308594"/>
     <use xlink:href="#TimesNewRomanPSMT-6f" x="2094.091797"/>
     <use xlink:href="#TimesNewRomanPSMT-61" x="2144.091797"/>
     <use xlink:href="#TimesNewRomanPSMT-64" x="2188.476562"/>
     <use xlink:href="#TimesNewRomanPSMT-3a" x="2238.476562"/>
     <use xlink:href="#TimesNewRomanPSMT-20" x="2266.259766"/>
     <use xlink:href="#TimesNewRomanPSMT-34" x="2291.259766"/>
     <use xlink:href="#TimesNewRomanPSMT-37" x="2341.259766"/>
     <use xlink:href="#TimesNewRomanPSMT-37" x="2391.259766"/>
    </g>
   </g>
  </g>
 </g>
 <defs>
  <clipPath id="pd57f41a329">
   <rect x="64.15" y="27.0875" width="669.6" height="332.64"/>
  </clipPath>
 </defs>
 <defs>
  <pattern id="h85990ee6ae" patternUnits="userSpaceOnUse" x="0" y="0" width="72" height="72">
   <rect x="0" y="0" width="73" height="73" fill="#808080"/>
   <path d="M -36 36 
L 36 -36 
M -24 48 
L 48 -24 
M -12 60 
L 60 -12 
M 0 72 
L 72 0 
M 12 84 
L 84 12 
M 24 96 
L 96 24 
M 36 108 
L 108 36 
" style="fill: #000000; stroke: #000000; stroke-width: 1.0; stroke-linecap: butt; stroke-linejoin: miter"/>
  </pattern>
 </defs>
</svg>
