<?xml version="1.0" encoding="utf-8" standalone="no"?>
<!DOCTYPE svg PUBLIC "-//W3C//DTD SVG 1.1//EN"
  "http://www.w3.org/Graphics/SVG/1.1/DTD/svg11.dtd">
<svg xmlns:xlink="http://www.w3.org/1999/xlink" width="740.95pt" height="414.25875pt" viewBox="0 0 740.95 414.25875" xmlns="http://www.w3.org/2000/svg" version="1.1">
 <metadata>
  <rdf:RDF xmlns:dc="http://purl.org/dc/elements/1.1/" xmlns:cc="http://creativecommons.org/ns#" xmlns:rdf="http://www.w3.org/1999/02/22-rdf-syntax-ns#">
   <cc:Work>
    <dc:type rdf:resource="http://purl.org/dc/dcmitype/StillImage"/>
    <dc:date>2025-03-02T22:50:01.785560</dc:date>
    <dc:format>image/svg+xml</dc:format>
    <dc:creator>
     <cc:Agent>
      <dc:title>Matplotlib v3.9.2, https://matplotlib.org/</dc:title>
     </cc:Agent>
    </dc:creator>
   </cc:Work>
  </rdf:RDF>
 </metadata>
 <defs>
  <style type="text/css">*{stroke-linejoin: round; stroke-linecap: butt}</style>
 </defs>
 <g id="figure_1">
  <g id="patch_1">
   <path d="M 0 414.25875 
L 740.95 414.25875 
L 740.95 0 
L 0 0 
z
" style="fill: #ffffff"/>
  </g>
  <g id="axes_1">
   <g id="patch_2">
    <path d="M 64.15 359.7275 
L 733.75 359.7275 
L 733.75 27.0875 
L 64.15 27.0875 
z
" style="fill: #ffffff"/>
   </g>
   <g id="PolyCollection_1">
    <defs>
     <path id="m85841dfc87" d="M 94.586364 -69.65125 
L 94.586364 -100.666635 
L 130.39385 -100.666635 
L 130.39385 -69.65125 
z
" style="stroke: #000000"/>
    </defs>
    <g clip-path="url(#p0e22278bc8)">
     <use xlink:href="#m85841dfc87" x="0" y="414.25875" style="fill: #9ecae1; stroke: #000000"/>
    </g>
   </g>
   <g id="PolyCollection_2">
    <path d="M 94.586364 344.6075 
L 94.586364 313.592115 
L 94.586364 313.592115 
L 94.586364 344.6075 
z
" clip-path="url(#p0e22278bc8)" style="fill: url(#h918c3c3221); stroke: #000000"/>
   </g>
   <g id="PolyCollection_3">
    <defs>
     <path id="mcc8f2c19dd" d="M 130.39385 -69.65125 
L 130.39385 -100.666635 
L 218.472036 -100.666635 
L 218.472036 -69.65125 
z
" style="stroke: #000000"/>
    </defs>
    <g clip-path="url(#p0e22278bc8)">
     <use xlink:href="#mcc8f2c19dd" x="0" y="414.25875" style="fill: #4c78a8; stroke: #000000"/>
    </g>
   </g>
   <g id="PolyCollection_4">
    <path d="M 130.39385 344.6075 
L 130.39385 313.592115 
L 130.39385 313.592115 
L 130.39385 344.6075 
z
" clip-path="url(#p0e22278bc8)" style="fill: url(#h918c3c3221); stroke: #000000"/>
   </g>
   <g id="PolyCollection_5">
    <defs>
     <path id="m0285b0ccde" d="M 218.472036 -69.65125 
L 218.472036 -100.666635 
L 320.132371 -100.666635 
L 320.132371 -69.65125 
z
" style="stroke: #000000"/>
    </defs>
    <g clip-path="url(#p0e22278bc8)">
     <use xlink:href="#m0285b0ccde" x="0" y="414.25875" style="fill: #1f77b4; stroke: #000000"/>
    </g>
   </g>
   <g id="PolyCollection_6">
    <path d="M 218.472036 344.6075 
L 218.472036 313.592115 
L 218.472036 313.592115 
L 218.472036 344.6075 
z
" clip-path="url(#p0e22278bc8)" style="fill: url(#h918c3c3221); stroke: #000000"/>
   </g>
   <g id="PolyCollection_7">
    <defs>
     <path id="m8f17093429" d="M 320.132371 -69.65125 
L 320.132371 -100.666635 
L 372.814651 -100.666635 
L 372.814651 -69.65125 
z
" style="stroke: #000000"/>
    </defs>
    <g clip-path="url(#p0e22278bc8)">
     <use xlink:href="#m8f17093429" x="0" y="414.25875" style="fill: #c6dbef; stroke: #000000"/>
    </g>
   </g>
   <g id="PolyCollection_8">
    <path d="M 320.132371 344.6075 
L 320.132371 313.592115 
L 320.132371 313.592115 
L 320.132371 344.6075 
z
" clip-path="url(#p0e22278bc8)" style="fill: url(#h918c3c3221); stroke: #000000"/>
   </g>
   <g id="PolyCollection_9">
    <defs>
     <path id="m3ad929ca90" d="M 94.586364 -108.420481 
L 94.586364 -139.435865 
L 120.104343 -139.435865 
L 120.104343 -108.420481 
z
" style="stroke: #000000"/>
    </defs>
    <g clip-path="url(#p0e22278bc8)">
     <use xlink:href="#m3ad929ca90" x="0" y="414.25875" style="fill: #6395b9; stroke: #000000"/>
    </g>
   </g>
   <g id="PolyCollection_10">
    <path d="M 94.586364 305.838269 
L 94.586364 274.822885 
L 94.586364 274.822885 
L 94.586364 305.838269 
z
" clip-path="url(#p0e22278bc8)" style="fill: url(#h918c3c3221); stroke: #000000"/>
   </g>
   <g id="PolyCollection_11">
    <defs>
     <path id="ma7adb69116" d="M 120.104343 -108.420481 
L 120.104343 -139.435865 
L 267.038512 -139.435865 
L 267.038512 -108.420481 
z
" style="stroke: #000000"/>
    </defs>
    <g clip-path="url(#p0e22278bc8)">
     <use xlink:href="#ma7adb69116" x="0" y="414.25875" style="fill: #8c6bb1; stroke: #000000"/>
    </g>
   </g>
   <g id="PolyCollection_12">
    <path d="M 120.104343 305.838269 
L 120.104343 274.822885 
L 120.104343 274.822885 
L 120.104343 305.838269 
z
" clip-path="url(#p0e22278bc8)" style="fill: url(#h918c3c3221); stroke: #000000"/>
   </g>
   <g id="PolyCollection_13">
    <defs>
     <path id="me8e99a9ef8" d="M 267.038512 -108.420481 
L 267.038512 -139.435865 
L 328.775558 -139.435865 
L 328.775558 -108.420481 
z
" style="stroke: #000000"/>
    </defs>
    <g clip-path="url(#p0e22278bc8)">
     <use xlink:href="#me8e99a9ef8" x="0" y="414.25875" style="fill: #9467bd; stroke: #000000"/>
    </g>
   </g>
   <g id="PolyCollection_14">
    <path d="M 267.038512 305.838269 
L 267.038512 274.822885 
L 267.038512 274.822885 
L 267.038512 305.838269 
z
" clip-path="url(#p0e22278bc8)" style="fill: url(#h918c3c3221); stroke: #000000"/>
   </g>
   <g id="PolyCollection_15">
    <defs>
     <path id="m5747cf6432" d="M 328.775558 -108.420481 
L 328.775558 -139.435865 
L 390.512604 -139.435865 
L 390.512604 -108.420481 
z
" style="stroke: #000000"/>
    </defs>
    <g clip-path="url(#p0e22278bc8)">
     <use xlink:href="#m5747cf6432" x="0" y="414.25875" style="fill: #fc9272; stroke: #000000"/>
    </g>
   </g>
   <g id="PolyCollection_16">
    <path d="M 328.775558 305.838269 
L 328.775558 274.822885 
L 328.775558 274.822885 
L 328.775558 305.838269 
z
" clip-path="url(#p0e22278bc8)" style="fill: url(#h918c3c3221); stroke: #000000"/>
   </g>
   <g id="PolyCollection_17">
    <defs>
     <path id="mc340e34bf0" d="M 399.56737 -108.420481 
L 399.56737 -139.435865 
L 440.725401 -139.435865 
L 440.725401 -108.420481 
z
" style="stroke: #000000"/>
    </defs>
    <g clip-path="url(#p0e22278bc8)">
     <use xlink:href="#mc340e34bf0" x="0" y="414.25875" style="fill: #c6dbef; stroke: #000000"/>
    </g>
   </g>
   <g id="PolyCollection_18">
    <path d="M 399.56737 305.838269 
L 399.56737 274.822885 
L 399.56737 274.822885 
L 399.56737 305.838269 
z
" clip-path="url(#p0e22278bc8)" style="fill: url(#h918c3c3221); stroke: #000000"/>
   </g>
   <g id="PolyCollection_19">
    <defs>
     <path id="md249e5137b" d="M 440.725401 -108.420481 
L 440.725401 -139.435865 
L 500.404545 -139.435865 
L 500.404545 -108.420481 
z
" style="stroke: #000000"/>
    </defs>
    <g clip-path="url(#p0e22278bc8)">
     <use xlink:href="#md249e5137b" x="0" y="414.25875" style="fill: #d62728; stroke: #000000"/>
    </g>
   </g>
   <g id="PolyCollection_20">
    <path d="M 440.725401 305.838269 
L 440.725401 274.822885 
L 440.725401 274.822885 
L 440.725401 305.838269 
z
" clip-path="url(#p0e22278bc8)" style="fill: url(#h918c3c3221); stroke: #000000"/>
   </g>
   <g id="PolyCollection_21">
    <defs>
     <path id="m0e8107e38e" d="M 94.586364 -147.189712 
L 94.586364 -178.205096 
L 154.265508 -178.205096 
L 154.265508 -147.189712 
z
" style="stroke: #000000"/>
    </defs>
    <g clip-path="url(#p0e22278bc8)">
     <use xlink:href="#m0e8107e38e" x="0" y="414.25875" style="fill: #e45756; stroke: #000000"/>
    </g>
   </g>
   <g id="PolyCollection_22">
    <path d="M 94.586364 267.069038 
L 94.586364 236.053654 
L 94.586364 236.053654 
L 94.586364 267.069038 
z
" clip-path="url(#p0e22278bc8)" style="fill: url(#h918c3c3221); stroke: #000000"/>
   </g>
   <g id="PolyCollection_23">
    <defs>
     <path id="mb3e596d032" d="M 154.265508 -147.189712 
L 154.265508 -178.205096 
L 205.301466 -178.205096 
L 205.301466 -147.189712 
z
" style="stroke: #000000"/>
    </defs>
    <g clip-path="url(#p0e22278bc8)">
     <use xlink:href="#mb3e596d032" x="0" y="414.25875" style="fill: #e45756; stroke: #000000"/>
    </g>
   </g>
   <g id="PolyCollection_24">
    <path d="M 154.265508 267.069038 
L 154.265508 236.053654 
L 154.265508 236.053654 
L 154.265508 267.069038 
z
" clip-path="url(#p0e22278bc8)" style="fill: url(#h918c3c3221); stroke: #000000"/>
   </g>
   <g id="PolyCollection_25">
    <defs>
     <path id="mf1313e7da5" d="M 218.472036 -147.189712 
L 218.472036 -178.205096 
L 254.279522 -178.205096 
L 254.279522 -147.189712 
z
" style="stroke: #000000"/>
    </defs>
    <g clip-path="url(#p0e22278bc8)">
     <use xlink:href="#mf1313e7da5" x="0" y="414.25875" style="fill: #4c78a8; stroke: #000000"/>
    </g>
   </g>
   <g id="PolyCollection_26">
    <path d="M 218.472036 267.069038 
L 218.472036 236.053654 
L 218.472036 236.053654 
L 218.472036 267.069038 
z
" clip-path="url(#p0e22278bc8)" style="fill: url(#h918c3c3221); stroke: #000000"/>
   </g>
   <g id="PolyCollection_27">
    <defs>
     <path id="m6756c51747" d="M 254.279522 -147.189712 
L 254.279522 -178.205096 
L 360.055661 -178.205096 
L 360.055661 -147.189712 
z
" style="stroke: #000000"/>
    </defs>
    <g clip-path="url(#p0e22278bc8)">
     <use xlink:href="#m6756c51747" x="0" y="414.25875" style="fill: #fee0d2; stroke: #000000"/>
    </g>
   </g>
   <g id="PolyCollection_28">
    <path d="M 254.279522 267.069038 
L 254.279522 236.053654 
L 254.279522 236.053654 
L 254.279522 267.069038 
z
" clip-path="url(#p0e22278bc8)" style="fill: url(#h918c3c3221); stroke: #000000"/>
   </g>
   <g id="PolyCollection_29">
    <defs>
     <path id="mc40ce245c2" d="M 360.055661 -147.189712 
L 360.055661 -178.205096 
L 434.140116 -178.205096 
L 434.140116 -147.189712 
z
" style="stroke: #000000"/>
    </defs>
    <g clip-path="url(#p0e22278bc8)">
     <use xlink:href="#mc40ce245c2" x="0" y="414.25875" style="fill: #9467bd; stroke: #000000"/>
    </g>
   </g>
   <g id="PolyCollection_30">
    <path d="M 360.055661 267.069038 
L 360.055661 236.053654 
L 360.055661 236.053654 
L 360.055661 267.069038 
z
" clip-path="url(#p0e22278bc8)" style="fill: url(#h918c3c3221); stroke: #000000"/>
   </g>
   <g id="PolyCollection_31">
    <defs>
     <path id="m70d5d9d868" d="M 500.404545 -147.189712 
L 500.404545 -178.205096 
L 551.028923 -178.205096 
L 551.028923 -147.189712 
z
" style="stroke: #000000"/>
    </defs>
    <g clip-path="url(#p0e22278bc8)">
     <use xlink:href="#m70d5d9d868" x="0" y="414.25875" style="fill: #d62728; stroke: #000000"/>
    </g>
   </g>
   <g id="PolyCollection_32">
    <path d="M 500.404545 267.069038 
L 500.404545 236.053654 
L 500.404545 236.053654 
L 500.404545 267.069038 
z
" clip-path="url(#p0e22278bc8)" style="fill: url(#h918c3c3221); stroke: #000000"/>
   </g>
   <g id="PolyCollection_33">
    <defs>
     <path id="mb64cfdc87f" d="M 551.028923 -147.189712 
L 551.028923 -178.205096 
L 625.113378 -178.205096 
L 625.113378 -147.189712 
z
" style="stroke: #000000"/>
    </defs>
    <g clip-path="url(#p0e22278bc8)">
     <use xlink:href="#mb64cfdc87f" x="0" y="414.25875" style="fill: #fc9272; stroke: #000000"/>
    </g>
   </g>
   <g id="PolyCollection_34">
    <path d="M 551.028923 267.069038 
L 551.028923 236.053654 
L 551.028923 236.053654 
L 551.028923 267.069038 
z
" clip-path="url(#p0e22278bc8)" style="fill: url(#h918c3c3221); stroke: #000000"/>
   </g>
   <g id="PolyCollection_35">
    <defs>
     <path id="m4040a7dfa5" d="M 94.586364 -185.958942 
L 94.586364 -216.974327 
L 195.423539 -216.974327 
L 195.423539 -185.958942 
z
" style="stroke: #000000"/>
    </defs>
    <g clip-path="url(#p0e22278bc8)">
     <use xlink:href="#m4040a7dfa5" x="0" y="414.25875" style="fill: #f67e7d; stroke: #000000"/>
    </g>
   </g>
   <g id="PolyCollection_36">
    <path d="M 94.586364 228.299808 
L 94.586364 197.284423 
L 94.586364 197.284423 
L 94.586364 228.299808 
z
" clip-path="url(#p0e22278bc8)" style="fill: url(#h918c3c3221); stroke: #000000"/>
   </g>
   <g id="PolyCollection_37">
    <defs>
     <path id="m90cdba2fc7" d="M 201.597243 -185.958942 
L 201.597243 -216.974327 
L 261.276388 -216.974327 
L 261.276388 -185.958942 
z
" style="stroke: #000000"/>
    </defs>
    <g clip-path="url(#p0e22278bc8)">
     <use xlink:href="#m90cdba2fc7" x="0" y="414.25875" style="fill: #9ecae1; stroke: #000000"/>
    </g>
   </g>
   <g id="PolyCollection_38">
    <path d="M 201.597243 228.299808 
L 201.597243 197.284423 
L 201.597243 197.284423 
L 201.597243 228.299808 
z
" clip-path="url(#p0e22278bc8)" style="fill: url(#h918c3c3221); stroke: #000000"/>
   </g>
   <g id="PolyCollection_39">
    <defs>
     <path id="mc163d71572" d="M 261.276388 -185.958942 
L 261.276388 -216.974327 
L 304.49232 -216.974327 
L 304.49232 -185.958942 
z
" style="stroke: #000000"/>
    </defs>
    <g clip-path="url(#p0e22278bc8)">
     <use xlink:href="#mc163d71572" x="0" y="414.25875" style="fill: #6395b9; stroke: #000000"/>
    </g>
   </g>
   <g id="PolyCollection_40">
    <path d="M 261.276388 228.299808 
L 261.276388 197.284423 
L 261.276388 197.284423 
L 261.276388 228.299808 
z
" clip-path="url(#p0e22278bc8)" style="fill: url(#h918c3c3221); stroke: #000000"/>
   </g>
   <g id="PolyCollection_41">
    <defs>
     <path id="m6d9eb75cd3" d="M 372.814651 -185.958942 
L 372.814651 -216.974327 
L 399.56737 -216.974327 
L 399.56737 -185.958942 
z
" style="stroke: #000000"/>
    </defs>
    <g clip-path="url(#p0e22278bc8)">
     <use xlink:href="#m6d9eb75cd3" x="0" y="414.25875" style="fill: #c6dbef; stroke: #000000"/>
    </g>
   </g>
   <g id="PolyCollection_42">
    <path d="M 372.814651 228.299808 
L 372.814651 197.284423 
L 372.814651 197.284423 
L 372.814651 228.299808 
z
" clip-path="url(#p0e22278bc8)" style="fill: url(#h918c3c3221); stroke: #000000"/>
   </g>
   <g id="PolyCollection_43">
    <defs>
     <path id="mf35496627d" d="M 399.56737 -185.958942 
L 399.56737 -216.974327 
L 461.304416 -216.974327 
L 461.304416 -185.958942 
z
" style="stroke: #000000"/>
    </defs>
    <g clip-path="url(#p0e22278bc8)">
     <use xlink:href="#mf35496627d" x="0" y="414.25875" style="fill: #1f77b4; stroke: #000000"/>
    </g>
   </g>
   <g id="PolyCollection_44">
    <path d="M 399.56737 228.299808 
L 399.56737 197.284423 
L 399.56737 197.284423 
L 399.56737 228.299808 
z
" clip-path="url(#p0e22278bc8)" style="fill: url(#h918c3c3221); stroke: #000000"/>
   </g>
   <g id="PolyCollection_45">
    <defs>
     <path id="m5e0c124660" d="M 461.304416 -185.958942 
L 461.304416 -216.974327 
L 539.504675 -216.974327 
L 539.504675 -185.958942 
z
" style="stroke: #000000"/>
    </defs>
    <g clip-path="url(#p0e22278bc8)">
     <use xlink:href="#m5e0c124660" x="0" y="414.25875" style="fill: #6395b9; stroke: #000000"/>
    </g>
   </g>
   <g id="PolyCollection_46">
    <path d="M 461.304416 228.299808 
L 461.304416 197.284423 
L 461.304416 197.284423 
L 461.304416 228.299808 
z
" clip-path="url(#p0e22278bc8)" style="fill: url(#h918c3c3221); stroke: #000000"/>
   </g>
   <g id="PolyCollection_47">
    <defs>
     <path id="mb450eb2a37" d="M 600.41856 -185.958942 
L 600.41856 -216.974327 
L 649.808197 -216.974327 
L 649.808197 -185.958942 
z
" style="stroke: #000000"/>
    </defs>
    <g clip-path="url(#p0e22278bc8)">
     <use xlink:href="#mb450eb2a37" x="0" y="414.25875" style="fill: #d62728; stroke: #000000"/>
    </g>
   </g>
   <g id="PolyCollection_48">
    <path d="M 600.41856 228.299808 
L 600.41856 197.284423 
L 600.41856 197.284423 
L 600.41856 228.299808 
z
" clip-path="url(#p0e22278bc8)" style="fill: url(#h918c3c3221); stroke: #000000"/>
   </g>
   <g id="PolyCollection_49">
    <defs>
     <path id="m460ecbd4b6" d="M 130.39385 -224.728173 
L 130.39385 -255.743558 
L 201.597243 -255.743558 
L 201.597243 -224.728173 
z
" style="stroke: #000000"/>
    </defs>
    <g clip-path="url(#p0e22278bc8)">
     <use xlink:href="#m460ecbd4b6" x="0" y="414.25875" style="fill: #9ecae1; stroke: #000000"/>
    </g>
   </g>
   <g id="PolyCollection_50">
    <path d="M 130.39385 189.530577 
L 130.39385 158.515192 
L 130.39385 158.515192 
L 130.39385 189.530577 
z
" clip-path="url(#p0e22278bc8)" style="fill: url(#h918c3c3221); stroke: #000000"/>
   </g>
   <g id="PolyCollection_51">
    <defs>
     <path id="md966f3008f" d="M 205.301466 -224.728173 
L 205.301466 -255.743558 
L 264.98061 -255.743558 
L 264.98061 -224.728173 
z
" style="stroke: #000000"/>
    </defs>
    <g clip-path="url(#p0e22278bc8)">
     <use xlink:href="#md966f3008f" x="0" y="414.25875" style="fill: #e45756; stroke: #000000"/>
    </g>
   </g>
   <g id="PolyCollection_52">
    <path d="M 205.301466 189.530577 
L 205.301466 158.515192 
L 205.301466 158.515192 
L 205.301466 189.530577 
z
" clip-path="url(#p0e22278bc8)" style="fill: url(#h918c3c3221); stroke: #000000"/>
   </g>
   <g id="PolyCollection_53">
    <defs>
     <path id="md98c90f98b" d="M 287.617527 -224.728173 
L 287.617527 -255.743558 
L 347.296672 -255.743558 
L 347.296672 -224.728173 
z
" style="stroke: #000000"/>
    </defs>
    <g clip-path="url(#p0e22278bc8)">
     <use xlink:href="#md98c90f98b" x="0" y="414.25875" style="fill: #f67e7d; stroke: #000000"/>
    </g>
   </g>
   <g id="PolyCollection_54">
    <path d="M 287.617527 189.530577 
L 287.617527 158.515192 
L 287.617527 158.515192 
L 287.617527 189.530577 
z
" clip-path="url(#p0e22278bc8)" style="fill: url(#h918c3c3221); stroke: #000000"/>
   </g>
   <g id="PolyCollection_55">
    <defs>
     <path id="m2db0519ce3" d="M 347.296672 -224.728173 
L 347.296672 -255.743558 
L 457.600194 -255.743558 
L 457.600194 -224.728173 
z
" style="stroke: #000000"/>
    </defs>
    <g clip-path="url(#p0e22278bc8)">
     <use xlink:href="#m2db0519ce3" x="0" y="414.25875" style="fill: #8c6bb1; stroke: #000000"/>
    </g>
   </g>
   <g id="PolyCollection_56">
    <path d="M 347.296672 189.530577 
L 347.296672 158.515192 
L 347.296672 158.515192 
L 347.296672 189.530577 
z
" clip-path="url(#p0e22278bc8)" style="fill: url(#h918c3c3221); stroke: #000000"/>
   </g>
   <g id="PolyCollection_57">
    <defs>
     <path id="m56445ad64f" d="M 457.600194 -224.728173 
L 457.600194 -255.743558 
L 517.279338 -255.743558 
L 517.279338 -224.728173 
z
" style="stroke: #000000"/>
    </defs>
    <g clip-path="url(#p0e22278bc8)">
     <use xlink:href="#m56445ad64f" x="0" y="414.25875" style="fill: #8c6bb1; stroke: #000000"/>
    </g>
   </g>
   <g id="PolyCollection_58">
    <path d="M 457.600194 189.530577 
L 457.600194 158.515192 
L 457.600194 158.515192 
L 457.600194 189.530577 
z
" clip-path="url(#p0e22278bc8)" style="fill: url(#h918c3c3221); stroke: #000000"/>
   </g>
   <g id="PolyCollection_59">
    <defs>
     <path id="mf5d876fed5" d="M 517.279338 -224.728173 
L 517.279338 -255.743558 
L 533.74255 -255.743558 
L 533.74255 -224.728173 
z
" style="stroke: #000000"/>
    </defs>
    <g clip-path="url(#p0e22278bc8)">
     <use xlink:href="#mf5d876fed5" x="0" y="414.25875" style="fill: #9467bd; stroke: #000000"/>
    </g>
   </g>
   <g id="PolyCollection_60">
    <path d="M 517.279338 189.530577 
L 517.279338 158.515192 
L 517.279338 158.515192 
L 517.279338 189.530577 
z
" clip-path="url(#p0e22278bc8)" style="fill: url(#h918c3c3221); stroke: #000000"/>
   </g>
   <g id="PolyCollection_61">
    <defs>
     <path id="m98775ba4d4" d="M 551.028923 -224.728173 
L 551.028923 -255.743558 
L 600.41856 -255.743558 
L 600.41856 -224.728173 
z
" style="stroke: #000000"/>
    </defs>
    <g clip-path="url(#p0e22278bc8)">
     <use xlink:href="#m98775ba4d4" x="0" y="414.25875" style="fill: #d62728; stroke: #000000"/>
    </g>
   </g>
   <g id="PolyCollection_62">
    <path d="M 551.028923 189.530577 
L 551.028923 158.515192 
L 551.028923 158.515192 
L 551.028923 189.530577 
z
" clip-path="url(#p0e22278bc8)" style="fill: url(#h918c3c3221); stroke: #000000"/>
   </g>
   <g id="PolyCollection_63">
    <defs>
     <path id="m3ccac00e16" d="M 625.113378 -224.728173 
L 625.113378 -255.743558 
L 641.57659 -255.743558 
L 641.57659 -224.728173 
z
" style="stroke: #000000"/>
    </defs>
    <g clip-path="url(#p0e22278bc8)">
     <use xlink:href="#m3ccac00e16" x="0" y="414.25875" style="fill: #fc9272; stroke: #000000"/>
    </g>
   </g>
   <g id="PolyCollection_64">
    <path d="M 625.113378 189.530577 
L 625.113378 158.515192 
L 625.113378 158.515192 
L 625.113378 189.530577 
z
" clip-path="url(#p0e22278bc8)" style="fill: url(#h918c3c3221); stroke: #000000"/>
   </g>
   <g id="PolyCollection_65">
    <defs>
     <path id="m2c5522ca24" d="M 641.57659 -224.728173 
L 641.57659 -255.743558 
L 699.197833 -255.743558 
L 699.197833 -224.728173 
z
" style="stroke: #000000"/>
    </defs>
    <g clip-path="url(#p0e22278bc8)">
     <use xlink:href="#m2c5522ca24" x="0" y="414.25875" style="fill: #e45756; stroke: #000000"/>
    </g>
   </g>
   <g id="PolyCollection_66">
    <path d="M 641.57659 189.530577 
L 641.57659 158.515192 
L 641.57659 158.515192 
L 641.57659 189.530577 
z
" clip-path="url(#p0e22278bc8)" style="fill: url(#h918c3c3221); stroke: #000000"/>
   </g>
   <g id="PolyCollection_67">
    <defs>
     <path id="m1215a006da" d="M 195.423539 -263.497404 
L 195.423539 -294.512788 
L 287.617527 -294.512788 
L 287.617527 -263.497404 
z
" style="stroke: #000000"/>
    </defs>
    <g clip-path="url(#p0e22278bc8)">
     <use xlink:href="#m1215a006da" x="0" y="414.25875" style="fill: #f67e7d; stroke: #000000"/>
    </g>
   </g>
   <g id="PolyCollection_68">
    <path d="M 195.423539 150.761346 
L 195.423539 119.745962 
L 195.423539 119.745962 
L 195.423539 150.761346 
z
" clip-path="url(#p0e22278bc8)" style="fill: url(#h918c3c3221); stroke: #000000"/>
   </g>
   <g id="PolyCollection_69">
    <defs>
     <path id="m825a5ec36e" d="M 287.617527 -263.497404 
L 287.617527 -294.512788 
L 326.717656 -294.512788 
L 326.717656 -263.497404 
z
" style="stroke: #000000"/>
    </defs>
    <g clip-path="url(#p0e22278bc8)">
     <use xlink:href="#m825a5ec36e" x="0" y="414.25875" style="fill: #4c78a8; stroke: #000000"/>
    </g>
   </g>
   <g id="PolyCollection_70">
    <path d="M 287.617527 150.761346 
L 287.617527 119.745962 
L 287.617527 119.745962 
L 287.617527 150.761346 
z
" clip-path="url(#p0e22278bc8)" style="fill: url(#h918c3c3221); stroke: #000000"/>
   </g>
   <g id="PolyCollection_71">
    <defs>
     <path id="mbd2985b029" d="M 360.055661 -263.497404 
L 360.055661 -294.512788 
L 452.24965 -294.512788 
L 452.24965 -263.497404 
z
" style="stroke: #000000"/>
    </defs>
    <g clip-path="url(#p0e22278bc8)">
     <use xlink:href="#mbd2985b029" x="0" y="414.25875" style="fill: #fee0d2; stroke: #000000"/>
    </g>
   </g>
   <g id="PolyCollection_72">
    <path d="M 360.055661 150.761346 
L 360.055661 119.745962 
L 360.055661 119.745962 
L 360.055661 150.761346 
z
" clip-path="url(#p0e22278bc8)" style="fill: url(#h918c3c3221); stroke: #000000"/>
   </g>
   <g id="PolyCollection_73">
    <defs>
     <path id="m42b31fbefc" d="M 452.24965 -263.497404 
L 452.24965 -294.512788 
L 522.218302 -294.512788 
L 522.218302 -263.497404 
z
" style="stroke: #000000"/>
    </defs>
    <g clip-path="url(#p0e22278bc8)">
     <use xlink:href="#m42b31fbefc" x="0" y="414.25875" style="fill: #9ecae1; stroke: #000000"/>
    </g>
   </g>
   <g id="PolyCollection_74">
    <path d="M 452.24965 150.761346 
L 452.24965 119.745962 
L 452.24965 119.745962 
L 452.24965 150.761346 
z
" clip-path="url(#p0e22278bc8)" style="fill: url(#h918c3c3221); stroke: #000000"/>
   </g>
   <g id="PolyCollection_75">
    <defs>
     <path id="m99f11ef919" d="M 533.74255 -263.497404 
L 533.74255 -294.512788 
L 595.479596 -294.512788 
L 595.479596 -263.497404 
z
" style="stroke: #000000"/>
    </defs>
    <g clip-path="url(#p0e22278bc8)">
     <use xlink:href="#m99f11ef919" x="0" y="414.25875" style="fill: #9467bd; stroke: #000000"/>
    </g>
   </g>
   <g id="PolyCollection_76">
    <path d="M 533.74255 150.761346 
L 533.74255 119.745962 
L 533.74255 119.745962 
L 533.74255 150.761346 
z
" clip-path="url(#p0e22278bc8)" style="fill: url(#h918c3c3221); stroke: #000000"/>
   </g>
   <g id="PolyCollection_77">
    <defs>
     <path id="m2127d79e7f" d="M 641.57659 -263.497404 
L 641.57659 -294.512788 
L 703.313636 -294.512788 
L 703.313636 -263.497404 
z
" style="stroke: #000000"/>
    </defs>
    <g clip-path="url(#p0e22278bc8)">
     <use xlink:href="#m2127d79e7f" x="0" y="414.25875" style="fill: #fc9272; stroke: #000000"/>
    </g>
   </g>
   <g id="PolyCollection_78">
    <path d="M 641.57659 150.761346 
L 641.57659 119.745962 
L 641.57659 119.745962 
L 641.57659 150.761346 
z
" clip-path="url(#p0e22278bc8)" style="fill: url(#h918c3c3221); stroke: #000000"/>
   </g>
   <g id="PolyCollection_79">
    <defs>
     <path id="m9b1775897f" d="M 320.132371 -302.266635 
L 320.132371 -333.282019 
L 370.756749 -333.282019 
L 370.756749 -302.266635 
z
" style="stroke: #000000"/>
    </defs>
    <g clip-path="url(#p0e22278bc8)">
     <use xlink:href="#m9b1775897f" x="0" y="414.25875" style="fill: #1f77b4; stroke: #000000"/>
    </g>
   </g>
   <g id="PolyCollection_80">
    <path d="M 320.132371 111.992115 
L 320.132371 80.976731 
L 320.132371 80.976731 
L 320.132371 111.992115 
z
" clip-path="url(#p0e22278bc8)" style="fill: url(#h918c3c3221); stroke: #000000"/>
   </g>
   <g id="PolyCollection_81">
    <defs>
     <path id="mf47bc817e7" d="M 370.756749 -302.266635 
L 370.756749 -333.282019 
L 432.493795 -333.282019 
L 432.493795 -302.266635 
z
" style="stroke: #000000"/>
    </defs>
    <g clip-path="url(#p0e22278bc8)">
     <use xlink:href="#mf47bc817e7" x="0" y="414.25875" style="fill: #f67e7d; stroke: #000000"/>
    </g>
   </g>
   <g id="PolyCollection_82">
    <path d="M 370.756749 111.992115 
L 370.756749 80.976731 
L 370.756749 80.976731 
L 370.756749 111.992115 
z
" clip-path="url(#p0e22278bc8)" style="fill: url(#h918c3c3221); stroke: #000000"/>
   </g>
   <g id="PolyCollection_83">
    <defs>
     <path id="mbfe03748bb" d="M 452.24965 -302.266635 
L 452.24965 -333.282019 
L 525.510944 -333.282019 
L 525.510944 -302.266635 
z
" style="stroke: #000000"/>
    </defs>
    <g clip-path="url(#p0e22278bc8)">
     <use xlink:href="#mbfe03748bb" x="0" y="414.25875" style="fill: #fee0d2; stroke: #000000"/>
    </g>
   </g>
   <g id="PolyCollection_84">
    <path d="M 452.24965 111.992115 
L 452.24965 80.976731 
L 452.24965 80.976731 
L 452.24965 111.992115 
z
" clip-path="url(#p0e22278bc8)" style="fill: url(#h918c3c3221); stroke: #000000"/>
   </g>
   <g id="PolyCollection_85">
    <defs>
     <path id="m35900ace84" d="M 525.510944 -302.266635 
L 525.510944 -333.282019 
L 611.942808 -333.282019 
L 611.942808 -302.266635 
z
" style="stroke: #000000"/>
    </defs>
    <g clip-path="url(#p0e22278bc8)">
     <use xlink:href="#m35900ace84" x="0" y="414.25875" style="fill: #1f77b4; stroke: #000000"/>
    </g>
   </g>
   <g id="PolyCollection_86">
    <path d="M 525.510944 111.992115 
L 525.510944 80.976731 
L 525.510944 80.976731 
L 525.510944 111.992115 
z
" clip-path="url(#p0e22278bc8)" style="fill: url(#h918c3c3221); stroke: #000000"/>
   </g>
   <g id="PolyCollection_87">
    <defs>
     <path id="m04429b53a6" d="M 611.942808 -302.266635 
L 611.942808 -333.282019 
L 673.679854 -333.282019 
L 673.679854 -302.266635 
z
" style="stroke: #000000"/>
    </defs>
    <g clip-path="url(#p0e22278bc8)">
     <use xlink:href="#m04429b53a6" x="0" y="414.25875" style="fill: #fee0d2; stroke: #000000"/>
    </g>
   </g>
   <g id="PolyCollection_88">
    <path d="M 611.942808 111.992115 
L 611.942808 80.976731 
L 611.942808 80.976731 
L 611.942808 111.992115 
z
" clip-path="url(#p0e22278bc8)" style="fill: url(#h918c3c3221); stroke: #000000"/>
   </g>
   <g id="PolyCollection_89">
    <defs>
     <path id="mc8724c2097" d="M 326.717656 -341.035865 
L 326.717656 -372.05125 
L 388.454702 -372.05125 
L 388.454702 -341.035865 
z
" style="stroke: #000000"/>
    </defs>
    <g clip-path="url(#p0e22278bc8)">
     <use xlink:href="#mc8724c2097" x="0" y="414.25875" style="fill: #4c78a8; stroke: #000000"/>
    </g>
   </g>
   <g id="PolyCollection_90">
    <path d="M 326.717656 73.222885 
L 326.717656 42.2075 
L 326.717656 42.2075 
L 326.717656 73.222885 
z
" clip-path="url(#p0e22278bc8)" style="fill: url(#h918c3c3221); stroke: #000000"/>
   </g>
   <g id="PolyCollection_91">
    <defs>
     <path id="m3256f7a14b" d="M 440.725401 -341.035865 
L 440.725401 -372.05125 
L 508.636152 -372.05125 
L 508.636152 -341.035865 
z
" style="stroke: #000000"/>
    </defs>
    <g clip-path="url(#p0e22278bc8)">
     <use xlink:href="#m3256f7a14b" x="0" y="414.25875" style="fill: #c6dbef; stroke: #000000"/>
    </g>
   </g>
   <g id="PolyCollection_92">
    <path d="M 440.725401 73.222885 
L 440.725401 42.2075 
L 440.725401 42.2075 
L 440.725401 73.222885 
z
" clip-path="url(#p0e22278bc8)" style="fill: url(#h918c3c3221); stroke: #000000"/>
   </g>
   <g id="PolyCollection_93">
    <defs>
     <path id="m130f591855" d="M 539.504675 -341.035865 
L 539.504675 -372.05125 
L 607.415425 -372.05125 
L 607.415425 -341.035865 
z
" style="stroke: #000000"/>
    </defs>
    <g clip-path="url(#p0e22278bc8)">
     <use xlink:href="#m130f591855" x="0" y="414.25875" style="fill: #6395b9; stroke: #000000"/>
    </g>
   </g>
   <g id="PolyCollection_94">
    <path d="M 539.504675 73.222885 
L 539.504675 42.2075 
L 539.504675 42.2075 
L 539.504675 73.222885 
z
" clip-path="url(#p0e22278bc8)" style="fill: url(#h918c3c3221); stroke: #000000"/>
   </g>
   <g id="PolyCollection_95">
    <defs>
     <path id="m7cc40836d8" d="M 607.415425 -341.035865 
L 607.415425 -372.05125 
L 702.078895 -372.05125 
L 702.078895 -341.035865 
z
" style="stroke: #000000"/>
    </defs>
    <g clip-path="url(#p0e22278bc8)">
     <use xlink:href="#m7cc40836d8" x="0" y="414.25875" style="fill: #8c6bb1; stroke: #000000"/>
    </g>
   </g>
   <g id="PolyCollection_96">
    <path d="M 607.415425 73.222885 
L 607.415425 42.2075 
L 607.415425 42.2075 
L 607.415425 73.222885 
z
" clip-path="url(#p0e22278bc8)" style="fill: url(#h918c3c3221); stroke: #000000"/>
   </g>
   <g id="matplotlib.axis_1">
    <g id="xtick_1">
     <g id="line2d_1">
      <defs>
       <path id="m952b2a62f2" d="M 0 0 
L 0 3.5 
" style="stroke: #000000; stroke-width: 0.8"/>
      </defs>
      <g>
       <use xlink:href="#m952b2a62f2" x="94.586364" y="359.7275" style="stroke: #000000; stroke-width: 0.8"/>
      </g>
     </g>
     <g id="text_1">
      <!-- 0 -->
      <g transform="translate(89.586364 380.615) scale(0.2 -0.2)">
       <defs>
        <path id="TimesNewRomanPSMT-30" d="M 231 2094 
Q 231 2819 450 3342 
Q 669 3866 1031 4122 
Q 1313 4325 1613 4325 
Q 2100 4325 2488 3828 
Q 2972 3213 2972 2159 
Q 2972 1422 2759 906 
Q 2547 391 2217 158 
Q 1888 -75 1581 -75 
Q 975 -75 572 641 
Q 231 1244 231 2094 
z
M 844 2016 
Q 844 1141 1059 588 
Q 1238 122 1591 122 
Q 1759 122 1940 273 
Q 2122 425 2216 781 
Q 2359 1319 2359 2297 
Q 2359 3022 2209 3506 
Q 2097 3866 1919 4016 
Q 1791 4119 1609 4119 
Q 1397 4119 1231 3928 
Q 1006 3669 925 3112 
Q 844 2556 844 2016 
z
" transform="scale(0.015625)"/>
       </defs>
       <use xlink:href="#TimesNewRomanPSMT-30"/>
      </g>
     </g>
    </g>
    <g id="xtick_2">
     <g id="line2d_2">
      <g>
       <use xlink:href="#m952b2a62f2" x="176.902425" y="359.7275" style="stroke: #000000; stroke-width: 0.8"/>
      </g>
     </g>
     <g id="text_2">
      <!-- 200 -->
      <g transform="translate(161.902425 380.615) scale(0.2 -0.2)">
       <defs>
        <path id="TimesNewRomanPSMT-32" d="M 2934 816 
L 2638 0 
L 138 0 
L 138 116 
Q 1241 1122 1691 1759 
Q 2141 2397 2141 2925 
Q 2141 3328 1894 3587 
Q 1647 3847 1303 3847 
Q 991 3847 742 3664 
Q 494 3481 375 3128 
L 259 3128 
Q 338 3706 661 4015 
Q 984 4325 1469 4325 
Q 1984 4325 2329 3994 
Q 2675 3663 2675 3213 
Q 2675 2891 2525 2569 
Q 2294 2063 1775 1497 
Q 997 647 803 472 
L 1909 472 
Q 2247 472 2383 497 
Q 2519 522 2628 598 
Q 2738 675 2819 816 
L 2934 816 
z
" transform="scale(0.015625)"/>
       </defs>
       <use xlink:href="#TimesNewRomanPSMT-32"/>
       <use xlink:href="#TimesNewRomanPSMT-30" x="50"/>
       <use xlink:href="#TimesNewRomanPSMT-30" x="100"/>
      </g>
     </g>
    </g>
    <g id="xtick_3">
     <g id="line2d_3">
      <g>
       <use xlink:href="#m952b2a62f2" x="259.218486" y="359.7275" style="stroke: #000000; stroke-width: 0.8"/>
      </g>
     </g>
     <g id="text_3">
      <!-- 400 -->
      <g transform="translate(244.218486 380.615) scale(0.2 -0.2)">
       <defs>
        <path id="TimesNewRomanPSMT-34" d="M 2978 1563 
L 2978 1119 
L 2409 1119 
L 2409 0 
L 1894 0 
L 1894 1119 
L 100 1119 
L 100 1519 
L 2066 4325 
L 2409 4325 
L 2409 1563 
L 2978 1563 
z
M 1894 1563 
L 1894 3666 
L 406 1563 
L 1894 1563 
z
" transform="scale(0.015625)"/>
       </defs>
       <use xlink:href="#TimesNewRomanPSMT-34"/>
       <use xlink:href="#TimesNewRomanPSMT-30" x="50"/>
       <use xlink:href="#TimesNewRomanPSMT-30" x="100"/>
      </g>
     </g>
    </g>
    <g id="xtick_4">
     <g id="line2d_4">
      <g>
       <use xlink:href="#m952b2a62f2" x="341.534547" y="359.7275" style="stroke: #000000; stroke-width: 0.8"/>
      </g>
     </g>
     <g id="text_4">
      <!-- 600 -->
      <g transform="translate(326.534547 380.615) scale(0.2 -0.2)">
       <defs>
        <path id="TimesNewRomanPSMT-36" d="M 2869 4325 
L 2869 4209 
Q 2456 4169 2195 4045 
Q 1934 3922 1679 3669 
Q 1425 3416 1258 3105 
Q 1091 2794 978 2366 
Q 1428 2675 1881 2675 
Q 2316 2675 2634 2325 
Q 2953 1975 2953 1425 
Q 2953 894 2631 456 
Q 2244 -75 1606 -75 
Q 1172 -75 869 213 
Q 275 772 275 1663 
Q 275 2231 503 2743 
Q 731 3256 1154 3653 
Q 1578 4050 1965 4187 
Q 2353 4325 2688 4325 
L 2869 4325 
z
M 925 2138 
Q 869 1716 869 1456 
Q 869 1156 980 804 
Q 1091 453 1309 247 
Q 1469 100 1697 100 
Q 1969 100 2183 356 
Q 2397 613 2397 1088 
Q 2397 1622 2184 2012 
Q 1972 2403 1581 2403 
Q 1463 2403 1327 2353 
Q 1191 2303 925 2138 
z
" transform="scale(0.015625)"/>
       </defs>
       <use xlink:href="#TimesNewRomanPSMT-36"/>
       <use xlink:href="#TimesNewRomanPSMT-30" x="50"/>
       <use xlink:href="#TimesNewRomanPSMT-30" x="100"/>
      </g>
     </g>
    </g>
    <g id="xtick_5">
     <g id="line2d_5">
      <g>
       <use xlink:href="#m952b2a62f2" x="423.850609" y="359.7275" style="stroke: #000000; stroke-width: 0.8"/>
      </g>
     </g>
     <g id="text_5">
      <!-- 800 -->
      <g transform="translate(408.850609 380.615) scale(0.2 -0.2)">
       <defs>
        <path id="TimesNewRomanPSMT-38" d="M 1228 2134 
Q 725 2547 579 2797 
Q 434 3047 434 3316 
Q 434 3728 753 4026 
Q 1072 4325 1600 4325 
Q 2113 4325 2425 4047 
Q 2738 3769 2738 3413 
Q 2738 3175 2569 2928 
Q 2400 2681 1866 2347 
Q 2416 1922 2594 1678 
Q 2831 1359 2831 1006 
Q 2831 559 2490 242 
Q 2150 -75 1597 -75 
Q 994 -75 656 303 
Q 388 606 388 966 
Q 388 1247 577 1523 
Q 766 1800 1228 2134 
z
M 1719 2469 
Q 2094 2806 2194 3001 
Q 2294 3197 2294 3444 
Q 2294 3772 2109 3958 
Q 1925 4144 1606 4144 
Q 1288 4144 1088 3959 
Q 888 3775 888 3528 
Q 888 3366 970 3203 
Q 1053 3041 1206 2894 
L 1719 2469 
z
M 1375 2016 
Q 1116 1797 991 1539 
Q 866 1281 866 981 
Q 866 578 1086 336 
Q 1306 94 1647 94 
Q 1984 94 2187 284 
Q 2391 475 2391 747 
Q 2391 972 2272 1150 
Q 2050 1481 1375 2016 
z
" transform="scale(0.015625)"/>
       </defs>
       <use xlink:href="#TimesNewRomanPSMT-38"/>
       <use xlink:href="#TimesNewRomanPSMT-30" x="50"/>
       <use xlink:href="#TimesNewRomanPSMT-30" x="100"/>
      </g>
     </g>
    </g>
    <g id="xtick_6">
     <g id="line2d_6">
      <g>
       <use xlink:href="#m952b2a62f2" x="506.16667" y="359.7275" style="stroke: #000000; stroke-width: 0.8"/>
      </g>
     </g>
     <g id="text_6">
      <!-- 1000 -->
      <g transform="translate(486.16667 380.615) scale(0.2 -0.2)">
       <defs>
        <path id="TimesNewRomanPSMT-31" d="M 750 3822 
L 1781 4325 
L 1884 4325 
L 1884 747 
Q 1884 391 1914 303 
Q 1944 216 2037 169 
Q 2131 122 2419 116 
L 2419 0 
L 825 0 
L 825 116 
Q 1125 122 1212 167 
Q 1300 213 1334 289 
Q 1369 366 1369 747 
L 1369 3034 
Q 1369 3497 1338 3628 
Q 1316 3728 1258 3775 
Q 1200 3822 1119 3822 
Q 1003 3822 797 3725 
L 750 3822 
z
" transform="scale(0.015625)"/>
       </defs>
       <use xlink:href="#TimesNewRomanPSMT-31"/>
       <use xlink:href="#TimesNewRomanPSMT-30" x="50"/>
       <use xlink:href="#TimesNewRomanPSMT-30" x="100"/>
       <use xlink:href="#TimesNewRomanPSMT-30" x="150"/>
      </g>
     </g>
    </g>
    <g id="xtick_7">
     <g id="line2d_7">
      <g>
       <use xlink:href="#m952b2a62f2" x="588.482731" y="359.7275" style="stroke: #000000; stroke-width: 0.8"/>
      </g>
     </g>
     <g id="text_7">
      <!-- 1200 -->
      <g transform="translate(568.482731 380.615) scale(0.2 -0.2)">
       <use xlink:href="#TimesNewRomanPSMT-31"/>
       <use xlink:href="#TimesNewRomanPSMT-32" x="50"/>
       <use xlink:href="#TimesNewRomanPSMT-30" x="100"/>
       <use xlink:href="#TimesNewRomanPSMT-30" x="150"/>
      </g>
     </g>
    </g>
    <g id="xtick_8">
     <g id="line2d_8">
      <g>
       <use xlink:href="#m952b2a62f2" x="670.798792" y="359.7275" style="stroke: #000000; stroke-width: 0.8"/>
      </g>
     </g>
     <g id="text_8">
      <!-- 1400 -->
      <g transform="translate(650.798792 380.615) scale(0.2 -0.2)">
       <use xlink:href="#TimesNewRomanPSMT-31"/>
       <use xlink:href="#TimesNewRomanPSMT-34" x="50"/>
       <use xlink:href="#TimesNewRomanPSMT-30" x="100"/>
       <use xlink:href="#TimesNewRomanPSMT-30" x="150"/>
      </g>
     </g>
    </g>
    <g id="text_9">
     <!-- Time -->
     <g transform="translate(378.196875 402.780625) scale(0.2 -0.2)">
      <defs>
       <path id="TimesNewRomanPSMT-54" d="M 3703 4238 
L 3750 3244 
L 3631 3244 
Q 3597 3506 3538 3619 
Q 3441 3800 3280 3886 
Q 3119 3972 2856 3972 
L 2259 3972 
L 2259 734 
Q 2259 344 2344 247 
Q 2463 116 2709 116 
L 2856 116 
L 2856 0 
L 1059 0 
L 1059 116 
L 1209 116 
Q 1478 116 1591 278 
Q 1659 378 1659 734 
L 1659 3972 
L 1150 3972 
Q 853 3972 728 3928 
Q 566 3869 450 3700 
Q 334 3531 313 3244 
L 194 3244 
L 244 4238 
L 3703 4238 
z
" transform="scale(0.015625)"/>
       <path id="TimesNewRomanPSMT-69" d="M 928 4444 
Q 1059 4444 1151 4351 
Q 1244 4259 1244 4128 
Q 1244 3997 1151 3903 
Q 1059 3809 928 3809 
Q 797 3809 703 3903 
Q 609 3997 609 4128 
Q 609 4259 701 4351 
Q 794 4444 928 4444 
z
M 1188 2947 
L 1188 647 
Q 1188 378 1227 289 
Q 1266 200 1342 156 
Q 1419 113 1622 113 
L 1622 0 
L 231 0 
L 231 113 
Q 441 113 512 153 
Q 584 194 626 287 
Q 669 381 669 647 
L 669 1750 
Q 669 2216 641 2353 
Q 619 2453 572 2492 
Q 525 2531 444 2531 
Q 356 2531 231 2484 
L 188 2597 
L 1050 2947 
L 1188 2947 
z
" transform="scale(0.015625)"/>
       <path id="TimesNewRomanPSMT-6d" d="M 1050 2338 
Q 1363 2650 1419 2697 
Q 1559 2816 1721 2881 
Q 1884 2947 2044 2947 
Q 2313 2947 2506 2790 
Q 2700 2634 2766 2338 
Q 3088 2713 3309 2830 
Q 3531 2947 3766 2947 
Q 3994 2947 4170 2830 
Q 4347 2713 4450 2447 
Q 4519 2266 4519 1878 
L 4519 647 
Q 4519 378 4559 278 
Q 4591 209 4675 161 
Q 4759 113 4950 113 
L 4950 0 
L 3538 0 
L 3538 113 
L 3597 113 
Q 3781 113 3884 184 
Q 3956 234 3988 344 
Q 4000 397 4000 647 
L 4000 1878 
Q 4000 2228 3916 2372 
Q 3794 2572 3525 2572 
Q 3359 2572 3192 2489 
Q 3025 2406 2788 2181 
L 2781 2147 
L 2788 2013 
L 2788 647 
Q 2788 353 2820 281 
Q 2853 209 2943 161 
Q 3034 113 3253 113 
L 3253 0 
L 1806 0 
L 1806 113 
Q 2044 113 2133 169 
Q 2222 225 2256 338 
Q 2272 391 2272 647 
L 2272 1878 
Q 2272 2228 2169 2381 
Q 2031 2581 1784 2581 
Q 1616 2581 1450 2491 
Q 1191 2353 1050 2181 
L 1050 647 
Q 1050 366 1089 281 
Q 1128 197 1204 155 
Q 1281 113 1516 113 
L 1516 0 
L 100 0 
L 100 113 
Q 297 113 375 155 
Q 453 197 493 289 
Q 534 381 534 647 
L 534 1741 
Q 534 2213 506 2350 
Q 484 2453 437 2492 
Q 391 2531 309 2531 
Q 222 2531 100 2484 
L 53 2597 
L 916 2947 
L 1050 2947 
L 1050 2338 
z
" transform="scale(0.015625)"/>
       <path id="TimesNewRomanPSMT-65" d="M 681 1784 
Q 678 1147 991 784 
Q 1303 422 1725 422 
Q 2006 422 2214 576 
Q 2422 731 2563 1106 
L 2659 1044 
Q 2594 616 2278 264 
Q 1963 -88 1488 -88 
Q 972 -88 605 314 
Q 238 716 238 1394 
Q 238 2128 614 2539 
Q 991 2950 1559 2950 
Q 2041 2950 2350 2633 
Q 2659 2316 2659 1784 
L 681 1784 
z
M 681 1966 
L 2006 1966 
Q 1991 2241 1941 2353 
Q 1863 2528 1708 2628 
Q 1553 2728 1384 2728 
Q 1125 2728 920 2526 
Q 716 2325 681 1966 
z
" transform="scale(0.015625)"/>
      </defs>
      <use xlink:href="#TimesNewRomanPSMT-54"/>
      <use xlink:href="#TimesNewRomanPSMT-69" x="57.583984"/>
      <use xlink:href="#TimesNewRomanPSMT-6d" x="85.367188"/>
      <use xlink:href="#TimesNewRomanPSMT-65" x="163.150391"/>
     </g>
    </g>
   </g>
   <g id="matplotlib.axis_2">
    <g id="ytick_1">
     <g id="line2d_9">
      <defs>
       <path id="mc0a5dab4c9" d="M 0 0 
L -3.5 0 
" style="stroke: #000000; stroke-width: 0.8"/>
      </defs>
      <g>
       <use xlink:href="#mc0a5dab4c9" x="64.15" y="329.099808" style="stroke: #000000; stroke-width: 0.8"/>
      </g>
     </g>
     <g id="text_10">
      <!-- M1 -->
      <g transform="translate(29.365625 336.043558) scale(0.2 -0.2)">
       <defs>
        <path id="TimesNewRomanPSMT-4d" d="M 2619 0 
L 981 3566 
L 981 734 
Q 981 344 1066 247 
Q 1181 116 1431 116 
L 1581 116 
L 1581 0 
L 106 0 
L 106 116 
L 256 116 
Q 525 116 638 278 
Q 706 378 706 734 
L 706 3503 
Q 706 3784 644 3909 
Q 600 4000 483 4061 
Q 366 4122 106 4122 
L 106 4238 
L 1306 4238 
L 2844 922 
L 4356 4238 
L 5556 4238 
L 5556 4122 
L 5409 4122 
Q 5138 4122 5025 3959 
Q 4956 3859 4956 3503 
L 4956 734 
Q 4956 344 5044 247 
Q 5159 116 5409 116 
L 5556 116 
L 5556 0 
L 3756 0 
L 3756 116 
L 3906 116 
Q 4178 116 4288 278 
Q 4356 378 4356 734 
L 4356 3566 
L 2722 0 
L 2619 0 
z
" transform="scale(0.015625)"/>
       </defs>
       <use xlink:href="#TimesNewRomanPSMT-4d"/>
       <use xlink:href="#TimesNewRomanPSMT-31" x="88.916016"/>
      </g>
     </g>
    </g>
    <g id="ytick_2">
     <g id="line2d_10">
      <g>
       <use xlink:href="#mc0a5dab4c9" x="64.15" y="290.330577" style="stroke: #000000; stroke-width: 0.8"/>
      </g>
     </g>
     <g id="text_11">
      <!-- M2 -->
      <g transform="translate(29.365625 297.274327) scale(0.2 -0.2)">
       <use xlink:href="#TimesNewRomanPSMT-4d"/>
       <use xlink:href="#TimesNewRomanPSMT-32" x="88.916016"/>
      </g>
     </g>
    </g>
    <g id="ytick_3">
     <g id="line2d_11">
      <g>
       <use xlink:href="#mc0a5dab4c9" x="64.15" y="251.561346" style="stroke: #000000; stroke-width: 0.8"/>
      </g>
     </g>
     <g id="text_12">
      <!-- M3 -->
      <g transform="translate(29.365625 258.505096) scale(0.2 -0.2)">
       <defs>
        <path id="TimesNewRomanPSMT-33" d="M 325 3431 
Q 506 3859 782 4092 
Q 1059 4325 1472 4325 
Q 1981 4325 2253 3994 
Q 2459 3747 2459 3466 
Q 2459 3003 1878 2509 
Q 2269 2356 2469 2072 
Q 2669 1788 2669 1403 
Q 2669 853 2319 450 
Q 1863 -75 997 -75 
Q 569 -75 414 31 
Q 259 138 259 259 
Q 259 350 332 419 
Q 406 488 509 488 
Q 588 488 669 463 
Q 722 447 909 348 
Q 1097 250 1169 231 
Q 1284 197 1416 197 
Q 1734 197 1970 444 
Q 2206 691 2206 1028 
Q 2206 1275 2097 1509 
Q 2016 1684 1919 1775 
Q 1784 1900 1550 2001 
Q 1316 2103 1072 2103 
L 972 2103 
L 972 2197 
Q 1219 2228 1467 2375 
Q 1716 2522 1828 2728 
Q 1941 2934 1941 3181 
Q 1941 3503 1739 3701 
Q 1538 3900 1238 3900 
Q 753 3900 428 3381 
L 325 3431 
z
" transform="scale(0.015625)"/>
       </defs>
       <use xlink:href="#TimesNewRomanPSMT-4d"/>
       <use xlink:href="#TimesNewRomanPSMT-33" x="88.916016"/>
      </g>
     </g>
    </g>
    <g id="ytick_4">
     <g id="line2d_12">
      <g>
       <use xlink:href="#mc0a5dab4c9" x="64.15" y="212.792115" style="stroke: #000000; stroke-width: 0.8"/>
      </g>
     </g>
     <g id="text_13">
      <!-- M4 -->
      <g transform="translate(29.365625 219.735865) scale(0.2 -0.2)">
       <use xlink:href="#TimesNewRomanPSMT-4d"/>
       <use xlink:href="#TimesNewRomanPSMT-34" x="88.916016"/>
      </g>
     </g>
    </g>
    <g id="ytick_5">
     <g id="line2d_13">
      <g>
       <use xlink:href="#mc0a5dab4c9" x="64.15" y="174.022885" style="stroke: #000000; stroke-width: 0.8"/>
      </g>
     </g>
     <g id="text_14">
      <!-- M5 -->
      <g transform="translate(29.365625 180.966635) scale(0.2 -0.2)">
       <defs>
        <path id="TimesNewRomanPSMT-35" d="M 2778 4238 
L 2534 3706 
L 1259 3706 
L 981 3138 
Q 1809 3016 2294 2522 
Q 2709 2097 2709 1522 
Q 2709 1188 2573 903 
Q 2438 619 2231 419 
Q 2025 219 1772 97 
Q 1413 -75 1034 -75 
Q 653 -75 479 54 
Q 306 184 306 341 
Q 306 428 378 495 
Q 450 563 559 563 
Q 641 563 702 538 
Q 763 513 909 409 
Q 1144 247 1384 247 
Q 1750 247 2026 523 
Q 2303 800 2303 1197 
Q 2303 1581 2056 1914 
Q 1809 2247 1375 2428 
Q 1034 2569 447 2591 
L 1259 4238 
L 2778 4238 
z
" transform="scale(0.015625)"/>
       </defs>
       <use xlink:href="#TimesNewRomanPSMT-4d"/>
       <use xlink:href="#TimesNewRomanPSMT-35" x="88.916016"/>
      </g>
     </g>
    </g>
    <g id="ytick_6">
     <g id="line2d_14">
      <g>
       <use xlink:href="#mc0a5dab4c9" x="64.15" y="135.253654" style="stroke: #000000; stroke-width: 0.8"/>
      </g>
     </g>
     <g id="text_15">
      <!-- M6 -->
      <g transform="translate(29.365625 142.197404) scale(0.2 -0.2)">
       <use xlink:href="#TimesNewRomanPSMT-4d"/>
       <use xlink:href="#TimesNewRomanPSMT-36" x="88.916016"/>
      </g>
     </g>
    </g>
    <g id="ytick_7">
     <g id="line2d_15">
      <g>
       <use xlink:href="#mc0a5dab4c9" x="64.15" y="96.484423" style="stroke: #000000; stroke-width: 0.8"/>
      </g>
     </g>
     <g id="text_16">
      <!-- M7 -->
      <g transform="translate(29.365625 103.428173) scale(0.2 -0.2)">
       <defs>
        <path id="TimesNewRomanPSMT-37" d="M 644 4238 
L 2916 4238 
L 2916 4119 
L 1503 -88 
L 1153 -88 
L 2419 3728 
L 1253 3728 
Q 900 3728 750 3644 
Q 488 3500 328 3200 
L 238 3234 
L 644 4238 
z
" transform="scale(0.015625)"/>
       </defs>
       <use xlink:href="#TimesNewRomanPSMT-4d"/>
       <use xlink:href="#TimesNewRomanPSMT-37" x="88.916016"/>
      </g>
     </g>
    </g>
    <g id="ytick_8">
     <g id="line2d_16">
      <g>
       <use xlink:href="#mc0a5dab4c9" x="64.15" y="57.715192" style="stroke: #000000; stroke-width: 0.8"/>
      </g>
     </g>
     <g id="text_17">
      <!-- M8 -->
      <g transform="translate(29.365625 64.658942) scale(0.2 -0.2)">
       <use xlink:href="#TimesNewRomanPSMT-4d"/>
       <use xlink:href="#TimesNewRomanPSMT-38" x="88.916016"/>
      </g>
     </g>
    </g>
    <g id="text_18">
     <!-- Machine -->
     <g transform="translate(21.0875 228.395) rotate(-90) scale(0.2 -0.2)">
      <defs>
       <path id="TimesNewRomanPSMT-61" d="M 1822 413 
Q 1381 72 1269 19 
Q 1100 -59 909 -59 
Q 613 -59 420 144 
Q 228 347 228 678 
Q 228 888 322 1041 
Q 450 1253 767 1440 
Q 1084 1628 1822 1897 
L 1822 2009 
Q 1822 2438 1686 2597 
Q 1550 2756 1291 2756 
Q 1094 2756 978 2650 
Q 859 2544 859 2406 
L 866 2225 
Q 866 2081 792 2003 
Q 719 1925 600 1925 
Q 484 1925 411 2006 
Q 338 2088 338 2228 
Q 338 2497 613 2722 
Q 888 2947 1384 2947 
Q 1766 2947 2009 2819 
Q 2194 2722 2281 2516 
Q 2338 2381 2338 1966 
L 2338 994 
Q 2338 584 2353 492 
Q 2369 400 2405 369 
Q 2441 338 2488 338 
Q 2538 338 2575 359 
Q 2641 400 2828 588 
L 2828 413 
Q 2478 -56 2159 -56 
Q 2006 -56 1915 50 
Q 1825 156 1822 413 
z
M 1822 616 
L 1822 1706 
Q 1350 1519 1213 1441 
Q 966 1303 859 1153 
Q 753 1003 753 825 
Q 753 600 887 451 
Q 1022 303 1197 303 
Q 1434 303 1822 616 
z
" transform="scale(0.015625)"/>
       <path id="TimesNewRomanPSMT-63" d="M 2631 1088 
Q 2516 522 2178 217 
Q 1841 -88 1431 -88 
Q 944 -88 581 321 
Q 219 731 219 1428 
Q 219 2103 620 2525 
Q 1022 2947 1584 2947 
Q 2006 2947 2278 2723 
Q 2550 2500 2550 2259 
Q 2550 2141 2473 2067 
Q 2397 1994 2259 1994 
Q 2075 1994 1981 2113 
Q 1928 2178 1911 2362 
Q 1894 2547 1784 2644 
Q 1675 2738 1481 2738 
Q 1169 2738 978 2506 
Q 725 2200 725 1697 
Q 725 1184 976 792 
Q 1228 400 1656 400 
Q 1963 400 2206 609 
Q 2378 753 2541 1131 
L 2631 1088 
z
" transform="scale(0.015625)"/>
       <path id="TimesNewRomanPSMT-68" d="M 1041 4444 
L 1041 2350 
Q 1388 2731 1591 2839 
Q 1794 2947 1997 2947 
Q 2241 2947 2416 2812 
Q 2591 2678 2675 2391 
Q 2734 2191 2734 1659 
L 2734 647 
Q 2734 375 2778 275 
Q 2809 200 2884 156 
Q 2959 113 3159 113 
L 3159 0 
L 1753 0 
L 1753 113 
L 1819 113 
Q 2019 113 2097 173 
Q 2175 234 2206 353 
Q 2216 403 2216 647 
L 2216 1659 
Q 2216 2128 2167 2275 
Q 2119 2422 2012 2495 
Q 1906 2569 1756 2569 
Q 1603 2569 1437 2487 
Q 1272 2406 1041 2159 
L 1041 647 
Q 1041 353 1073 281 
Q 1106 209 1195 161 
Q 1284 113 1503 113 
L 1503 0 
L 84 0 
L 84 113 
Q 275 113 384 172 
Q 447 203 484 290 
Q 522 378 522 647 
L 522 3238 
Q 522 3728 498 3840 
Q 475 3953 426 3993 
Q 378 4034 297 4034 
Q 231 4034 84 3984 
L 41 4094 
L 897 4444 
L 1041 4444 
z
" transform="scale(0.015625)"/>
       <path id="TimesNewRomanPSMT-6e" d="M 1034 2341 
Q 1538 2947 1994 2947 
Q 2228 2947 2397 2830 
Q 2566 2713 2666 2444 
Q 2734 2256 2734 1869 
L 2734 647 
Q 2734 375 2778 278 
Q 2813 200 2889 156 
Q 2966 113 3172 113 
L 3172 0 
L 1756 0 
L 1756 113 
L 1816 113 
Q 2016 113 2095 173 
Q 2175 234 2206 353 
Q 2219 400 2219 647 
L 2219 1819 
Q 2219 2209 2117 2386 
Q 2016 2563 1775 2563 
Q 1403 2563 1034 2156 
L 1034 647 
Q 1034 356 1069 288 
Q 1113 197 1189 155 
Q 1266 113 1500 113 
L 1500 0 
L 84 0 
L 84 113 
L 147 113 
Q 366 113 442 223 
Q 519 334 519 647 
L 519 1709 
Q 519 2225 495 2337 
Q 472 2450 423 2490 
Q 375 2531 294 2531 
Q 206 2531 84 2484 
L 38 2597 
L 900 2947 
L 1034 2947 
L 1034 2341 
z
" transform="scale(0.015625)"/>
      </defs>
      <use xlink:href="#TimesNewRomanPSMT-4d"/>
      <use xlink:href="#TimesNewRomanPSMT-61" x="88.916016"/>
      <use xlink:href="#TimesNewRomanPSMT-63" x="133.300781"/>
      <use xlink:href="#TimesNewRomanPSMT-68" x="177.685547"/>
      <use xlink:href="#TimesNewRomanPSMT-69" x="227.685547"/>
      <use xlink:href="#TimesNewRomanPSMT-6e" x="255.46875"/>
      <use xlink:href="#TimesNewRomanPSMT-65" x="305.46875"/>
     </g>
    </g>
   </g>
   <g id="patch_3">
    <path d="M 64.15 359.7275 
L 64.15 27.0875 
" style="fill: none; stroke: #000000; stroke-width: 0.8; stroke-linejoin: miter; stroke-linecap: square"/>
   </g>
   <g id="patch_4">
    <path d="M 733.75 359.7275 
L 733.75 27.0875 
" style="fill: none; stroke: #000000; stroke-width: 0.8; stroke-linejoin: miter; stroke-linecap: square"/>
   </g>
   <g id="patch_5">
    <path d="M 64.15 359.7275 
L 733.75 359.7275 
" style="fill: none; stroke: #000000; stroke-width: 0.8; stroke-linejoin: miter; stroke-linecap: square"/>
   </g>
   <g id="patch_6">
    <path d="M 64.15 27.0875 
L 733.75 27.0875 
" style="fill: none; stroke: #000000; stroke-width: 0.8; stroke-linejoin: miter; stroke-linecap: square"/>
   </g>
   <g id="text_19">
    <!-- 12 -->
    <g transform="translate(104.490107 332.943558) scale(0.16 -0.16)">
     <use xlink:href="#TimesNewRomanPSMT-31"/>
     <use xlink:href="#TimesNewRomanPSMT-32" x="50"/>
    </g>
   </g>
   <g id="text_20">
    <!-- 4 -->
    <g transform="translate(170.432943 332.943558) scale(0.16 -0.16)">
     <use xlink:href="#TimesNewRomanPSMT-34"/>
    </g>
   </g>
   <g id="text_21">
    <!-- 0 -->
    <g transform="translate(265.302204 332.943558) scale(0.16 -0.16)">
     <use xlink:href="#TimesNewRomanPSMT-30"/>
    </g>
   </g>
   <g id="text_22">
    <!-- 16 -->
    <g transform="translate(338.473511 332.943558) scale(0.16 -0.16)">
     <use xlink:href="#TimesNewRomanPSMT-31"/>
     <use xlink:href="#TimesNewRomanPSMT-36" x="50"/>
    </g>
   </g>
   <g id="text_23">
    <!-- 8 -->
    <g transform="translate(103.345353 294.174327) scale(0.16 -0.16)">
     <use xlink:href="#TimesNewRomanPSMT-38"/>
    </g>
   </g>
   <g id="text_24">
    <!-- 44 -->
    <g transform="translate(185.571427 294.174327) scale(0.16 -0.16)">
     <use xlink:href="#TimesNewRomanPSMT-34"/>
     <use xlink:href="#TimesNewRomanPSMT-34" x="50"/>
    </g>
   </g>
   <g id="text_25">
    <!-- 40 -->
    <g transform="translate(289.907035 294.174327) scale(0.16 -0.16)">
     <use xlink:href="#TimesNewRomanPSMT-34"/>
     <use xlink:href="#TimesNewRomanPSMT-30" x="50"/>
    </g>
   </g>
   <g id="text_26">
    <!-- 32 -->
    <g transform="translate(351.644081 294.174327) scale(0.16 -0.16)">
     <use xlink:href="#TimesNewRomanPSMT-33"/>
     <use xlink:href="#TimesNewRomanPSMT-32" x="50"/>
    </g>
   </g>
   <g id="text_27">
    <!-- 18 -->
    <g transform="translate(412.146386 294.174327) scale(0.16 -0.16)">
     <use xlink:href="#TimesNewRomanPSMT-31"/>
     <use xlink:href="#TimesNewRomanPSMT-38" x="50"/>
    </g>
   </g>
   <g id="text_28">
    <!-- 20 -->
    <g transform="translate(462.564973 294.174327) scale(0.16 -0.16)">
     <use xlink:href="#TimesNewRomanPSMT-32"/>
     <use xlink:href="#TimesNewRomanPSMT-30" x="50"/>
    </g>
   </g>
   <g id="text_29">
    <!-- 24 -->
    <g transform="translate(116.425936 255.405096) scale(0.16 -0.16)">
     <use xlink:href="#TimesNewRomanPSMT-32"/>
     <use xlink:href="#TimesNewRomanPSMT-34" x="50"/>
    </g>
   </g>
   <g id="text_30">
    <!-- 25 -->
    <g transform="translate(171.783487 255.405096) scale(0.16 -0.16)">
     <use xlink:href="#TimesNewRomanPSMT-32"/>
     <use xlink:href="#TimesNewRomanPSMT-35" x="50"/>
    </g>
   </g>
   <g id="text_31">
    <!-- 5 -->
    <g transform="translate(232.375779 255.405096) scale(0.16 -0.16)">
     <use xlink:href="#TimesNewRomanPSMT-35"/>
    </g>
   </g>
   <g id="text_32">
    <!-- 36 -->
    <g transform="translate(299.167592 255.405096) scale(0.16 -0.16)">
     <use xlink:href="#TimesNewRomanPSMT-33"/>
     <use xlink:href="#TimesNewRomanPSMT-36" x="50"/>
    </g>
   </g>
   <g id="text_33">
    <!-- 41 -->
    <g transform="translate(389.097889 255.405096) scale(0.16 -0.16)">
     <use xlink:href="#TimesNewRomanPSMT-34"/>
     <use xlink:href="#TimesNewRomanPSMT-31" x="50"/>
    </g>
   </g>
   <g id="text_34">
    <!-- 21 -->
    <g transform="translate(517.716734 255.405096) scale(0.16 -0.16)">
     <use xlink:href="#TimesNewRomanPSMT-32"/>
     <use xlink:href="#TimesNewRomanPSMT-31" x="50"/>
    </g>
   </g>
   <g id="text_35">
    <!-- 33 -->
    <g transform="translate(580.071151 255.405096) scale(0.16 -0.16)">
     <use xlink:href="#TimesNewRomanPSMT-33"/>
     <use xlink:href="#TimesNewRomanPSMT-33" x="50"/>
    </g>
   </g>
   <g id="text_36">
    <!-- 28 -->
    <g transform="translate(137.004951 216.635865) scale(0.16 -0.16)">
     <use xlink:href="#TimesNewRomanPSMT-32"/>
     <use xlink:href="#TimesNewRomanPSMT-38" x="50"/>
    </g>
   </g>
   <g id="text_37">
    <!-- 14 -->
    <g transform="translate(223.436815 216.635865) scale(0.16 -0.16)">
     <use xlink:href="#TimesNewRomanPSMT-31"/>
     <use xlink:href="#TimesNewRomanPSMT-34" x="50"/>
    </g>
   </g>
   <g id="text_38">
    <!-- 9 -->
    <g transform="translate(278.884354 216.635865) scale(0.16 -0.16)">
     <defs>
      <path id="TimesNewRomanPSMT-39" d="M 338 -88 
L 338 28 
Q 744 34 1094 217 
Q 1444 400 1770 856 
Q 2097 1313 2225 1859 
Q 1734 1544 1338 1544 
Q 891 1544 572 1889 
Q 253 2234 253 2806 
Q 253 3363 572 3797 
Q 956 4325 1575 4325 
Q 2097 4325 2469 3894 
Q 2925 3359 2925 2575 
Q 2925 1869 2578 1258 
Q 2231 647 1613 244 
Q 1109 -88 516 -88 
L 338 -88 
z
M 2275 2091 
Q 2331 2497 2331 2741 
Q 2331 3044 2228 3395 
Q 2125 3747 1936 3934 
Q 1747 4122 1506 4122 
Q 1228 4122 1018 3872 
Q 809 3622 809 3128 
Q 809 2469 1088 2097 
Q 1291 1828 1588 1828 
Q 1731 1828 1928 1897 
Q 2125 1966 2275 2091 
z
" transform="scale(0.015625)"/>
     </defs>
     <use xlink:href="#TimesNewRomanPSMT-39"/>
    </g>
   </g>
   <g id="text_39">
    <!-- 17 -->
    <g transform="translate(378.191011 216.635865) scale(0.16 -0.16)">
     <use xlink:href="#TimesNewRomanPSMT-31"/>
     <use xlink:href="#TimesNewRomanPSMT-37" x="50"/>
    </g>
   </g>
   <g id="text_40">
    <!-- 2 -->
    <g transform="translate(426.435893 216.635865) scale(0.16 -0.16)">
     <use xlink:href="#TimesNewRomanPSMT-32"/>
    </g>
   </g>
   <g id="text_41">
    <!-- 10 -->
    <g transform="translate(492.404545 216.635865) scale(0.16 -0.16)">
     <use xlink:href="#TimesNewRomanPSMT-31"/>
     <use xlink:href="#TimesNewRomanPSMT-30" x="50"/>
    </g>
   </g>
   <g id="text_42">
    <!-- 23 -->
    <g transform="translate(617.113378 216.635865) scale(0.16 -0.16)">
     <use xlink:href="#TimesNewRomanPSMT-32"/>
     <use xlink:href="#TimesNewRomanPSMT-33" x="50"/>
    </g>
   </g>
   <g id="text_43">
    <!-- 13 -->
    <g transform="translate(157.995547 177.866635) scale(0.16 -0.16)">
     <use xlink:href="#TimesNewRomanPSMT-31"/>
     <use xlink:href="#TimesNewRomanPSMT-33" x="50"/>
    </g>
   </g>
   <g id="text_44">
    <!-- 26 -->
    <g transform="translate(227.141038 177.866635) scale(0.16 -0.16)">
     <use xlink:href="#TimesNewRomanPSMT-32"/>
     <use xlink:href="#TimesNewRomanPSMT-36" x="50"/>
    </g>
   </g>
   <g id="text_45">
    <!-- 30 -->
    <g transform="translate(309.457099 177.866635) scale(0.16 -0.16)">
     <use xlink:href="#TimesNewRomanPSMT-33"/>
     <use xlink:href="#TimesNewRomanPSMT-30" x="50"/>
    </g>
   </g>
   <g id="text_46">
    <!-- 45 -->
    <g transform="translate(394.448433 177.866635) scale(0.16 -0.16)">
     <use xlink:href="#TimesNewRomanPSMT-34"/>
     <use xlink:href="#TimesNewRomanPSMT-35" x="50"/>
    </g>
   </g>
   <g id="text_47">
    <!-- 46 -->
    <g transform="translate(479.439766 177.866635) scale(0.16 -0.16)">
     <use xlink:href="#TimesNewRomanPSMT-34"/>
     <use xlink:href="#TimesNewRomanPSMT-36" x="50"/>
    </g>
   </g>
   <g id="text_48">
    <!-- 42 -->
    <g transform="translate(517.510944 177.866635) scale(0.16 -0.16)">
     <use xlink:href="#TimesNewRomanPSMT-34"/>
     <use xlink:href="#TimesNewRomanPSMT-32" x="50"/>
    </g>
   </g>
   <g id="text_49">
    <!-- 22 -->
    <g transform="translate(567.723741 177.866635) scale(0.16 -0.16)">
     <use xlink:href="#TimesNewRomanPSMT-32"/>
     <use xlink:href="#TimesNewRomanPSMT-32" x="50"/>
    </g>
   </g>
   <g id="text_50">
    <!-- 34 -->
    <g transform="translate(625.344984 177.866635) scale(0.16 -0.16)">
     <use xlink:href="#TimesNewRomanPSMT-33"/>
     <use xlink:href="#TimesNewRomanPSMT-34" x="50"/>
    </g>
   </g>
   <g id="text_51">
    <!-- 27 -->
    <g transform="translate(662.387212 177.866635) scale(0.16 -0.16)">
     <use xlink:href="#TimesNewRomanPSMT-32"/>
     <use xlink:href="#TimesNewRomanPSMT-37" x="50"/>
    </g>
   </g>
   <g id="text_52">
    <!-- 29 -->
    <g transform="translate(233.520533 139.097404) scale(0.16 -0.16)">
     <use xlink:href="#TimesNewRomanPSMT-32"/>
     <use xlink:href="#TimesNewRomanPSMT-39" x="50"/>
    </g>
   </g>
   <g id="text_53">
    <!-- 6 -->
    <g transform="translate(303.167592 139.097404) scale(0.16 -0.16)">
     <use xlink:href="#TimesNewRomanPSMT-36"/>
    </g>
   </g>
   <g id="text_54">
    <!-- 37 -->
    <g transform="translate(398.152655 139.097404) scale(0.16 -0.16)">
     <use xlink:href="#TimesNewRomanPSMT-33"/>
     <use xlink:href="#TimesNewRomanPSMT-37" x="50"/>
    </g>
   </g>
   <g id="text_55">
    <!-- 15 -->
    <g transform="translate(479.233976 139.097404) scale(0.16 -0.16)">
     <use xlink:href="#TimesNewRomanPSMT-31"/>
     <use xlink:href="#TimesNewRomanPSMT-35" x="50"/>
    </g>
   </g>
   <g id="text_56">
    <!-- 43 -->
    <g transform="translate(556.611073 139.097404) scale(0.16 -0.16)">
     <use xlink:href="#TimesNewRomanPSMT-34"/>
     <use xlink:href="#TimesNewRomanPSMT-33" x="50"/>
    </g>
   </g>
   <g id="text_57">
    <!-- 35 -->
    <g transform="translate(664.445113 139.097404) scale(0.16 -0.16)">
     <use xlink:href="#TimesNewRomanPSMT-33"/>
     <use xlink:href="#TimesNewRomanPSMT-35" x="50"/>
    </g>
   </g>
   <g id="text_58">
    <!-- 1 -->
    <g transform="translate(341.44456 100.328173) scale(0.16 -0.16)">
     <use xlink:href="#TimesNewRomanPSMT-31"/>
    </g>
   </g>
   <g id="text_59">
    <!-- 31 -->
    <g transform="translate(393.625272 100.328173) scale(0.16 -0.16)">
     <use xlink:href="#TimesNewRomanPSMT-33"/>
     <use xlink:href="#TimesNewRomanPSMT-31" x="50"/>
    </g>
   </g>
   <g id="text_60">
    <!-- 38 -->
    <g transform="translate(480.880297 100.328173) scale(0.16 -0.16)">
     <use xlink:href="#TimesNewRomanPSMT-33"/>
     <use xlink:href="#TimesNewRomanPSMT-38" x="50"/>
    </g>
   </g>
   <g id="text_61">
    <!-- 3 -->
    <g transform="translate(564.726876 100.328173) scale(0.16 -0.16)">
     <use xlink:href="#TimesNewRomanPSMT-33"/>
    </g>
   </g>
   <g id="text_62">
    <!-- 39 -->
    <g transform="translate(634.811331 100.328173) scale(0.16 -0.16)">
     <use xlink:href="#TimesNewRomanPSMT-33"/>
     <use xlink:href="#TimesNewRomanPSMT-39" x="50"/>
    </g>
   </g>
   <g id="text_63">
    <!-- 7 -->
    <g transform="translate(353.586179 61.558942) scale(0.16 -0.16)">
     <use xlink:href="#TimesNewRomanPSMT-37"/>
    </g>
   </g>
   <g id="text_64">
    <!-- 19 -->
    <g transform="translate(466.680776 61.558942) scale(0.16 -0.16)">
     <use xlink:href="#TimesNewRomanPSMT-31"/>
     <use xlink:href="#TimesNewRomanPSMT-39" x="50"/>
    </g>
   </g>
   <g id="text_65">
    <!-- 11 -->
    <g transform="translate(565.76005 61.558942) scale(0.16 -0.16)">
     <use xlink:href="#TimesNewRomanPSMT-31"/>
     <use xlink:href="#TimesNewRomanPSMT-31" x="46.25"/>
    </g>
   </g>
   <g id="text_66">
    <!-- 47 -->
    <g transform="translate(646.74716 61.558942) scale(0.16 -0.16)">
     <use xlink:href="#TimesNewRomanPSMT-34"/>
     <use xlink:href="#TimesNewRomanPSMT-37" x="50"/>
    </g>
   </g>
   <g id="text_67">
    <!-- Instance: MFJS10, Makespan: 1479 -->
    <g transform="translate(255.06875 21.0875) scale(0.2 -0.2)">
     <defs>
      <path id="TimesNewRomanPSMT-49" d="M 1975 116 
L 1975 0 
L 159 0 
L 159 116 
L 309 116 
Q 572 116 691 269 
Q 766 369 766 750 
L 766 3488 
Q 766 3809 725 3913 
Q 694 3991 597 4047 
Q 459 4122 309 4122 
L 159 4122 
L 159 4238 
L 1975 4238 
L 1975 4122 
L 1822 4122 
Q 1563 4122 1444 3969 
Q 1366 3869 1366 3488 
L 1366 750 
Q 1366 428 1406 325 
Q 1438 247 1538 191 
Q 1672 116 1822 116 
L 1975 116 
z
" transform="scale(0.015625)"/>
      <path id="TimesNewRomanPSMT-73" d="M 2050 2947 
L 2050 1972 
L 1947 1972 
Q 1828 2431 1642 2597 
Q 1456 2763 1169 2763 
Q 950 2763 815 2647 
Q 681 2531 681 2391 
Q 681 2216 781 2091 
Q 878 1963 1175 1819 
L 1631 1597 
Q 2266 1288 2266 781 
Q 2266 391 1970 151 
Q 1675 -88 1309 -88 
Q 1047 -88 709 6 
Q 606 38 541 38 
Q 469 38 428 -44 
L 325 -44 
L 325 978 
L 428 978 
Q 516 541 762 319 
Q 1009 97 1316 97 
Q 1531 97 1667 223 
Q 1803 350 1803 528 
Q 1803 744 1651 891 
Q 1500 1038 1047 1263 
Q 594 1488 453 1669 
Q 313 1847 313 2119 
Q 313 2472 555 2709 
Q 797 2947 1181 2947 
Q 1350 2947 1591 2875 
Q 1750 2828 1803 2828 
Q 1853 2828 1881 2850 
Q 1909 2872 1947 2947 
L 2050 2947 
z
" transform="scale(0.015625)"/>
      <path id="TimesNewRomanPSMT-74" d="M 1031 3803 
L 1031 2863 
L 1700 2863 
L 1700 2644 
L 1031 2644 
L 1031 788 
Q 1031 509 1111 412 
Q 1191 316 1316 316 
Q 1419 316 1516 380 
Q 1613 444 1666 569 
L 1788 569 
Q 1678 263 1478 108 
Q 1278 -47 1066 -47 
Q 922 -47 784 33 
Q 647 113 581 261 
Q 516 409 516 719 
L 516 2644 
L 63 2644 
L 63 2747 
Q 234 2816 414 2980 
Q 594 3144 734 3369 
Q 806 3488 934 3803 
L 1031 3803 
z
" transform="scale(0.015625)"/>
      <path id="TimesNewRomanPSMT-3a" d="M 903 2950 
Q 1047 2950 1148 2848 
Q 1250 2747 1250 2603 
Q 1250 2459 1148 2357 
Q 1047 2256 903 2256 
Q 759 2256 657 2357 
Q 556 2459 556 2603 
Q 556 2747 657 2848 
Q 759 2950 903 2950 
z
M 897 609 
Q 1044 609 1145 506 
Q 1247 403 1247 259 
Q 1247 116 1144 14 
Q 1041 -88 897 -88 
Q 753 -88 651 14 
Q 550 116 550 259 
Q 550 403 651 506 
Q 753 609 897 609 
z
" transform="scale(0.015625)"/>
      <path id="TimesNewRomanPSMT-20" transform="scale(0.015625)"/>
      <path id="TimesNewRomanPSMT-46" d="M 1309 4006 
L 1309 2341 
L 2081 2341 
Q 2347 2341 2470 2458 
Q 2594 2575 2634 2922 
L 2750 2922 
L 2750 1488 
L 2634 1488 
Q 2631 1734 2570 1850 
Q 2509 1966 2401 2023 
Q 2294 2081 2081 2081 
L 1309 2081 
L 1309 750 
Q 1309 428 1350 325 
Q 1381 247 1481 191 
Q 1619 116 1769 116 
L 1922 116 
L 1922 0 
L 103 0 
L 103 116 
L 253 116 
Q 516 116 634 269 
Q 709 369 709 750 
L 709 3488 
Q 709 3809 669 3913 
Q 638 3991 541 4047 
Q 406 4122 253 4122 
L 103 4122 
L 103 4238 
L 3256 4238 
L 3297 3306 
L 3188 3306 
Q 3106 3603 2998 3742 
Q 2891 3881 2733 3943 
Q 2575 4006 2244 4006 
L 1309 4006 
z
" transform="scale(0.015625)"/>
      <path id="TimesNewRomanPSMT-4a" d="M 638 4122 
L 638 4238 
L 2453 4238 
L 2453 4122 
L 2300 4122 
Q 2041 4122 1922 3969 
Q 1847 3869 1847 3488 
L 1847 1416 
Q 1847 938 1742 641 
Q 1638 344 1381 123 
Q 1125 -97 763 -97 
Q 469 -97 300 48 
Q 131 194 131 381 
Q 131 534 209 613 
Q 313 709 450 709 
Q 550 709 629 643 
Q 709 578 831 294 
Q 903 125 1016 125 
Q 1100 125 1173 228 
Q 1247 331 1247 594 
L 1247 3488 
Q 1247 3809 1206 3913 
Q 1175 3991 1075 4047 
Q 941 4122 791 4122 
L 638 4122 
z
" transform="scale(0.015625)"/>
      <path id="TimesNewRomanPSMT-53" d="M 2934 4334 
L 2934 2869 
L 2819 2869 
Q 2763 3291 2617 3541 
Q 2472 3791 2203 3937 
Q 1934 4084 1647 4084 
Q 1322 4084 1109 3886 
Q 897 3688 897 3434 
Q 897 3241 1031 3081 
Q 1225 2847 1953 2456 
Q 2547 2138 2764 1967 
Q 2981 1797 3098 1565 
Q 3216 1334 3216 1081 
Q 3216 600 2842 251 
Q 2469 -97 1881 -97 
Q 1697 -97 1534 -69 
Q 1438 -53 1133 45 
Q 828 144 747 144 
Q 669 144 623 97 
Q 578 50 556 -97 
L 441 -97 
L 441 1356 
L 556 1356 
Q 638 900 775 673 
Q 913 447 1195 297 
Q 1478 147 1816 147 
Q 2206 147 2432 353 
Q 2659 559 2659 841 
Q 2659 997 2573 1156 
Q 2488 1316 2306 1453 
Q 2184 1547 1640 1851 
Q 1097 2156 867 2337 
Q 638 2519 519 2737 
Q 400 2956 400 3219 
Q 400 3675 750 4004 
Q 1100 4334 1641 4334 
Q 1978 4334 2356 4169 
Q 2531 4091 2603 4091 
Q 2684 4091 2736 4139 
Q 2788 4188 2819 4334 
L 2934 4334 
z
" transform="scale(0.015625)"/>
      <path id="TimesNewRomanPSMT-2c" d="M 344 -1066 
L 344 -928 
Q 666 -822 842 -598 
Q 1019 -375 1019 -125 
Q 1019 -66 991 -25 
Q 969 3 947 3 
Q 913 3 797 -59 
Q 741 -88 678 -88 
Q 525 -88 434 3 
Q 344 94 344 253 
Q 344 406 461 515 
Q 578 625 747 625 
Q 953 625 1114 445 
Q 1275 266 1275 -31 
Q 1275 -353 1051 -629 
Q 828 -906 344 -1066 
z
" transform="scale(0.015625)"/>
      <path id="TimesNewRomanPSMT-6b" d="M 1047 4444 
L 1047 1597 
L 1775 2259 
Q 2006 2472 2044 2528 
Q 2069 2566 2069 2603 
Q 2069 2666 2017 2711 
Q 1966 2756 1847 2763 
L 1847 2863 
L 3091 2863 
L 3091 2763 
Q 2834 2756 2664 2684 
Q 2494 2613 2291 2428 
L 1556 1750 
L 2291 822 
Q 2597 438 2703 334 
Q 2853 188 2966 144 
Q 3044 113 3238 113 
L 3238 0 
L 1847 0 
L 1847 113 
Q 1966 116 2008 148 
Q 2050 181 2050 241 
Q 2050 313 1925 472 
L 1047 1594 
L 1047 644 
Q 1047 366 1086 278 
Q 1125 191 1197 153 
Q 1269 116 1509 113 
L 1509 0 
L 53 0 
L 53 113 
Q 272 113 381 166 
Q 447 200 481 272 
Q 528 375 528 628 
L 528 3234 
Q 528 3731 506 3842 
Q 484 3953 434 3995 
Q 384 4038 303 4038 
Q 238 4038 106 3984 
L 53 4094 
L 903 4444 
L 1047 4444 
z
" transform="scale(0.015625)"/>
      <path id="TimesNewRomanPSMT-70" d="M -6 2578 
L 875 2934 
L 994 2934 
L 994 2266 
Q 1216 2644 1439 2795 
Q 1663 2947 1909 2947 
Q 2341 2947 2628 2609 
Q 2981 2197 2981 1534 
Q 2981 794 2556 309 
Q 2206 -88 1675 -88 
Q 1444 -88 1275 -22 
Q 1150 25 994 166 
L 994 -706 
Q 994 -1000 1030 -1079 
Q 1066 -1159 1155 -1206 
Q 1244 -1253 1478 -1253 
L 1478 -1369 
L -22 -1369 
L -22 -1253 
L 56 -1253 
Q 228 -1256 350 -1188 
Q 409 -1153 442 -1076 
Q 475 -1000 475 -688 
L 475 2019 
Q 475 2297 450 2372 
Q 425 2447 370 2484 
Q 316 2522 222 2522 
Q 147 2522 31 2478 
L -6 2578 
z
M 994 2081 
L 994 1013 
Q 994 666 1022 556 
Q 1066 375 1236 237 
Q 1406 100 1666 100 
Q 1978 100 2172 344 
Q 2425 663 2425 1241 
Q 2425 1897 2138 2250 
Q 1938 2494 1663 2494 
Q 1513 2494 1366 2419 
Q 1253 2363 994 2081 
z
" transform="scale(0.015625)"/>
     </defs>
     <use xlink:href="#TimesNewRomanPSMT-49"/>
     <use xlink:href="#TimesNewRomanPSMT-6e" x="33.300781"/>
     <use xlink:href="#TimesNewRomanPSMT-73" x="83.300781"/>
     <use xlink:href="#TimesNewRomanPSMT-74" x="122.216797"/>
     <use xlink:href="#TimesNewRomanPSMT-61" x="150"/>
     <use xlink:href="#TimesNewRomanPSMT-6e" x="194.384766"/>
     <use xlink:href="#TimesNewRomanPSMT-63" x="244.384766"/>
     <use xlink:href="#TimesNewRomanPSMT-65" x="288.769531"/>
     <use xlink:href="#TimesNewRomanPSMT-3a" x="333.154297"/>
     <use xlink:href="#TimesNewRomanPSMT-20" x="360.9375"/>
     <use xlink:href="#TimesNewRomanPSMT-4d" x="385.9375"/>
     <use xlink:href="#TimesNewRomanPSMT-46" x="474.853516"/>
     <use xlink:href="#TimesNewRomanPSMT-4a" x="530.46875"/>
     <use xlink:href="#TimesNewRomanPSMT-53" x="569.384766"/>
     <use xlink:href="#TimesNewRomanPSMT-31" x="625"/>
     <use xlink:href="#TimesNewRomanPSMT-30" x="675"/>
     <use xlink:href="#TimesNewRomanPSMT-2c" x="725"/>
     <use xlink:href="#TimesNewRomanPSMT-20" x="750"/>
     <use xlink:href="#TimesNewRomanPSMT-4d" x="775"/>
     <use xlink:href="#TimesNewRomanPSMT-61" x="863.916016"/>
     <use xlink:href="#TimesNewRomanPSMT-6b" x="908.300781"/>
     <use xlink:href="#TimesNewRomanPSMT-65" x="958.300781"/>
     <use xlink:href="#TimesNewRomanPSMT-73" x="1002.685547"/>
     <use xlink:href="#TimesNewRomanPSMT-70" x="1041.601562"/>
     <use xlink:href="#TimesNewRomanPSMT-61" x="1091.601562"/>
     <use xlink:href="#TimesNewRomanPSMT-6e" x="1135.986328"/>
     <use xlink:href="#TimesNewRomanPSMT-3a" x="1185.986328"/>
     <use xlink:href="#TimesNewRomanPSMT-20" x="1213.769531"/>
     <use xlink:href="#TimesNewRomanPSMT-31" x="1238.769531"/>
     <use xlink:href="#TimesNewRomanPSMT-34" x="1288.769531"/>
     <use xlink:href="#TimesNewRomanPSMT-37" x="1338.769531"/>
     <use xlink:href="#TimesNewRomanPSMT-39" x="1388.769531"/>
    </g>
   </g>
  </g>
 </g>
 <defs>
  <clipPath id="p0e22278bc8">
   <rect x="64.15" y="27.0875" width="669.6" height="332.64"/>
  </clipPath>
 </defs>
 <defs>
  <pattern id="h918c3c3221" patternUnits="userSpaceOnUse" x="0" y="0" width="72" height="72">
   <rect x="0" y="0" width="73" height="73" fill="#808080"/>
   <path d="M -36 36 
L 36 -36 
M -24 48 
L 48 -24 
M -12 60 
L 60 -12 
M 0 72 
L 72 0 
M 12 84 
L 84 12 
M 24 96 
L 96 24 
M 36 108 
L 108 36 
" style="fill: #000000; stroke: #000000; stroke-width: 1.0; stroke-linecap: butt; stroke-linejoin: miter"/>
  </pattern>
 </defs>
</svg>
